<svg id="uuid-2c94b3cf-d5fb-43fa-a41a-801b6119f0ee" data-name="Layer 1" xmlns="http://www.w3.org/2000/svg" width="595.276" height="273.176" viewBox="0 0 595.276 273.176">
  <defs>
    <style>
      .uuid-e874fc02-7fe4-49e5-9c31-42cf6c0cb0f1 {
        fill: none;
      }

      .uuid-e874fc02-7fe4-49e5-9c31-42cf6c0cb0f1, .uuid-8a30c1d7-6590-4426-b145-902b1d07135c, .uuid-7681d0be-78a9-4906-b0d0-937913c69f9c {
        stroke: #000;
        stroke-linecap: round;
        stroke-linejoin: round;
      }

      .uuid-0f4f97a9-d123-493b-aeb7-756d677f5358 {
        fill: #e00;
      }

      .uuid-ac9865ea-1c2f-40bb-ad11-ecf4afd5b702, .uuid-d568dcb3-468b-43ab-8808-837ea2fa4def, .uuid-8a30c1d7-6590-4426-b145-902b1d07135c, .uuid-7681d0be-78a9-4906-b0d0-937913c69f9c {
        fill: #fff;
      }

      .uuid-62efb5b5-e17d-4007-ab3f-5dc3a1bc9519 {
        fill: #151515;
      }

      .uuid-d568dcb3-468b-43ab-8808-837ea2fa4def {
        stroke: #b4b4b4;
        stroke-miterlimit: 10;
      }

      .uuid-8a30c1d7-6590-4426-b145-902b1d07135c {
        stroke-width: 1.5px;
      }

      .uuid-7681d0be-78a9-4906-b0d0-937913c69f9c {
        stroke-width: .75px;
      }
    </style>
  </defs>
  <rect class="uuid-d568dcb3-468b-43ab-8808-837ea2fa4def" x="50.112" y="121.033" width="137.755" height="46.169"></rect>
  <g>
    <line class="uuid-ac9865ea-1c2f-40bb-ad11-ecf4afd5b702" x1="228.174" y1="134.437" x2="188.688" y2="134.437"></line>
    <g>
      <line class="uuid-e874fc02-7fe4-49e5-9c31-42cf6c0cb0f1" x1="222.792" y1="134.437" x2="188.688" y2="134.436"></line>
      <polygon points="221.697 130.697 228.174 134.437 221.697 138.176 221.697 130.697"></polygon>
    </g>
  </g>
  <g>
    <line class="uuid-ac9865ea-1c2f-40bb-ad11-ecf4afd5b702" x1="406.001" y1="144.118" x2="366.515" y2="144.118"></line>
    <g>
      <line class="uuid-e874fc02-7fe4-49e5-9c31-42cf6c0cb0f1" x1="400.619" y1="144.118" x2="366.515" y2="144.118"></line>
      <polygon points="399.525 140.378 406.001 144.118 399.525 147.858 399.525 140.378"></polygon>
    </g>
  </g>
  <g>
    <line class="uuid-ac9865ea-1c2f-40bb-ad11-ecf4afd5b702" x1="118.648" y1="206.688" x2="118.648" y2="167.202"></line>
    <g>
      <line class="uuid-e874fc02-7fe4-49e5-9c31-42cf6c0cb0f1" x1="118.648" y1="201.306" x2="118.648" y2="167.202"></line>
      <polygon points="122.388 200.211 118.648 206.688 114.908 200.211 122.388 200.211"></polygon>
    </g>
  </g>
  <g>
    <line class="uuid-ac9865ea-1c2f-40bb-ad11-ecf4afd5b702" x1="118.648" y1="118.504" x2="118.648" y2="79.018"></line>
    <g>
      <line class="uuid-e874fc02-7fe4-49e5-9c31-42cf6c0cb0f1" x1="118.648" y1="113.122" x2="118.648" y2="79.018"></line>
      <polygon points="122.388 112.027 118.648 118.504 114.908 112.027 122.388 112.027"></polygon>
    </g>
  </g>
  <g>
    <line class="uuid-ac9865ea-1c2f-40bb-ad11-ecf4afd5b702" x1="228.174" y1="153.513" x2="188.688" y2="153.513"></line>
    <g>
      <line class="uuid-e874fc02-7fe4-49e5-9c31-42cf6c0cb0f1" x1="228.174" y1="153.513" x2="194.07" y2="153.513"></line>
      <polygon points="195.165 149.773 188.688 153.513 195.165 157.253 195.165 149.773"></polygon>
    </g>
  </g>
  <g>
    <g>
      <path class="uuid-62efb5b5-e17d-4007-ab3f-5dc3a1bc9519" d="m107.251,71.909v-4.486h1.346v4.486c0,1.379.763,2.276,1.952,2.276s1.951-.897,1.951-2.276v-4.486h1.346v4.486c0,2.142-1.278,3.487-3.297,3.487s-3.297-1.346-3.297-3.487Z"></path>
      <path class="uuid-62efb5b5-e17d-4007-ab3f-5dc3a1bc9519" d="m114.909,74.623l.595-.841c.74.459,1.233.639,1.806.639.673,0,1.132-.313,1.132-.763,0-.348-.235-.527-.785-.639l-.987-.169c-1.099-.201-1.626-.706-1.626-1.547,0-1.055.863-1.739,2.176-1.739.785,0,1.492.225,2.209.674l-.595.841c-.572-.37-1.122-.538-1.693-.538-.583,0-.964.246-.964.65,0,.358.202.516.785.616l.998.191c1.122.201,1.66.718,1.66,1.559,0,1.031-.987,1.828-2.299,1.828-.964,0-1.816-.27-2.411-.763Z"></path>
      <path class="uuid-62efb5b5-e17d-4007-ab3f-5dc3a1bc9519" d="m120.526,72.47c0-1.648,1.188-2.905,2.736-2.905,1.537,0,2.658,1.223,2.658,2.905v.303h-4.149c.124.908.808,1.57,1.682,1.57.527,0,1.021-.202,1.335-.527l.83.751c-.684.572-1.368.819-2.22.819-1.615,0-2.871-1.268-2.871-2.916Zm4.194-.482c-.135-.818-.718-1.391-1.469-1.391-.763,0-1.323.55-1.469,1.391h2.938Z"></path>
      <path class="uuid-62efb5b5-e17d-4007-ab3f-5dc3a1bc9519" d="m127.208,69.654h1.267v1.212c.314-.853.853-1.312,1.548-1.312.213.011.359.033.549.112v1.11c-.202-.079-.459-.135-.695-.135-.617,0-1.121.348-1.402.931v3.701h-1.267v-5.619Z"></path>
    </g>
    <g>
      <path class="uuid-8a30c1d7-6590-4426-b145-902b1d07135c" d="m139.905,61.322c0-11.72-9.517-21.22-21.258-21.22s-21.258,9.501-21.258,21.22h42.515Z"></path>
      <ellipse class="uuid-8a30c1d7-6590-4426-b145-902b1d07135c" cx="118.648" cy="29.454" rx="10.672" ry="10.657"></ellipse>
    </g>
  </g>
  <g>
    <path d="m84.554,132.715h-21.768c-.287,0-.519.232-.519.519v21.768c0,.287.232.519.519.519h21.768c.287,0,.519-.232.519-.519h0v-21.768c0-.287-.232-.519-.519-.519h0Zm-.519,21.768h-20.73v-20.73h20.73v20.73Z"></path>
    <path d="m73.034,147.082c.28.061.556-.118.617-.398,0-.004.002-.008.003-.013l1.038-4.889c.057-.283-.12-.561-.402-.628-.286-.053-.562.136-.615.422-.002.01-.003.02-.005.03l-1.047,4.889c-.033.271.144.524.41.586Z"></path>
    <path d="m77.957,144.118l-1.775,1.767c-.229.18-.27.511-.09.74.18.229.511.27.74.09.032-.025.061-.054.086-.086l2.143-2.143c.206-.2.211-.528.011-.734-.004-.004-.007-.007-.011-.011l-2.143-2.135c-.171-.236-.501-.288-.737-.117-.236.171-.288.501-.117.737.033.045.072.084.117.117l1.775,1.775Z"></path>
    <path d="m70.421,146.63c.229.18.561.139.74-.09.151-.193.149-.464-.004-.655l-1.775-1.767,1.775-1.783c.494-.469-.26-1.222-.737-.737l-2.143,2.143c-.206.2-.211.528-.011.734.004.004.007.007.011.011l2.143,2.143Z"></path>
  </g>
  <g>
    <rect class="uuid-d568dcb3-468b-43ab-8808-837ea2fa4def" x="50.112" y="208.21" width="137.755" height="46.169"></rect>
    <path d="m85.295,217.587h-16.102c-.164.007-.321.071-.443.181l-4.026,4.026c-.075.078-.127.176-.151.282v22.301c0,.345.279.624.624.624h20.097c.345,0,.624-.279.624-.624h0v-26.166c0-.345-.279-.624-.624-.624h0Zm-16.726,2.144v1.882h-1.882l1.882-1.882Zm16.102,24.022h-18.88v-20.892h3.402c.345,0,.624-.279.624-.624v-3.402h14.854v24.918Z"></path>
    <g>
      <path class="uuid-62efb5b5-e17d-4007-ab3f-5dc3a1bc9519" d="m97.204,228.52l1.267-.213v5.046l2.333-2.389h1.458l-2.591,2.603,2.725,3.017h-1.615l-2.311-2.591v2.591h-1.267v-8.063Z"></path>
      <path class="uuid-62efb5b5-e17d-4007-ab3f-5dc3a1bc9519" d="m103.225,234.665v-3.701h1.278v3.331c0,.83.482,1.357,1.234,1.357.505,0,.931-.225,1.223-.673v-4.016h1.267v5.619h-1.267v-.908c-.426.661-1.032.998-1.783.998-1.144,0-1.952-.83-1.952-2.008Z"></path>
      <path class="uuid-62efb5b5-e17d-4007-ab3f-5dc3a1bc9519" d="m109.795,228.575l1.267-.213v3.354c.393-.494,1.021-.797,1.727-.797,1.424,0,2.535,1.268,2.535,2.86,0,1.604-1.144,2.859-2.613,2.859-.662,0-1.245-.269-1.671-.773v.718h-1.245v-8.008Zm4.284,5.204c0-1.021-.718-1.795-1.671-1.795-.561,0-1.021.225-1.346.629v2.344c.325.393.808.628,1.346.628.964,0,1.671-.774,1.671-1.806Z"></path>
      <path class="uuid-62efb5b5-e17d-4007-ab3f-5dc3a1bc9519" d="m116.388,233.779c0-1.648,1.188-2.905,2.736-2.905,1.537,0,2.658,1.223,2.658,2.905v.303h-4.149c.124.908.808,1.57,1.682,1.57.527,0,1.021-.202,1.335-.527l.83.751c-.684.572-1.368.819-2.22.819-1.615,0-2.871-1.268-2.871-2.916Zm4.194-.482c-.135-.818-.718-1.391-1.469-1.391-.763,0-1.323.55-1.469,1.391h2.938Z"></path>
      <path class="uuid-62efb5b5-e17d-4007-ab3f-5dc3a1bc9519" d="m122.812,233.779c0-1.626,1.233-2.905,2.837-2.905.875,0,1.682.348,2.243.954l-.785.818c-.393-.438-.875-.662-1.414-.662-.908,0-1.615.785-1.615,1.795,0,1.021.707,1.794,1.615,1.794.539,0,1.021-.224,1.414-.65l.785.808c-.561.605-1.368.953-2.243.953-1.604,0-2.837-1.267-2.837-2.904Z"></path>
      <path class="uuid-62efb5b5-e17d-4007-ab3f-5dc3a1bc9519" d="m128.676,233.779c0-1.66,1.211-2.905,2.826-2.905,1.604,0,2.815,1.245,2.815,2.905s-1.211,2.904-2.815,2.904c-1.615,0-2.826-1.244-2.826-2.904Zm4.396,0c0-1.043-.662-1.828-1.57-1.828-.92,0-1.582.785-1.582,1.828,0,1.054.662,1.828,1.582,1.828.908,0,1.57-.774,1.57-1.828Z"></path>
      <path class="uuid-62efb5b5-e17d-4007-ab3f-5dc3a1bc9519" d="m135.627,230.964h1.267v.92c.426-.662,1.043-1.01,1.772-1.01,1.155,0,1.963.819,1.963,2.008v3.701h-1.279v-3.342c0-.819-.482-1.346-1.233-1.346-.516,0-.931.235-1.223.684v4.004h-1.267v-5.619Z"></path>
      <path class="uuid-62efb5b5-e17d-4007-ab3f-5dc3a1bc9519" d="m142.916,231.974h-1.211v-1.01h1.211v-.964c0-1.223.684-1.885,1.94-1.885.314,0,.628.034.841.102v1.076c-.28-.056-.449-.078-.673-.078-.583,0-.841.258-.841.808v.941h1.514v1.01h-1.514v4.609h-1.267v-4.609Z"></path>
      <path class="uuid-62efb5b5-e17d-4007-ab3f-5dc3a1bc9519" d="m146.604,229.046c0-.426.348-.784.785-.784.426,0,.785.358.785.784s-.359.774-.785.774c-.438,0-.785-.348-.785-.774Zm.146,1.918h1.267v5.619h-1.267v-5.619Z"></path>
      <path class="uuid-62efb5b5-e17d-4007-ab3f-5dc3a1bc9519" d="m149.957,238.489l.438-.931c.662.325,1.2.471,1.761.471.942,0,1.436-.426,1.436-1.244v-.953c-.404.493-1.021.784-1.728.784-1.424,0-2.534-1.267-2.534-2.859s1.155-2.838,2.624-2.838c.65,0,1.234.259,1.649.752v-.707h1.256v5.821c0,1.446-.942,2.254-2.647,2.254-.807,0-1.592-.202-2.254-.55Zm3.634-3.544v-2.354c-.325-.382-.808-.606-1.335-.606-.964,0-1.682.752-1.682,1.783,0,1.021.718,1.795,1.682,1.795.55,0,1.01-.225,1.335-.617Z"></path>
      <path class="uuid-62efb5b5-e17d-4007-ab3f-5dc3a1bc9519" d="m159.7,231.974h-1.211v-1.01h1.211v-.964c0-1.223.684-1.885,1.94-1.885.314,0,.628.034.841.102v1.076c-.28-.056-.449-.078-.673-.078-.583,0-.841.258-.841.808v.941h1.514v1.01h-1.514v4.609h-1.267v-4.609Z"></path>
      <path class="uuid-62efb5b5-e17d-4007-ab3f-5dc3a1bc9519" d="m163.388,229.046c0-.426.348-.784.785-.784.426,0,.785.358.785.784s-.359.774-.785.774c-.438,0-.785-.348-.785-.774Zm.146,1.918h1.267v5.619h-1.267v-5.619Z"></path>
      <path class="uuid-62efb5b5-e17d-4007-ab3f-5dc3a1bc9519" d="m166.371,228.542l1.267-.225v8.266h-1.267v-8.041Z"></path>
      <path class="uuid-62efb5b5-e17d-4007-ab3f-5dc3a1bc9519" d="m168.939,233.779c0-1.648,1.188-2.905,2.736-2.905,1.537,0,2.658,1.223,2.658,2.905v.303h-4.15c.124.908.808,1.57,1.682,1.57.527,0,1.021-.202,1.335-.527l.83.751c-.684.572-1.368.819-2.22.819-1.615,0-2.871-1.268-2.871-2.916Zm4.194-.482c-.135-.818-.718-1.391-1.469-1.391-.763,0-1.323.55-1.469,1.391h2.938Z"></path>
    </g>
  </g>
  <g>
    <path class="uuid-62efb5b5-e17d-4007-ab3f-5dc3a1bc9519" d="m98.032,144.42c0-1.66,1.211-2.905,2.826-2.905,1.604,0,2.815,1.245,2.815,2.905s-1.211,2.904-2.815,2.904c-1.615,0-2.826-1.244-2.826-2.904Zm4.396,0c0-1.043-.662-1.828-1.57-1.828-.92,0-1.582.785-1.582,1.828,0,1.054.662,1.828,1.582,1.828.908,0,1.57-.774,1.57-1.828Z"></path>
    <path class="uuid-62efb5b5-e17d-4007-ab3f-5dc3a1bc9519" d="m104.725,144.42c0-1.626,1.233-2.905,2.837-2.905.875,0,1.682.348,2.243.954l-.785.818c-.393-.438-.875-.662-1.414-.662-.908,0-1.615.785-1.615,1.795,0,1.021.707,1.794,1.615,1.794.539,0,1.021-.224,1.414-.65l.785.808c-.561.605-1.368.953-2.243.953-1.604,0-2.837-1.267-2.837-2.904Z"></path>
    <path class="uuid-62efb5b5-e17d-4007-ab3f-5dc3a1bc9519" d="m113.37,139.183l1.267-.225v8.266h-1.267v-8.041Z"></path>
    <path class="uuid-62efb5b5-e17d-4007-ab3f-5dc3a1bc9519" d="m115.938,144.42c0-1.66,1.211-2.905,2.826-2.905,1.604,0,2.815,1.245,2.815,2.905s-1.211,2.904-2.815,2.904c-1.615,0-2.826-1.244-2.826-2.904Zm4.396,0c0-1.043-.662-1.828-1.57-1.828-.92,0-1.582.785-1.582,1.828,0,1.054.662,1.828,1.582,1.828.908,0,1.57-.774,1.57-1.828Z"></path>
    <path class="uuid-62efb5b5-e17d-4007-ab3f-5dc3a1bc9519" d="m123.259,149.13l.438-.931c.662.325,1.2.471,1.761.471.942,0,1.436-.426,1.436-1.244v-.953c-.404.493-1.021.784-1.728.784-1.424,0-2.534-1.267-2.534-2.859s1.155-2.838,2.624-2.838c.65,0,1.234.259,1.649.752v-.707h1.256v5.821c0,1.446-.942,2.254-2.646,2.254-.808,0-1.593-.202-2.254-.55Zm3.634-3.544v-2.354c-.325-.382-.808-.606-1.335-.606-.964,0-1.682.752-1.682,1.783,0,1.021.718,1.795,1.682,1.795.55,0,1.01-.225,1.335-.617Z"></path>
    <path class="uuid-62efb5b5-e17d-4007-ab3f-5dc3a1bc9519" d="m129.56,139.687c0-.426.348-.784.785-.784.426,0,.785.358.785.784s-.359.774-.785.774c-.438,0-.785-.348-.785-.774Zm.146,1.918h1.267v5.619h-1.267v-5.619Z"></path>
    <path class="uuid-62efb5b5-e17d-4007-ab3f-5dc3a1bc9519" d="m132.542,141.605h1.267v.92c.426-.662,1.043-1.01,1.772-1.01,1.155,0,1.963.819,1.963,2.008v3.701h-1.279v-3.342c0-.819-.482-1.346-1.233-1.346-.516,0-.931.235-1.223.684v4.004h-1.267v-5.619Z"></path>
  </g>
  <rect class="uuid-d568dcb3-468b-43ab-8808-837ea2fa4def" x="228.76" y="121.033" width="137.755" height="46.169"></rect>
  <g>
    <path class="uuid-62efb5b5-e17d-4007-ab3f-5dc3a1bc9519" d="m278.978,137.131c0-2.265,1.75-4.048,3.97-4.048s3.97,1.783,3.97,4.048-1.75,4.049-3.97,4.049-3.97-1.783-3.97-4.049Zm6.561,0c0-1.614-1.122-2.837-2.591-2.837s-2.602,1.223-2.602,2.837,1.132,2.838,2.602,2.838,2.591-1.223,2.591-2.838Z"></path>
    <path class="uuid-62efb5b5-e17d-4007-ab3f-5dc3a1bc9519" d="m288.285,135.438h1.245v.797c.404-.527,1.032-.842,1.75-.842,1.425,0,2.535,1.268,2.535,2.86,0,1.604-1.144,2.859-2.613,2.859-.662,0-1.245-.246-1.649-.718v3.006h-1.267v-7.963Zm4.284,2.815c0-1.021-.718-1.795-1.671-1.795-.561,0-1.021.225-1.346.629v2.344c.325.393.808.628,1.346.628.964,0,1.671-.774,1.671-1.806Z"></path>
    <path class="uuid-62efb5b5-e17d-4007-ab3f-5dc3a1bc9519" d="m294.877,138.253c0-1.648,1.188-2.905,2.736-2.905,1.536,0,2.658,1.223,2.658,2.905v.303h-4.149c.123.908.807,1.57,1.682,1.57.527,0,1.021-.202,1.334-.527l.83.751c-.685.572-1.368.819-2.22.819-1.615,0-2.871-1.268-2.871-2.916Zm4.194-.482c-.134-.818-.717-1.391-1.469-1.391-.762,0-1.323.55-1.469,1.391h2.938Z"></path>
    <path class="uuid-62efb5b5-e17d-4007-ab3f-5dc3a1bc9519" d="m301.56,135.438h1.268v.92c.426-.662,1.043-1.01,1.771-1.01,1.155,0,1.963.819,1.963,2.008v3.701h-1.278v-3.342c0-.819-.482-1.346-1.234-1.346-.516,0-.931.235-1.222.684v4.004h-1.268v-5.619Z"></path>
    <path class="uuid-62efb5b5-e17d-4007-ab3f-5dc3a1bc9519" d="m307.569,139.913l.729-.987c1.01.83,1.738,1.144,2.646,1.144,1.032,0,1.75-.526,1.75-1.256,0-.639-.381-.942-1.425-1.121l-1.446-.247c-1.357-.247-2.019-.92-2.019-1.996,0-1.425,1.133-2.366,2.894-2.366,1.178,0,2.254.348,3.151,1.009l-.685,1.01c-.785-.595-1.626-.908-2.512-.908-.942,0-1.57.481-1.57,1.121,0,.572.359.863,1.211.998l1.402.235c1.581.28,2.321.976,2.321,2.165,0,1.446-1.278,2.467-3.151,2.467-1.233,0-2.299-.426-3.297-1.267Z"></path>
    <path class="uuid-62efb5b5-e17d-4007-ab3f-5dc3a1bc9519" d="m315.227,133.016l1.268-.225v3.566c.426-.662,1.043-1.01,1.771-1.01,1.155,0,1.963.819,1.963,2.008v3.701h-1.278v-3.342c0-.819-.482-1.346-1.234-1.346-.516,0-.931.235-1.222.684v4.004h-1.268v-8.041Z"></path>
    <path class="uuid-62efb5b5-e17d-4007-ab3f-5dc3a1bc9519" d="m321.595,133.521c0-.427.348-.785.785-.785.426,0,.785.358.785.785s-.359.773-.785.773c-.438,0-.785-.348-.785-.773Zm.146,1.917h1.268v5.619h-1.268v-5.619Z"></path>
    <path class="uuid-62efb5b5-e17d-4007-ab3f-5dc3a1bc9519" d="m325.341,136.447h-1.211v-1.01h1.211v-.964c0-1.223.684-1.885,1.94-1.885.313,0,.628.034.841.102v1.076c-.28-.056-.448-.078-.673-.078-.583,0-.841.258-.841.808v.941h1.514v1.01h-1.514v4.609h-1.268v-4.609Z"></path>
    <path class="uuid-62efb5b5-e17d-4007-ab3f-5dc3a1bc9519" d="m329.881,139.599v-3.151h-1.122v-1.01h1.122v-1.548l1.268-.269v1.816h1.559v1.01h-1.559v2.871c0,.55.213.763.785.763.246,0,.426-.034.763-.135v1.065c-.326.101-.752.157-1.088.157-1.133,0-1.728-.538-1.728-1.57Z"></path>
    <path class="uuid-62efb5b5-e17d-4007-ab3f-5dc3a1bc9519" d="m278.978,149.465c0-2.265,1.75-4.048,3.97-4.048s3.97,1.783,3.97,4.048-1.75,4.049-3.97,4.049-3.97-1.783-3.97-4.049Zm6.561,0c0-1.614-1.122-2.837-2.591-2.837s-2.602,1.223-2.602,2.837,1.132,2.838,2.602,2.838,2.591-1.223,2.591-2.838Z"></path>
    <path class="uuid-62efb5b5-e17d-4007-ab3f-5dc3a1bc9519" d="m290.651,145.54h1.559l3.04,7.851h-1.447l-.807-2.198h-3.219l-.808,2.198h-1.402l3.084-7.851Zm1.974,4.599l-1.234-3.32-1.222,3.32h2.456Z"></path>
    <path class="uuid-62efb5b5-e17d-4007-ab3f-5dc3a1bc9519" d="m296.054,151.473v-3.701h1.278v3.331c0,.83.482,1.357,1.233,1.357.504,0,.931-.225,1.222-.673v-4.016h1.268v5.619h-1.268v-.908c-.426.661-1.031.998-1.783.998-1.144,0-1.951-.83-1.951-2.008Z"></path>
    <path class="uuid-62efb5b5-e17d-4007-ab3f-5dc3a1bc9519" d="m303.319,151.933v-3.151h-1.121v-1.01h1.121v-1.548l1.268-.269v1.816h1.559v1.01h-1.559v2.871c0,.55.213.763.785.763.246,0,.426-.034.763-.135v1.065c-.326.101-.752.157-1.088.157-1.133,0-1.728-.538-1.728-1.57Z"></path>
    <path class="uuid-62efb5b5-e17d-4007-ab3f-5dc3a1bc9519" d="m307.266,145.35l1.268-.225v3.566c.426-.662,1.043-1.01,1.771-1.01,1.155,0,1.963.819,1.963,2.008v3.701h-1.278v-3.342c0-.819-.482-1.346-1.234-1.346-.516,0-.931.235-1.222.684v4.004h-1.268v-8.041Z"></path>
    <path class="uuid-62efb5b5-e17d-4007-ab3f-5dc3a1bc9519" d="m315.799,152.247l.729-.987c1.01.83,1.738,1.144,2.646,1.144,1.032,0,1.75-.526,1.75-1.256,0-.639-.381-.942-1.425-1.121l-1.446-.247c-1.357-.247-2.019-.92-2.019-1.996,0-1.425,1.133-2.366,2.894-2.366,1.178,0,2.254.348,3.151,1.009l-.685,1.01c-.785-.595-1.626-.908-2.512-.908-.942,0-1.57.481-1.57,1.121,0,.572.359.863,1.211.998l1.402.235c1.581.28,2.321.976,2.321,2.165,0,1.446-1.278,2.467-3.151,2.467-1.233,0-2.299-.426-3.297-1.267Z"></path>
    <path class="uuid-62efb5b5-e17d-4007-ab3f-5dc3a1bc9519" d="m323.198,150.587c0-1.648,1.188-2.905,2.736-2.905,1.536,0,2.658,1.223,2.658,2.905v.303h-4.149c.123.908.807,1.57,1.682,1.57.527,0,1.021-.202,1.335-.527l.83.751c-.685.572-1.368.819-2.221.819-1.615,0-2.871-1.268-2.871-2.916Zm4.194-.482c-.135-.818-.718-1.391-1.47-1.391-.762,0-1.323.55-1.469,1.391h2.938Z"></path>
    <path class="uuid-62efb5b5-e17d-4007-ab3f-5dc3a1bc9519" d="m329.881,147.772h1.268v1.212c.313-.853.852-1.312,1.547-1.312.214.011.359.033.55.112v1.11c-.201-.079-.46-.135-.695-.135-.616,0-1.121.348-1.401.931v3.701h-1.268v-5.619Z"></path>
    <path class="uuid-62efb5b5-e17d-4007-ab3f-5dc3a1bc9519" d="m333.625,147.772h1.38l1.57,4.083,1.559-4.083h1.323l-2.311,5.619h-1.233l-2.288-5.619Z"></path>
    <path class="uuid-62efb5b5-e17d-4007-ab3f-5dc3a1bc9519" d="m340.106,150.587c0-1.648,1.188-2.905,2.736-2.905,1.536,0,2.658,1.223,2.658,2.905v.303h-4.149c.123.908.807,1.57,1.682,1.57.527,0,1.021-.202,1.335-.527l.83.751c-.685.572-1.368.819-2.221.819-1.615,0-2.871-1.268-2.871-2.916Zm4.194-.482c-.135-.818-.718-1.391-1.47-1.391-.762,0-1.323.55-1.469,1.391h2.938Z"></path>
    <path class="uuid-62efb5b5-e17d-4007-ab3f-5dc3a1bc9519" d="m346.789,147.772h1.268v1.212c.313-.853.852-1.312,1.547-1.312.214.011.359.033.55.112v1.11c-.201-.079-.46-.135-.695-.135-.616,0-1.121.348-1.401.931v3.701h-1.268v-5.619Z"></path>
  </g>
  <rect class="uuid-d568dcb3-468b-43ab-8808-837ea2fa4def" x="407.409" y="121.033" width="137.755" height="46.169"></rect>
  <g>
    <path class="uuid-62efb5b5-e17d-4007-ab3f-5dc3a1bc9519" d="m455.687,141.557h1.346v7.851h-1.346v-7.851Z"></path>
    <path class="uuid-62efb5b5-e17d-4007-ab3f-5dc3a1bc9519" d="m458.445,146.604c0-1.604,1.155-2.86,2.624-2.86.64,0,1.223.259,1.638.729v-3.106l1.268-.225v8.266h-1.257v-.74c-.403.505-1.031.796-1.738.796-1.424,0-2.534-1.267-2.534-2.859Zm4.262,1.178v-2.366c-.325-.382-.808-.606-1.335-.606-.964,0-1.682.763-1.682,1.795,0,1.021.718,1.794,1.682,1.794.55,0,1.01-.213,1.335-.616Z"></path>
    <path class="uuid-62efb5b5-e17d-4007-ab3f-5dc3a1bc9519" d="m465.699,141.557h3.51c1.593,0,2.625.998,2.625,2.445,0,1.413-1.032,2.411-2.625,2.411h-2.164v2.994h-1.346v-7.851Zm3.297,3.757c.953,0,1.48-.527,1.48-1.323,0-.773-.527-1.301-1.469-1.301h-1.963v2.624h1.951Z"></path>
  </g>
  <g>
    <g>
      <path d="m262.96,132.715h-22.357c-.29-.005-.528.226-.533.516,0,.006,0,.012,0,.017v22.357c-.005.29.226.528.516.533.006,0,.012,0,.017,0h14.618c.294,0,.533-.239.533-.533,0-.294-.239-.533-.533-.533h-14.085v-21.291h21.291v13.225c0,.294.239.533.533.533.294,0,.533-.239.533-.533v-13.758c.005-.29-.226-.528-.516-.533-.006,0-.012,0-.017,0Z"></path>
      <path d="m263.072,149.586l-2.58-.55c-.074-.017-.15-.017-.224,0l-2.58.55c-.247.053-.423.272-.421.525v2.975c0,1.719,1.394,3.113,3.113,3.113s3.113-1.394,3.113-3.113v-2.992c-.006-.246-.181-.456-.421-.507Z"></path>
    </g>
    <path d="m257.801,136.146c-.296.005-.533.246-.533.542.038.297.309.507.606.469.245-.031.438-.224.469-.469,0-.299-.243-.542-.542-.542Z"></path>
    <path d="m259.52,136.146c-.296.005-.533.246-.533.542.038.297.309.507.606.469.245-.031.438-.224.469-.469,0-.299-.243-.542-.542-.542Z"></path>
  </g>
  <g>
    <path class="uuid-7681d0be-78a9-4906-b0d0-937913c69f9c" d="m418.49,140.968v6.3c0,3.479,5.105,6.3,11.403,6.3s11.403-2.82,11.403-6.3v-6.3"></path>
    <ellipse class="uuid-7681d0be-78a9-4906-b0d0-937913c69f9c" cx="429.892" cy="140.968" rx="11.403" ry="6.3"></ellipse>
  </g>
  <g>
    <circle class="uuid-0f4f97a9-d123-493b-aeb7-756d677f5358" cx="133.2" cy="95.612" r="8.97"></circle>
    <path class="uuid-ac9865ea-1c2f-40bb-ad11-ecf4afd5b702" d="m132.754,93.676l-1.362.562v-1.343l1.925-.8h.958v6.911h-1.521v-5.331Z"></path>
  </g>
  <g>
    <circle class="uuid-0f4f97a9-d123-493b-aeb7-756d677f5358" cx="208.431" cy="118.356" r="8.97"></circle>
    <path class="uuid-ac9865ea-1c2f-40bb-ad11-ecf4afd5b702" d="m205.765,120.665l2.922-2.893c.326-.316.464-.612.464-.938,0-.444-.434-.78-1.017-.78-.622,0-1.116.237-1.748.849l-.849-1.036c.79-.751,1.688-1.136,2.646-1.136,1.471,0,2.448.8,2.448,2.004,0,.652-.276,1.205-.898,1.807l-1.994,1.926,2.991-.01v1.293h-4.966v-1.086Z"></path>
  </g>
  <g>
    <circle class="uuid-0f4f97a9-d123-493b-aeb7-756d677f5358" cx="386.258" cy="127.326" r="8.97"></circle>
    <path class="uuid-ac9865ea-1c2f-40bb-ad11-ecf4afd5b702" d="m383.216,129.714l1.027-.948c.513.553.918.73,1.678.73.751,0,1.244-.335,1.244-.849,0-.444-.355-.721-.908-.721h-.889v-1.254h.73c.563,0,.898-.286.898-.77,0-.494-.464-.85-1.086-.85-.671,0-1.066.197-1.609.79l-1.036-.938c.651-.751,1.668-1.205,2.705-1.205,1.511,0,2.557.819,2.557,1.994,0,.751-.533,1.353-1.312,1.58.908.178,1.49.74,1.49,1.5,0,1.195-1.155,2.054-2.764,2.054-1.106,0-2.113-.414-2.726-1.115Z"></path>
  </g>
  <g>
    <circle class="uuid-0f4f97a9-d123-493b-aeb7-756d677f5358" cx="208.431" cy="167.202" r="8.97"></circle>
    <path class="uuid-ac9865ea-1c2f-40bb-ad11-ecf4afd5b702" d="m208.939,169.067h-3.89v-1.293l3.623-4.088h1.866v4.048h.859v1.333h-.859v1.53h-1.6v-1.53Zm0-1.333v-2.29l-2.043,2.29h2.043Z"></path>
  </g>
  <g>
    <circle class="uuid-0f4f97a9-d123-493b-aeb7-756d677f5358" cx="133.2" cy="185.142" r="8.97"></circle>
    <path class="uuid-ac9865ea-1c2f-40bb-ad11-ecf4afd5b702" d="m130.242,187.718l.908-1.057c.583.474,1.086.672,1.698.672.72,0,1.204-.396,1.204-.997,0-.583-.543-1.008-1.273-1.008-.375,0-.73.119-1.125.336l-1.096-.325.168-3.713h4.521v1.294h-3.179l-.069,1.5c.474-.217.888-.267,1.283-.267,1.402,0,2.33.84,2.33,2.104,0,1.432-1.146,2.389-2.843,2.389-.958,0-1.816-.315-2.527-.928Z"></path>
  </g>
</svg>