<svg id="uuid-bdefed53-a021-4c44-851e-938a652ab6e1" data-name="Layer 1" xmlns="http://www.w3.org/2000/svg" width="595.276" height="224.266" viewBox="0 0 595.276 224.266">
  <defs>
    <style>
      .uuid-3a610dac-6856-4ae9-bd1d-6bcb4499b05f {
        stroke: #3f9c35;
      }

      .uuid-3a610dac-6856-4ae9-bd1d-6bcb4499b05f, .uuid-98f26c6d-782d-4057-929b-df5a92f8cb9b {
        fill: none;
        stroke-miterlimit: 10;
      }

      .uuid-98f26c6d-782d-4057-929b-df5a92f8cb9b {
        stroke: #06c;
      }

      .uuid-3c0102fb-1b2a-4ae5-85d9-f89e198fc37d {
        fill: #3f9c35;
      }

      .uuid-3c0102fb-1b2a-4ae5-85d9-f89e198fc37d, .uuid-5e2be029-73fe-45e0-bfc1-1fef7f8a05cc, .uuid-fd02efd8-1c99-404b-8284-78487b1adc6e, .uuid-9b21f39a-4b54-4b47-af77-e8e9ab459104, .uuid-1f331811-a9d3-4ff9-ae6e-2a46d0220c1e, .uuid-903fd8b7-7270-4654-87c6-d127816db9b6 {
        stroke-width: 0px;
      }

      .uuid-5e2be029-73fe-45e0-bfc1-1fef7f8a05cc {
        fill: #231f20;
      }

      .uuid-fd02efd8-1c99-404b-8284-78487b1adc6e {
        fill: #aaa;
      }

      .uuid-9b21f39a-4b54-4b47-af77-e8e9ab459104 {
        fill: #fff;
      }

      .uuid-1f331811-a9d3-4ff9-ae6e-2a46d0220c1e {
        fill: #e6e6e5;
      }

      .uuid-903fd8b7-7270-4654-87c6-d127816db9b6 {
        fill: #06c;
      }
    </style>
  </defs>
  <rect class="uuid-fd02efd8-1c99-404b-8284-78487b1adc6e" x="23.126" y="13.828" width="109.987" height="49.942"></rect>
  <rect class="uuid-fd02efd8-1c99-404b-8284-78487b1adc6e" x="23.126" y="71.683" width="109.987" height="81.001"></rect>
  <rect class="uuid-fd02efd8-1c99-404b-8284-78487b1adc6e" x="23.126" y="160.699" width="109.987" height="49.739"></rect>
  <rect class="uuid-1f331811-a9d3-4ff9-ae6e-2a46d0220c1e" x="142.586" y="13.828" width="103.945" height="49.942"></rect>
  <rect class="uuid-1f331811-a9d3-4ff9-ae6e-2a46d0220c1e" x="251.125" y="13.828" width="103.945" height="49.942"></rect>
  <rect class="uuid-1f331811-a9d3-4ff9-ae6e-2a46d0220c1e" x="359.665" y="13.828" width="103.945" height="49.942"></rect>
  <rect class="uuid-1f331811-a9d3-4ff9-ae6e-2a46d0220c1e" x="468.204" y="13.828" width="103.945" height="49.942"></rect>
  <rect class="uuid-98f26c6d-782d-4057-929b-df5a92f8cb9b" x="142.586" y="97.368" width="212.485" height="28.826"></rect>
  <rect class="uuid-3a610dac-6856-4ae9-bd1d-6bcb4499b05f" x="359.665" y="97.368" width="212.485" height="28.826"></rect>
  <rect class="uuid-1f331811-a9d3-4ff9-ae6e-2a46d0220c1e" x="142.586" y="160.699" width="82.237" height="49.739"></rect>
  <rect class="uuid-1f331811-a9d3-4ff9-ae6e-2a46d0220c1e" x="229.418" y="160.699" width="82.237" height="49.739"></rect>
  <rect class="uuid-1f331811-a9d3-4ff9-ae6e-2a46d0220c1e" x="316.249" y="160.699" width="82.237" height="49.739"></rect>
  <rect class="uuid-1f331811-a9d3-4ff9-ae6e-2a46d0220c1e" x="403.081" y="160.699" width="82.237" height="49.739"></rect>
  <rect class="uuid-1f331811-a9d3-4ff9-ae6e-2a46d0220c1e" x="489.912" y="160.699" width="82.237" height="49.739"></rect>
  <g>
    <path class="uuid-9b21f39a-4b54-4b47-af77-e8e9ab459104" d="M31.181,34.424h2.159l1.689,3.358,1.679-3.358h2.159v6.996h-1.619v-4.747l-2.239,4.247-2.249-4.287v4.787h-1.579v-6.996Z"></path>
    <path class="uuid-9b21f39a-4b54-4b47-af77-e8e9ab459104" d="M39.941,39.941c0-.949.74-1.499,2.009-1.499.37,0,.739.07,1.199.24v-.42c0-.5-.33-.75-1.02-.75-.39,0-.85.11-1.449.36l-.56-1.13c.85-.38,1.609-.56,2.369-.56,1.429,0,2.259.71,2.259,1.939v3.298h-1.599v-.45c-.45.38-.88.53-1.429.53-1.049,0-1.779-.64-1.779-1.56ZM42.219,40.431c.34,0,.65-.09.93-.26v-.66c-.3-.069-.59-.109-.89-.109-.53,0-.83.18-.83.51s.29.52.79.52Z"></path>
    <path class="uuid-9b21f39a-4b54-4b47-af77-e8e9ab459104" d="M45.741,38.852c0-1.51,1.159-2.669,2.668-2.669.85,0,1.629.34,2.149.949l-.99.99c-.33-.39-.66-.56-1.099-.56-.64,0-1.12.549-1.12,1.289s.48,1.289,1.12,1.289c.439,0,.77-.17,1.099-.56l.99.989c-.52.609-1.299.949-2.149.949-1.509,0-2.668-1.159-2.668-2.668Z"></path>
    <path class="uuid-9b21f39a-4b54-4b47-af77-e8e9ab459104" d="M51.361,34.304l1.619-.25v3.049c.4-.6.959-.92,1.629-.92,1,0,1.709.729,1.709,1.759v3.479h-1.619v-3.009c0-.579-.34-.959-.859-.959-.35,0-.63.14-.86.43v3.538h-1.619v-7.116Z"></path>
    <path class="uuid-9b21f39a-4b54-4b47-af77-e8e9ab459104" d="M57.441,34.564c0-.499.41-.909.91-.909s.909.41.909.909-.41.91-.909.91-.91-.41-.91-.91ZM57.541,36.263h1.619v5.157h-1.619v-5.157Z"></path>
    <path class="uuid-9b21f39a-4b54-4b47-af77-e8e9ab459104" d="M60.421,36.263h1.619v.84c.4-.6.959-.92,1.629-.92,1,0,1.709.729,1.709,1.759v3.479h-1.619v-3.009c0-.579-.34-.959-.859-.959-.35,0-.63.14-.86.43v3.538h-1.619v-5.157Z"></path>
    <path class="uuid-9b21f39a-4b54-4b47-af77-e8e9ab459104" d="M66.371,38.852c0-1.51,1.119-2.669,2.599-2.669,1.489,0,2.539,1.13,2.539,2.729v.35h-3.548c.15.58.62.97,1.209.97.43,0,.79-.149,1.02-.43l1.069.89c-.669.59-1.299.829-2.169.829-1.519,0-2.718-1.169-2.718-2.668ZM70.008,38.342c-.14-.55-.529-.899-1.049-.899-.51,0-.87.329-1,.899h2.049Z"></path>
    <path class="uuid-9b21f39a-4b54-4b47-af77-e8e9ab459104" d="M72.341,37.922c0-2.039,1.609-3.608,3.688-3.608,1.12,0,2.229.53,2.838,1.359l-1.159,1.1c-.46-.62-1.02-.93-1.679-.93-1.089,0-1.909.89-1.909,2.079s.819,2.079,1.909,2.079c.66,0,1.219-.311,1.679-.93l1.159,1.1c-.609.829-1.719,1.359-2.838,1.359-2.079,0-3.688-1.569-3.688-3.608Z"></path>
    <path class="uuid-9b21f39a-4b54-4b47-af77-e8e9ab459104" d="M79.341,38.852c0-1.52,1.159-2.669,2.688-2.669s2.688,1.149,2.688,2.669-1.159,2.668-2.688,2.668-2.688-1.149-2.688-2.668ZM83.138,38.852c0-.77-.46-1.319-1.109-1.319s-1.109.55-1.109,1.319.459,1.319,1.109,1.319,1.109-.55,1.109-1.319Z"></path>
    <path class="uuid-9b21f39a-4b54-4b47-af77-e8e9ab459104" d="M85.75,36.263h1.619v.84c.4-.6.959-.92,1.629-.92,1,0,1.709.729,1.709,1.759v3.479h-1.619v-3.009c0-.579-.34-.959-.859-.959-.35,0-.63.14-.86.43v3.538h-1.619v-5.157Z"></path>
    <path class="uuid-9b21f39a-4b54-4b47-af77-e8e9ab459104" d="M92.54,37.512h-1.069v-1.249h1.069v-.68c0-1.229.729-1.898,2.059-1.898.28,0,.649.04.859.1v1.329c-.29-.05-.44-.06-.62-.06-.46,0-.68.18-.68.56v.649h1.299v1.249h-1.299v3.908h-1.619v-3.908Z"></path>
    <path class="uuid-9b21f39a-4b54-4b47-af77-e8e9ab459104" d="M96.28,34.564c0-.499.41-.909.909-.909s.91.41.91.909-.41.91-.91.91-.909-.41-.909-.91ZM96.38,36.263h1.619v5.157h-1.619v-5.157Z"></path>
    <path class="uuid-9b21f39a-4b54-4b47-af77-e8e9ab459104" d="M99.56,43.15l.5-1.17c.57.27,1.08.399,1.579.399.77,0,1.169-.319,1.169-.949v-.699c-.34.42-.899.68-1.499.68-1.27,0-2.279-1.159-2.279-2.599s1.059-2.579,2.398-2.579c.55,0,1.049.23,1.399.65v-.62h1.589v5.188c0,1.389-.959,2.158-2.718,2.158-.78,0-1.519-.159-2.139-.459ZM102.808,39.681v-1.719c-.25-.26-.59-.399-.959-.399-.709,0-1.229.529-1.229,1.259s.53,1.27,1.229,1.27c.39,0,.709-.14.959-.41Z"></path>
  </g>
  <g>
    <path class="uuid-9b21f39a-4b54-4b47-af77-e8e9ab459104" d="M31.181,107.553h2.159l1.689,3.358,1.679-3.358h2.159v6.996h-1.619v-4.747l-2.239,4.247-2.249-4.287v4.787h-1.579v-6.996Z"></path>
    <path class="uuid-9b21f39a-4b54-4b47-af77-e8e9ab459104" d="M39.941,113.07c0-.949.74-1.499,2.009-1.499.37,0,.739.07,1.199.24v-.42c0-.5-.33-.75-1.02-.75-.39,0-.85.11-1.449.36l-.56-1.13c.85-.38,1.609-.56,2.369-.56,1.429,0,2.259.71,2.259,1.939v3.298h-1.599v-.45c-.45.38-.88.53-1.429.53-1.049,0-1.779-.64-1.779-1.56ZM42.219,113.56c.34,0,.65-.09.93-.26v-.66c-.3-.069-.59-.109-.89-.109-.53,0-.83.18-.83.51s.29.52.79.52Z"></path>
    <path class="uuid-9b21f39a-4b54-4b47-af77-e8e9ab459104" d="M45.741,111.981c0-1.51,1.159-2.669,2.668-2.669.85,0,1.629.34,2.149.949l-.99.99c-.33-.39-.66-.56-1.099-.56-.64,0-1.12.549-1.12,1.289s.48,1.289,1.12,1.289c.439,0,.77-.17,1.099-.56l.99.989c-.52.609-1.299.949-2.149.949-1.509,0-2.668-1.159-2.668-2.668Z"></path>
    <path class="uuid-9b21f39a-4b54-4b47-af77-e8e9ab459104" d="M51.361,107.433l1.619-.25v3.049c.4-.6.959-.92,1.629-.92,1,0,1.709.729,1.709,1.759v3.479h-1.619v-3.009c0-.579-.34-.959-.859-.959-.35,0-.63.14-.86.43v3.538h-1.619v-7.116Z"></path>
    <path class="uuid-9b21f39a-4b54-4b47-af77-e8e9ab459104" d="M57.441,107.693c0-.499.41-.909.91-.909s.909.41.909.909-.41.91-.909.91-.91-.41-.91-.91ZM57.541,109.392h1.619v5.157h-1.619v-5.157Z"></path>
    <path class="uuid-9b21f39a-4b54-4b47-af77-e8e9ab459104" d="M60.421,109.392h1.619v.84c.4-.6.959-.92,1.629-.92,1,0,1.709.729,1.709,1.759v3.479h-1.619v-3.009c0-.579-.34-.959-.859-.959-.35,0-.63.14-.86.43v3.538h-1.619v-5.157Z"></path>
    <path class="uuid-9b21f39a-4b54-4b47-af77-e8e9ab459104" d="M66.371,111.981c0-1.51,1.119-2.669,2.599-2.669,1.489,0,2.539,1.13,2.539,2.729v.35h-3.548c.15.58.62.97,1.209.97.43,0,.79-.149,1.02-.43l1.069.89c-.669.59-1.299.829-2.169.829-1.519,0-2.718-1.169-2.718-2.668ZM70.008,111.471c-.14-.55-.529-.899-1.049-.899-.51,0-.87.329-1,.899h2.049Z"></path>
    <path class="uuid-9b21f39a-4b54-4b47-af77-e8e9ab459104" d="M72.341,111.051c0-2.039,1.609-3.608,3.688-3.608,1.12,0,2.229.53,2.838,1.359l-1.159,1.1c-.46-.62-1.02-.93-1.679-.93-1.089,0-1.909.89-1.909,2.079s.819,2.079,1.909,2.079c.66,0,1.219-.311,1.679-.93l1.159,1.1c-.609.829-1.719,1.359-2.838,1.359-2.079,0-3.688-1.569-3.688-3.608Z"></path>
    <path class="uuid-9b21f39a-4b54-4b47-af77-e8e9ab459104" d="M79.341,111.981c0-1.52,1.159-2.669,2.688-2.669s2.688,1.149,2.688,2.669-1.159,2.668-2.688,2.668-2.688-1.149-2.688-2.668ZM83.138,111.981c0-.77-.46-1.319-1.109-1.319s-1.109.55-1.109,1.319.459,1.319,1.109,1.319,1.109-.55,1.109-1.319Z"></path>
    <path class="uuid-9b21f39a-4b54-4b47-af77-e8e9ab459104" d="M85.75,109.392h1.619v.84c.4-.6.959-.92,1.629-.92,1,0,1.709.729,1.709,1.759v3.479h-1.619v-3.009c0-.579-.34-.959-.859-.959-.35,0-.63.14-.86.43v3.538h-1.619v-5.157Z"></path>
    <path class="uuid-9b21f39a-4b54-4b47-af77-e8e9ab459104" d="M92.54,110.641h-1.069v-1.249h1.069v-.68c0-1.229.729-1.898,2.059-1.898.28,0,.649.04.859.1v1.329c-.29-.05-.44-.06-.62-.06-.46,0-.68.18-.68.56v.649h1.299v1.249h-1.299v3.908h-1.619v-3.908Z"></path>
    <path class="uuid-9b21f39a-4b54-4b47-af77-e8e9ab459104" d="M96.28,107.693c0-.499.41-.909.909-.909s.91.41.91.909-.41.91-.91.91-.909-.41-.909-.91ZM96.38,109.392h1.619v5.157h-1.619v-5.157Z"></path>
    <path class="uuid-9b21f39a-4b54-4b47-af77-e8e9ab459104" d="M99.56,116.279l.5-1.17c.57.27,1.08.399,1.579.399.77,0,1.169-.319,1.169-.949v-.699c-.34.42-.899.68-1.499.68-1.27,0-2.279-1.159-2.279-2.599s1.059-2.579,2.398-2.579c.55,0,1.049.23,1.399.65v-.62h1.589v5.188c0,1.389-.959,2.158-2.718,2.158-.78,0-1.519-.159-2.139-.459ZM102.808,112.81v-1.719c-.25-.26-.59-.399-.959-.399-.709,0-1.229.529-1.229,1.259s.53,1.27,1.229,1.27c.39,0,.709-.14.959-.41Z"></path>
    <path class="uuid-9b21f39a-4b54-4b47-af77-e8e9ab459104" d="M105.83,107.553h3.418c1.489,0,2.469.97,2.469,2.309,0,1.27-.979,2.249-2.469,2.249h-1.699v2.438h-1.719v-6.996ZM108.938,110.742c.7,0,1.04-.38,1.04-.89,0-.5-.34-.88-1.029-.88h-1.399v1.77h1.389Z"></path>
    <path class="uuid-9b21f39a-4b54-4b47-af77-e8e9ab459104" d="M112.15,111.981c0-1.52,1.159-2.669,2.688-2.669s2.688,1.149,2.688,2.669-1.159,2.668-2.688,2.668-2.688-1.149-2.688-2.668ZM115.948,111.981c0-.77-.46-1.319-1.109-1.319s-1.109.55-1.109,1.319.459,1.319,1.109,1.319,1.109-.55,1.109-1.319Z"></path>
    <path class="uuid-9b21f39a-4b54-4b47-af77-e8e9ab459104" d="M118.33,111.981c0-1.52,1.159-2.669,2.688-2.669s2.688,1.149,2.688,2.669-1.159,2.668-2.688,2.668-2.688-1.149-2.688-2.668ZM122.128,111.981c0-.77-.46-1.319-1.109-1.319s-1.109.55-1.109,1.319.459,1.319,1.109,1.319,1.109-.55,1.109-1.319Z"></path>
    <path class="uuid-9b21f39a-4b54-4b47-af77-e8e9ab459104" d="M124.74,107.433l1.619-.25v7.366h-1.619v-7.116Z"></path>
  </g>
  <g>
    <path class="uuid-5e2be029-73fe-45e0-bfc1-1fef7f8a05cc" d="M447.317,111.504c0-2.039,1.608-3.608,3.688-3.608,1.119,0,2.229.53,2.839,1.359l-1.16,1.1c-.459-.62-1.019-.93-1.679-.93-1.09,0-1.909.89-1.909,2.079s.819,2.079,1.909,2.079c.66,0,1.22-.311,1.679-.93l1.16,1.1c-.61.829-1.72,1.359-2.839,1.359-2.079,0-3.688-1.569-3.688-3.608Z"></path>
    <path class="uuid-5e2be029-73fe-45e0-bfc1-1fef7f8a05cc" d="M454.506,113.324v-3.479h1.619v3.009c0,.579.34.959.859.959.35,0,.63-.14.859-.43v-3.538h1.619v5.157h-1.619v-.84c-.399.6-.959.92-1.629.92-1,0-1.709-.729-1.709-1.759Z"></path>
    <path class="uuid-5e2be029-73fe-45e0-bfc1-1fef7f8a05cc" d="M460.306,114.473l.71-1.08c.739.39,1.159.52,1.658.52.46,0,.74-.159.74-.419,0-.2-.15-.311-.479-.37l-.99-.18c-.999-.19-1.519-.7-1.519-1.499,0-1.05.81-1.68,2.158-1.68.72,0,1.43.2,2.1.59l-.74,1.029c-.52-.3-.999-.439-1.479-.439-.391,0-.62.13-.62.35,0,.21.13.3.529.37l.97.18c1.02.189,1.549.71,1.549,1.489,0,1.01-.949,1.769-2.219,1.769-.939,0-1.769-.22-2.368-.629Z"></path>
    <path class="uuid-5e2be029-73fe-45e0-bfc1-1fef7f8a05cc" d="M466.415,113.443v-2.349h-1v-1.249h1v-1.429l1.619-.33v1.759h1.379v1.249h-1.379v2.029c0,.46.18.619.68.619.189,0,.34-.02.659-.109v1.31c-.3.09-.779.159-1.109.159-1.22,0-1.849-.56-1.849-1.659Z"></path>
    <path class="uuid-5e2be029-73fe-45e0-bfc1-1fef7f8a05cc" d="M470.035,112.434c0-1.52,1.16-2.669,2.688-2.669s2.688,1.149,2.688,2.669-1.159,2.668-2.688,2.668-2.688-1.149-2.688-2.668ZM473.833,112.434c0-.77-.459-1.319-1.109-1.319s-1.109.55-1.109,1.319.46,1.319,1.109,1.319,1.109-.55,1.109-1.319Z"></path>
    <path class="uuid-5e2be029-73fe-45e0-bfc1-1fef7f8a05cc" d="M476.446,109.845h1.619v.819c.38-.59.899-.899,1.529-.899.669,0,1.199.37,1.449.96.399-.62.979-.96,1.688-.96.949,0,1.619.75,1.619,1.81v3.428h-1.619v-3.108c0-.52-.31-.859-.77-.859-.3,0-.54.12-.749.39v3.578h-1.619v-3.108c0-.52-.311-.859-.77-.859-.3,0-.55.13-.76.399v3.568h-1.619v-5.157Z"></path>
  </g>
  <g>
    <path class="uuid-5e2be029-73fe-45e0-bfc1-1fef7f8a05cc" d="M231.124,108.006h1.769l.85,4.338,1.219-4.338h1.609l1.219,4.338.85-4.338h1.709l-1.559,6.996h-1.819l-1.229-4.508-1.24,4.508h-1.819l-1.559-6.996Z"></path>
    <path class="uuid-5e2be029-73fe-45e0-bfc1-1fef7f8a05cc" d="M240.653,112.434c0-1.52,1.159-2.669,2.688-2.669s2.688,1.149,2.688,2.669-1.159,2.668-2.688,2.668-2.688-1.149-2.688-2.668ZM244.451,112.434c0-.77-.46-1.319-1.109-1.319s-1.109.55-1.109,1.319.459,1.319,1.109,1.319,1.109-.55,1.109-1.319Z"></path>
    <path class="uuid-5e2be029-73fe-45e0-bfc1-1fef7f8a05cc" d="M247.064,109.845h1.619v1.169c.33-.859.79-1.269,1.399-1.269.23.01.34.029.54.13v1.389c-.2-.1-.479-.159-.759-.159-.48,0-.919.249-1.18.64v3.258h-1.619v-5.157Z"></path>
    <path class="uuid-5e2be029-73fe-45e0-bfc1-1fef7f8a05cc" d="M251.484,107.856l1.619-.249v4.287l1.799-2.049h1.789l-2.099,2.309,2.249,2.849h-2.019l-1.719-2.278v2.278h-1.619v-7.146Z"></path>
    <path class="uuid-5e2be029-73fe-45e0-bfc1-1fef7f8a05cc" d="M256.894,112.434c0-1.51,1.119-2.669,2.599-2.669,1.489,0,2.539,1.13,2.539,2.729v.35h-3.548c.15.58.62.97,1.209.97.43,0,.79-.149,1.02-.43l1.069.89c-.669.59-1.299.829-2.169.829-1.519,0-2.718-1.169-2.718-2.668ZM260.531,111.924c-.14-.55-.529-.899-1.049-.899-.51,0-.87.329-1,.899h2.049Z"></path>
    <path class="uuid-5e2be029-73fe-45e0-bfc1-1fef7f8a05cc" d="M263.044,109.845h1.619v1.169c.33-.859.79-1.269,1.399-1.269.23.01.34.029.54.13v1.389c-.2-.1-.479-.159-.759-.159-.48,0-.919.249-1.18.64v3.258h-1.619v-5.157Z"></path>
  </g>
  <g>
    <path class="uuid-9b21f39a-4b54-4b47-af77-e8e9ab459104" d="M31.181,181.194h1.619l3.108,4.237-.03-4.237h1.619v6.996h-1.519l-3.208-4.378.03,4.378h-1.619v-6.996Z"></path>
    <path class="uuid-9b21f39a-4b54-4b47-af77-e8e9ab459104" d="M38.681,185.622c0-1.52,1.159-2.669,2.688-2.669s2.688,1.149,2.688,2.669-1.159,2.668-2.688,2.668-2.688-1.149-2.688-2.668ZM42.479,185.622c0-.77-.46-1.319-1.109-1.319s-1.109.55-1.109,1.319.459,1.319,1.109,1.319,1.109-.55,1.109-1.319Z"></path>
    <path class="uuid-9b21f39a-4b54-4b47-af77-e8e9ab459104" d="M44.861,185.601c0-1.449,1.059-2.599,2.398-2.599.54,0,1.03.221,1.379.62v-2.549l1.619-.25v7.366h-1.599v-.67c-.34.43-.91.7-1.519.7-1.27,0-2.279-1.17-2.279-2.619ZM48.639,186.471v-1.739c-.25-.26-.59-.399-.959-.399-.709,0-1.229.539-1.229,1.279,0,.729.53,1.269,1.229,1.269.39,0,.709-.14.959-.409Z"></path>
    <path class="uuid-9b21f39a-4b54-4b47-af77-e8e9ab459104" d="M51.291,185.622c0-1.51,1.119-2.669,2.599-2.669,1.489,0,2.539,1.13,2.539,2.729v.35h-3.548c.15.58.62.97,1.209.97.43,0,.79-.149,1.02-.43l1.069.89c-.669.59-1.299.829-2.169.829-1.519,0-2.718-1.169-2.718-2.668ZM54.928,185.112c-.14-.55-.529-.899-1.049-.899-.51,0-.87.329-1,.899h2.049Z"></path>
  </g>
  <g>
    <path class="uuid-5e2be029-73fe-45e0-bfc1-1fef7f8a05cc" d="M147.98,185.371c0-2.029,1.579-3.608,3.618-3.608,1.069,0,2.089.46,2.729,1.25l-.8.779c-.5-.62-1.189-.949-1.929-.949-1.359,0-2.389,1.089-2.389,2.528s1.029,2.528,2.389,2.528c.739,0,1.429-.329,1.929-.949l.8.779c-.64.79-1.659,1.25-2.729,1.25-2.039,0-3.618-1.579-3.618-3.608Z"></path>
    <path class="uuid-5e2be029-73fe-45e0-bfc1-1fef7f8a05cc" d="M154.82,186.37c0-1.479,1.08-2.588,2.519-2.588,1.429,0,2.509,1.109,2.509,2.588s-1.08,2.589-2.509,2.589c-1.439,0-2.519-1.109-2.519-2.589ZM158.738,186.37c0-.929-.59-1.629-1.399-1.629-.819,0-1.409.7-1.409,1.629,0,.939.59,1.63,1.409,1.63.81,0,1.399-.69,1.399-1.63Z"></path>
    <path class="uuid-5e2be029-73fe-45e0-bfc1-1fef7f8a05cc" d="M160.82,183.862h1.129v.789c.37-.569.87-.869,1.479-.869.689,0,1.219.369,1.479.959.39-.63.949-.959,1.659-.959.97,0,1.639.749,1.639,1.809v3.278h-1.129v-3.028c0-.699-.39-1.149-1.009-1.149-.41,0-.75.189-1,.6.01.1.02.2.02.3v3.278h-1.139v-3.028c0-.699-.39-1.149-1.01-1.149-.41,0-.74.189-.989.58v3.598h-1.129v-5.007Z"></path>
    <path class="uuid-5e2be029-73fe-45e0-bfc1-1fef7f8a05cc" d="M169.38,183.862h1.109v.709c.36-.47.919-.749,1.559-.749,1.269,0,2.259,1.129,2.259,2.548,0,1.43-1.02,2.549-2.329,2.549-.59,0-1.109-.22-1.469-.64v2.679h-1.129v-7.096ZM173.197,186.37c0-.909-.64-1.599-1.489-1.599-.5,0-.91.2-1.199.56v2.089c.29.35.72.56,1.199.56.859,0,1.489-.689,1.489-1.609Z"></path>
    <path class="uuid-5e2be029-73fe-45e0-bfc1-1fef7f8a05cc" d="M175.25,187.16v-3.298h1.139v2.968c0,.74.43,1.21,1.1,1.21.45,0,.83-.2,1.089-.601v-3.577h1.129v5.007h-1.129v-.81c-.38.59-.919.89-1.589.89-1.02,0-1.739-.739-1.739-1.789Z"></path>
    <path class="uuid-5e2be029-73fe-45e0-bfc1-1fef7f8a05cc" d="M181.529,187.57v-2.809h-1v-.899h1v-1.38l1.129-.239v1.619h1.389v.899h-1.389v2.559c0,.489.19.68.7.68.22,0,.379-.03.68-.12v.949c-.29.09-.67.14-.97.14-1.009,0-1.539-.479-1.539-1.398Z"></path>
    <path class="uuid-5e2be029-73fe-45e0-bfc1-1fef7f8a05cc" d="M184.54,186.37c0-1.469,1.06-2.588,2.438-2.588,1.37,0,2.369,1.089,2.369,2.588v.271h-3.698c.11.81.72,1.399,1.499,1.399.47,0,.91-.181,1.189-.47l.74.669c-.61.51-1.219.729-1.979.729-1.439,0-2.559-1.129-2.559-2.599ZM188.278,185.94c-.12-.729-.64-1.239-1.309-1.239-.68,0-1.179.49-1.309,1.239h2.618Z"></path>
    <path class="uuid-5e2be029-73fe-45e0-bfc1-1fef7f8a05cc" d="M192.349,183.862h1.129v.819c.38-.59.929-.899,1.579-.899,1.029,0,1.749.729,1.749,1.789v3.298h-1.14v-2.979c0-.729-.43-1.199-1.099-1.199-.46,0-.83.21-1.089.609v3.568h-1.129v-5.007Z"></path>
    <path class="uuid-5e2be029-73fe-45e0-bfc1-1fef7f8a05cc" d="M197.739,186.37c0-1.479,1.08-2.588,2.519-2.588,1.429,0,2.509,1.109,2.509,2.588s-1.08,2.589-2.509,2.589c-1.439,0-2.519-1.109-2.519-2.589ZM201.657,186.37c0-.929-.59-1.629-1.399-1.629-.819,0-1.409.7-1.409,1.629,0,.939.59,1.63,1.409,1.63.81,0,1.399-.69,1.399-1.63Z"></path>
    <path class="uuid-5e2be029-73fe-45e0-bfc1-1fef7f8a05cc" d="M203.509,186.37c0-1.429,1.029-2.548,2.339-2.548.569,0,1.089.229,1.459.649v-2.769l1.129-.2v7.366h-1.119v-.659c-.36.449-.92.709-1.549.709-1.27,0-2.259-1.129-2.259-2.549ZM207.307,187.42v-2.108c-.29-.34-.72-.54-1.189-.54-.859,0-1.499.68-1.499,1.599,0,.91.64,1.6,1.499,1.6.49,0,.9-.19,1.189-.55Z"></path>
    <path class="uuid-5e2be029-73fe-45e0-bfc1-1fef7f8a05cc" d="M209.409,186.37c0-1.469,1.06-2.588,2.438-2.588,1.37,0,2.369,1.089,2.369,2.588v.271h-3.698c.11.81.72,1.399,1.499,1.399.47,0,.91-.181,1.189-.47l.74.669c-.61.51-1.219.729-1.979.729-1.439,0-2.559-1.129-2.559-2.599ZM213.147,185.94c-.12-.729-.64-1.239-1.309-1.239-.68,0-1.179.49-1.309,1.239h2.618Z"></path>
    <path class="uuid-5e2be029-73fe-45e0-bfc1-1fef7f8a05cc" d="M218.128,183.022l-1.239.529v-.969l1.639-.71h.69v6.996h-1.09v-5.847Z"></path>
  </g>
  <g>
    <path class="uuid-5e2be029-73fe-45e0-bfc1-1fef7f8a05cc" d="M170.894,37.814c0-2.148,1.169-3.608,2.869-3.608s2.858,1.46,2.858,3.608-1.159,3.598-2.858,3.598-2.869-1.459-2.869-3.598ZM175.532,37.814c0-1.609-.689-2.639-1.769-2.639s-1.779,1.029-1.779,2.639c0,1.599.699,2.629,1.779,2.629s1.769-1.03,1.769-2.629Z"></path>
    <path class="uuid-5e2be029-73fe-45e0-bfc1-1fef7f8a05cc" d="M177.434,37.814c0-2.148,1.169-3.608,2.869-3.608s2.858,1.46,2.858,3.608-1.159,3.598-2.858,3.598-2.869-1.459-2.869-3.598ZM182.072,37.814c0-1.609-.689-2.639-1.769-2.639s-1.779,1.029-1.779,2.639c0,1.599.699,2.629,1.779,2.629s1.769-1.03,1.769-2.629Z"></path>
    <path class="uuid-5e2be029-73fe-45e0-bfc1-1fef7f8a05cc" d="M184.034,37.994h3.488v.96h-3.488v-.96Z"></path>
    <path class="uuid-5e2be029-73fe-45e0-bfc1-1fef7f8a05cc" d="M188.125,36.305h1.079l.88,3.527,1.039-3.527h.95l1.029,3.527.879-3.527h1.05l-1.35,5.007h-1.079l-1.02-3.528-1.009,3.528h-1.1l-1.349-5.007Z"></path>
    <path class="uuid-5e2be029-73fe-45e0-bfc1-1fef7f8a05cc" d="M195.424,38.813c0-1.479,1.08-2.588,2.519-2.588,1.429,0,2.509,1.109,2.509,2.588s-1.08,2.589-2.509,2.589c-1.439,0-2.519-1.109-2.519-2.589ZM199.342,38.813c0-.929-.59-1.629-1.399-1.629-.819,0-1.409.7-1.409,1.629,0,.939.59,1.63,1.409,1.63.81,0,1.399-.69,1.399-1.63Z"></path>
    <path class="uuid-5e2be029-73fe-45e0-bfc1-1fef7f8a05cc" d="M201.424,36.305h1.129v1.079c.28-.76.759-1.17,1.379-1.17.19.011.32.03.49.101v.989c-.18-.07-.41-.12-.62-.12-.549,0-.999.31-1.249.83v3.298h-1.129v-5.007Z"></path>
    <path class="uuid-5e2be029-73fe-45e0-bfc1-1fef7f8a05cc" d="M205.154,34.126l1.129-.189v4.498l2.079-2.129h1.299l-2.309,2.318,2.429,2.688h-1.439l-2.059-2.309v2.309h-1.129v-7.187Z"></path>
    <path class="uuid-5e2be029-73fe-45e0-bfc1-1fef7f8a05cc" d="M209.734,38.813c0-1.469,1.06-2.588,2.438-2.588,1.37,0,2.369,1.089,2.369,2.588v.271h-3.698c.11.81.72,1.399,1.499,1.399.47,0,.91-.181,1.189-.47l.74.669c-.61.51-1.219.729-1.979.729-1.439,0-2.559-1.129-2.559-2.599ZM213.472,38.383c-.12-.729-.64-1.239-1.309-1.239-.68,0-1.179.49-1.309,1.239h2.618Z"></path>
    <path class="uuid-5e2be029-73fe-45e0-bfc1-1fef7f8a05cc" d="M215.494,36.305h1.129v1.079c.28-.76.759-1.17,1.379-1.17.19.011.32.03.49.101v.989c-.18-.07-.41-.12-.62-.12-.549,0-1,.31-1.249.83v3.298h-1.129v-5.007Z"></path>
  </g>
  <g>
    <path class="uuid-5e2be029-73fe-45e0-bfc1-1fef7f8a05cc" d="M262.103,37.814c0-2.148,1.169-3.608,2.869-3.608s2.858,1.46,2.858,3.608-1.159,3.598-2.858,3.598-2.869-1.459-2.869-3.598ZM266.741,37.814c0-1.609-.689-2.639-1.769-2.639s-1.779,1.029-1.779,2.639c0,1.599.699,2.629,1.779,2.629s1.769-1.03,1.769-2.629Z"></path>
    <path class="uuid-5e2be029-73fe-45e0-bfc1-1fef7f8a05cc" d="M269.703,35.465l-1.239.529v-.969l1.639-.71h.69v6.996h-1.09v-5.847Z"></path>
    <path class="uuid-5e2be029-73fe-45e0-bfc1-1fef7f8a05cc" d="M271.873,37.994h3.488v.96h-3.488v-.96Z"></path>
    <path class="uuid-5e2be029-73fe-45e0-bfc1-1fef7f8a05cc" d="M275.964,36.305h1.079l.88,3.527,1.039-3.527h.95l1.029,3.527.879-3.527h1.05l-1.35,5.007h-1.079l-1.02-3.528-1.009,3.528h-1.1l-1.349-5.007Z"></path>
    <path class="uuid-5e2be029-73fe-45e0-bfc1-1fef7f8a05cc" d="M283.263,38.813c0-1.479,1.08-2.588,2.519-2.588,1.429,0,2.509,1.109,2.509,2.588s-1.08,2.589-2.509,2.589c-1.439,0-2.519-1.109-2.519-2.589ZM287.181,38.813c0-.929-.59-1.629-1.399-1.629-.819,0-1.409.7-1.409,1.629,0,.939.59,1.63,1.409,1.63.81,0,1.399-.69,1.399-1.63Z"></path>
    <path class="uuid-5e2be029-73fe-45e0-bfc1-1fef7f8a05cc" d="M289.263,36.305h1.129v1.079c.28-.76.759-1.17,1.379-1.17.19.011.32.03.49.101v.989c-.18-.07-.41-.12-.62-.12-.549,0-1,.31-1.249.83v3.298h-1.129v-5.007Z"></path>
    <path class="uuid-5e2be029-73fe-45e0-bfc1-1fef7f8a05cc" d="M292.993,34.126l1.129-.189v4.498l2.079-2.129h1.3l-2.309,2.318,2.428,2.688h-1.438l-2.059-2.309v2.309h-1.129v-7.187Z"></path>
    <path class="uuid-5e2be029-73fe-45e0-bfc1-1fef7f8a05cc" d="M297.573,38.813c0-1.469,1.06-2.588,2.438-2.588,1.369,0,2.369,1.089,2.369,2.588v.271h-3.698c.11.81.72,1.399,1.499,1.399.47,0,.91-.181,1.189-.47l.739.669c-.609.51-1.219.729-1.979.729-1.439,0-2.558-1.129-2.558-2.599ZM301.311,38.383c-.12-.729-.64-1.239-1.31-1.239-.679,0-1.179.49-1.309,1.239h2.619Z"></path>
    <path class="uuid-5e2be029-73fe-45e0-bfc1-1fef7f8a05cc" d="M303.332,36.305h1.13v1.079c.279-.76.76-1.17,1.379-1.17.19.011.32.03.49.101v.989c-.181-.07-.41-.12-.62-.12-.55,0-.999.31-1.249.83v3.298h-1.13v-5.007Z"></path>
    <path class="uuid-5e2be029-73fe-45e0-bfc1-1fef7f8a05cc" d="M306.773,37.994h3.488v.96h-3.488v-.96Z"></path>
    <path class="uuid-5e2be029-73fe-45e0-bfc1-1fef7f8a05cc" d="M311.332,34.126l1.13-.189v4.498l2.079-2.129h1.299l-2.309,2.318,2.429,2.688h-1.439l-2.059-2.309v2.309h-1.13v-7.187Z"></path>
    <path class="uuid-5e2be029-73fe-45e0-bfc1-1fef7f8a05cc" d="M316.352,39.603v-3.298h1.14v2.968c0,.74.43,1.21,1.1,1.21.45,0,.829-.2,1.09-.601v-3.577h1.129v5.007h-1.129v-.81c-.38.59-.92.89-1.59.89-1.02,0-1.739-.739-1.739-1.789Z"></path>
    <path class="uuid-5e2be029-73fe-45e0-bfc1-1fef7f8a05cc" d="M322.012,34.176l1.13-.19v2.988c.35-.439.909-.709,1.539-.709,1.27,0,2.259,1.129,2.259,2.548,0,1.43-1.02,2.549-2.329,2.549-.589,0-1.109-.239-1.489-.689v.64h-1.109v-7.136ZM325.83,38.813c0-.909-.64-1.599-1.489-1.599-.5,0-.909.2-1.199.56v2.089c.29.35.72.56,1.199.56.859,0,1.489-.689,1.489-1.609Z"></path>
    <path class="uuid-5e2be029-73fe-45e0-bfc1-1fef7f8a05cc" d="M327.692,38.813c0-1.469,1.06-2.588,2.438-2.588,1.369,0,2.369,1.089,2.369,2.588v.271h-3.698c.11.81.72,1.399,1.499,1.399.47,0,.91-.181,1.189-.47l.739.669c-.609.51-1.219.729-1.979.729-1.439,0-2.559-1.129-2.559-2.599ZM331.43,38.383c-.12-.729-.64-1.239-1.31-1.239-.68,0-1.18.49-1.31,1.239h2.619Z"></path>
    <path class="uuid-5e2be029-73fe-45e0-bfc1-1fef7f8a05cc" d="M333.451,34.146l1.13-.2v7.366h-1.13v-7.166Z"></path>
    <path class="uuid-5e2be029-73fe-45e0-bfc1-1fef7f8a05cc" d="M335.542,38.813c0-1.469,1.06-2.588,2.438-2.588,1.369,0,2.369,1.089,2.369,2.588v.271h-3.698c.11.81.72,1.399,1.499,1.399.47,0,.91-.181,1.189-.47l.739.669c-.609.51-1.219.729-1.979.729-1.439,0-2.559-1.129-2.559-2.599ZM339.28,38.383c-.12-.729-.64-1.239-1.31-1.239-.68,0-1.18.49-1.31,1.239h2.619Z"></path>
    <path class="uuid-5e2be029-73fe-45e0-bfc1-1fef7f8a05cc" d="M341.772,40.013v-2.809h-1v-.899h1v-1.38l1.129-.239v1.619h1.39v.899h-1.39v2.559c0,.489.19.68.7.68.22,0,.38-.03.68-.12v.949c-.29.09-.67.14-.97.14-1.01,0-1.539-.479-1.539-1.398Z"></path>
  </g>
  <g>
    <path class="uuid-5e2be029-73fe-45e0-bfc1-1fef7f8a05cc" d="M382.445,37.625c0,2.278-1.299,3.787-3.258,3.787-.67,0-1.399-.229-1.859-.6l.6-.81c.4.29.84.43,1.35.43,1.299,0,2.059-1.039,2.079-2.798-.48.659-1.189,1.029-1.93,1.029-1.369,0-2.349-.899-2.349-2.149,0-1.329,1.05-2.309,2.469-2.309,1.72,0,2.898,1.39,2.898,3.419ZM381.306,36.964c-.18-1.1-.829-1.819-1.719-1.819-.819,0-1.429.57-1.429,1.35,0,.76.589,1.31,1.438,1.31.66,0,1.27-.32,1.709-.84Z"></path>
    <path class="uuid-5e2be029-73fe-45e0-bfc1-1fef7f8a05cc" d="M388.526,37.625c0,2.278-1.299,3.787-3.258,3.787-.67,0-1.399-.229-1.859-.6l.6-.81c.4.29.84.43,1.35.43,1.299,0,2.059-1.039,2.079-2.798-.48.659-1.189,1.029-1.93,1.029-1.369,0-2.349-.899-2.349-2.149,0-1.329,1.05-2.309,2.469-2.309,1.72,0,2.898,1.39,2.898,3.419ZM387.386,36.964c-.18-1.1-.829-1.819-1.719-1.819-.819,0-1.429.57-1.429,1.35,0,.76.589,1.31,1.438,1.31.66,0,1.27-.32,1.709-.84Z"></path>
    <path class="uuid-5e2be029-73fe-45e0-bfc1-1fef7f8a05cc" d="M389.408,37.994h3.488v.96h-3.488v-.96Z"></path>
    <path class="uuid-5e2be029-73fe-45e0-bfc1-1fef7f8a05cc" d="M393.838,38.813c0-1.449,1.1-2.588,2.528-2.588.78,0,1.499.31,1.999.85l-.699.729c-.35-.39-.779-.59-1.26-.59-.81,0-1.439.699-1.439,1.599,0,.91.63,1.6,1.439,1.6.48,0,.91-.2,1.26-.58l.699.72c-.5.54-1.219.85-1.999.85-1.429,0-2.528-1.129-2.528-2.589Z"></path>
    <path class="uuid-5e2be029-73fe-45e0-bfc1-1fef7f8a05cc" d="M399.058,39.603v-3.298h1.14v2.968c0,.74.43,1.21,1.1,1.21.45,0,.829-.2,1.09-.601v-3.577h1.129v5.007h-1.129v-.81c-.38.59-.92.89-1.59.89-1.02,0-1.739-.739-1.739-1.789Z"></path>
    <path class="uuid-5e2be029-73fe-45e0-bfc1-1fef7f8a05cc" d="M404.269,40.732l.529-.749c.66.409,1.1.569,1.609.569.6,0,1.01-.279,1.01-.68,0-.31-.21-.47-.7-.569l-.879-.15c-.979-.18-1.449-.629-1.449-1.379,0-.939.77-1.549,1.938-1.549.7,0,1.329.199,1.969.6l-.529.749c-.51-.329-1-.479-1.509-.479-.521,0-.86.22-.86.58,0,.319.181.459.7.55l.89.17c.999.18,1.479.64,1.479,1.389,0,.92-.879,1.629-2.049,1.629-.859,0-1.619-.239-2.148-.68Z"></path>
    <path class="uuid-5e2be029-73fe-45e0-bfc1-1fef7f8a05cc" d="M409.827,40.013v-2.809h-.999v-.899h.999v-1.38l1.129-.239v1.619h1.39v.899h-1.39v2.559c0,.489.19.68.7.68.22,0,.38-.03.68-.12v.949c-.29.09-.67.14-.97.14-1.01,0-1.539-.479-1.539-1.398Z"></path>
    <path class="uuid-5e2be029-73fe-45e0-bfc1-1fef7f8a05cc" d="M412.838,38.813c0-1.479,1.079-2.588,2.519-2.588,1.43,0,2.509,1.109,2.509,2.588s-1.079,2.589-2.509,2.589c-1.439,0-2.519-1.109-2.519-2.589ZM416.756,38.813c0-.929-.59-1.629-1.399-1.629-.819,0-1.409.7-1.409,1.629,0,.939.59,1.63,1.409,1.63.81,0,1.399-.69,1.399-1.63Z"></path>
    <path class="uuid-5e2be029-73fe-45e0-bfc1-1fef7f8a05cc" d="M418.837,36.305h1.13v.789c.37-.569.869-.869,1.479-.869.689,0,1.219.369,1.479.959.39-.63.95-.959,1.659-.959.97,0,1.64.749,1.64,1.809v3.278h-1.13v-3.028c0-.699-.39-1.149-1.01-1.149-.409,0-.749.189-.999.6.01.1.02.2.02.3v3.278h-1.139v-3.028c0-.699-.39-1.149-1.01-1.149-.41,0-.739.189-.989.58v3.598h-1.13v-5.007Z"></path>
    <path class="uuid-5e2be029-73fe-45e0-bfc1-1fef7f8a05cc" d="M427.258,37.994h3.488v.96h-3.488v-.96Z"></path>
    <path class="uuid-5e2be029-73fe-45e0-bfc1-1fef7f8a05cc" d="M431.818,36.305h1.13v.819c.38-.59.93-.899,1.579-.899,1.029,0,1.749.729,1.749,1.789v3.298h-1.14v-2.979c0-.729-.43-1.199-1.1-1.199-.459,0-.829.21-1.089.609v3.568h-1.13v-5.007Z"></path>
    <path class="uuid-5e2be029-73fe-45e0-bfc1-1fef7f8a05cc" d="M437.907,40.013v-2.809h-.999v-.899h.999v-1.38l1.129-.239v1.619h1.39v.899h-1.39v2.559c0,.489.19.68.7.68.22,0,.38-.03.68-.12v.949c-.29.09-.67.14-.97.14-1.01,0-1.539-.479-1.539-1.398Z"></path>
    <path class="uuid-5e2be029-73fe-45e0-bfc1-1fef7f8a05cc" d="M441.227,36.305h1.109v.709c.36-.47.92-.749,1.56-.749,1.27,0,2.259,1.129,2.259,2.548,0,1.43-1.02,2.549-2.329,2.549-.589,0-1.109-.22-1.469-.64v2.679h-1.13v-7.096ZM445.045,38.813c0-.909-.64-1.599-1.489-1.599-.5,0-.909.2-1.199.56v2.089c.29.35.72.56,1.199.56.859,0,1.489-.689,1.489-1.609Z"></path>
  </g>
  <g>
    <path class="uuid-5e2be029-73fe-45e0-bfc1-1fef7f8a05cc" d="M492.719,37.625c0,2.278-1.299,3.787-3.258,3.787-.67,0-1.399-.229-1.859-.6l.6-.81c.4.29.84.43,1.35.43,1.299,0,2.059-1.039,2.079-2.798-.48.659-1.189,1.029-1.93,1.029-1.369,0-2.349-.899-2.349-2.149,0-1.329,1.05-2.309,2.469-2.309,1.72,0,2.898,1.39,2.898,3.419ZM491.579,36.964c-.18-1.1-.829-1.819-1.719-1.819-.819,0-1.429.57-1.429,1.35,0,.76.589,1.31,1.438,1.31.66,0,1.27-.32,1.709-.84Z"></path>
    <path class="uuid-5e2be029-73fe-45e0-bfc1-1fef7f8a05cc" d="M498.799,37.625c0,2.278-1.299,3.787-3.258,3.787-.67,0-1.399-.229-1.859-.6l.6-.81c.4.29.84.43,1.35.43,1.299,0,2.059-1.039,2.079-2.798-.48.659-1.189,1.029-1.93,1.029-1.369,0-2.349-.899-2.349-2.149,0-1.329,1.05-2.309,2.469-2.309,1.72,0,2.898,1.39,2.898,3.419ZM497.659,36.964c-.18-1.1-.829-1.819-1.719-1.819-.819,0-1.429.57-1.429,1.35,0,.76.589,1.31,1.438,1.31.66,0,1.27-.32,1.709-.84Z"></path>
    <path class="uuid-5e2be029-73fe-45e0-bfc1-1fef7f8a05cc" d="M499.682,37.994h3.488v.96h-3.488v-.96Z"></path>
    <path class="uuid-5e2be029-73fe-45e0-bfc1-1fef7f8a05cc" d="M503.772,36.305h1.08l.879,3.527,1.04-3.527h.949l1.029,3.527.88-3.527h1.049l-1.349,5.007h-1.08l-1.02-3.528-1.009,3.528h-1.1l-1.35-5.007Z"></path>
    <path class="uuid-5e2be029-73fe-45e0-bfc1-1fef7f8a05cc" d="M511.071,38.813c0-1.479,1.079-2.588,2.519-2.588,1.43,0,2.509,1.109,2.509,2.588s-1.079,2.589-2.509,2.589c-1.439,0-2.519-1.109-2.519-2.589ZM514.989,38.813c0-.929-.59-1.629-1.399-1.629-.819,0-1.409.7-1.409,1.629,0,.939.59,1.63,1.409,1.63.81,0,1.399-.69,1.399-1.63Z"></path>
    <path class="uuid-5e2be029-73fe-45e0-bfc1-1fef7f8a05cc" d="M517.071,36.305h1.13v1.079c.279-.76.76-1.17,1.379-1.17.19.011.32.03.49.101v.989c-.18-.07-.41-.12-.62-.12-.55,0-.999.31-1.249.83v3.298h-1.13v-5.007Z"></path>
    <path class="uuid-5e2be029-73fe-45e0-bfc1-1fef7f8a05cc" d="M520.801,34.126l1.13-.189v4.498l2.079-2.129h1.299l-2.309,2.318,2.429,2.688h-1.439l-2.059-2.309v2.309h-1.13v-7.187Z"></path>
    <path class="uuid-5e2be029-73fe-45e0-bfc1-1fef7f8a05cc" d="M525.382,38.813c0-1.469,1.06-2.588,2.438-2.588,1.369,0,2.369,1.089,2.369,2.588v.271h-3.698c.11.81.72,1.399,1.499,1.399.47,0,.91-.181,1.189-.47l.739.669c-.609.51-1.219.729-1.979.729-1.439,0-2.559-1.129-2.559-2.599ZM529.12,38.383c-.12-.729-.64-1.239-1.31-1.239-.68,0-1.18.49-1.31,1.239h2.619Z"></path>
    <path class="uuid-5e2be029-73fe-45e0-bfc1-1fef7f8a05cc" d="M531.141,36.305h1.13v1.079c.279-.76.76-1.17,1.379-1.17.19.011.32.03.49.101v.989c-.181-.07-.41-.12-.62-.12-.55,0-.999.31-1.249.83v3.298h-1.13v-5.007Z"></path>
    <path class="uuid-5e2be029-73fe-45e0-bfc1-1fef7f8a05cc" d="M534.581,37.994h3.488v.96h-3.488v-.96Z"></path>
    <path class="uuid-5e2be029-73fe-45e0-bfc1-1fef7f8a05cc" d="M538.692,40.732l.529-.749c.66.409,1.1.569,1.609.569.6,0,1.01-.279,1.01-.68,0-.31-.21-.47-.7-.569l-.879-.15c-.979-.18-1.449-.629-1.449-1.379,0-.939.77-1.549,1.938-1.549.7,0,1.329.199,1.969.6l-.529.749c-.51-.329-1-.479-1.51-.479-.52,0-.859.22-.859.58,0,.319.181.459.7.55l.89.17c.999.18,1.479.64,1.479,1.389,0,.92-.879,1.629-2.049,1.629-.859,0-1.619-.239-2.148-.68Z"></path>
    <path class="uuid-5e2be029-73fe-45e0-bfc1-1fef7f8a05cc" d="M543.281,40.732l.529-.749c.66.409,1.1.569,1.609.569.6,0,1.01-.279,1.01-.68,0-.31-.21-.47-.7-.569l-.879-.15c-.979-.18-1.449-.629-1.449-1.379,0-.939.77-1.549,1.938-1.549.7,0,1.329.199,1.969.6l-.529.749c-.51-.329-1-.479-1.51-.479-.52,0-.859.22-.859.58,0,.319.181.459.7.55l.89.17c.999.18,1.479.64,1.479,1.389,0,.92-.879,1.629-2.049,1.629-.859,0-1.619-.239-2.148-.68Z"></path>
    <path class="uuid-5e2be029-73fe-45e0-bfc1-1fef7f8a05cc" d="M548.32,34.146l1.13-.2v3.179c.38-.59.93-.899,1.579-.899,1.029,0,1.749.729,1.749,1.789v3.298h-1.14v-2.979c0-.729-.43-1.199-1.1-1.199-.459,0-.829.21-1.089.609v3.568h-1.13v-7.166Z"></path>
  </g>
  <g>
    <path class="uuid-5e2be029-73fe-45e0-bfc1-1fef7f8a05cc" d="M233.672,185.371c0-2.029,1.579-3.608,3.618-3.608,1.069,0,2.089.46,2.729,1.25l-.8.779c-.5-.62-1.189-.949-1.929-.949-1.359,0-2.389,1.089-2.389,2.528s1.029,2.528,2.389,2.528c.739,0,1.429-.329,1.929-.949l.8.779c-.64.79-1.659,1.25-2.729,1.25-2.039,0-3.618-1.579-3.618-3.608Z"></path>
    <path class="uuid-5e2be029-73fe-45e0-bfc1-1fef7f8a05cc" d="M240.512,186.37c0-1.479,1.08-2.588,2.519-2.588,1.429,0,2.509,1.109,2.509,2.588s-1.08,2.589-2.509,2.589c-1.439,0-2.519-1.109-2.519-2.589ZM244.43,186.37c0-.929-.59-1.629-1.399-1.629-.819,0-1.409.7-1.409,1.629,0,.939.59,1.63,1.409,1.63.81,0,1.399-.69,1.399-1.63Z"></path>
    <path class="uuid-5e2be029-73fe-45e0-bfc1-1fef7f8a05cc" d="M246.512,183.862h1.129v.789c.37-.569.87-.869,1.479-.869.69,0,1.219.369,1.479.959.39-.63.949-.959,1.659-.959.97,0,1.639.749,1.639,1.809v3.278h-1.129v-3.028c0-.699-.39-1.149-1.009-1.149-.41,0-.75.189-1,.6.01.1.02.2.02.3v3.278h-1.139v-3.028c0-.699-.39-1.149-1.01-1.149-.41,0-.739.189-.989.58v3.598h-1.129v-5.007Z"></path>
    <path class="uuid-5e2be029-73fe-45e0-bfc1-1fef7f8a05cc" d="M255.071,183.862h1.109v.709c.36-.47.919-.749,1.559-.749,1.27,0,2.259,1.129,2.259,2.548,0,1.43-1.02,2.549-2.329,2.549-.59,0-1.109-.22-1.469-.64v2.679h-1.129v-7.096ZM258.889,186.37c0-.909-.64-1.599-1.489-1.599-.5,0-.91.2-1.199.56v2.089c.29.35.72.56,1.199.56.859,0,1.489-.689,1.489-1.609Z"></path>
    <path class="uuid-5e2be029-73fe-45e0-bfc1-1fef7f8a05cc" d="M260.942,187.16v-3.298h1.139v2.968c0,.74.43,1.21,1.1,1.21.45,0,.83-.2,1.089-.601v-3.577h1.129v5.007h-1.129v-.81c-.38.59-.919.89-1.589.89-1.019,0-1.739-.739-1.739-1.789Z"></path>
    <path class="uuid-5e2be029-73fe-45e0-bfc1-1fef7f8a05cc" d="M267.221,187.57v-2.809h-1v-.899h1v-1.38l1.129-.239v1.619h1.389v.899h-1.389v2.559c0,.489.19.68.7.68.22,0,.379-.03.68-.12v.949c-.29.09-.67.14-.97.14-1.009,0-1.539-.479-1.539-1.398Z"></path>
    <path class="uuid-5e2be029-73fe-45e0-bfc1-1fef7f8a05cc" d="M270.232,186.37c0-1.469,1.06-2.588,2.438-2.588,1.37,0,2.369,1.089,2.369,2.588v.271h-3.698c.11.81.72,1.399,1.499,1.399.47,0,.91-.181,1.189-.47l.74.669c-.61.51-1.219.729-1.979.729-1.439,0-2.559-1.129-2.559-2.599ZM273.969,185.94c-.12-.729-.64-1.239-1.309-1.239-.68,0-1.179.49-1.309,1.239h2.618Z"></path>
    <path class="uuid-5e2be029-73fe-45e0-bfc1-1fef7f8a05cc" d="M278.041,183.862h1.129v.819c.38-.59.929-.899,1.579-.899,1.029,0,1.749.729,1.749,1.789v3.298h-1.14v-2.979c0-.729-.43-1.199-1.099-1.199-.46,0-.83.21-1.089.609v3.568h-1.129v-5.007Z"></path>
    <path class="uuid-5e2be029-73fe-45e0-bfc1-1fef7f8a05cc" d="M283.431,186.37c0-1.479,1.08-2.588,2.519-2.588,1.429,0,2.509,1.109,2.509,2.588s-1.08,2.589-2.509,2.589c-1.439,0-2.519-1.109-2.519-2.589ZM287.349,186.37c0-.929-.59-1.629-1.399-1.629-.819,0-1.409.7-1.409,1.629,0,.939.59,1.63,1.409,1.63.81,0,1.399-.69,1.399-1.63Z"></path>
    <path class="uuid-5e2be029-73fe-45e0-bfc1-1fef7f8a05cc" d="M289.201,186.37c0-1.429,1.029-2.548,2.339-2.548.569,0,1.089.229,1.459.649v-2.769l1.129-.2v7.366h-1.119v-.659c-.36.449-.919.709-1.549.709-1.27,0-2.259-1.129-2.259-2.549ZM292.999,187.42v-2.108c-.29-.34-.72-.54-1.189-.54-.859,0-1.499.68-1.499,1.599,0,.91.64,1.6,1.499,1.6.49,0,.9-.19,1.189-.55Z"></path>
    <path class="uuid-5e2be029-73fe-45e0-bfc1-1fef7f8a05cc" d="M295.101,186.37c0-1.469,1.059-2.588,2.439-2.588,1.369,0,2.368,1.089,2.368,2.588v.271h-3.697c.109.81.719,1.399,1.499,1.399.47,0,.909-.181,1.189-.47l.739.669c-.609.51-1.219.729-1.978.729-1.439,0-2.559-1.129-2.559-2.599ZM298.839,185.94c-.12-.729-.64-1.239-1.31-1.239-.679,0-1.179.49-1.309,1.239h2.618Z"></path>
    <path class="uuid-5e2be029-73fe-45e0-bfc1-1fef7f8a05cc" d="M302.72,188.079l2.868-2.998c.51-.539.68-.89.68-1.339,0-.58-.539-1.02-1.27-1.02-.649,0-1.149.229-1.818.85l-.62-.75c.77-.709,1.579-1.06,2.459-1.06,1.369,0,2.309.78,2.309,1.919,0,.68-.24,1.17-.989,1.959l-2.229,2.299,3.348-.01v.939h-4.737v-.79Z"></path>
  </g>
  <g>
    <path class="uuid-5e2be029-73fe-45e0-bfc1-1fef7f8a05cc" d="M320.317,185.371c0-2.029,1.579-3.608,3.618-3.608,1.069,0,2.089.46,2.729,1.25l-.8.779c-.5-.62-1.189-.949-1.929-.949-1.359,0-2.389,1.089-2.389,2.528s1.029,2.528,2.389,2.528c.739,0,1.429-.329,1.929-.949l.8.779c-.64.79-1.659,1.25-2.729,1.25-2.039,0-3.618-1.579-3.618-3.608Z"></path>
    <path class="uuid-5e2be029-73fe-45e0-bfc1-1fef7f8a05cc" d="M327.156,186.37c0-1.479,1.079-2.588,2.519-2.588,1.43,0,2.509,1.109,2.509,2.588s-1.079,2.589-2.509,2.589c-1.439,0-2.519-1.109-2.519-2.589ZM331.074,186.37c0-.929-.59-1.629-1.399-1.629-.819,0-1.409.7-1.409,1.629,0,.939.59,1.63,1.409,1.63.81,0,1.399-.69,1.399-1.63Z"></path>
    <path class="uuid-5e2be029-73fe-45e0-bfc1-1fef7f8a05cc" d="M333.155,183.862h1.13v.789c.37-.569.869-.869,1.479-.869.689,0,1.219.369,1.479.959.39-.63.95-.959,1.659-.959.97,0,1.64.749,1.64,1.809v3.278h-1.13v-3.028c0-.699-.39-1.149-1.01-1.149-.409,0-.749.189-.999.6.01.1.02.2.02.3v3.278h-1.139v-3.028c0-.699-.39-1.149-1.01-1.149-.41,0-.739.189-.989.58v3.598h-1.13v-5.007Z"></path>
    <path class="uuid-5e2be029-73fe-45e0-bfc1-1fef7f8a05cc" d="M341.716,183.862h1.109v.709c.36-.47.92-.749,1.56-.749,1.27,0,2.259,1.129,2.259,2.548,0,1.43-1.02,2.549-2.329,2.549-.589,0-1.109-.22-1.469-.64v2.679h-1.13v-7.096ZM345.534,186.37c0-.909-.64-1.599-1.489-1.599-.5,0-.909.2-1.199.56v2.089c.29.35.72.56,1.199.56.859,0,1.489-.689,1.489-1.609Z"></path>
    <path class="uuid-5e2be029-73fe-45e0-bfc1-1fef7f8a05cc" d="M347.585,187.16v-3.298h1.14v2.968c0,.74.43,1.21,1.1,1.21.45,0,.829-.2,1.09-.601v-3.577h1.129v5.007h-1.129v-.81c-.38.59-.92.89-1.59.89-1.02,0-1.739-.739-1.739-1.789Z"></path>
    <path class="uuid-5e2be029-73fe-45e0-bfc1-1fef7f8a05cc" d="M353.865,187.57v-2.809h-1v-.899h1v-1.38l1.129-.239v1.619h1.39v.899h-1.39v2.559c0,.489.19.68.7.68.22,0,.38-.03.68-.12v.949c-.29.09-.67.14-.97.14-1.01,0-1.539-.479-1.539-1.398Z"></path>
    <path class="uuid-5e2be029-73fe-45e0-bfc1-1fef7f8a05cc" d="M356.876,186.37c0-1.469,1.06-2.588,2.438-2.588,1.369,0,2.369,1.089,2.369,2.588v.271h-3.698c.11.81.72,1.399,1.499,1.399.47,0,.91-.181,1.189-.47l.739.669c-.609.51-1.219.729-1.979.729-1.439,0-2.559-1.129-2.559-2.599ZM360.614,185.94c-.12-.729-.64-1.239-1.31-1.239-.68,0-1.18.49-1.31,1.239h2.619Z"></path>
    <path class="uuid-5e2be029-73fe-45e0-bfc1-1fef7f8a05cc" d="M364.686,183.862h1.13v.819c.38-.59.93-.899,1.579-.899,1.029,0,1.749.729,1.749,1.789v3.298h-1.14v-2.979c0-.729-.43-1.199-1.1-1.199-.459,0-.829.21-1.089.609v3.568h-1.13v-5.007Z"></path>
    <path class="uuid-5e2be029-73fe-45e0-bfc1-1fef7f8a05cc" d="M370.075,186.37c0-1.479,1.079-2.588,2.519-2.588,1.43,0,2.509,1.109,2.509,2.588s-1.079,2.589-2.509,2.589c-1.439,0-2.519-1.109-2.519-2.589ZM373.993,186.37c0-.929-.59-1.629-1.399-1.629-.819,0-1.409.7-1.409,1.629,0,.939.59,1.63,1.409,1.63.81,0,1.399-.69,1.399-1.63Z"></path>
    <path class="uuid-5e2be029-73fe-45e0-bfc1-1fef7f8a05cc" d="M375.846,186.37c0-1.429,1.029-2.548,2.339-2.548.569,0,1.089.229,1.459.649v-2.769l1.13-.2v7.366h-1.12v-.659c-.359.449-.919.709-1.549.709-1.27,0-2.259-1.129-2.259-2.549ZM379.644,187.42v-2.108c-.29-.34-.72-.54-1.189-.54-.859,0-1.499.68-1.499,1.599,0,.91.64,1.6,1.499,1.6.49,0,.899-.19,1.189-.55Z"></path>
    <path class="uuid-5e2be029-73fe-45e0-bfc1-1fef7f8a05cc" d="M381.745,186.37c0-1.469,1.06-2.588,2.438-2.588,1.369,0,2.369,1.089,2.369,2.588v.271h-3.698c.11.81.72,1.399,1.499,1.399.47,0,.91-.181,1.189-.47l.739.669c-.609.51-1.219.729-1.979.729-1.439,0-2.559-1.129-2.559-2.599ZM385.484,185.94c-.12-.729-.64-1.239-1.31-1.239-.68,0-1.18.49-1.31,1.239h2.619Z"></path>
    <path class="uuid-5e2be029-73fe-45e0-bfc1-1fef7f8a05cc" d="M389.205,187.929l.729-.699c.56.579,1.06.789,1.839.789.91,0,1.529-.47,1.529-1.159,0-.63-.51-1.06-1.249-1.06h-.859v-.92h.77c.68,0,1.119-.409,1.119-1.039s-.579-1.109-1.329-1.109c-.699,0-1.169.22-1.739.83l-.739-.69c.64-.709,1.549-1.109,2.509-1.109,1.389,0,2.389.82,2.389,1.97,0,.739-.53,1.358-1.319,1.589.93.199,1.549.819,1.549,1.609,0,1.188-1.1,2.049-2.608,2.049-1.029,0-1.959-.38-2.589-1.05Z"></path>
  </g>
  <g>
    <path class="uuid-5e2be029-73fe-45e0-bfc1-1fef7f8a05cc" d="M411.949,185.371c0-2.029,1.579-3.608,3.618-3.608,1.069,0,2.089.46,2.729,1.25l-.8.779c-.5-.62-1.189-.949-1.929-.949-1.359,0-2.389,1.089-2.389,2.528s1.029,2.528,2.389,2.528c.739,0,1.429-.329,1.929-.949l.8.779c-.64.79-1.659,1.25-2.729,1.25-2.039,0-3.618-1.579-3.618-3.608Z"></path>
    <path class="uuid-5e2be029-73fe-45e0-bfc1-1fef7f8a05cc" d="M418.979,187.16v-3.298h1.14v2.968c0,.74.43,1.21,1.1,1.21.45,0,.829-.2,1.09-.601v-3.577h1.129v5.007h-1.129v-.81c-.38.59-.92.89-1.59.89-1.02,0-1.739-.739-1.739-1.789Z"></path>
    <path class="uuid-5e2be029-73fe-45e0-bfc1-1fef7f8a05cc" d="M424.19,188.289l.529-.749c.66.409,1.1.569,1.609.569.6,0,1.01-.279,1.01-.68,0-.31-.21-.47-.7-.569l-.879-.15c-.979-.18-1.449-.629-1.449-1.379,0-.939.77-1.549,1.938-1.549.7,0,1.329.199,1.969.6l-.529.749c-.51-.329-1-.479-1.51-.479-.52,0-.859.22-.859.58,0,.319.181.459.7.55l.89.17c.999.18,1.479.64,1.479,1.389,0,.92-.879,1.629-2.049,1.629-.859,0-1.619-.239-2.148-.68Z"></path>
    <path class="uuid-5e2be029-73fe-45e0-bfc1-1fef7f8a05cc" d="M429.748,187.57v-2.809h-1v-.899h1v-1.38l1.129-.239v1.619h1.39v.899h-1.39v2.559c0,.489.19.68.7.68.22,0,.38-.03.68-.12v.949c-.29.09-.67.14-.97.14-1.01,0-1.539-.479-1.539-1.398Z"></path>
    <path class="uuid-5e2be029-73fe-45e0-bfc1-1fef7f8a05cc" d="M432.759,186.37c0-1.479,1.079-2.588,2.519-2.588,1.43,0,2.509,1.109,2.509,2.588s-1.079,2.589-2.509,2.589c-1.439,0-2.519-1.109-2.519-2.589ZM436.677,186.37c0-.929-.59-1.629-1.399-1.629-.819,0-1.409.7-1.409,1.629,0,.939.59,1.63,1.409,1.63.81,0,1.399-.69,1.399-1.63Z"></path>
    <path class="uuid-5e2be029-73fe-45e0-bfc1-1fef7f8a05cc" d="M438.758,183.862h1.13v.789c.37-.569.869-.869,1.479-.869.689,0,1.219.369,1.479.959.39-.63.95-.959,1.659-.959.97,0,1.64.749,1.64,1.809v3.278h-1.13v-3.028c0-.699-.39-1.149-1.01-1.149-.409,0-.749.189-.999.6.01.1.02.2.02.3v3.278h-1.139v-3.028c0-.699-.39-1.149-1.01-1.149-.41,0-.739.189-.989.58v3.598h-1.13v-5.007Z"></path>
    <path class="uuid-5e2be029-73fe-45e0-bfc1-1fef7f8a05cc" d="M449.368,183.862h1.13v.819c.38-.59.93-.899,1.579-.899,1.029,0,1.749.729,1.749,1.789v3.298h-1.14v-2.979c0-.729-.43-1.199-1.1-1.199-.459,0-.829.21-1.089.609v3.568h-1.13v-5.007Z"></path>
    <path class="uuid-5e2be029-73fe-45e0-bfc1-1fef7f8a05cc" d="M454.759,186.37c0-1.479,1.079-2.588,2.519-2.588,1.43,0,2.509,1.109,2.509,2.588s-1.079,2.589-2.509,2.589c-1.439,0-2.519-1.109-2.519-2.589ZM458.677,186.37c0-.929-.59-1.629-1.399-1.629-.819,0-1.409.7-1.409,1.629,0,.939.59,1.63,1.409,1.63.81,0,1.399-.69,1.399-1.63Z"></path>
    <path class="uuid-5e2be029-73fe-45e0-bfc1-1fef7f8a05cc" d="M460.528,186.37c0-1.429,1.029-2.548,2.339-2.548.569,0,1.089.229,1.459.649v-2.769l1.13-.2v7.366h-1.12v-.659c-.359.449-.919.709-1.549.709-1.27,0-2.259-1.129-2.259-2.549ZM464.326,187.42v-2.108c-.29-.34-.72-.54-1.189-.54-.859,0-1.499.68-1.499,1.599,0,.91.64,1.6,1.499,1.6.49,0,.899-.19,1.189-.55Z"></path>
    <path class="uuid-5e2be029-73fe-45e0-bfc1-1fef7f8a05cc" d="M466.428,186.37c0-1.469,1.06-2.588,2.438-2.588,1.369,0,2.369,1.089,2.369,2.588v.271h-3.698c.11.81.72,1.399,1.499,1.399.47,0,.91-.181,1.189-.47l.739.669c-.609.51-1.219.729-1.979.729-1.439,0-2.559-1.129-2.559-2.599ZM470.166,185.94c-.12-.729-.64-1.239-1.31-1.239-.68,0-1.18.49-1.31,1.239h2.619Z"></path>
    <path class="uuid-5e2be029-73fe-45e0-bfc1-1fef7f8a05cc" d="M475.148,183.022l-1.239.529v-.969l1.639-.71h.689v6.996h-1.089v-5.847Z"></path>
  </g>
  <g>
    <path class="uuid-5e2be029-73fe-45e0-bfc1-1fef7f8a05cc" d="M497.641,185.371c0-2.029,1.579-3.608,3.618-3.608,1.069,0,2.089.46,2.729,1.25l-.8.779c-.5-.62-1.189-.949-1.929-.949-1.359,0-2.389,1.089-2.389,2.528s1.029,2.528,2.389,2.528c.739,0,1.429-.329,1.929-.949l.8.779c-.64.79-1.659,1.25-2.729,1.25-2.039,0-3.618-1.579-3.618-3.608Z"></path>
    <path class="uuid-5e2be029-73fe-45e0-bfc1-1fef7f8a05cc" d="M504.67,187.16v-3.298h1.14v2.968c0,.74.43,1.21,1.1,1.21.45,0,.829-.2,1.09-.601v-3.577h1.129v5.007h-1.129v-.81c-.38.59-.92.89-1.59.89-1.02,0-1.739-.739-1.739-1.789Z"></path>
    <path class="uuid-5e2be029-73fe-45e0-bfc1-1fef7f8a05cc" d="M509.881,188.289l.529-.749c.66.409,1.1.569,1.609.569.6,0,1.01-.279,1.01-.68,0-.31-.21-.47-.7-.569l-.879-.15c-.979-.18-1.449-.629-1.449-1.379,0-.939.77-1.549,1.938-1.549.7,0,1.329.199,1.969.6l-.529.749c-.51-.329-1-.479-1.51-.479-.52,0-.859.22-.859.58,0,.319.181.459.7.55l.89.17c.999.18,1.479.64,1.479,1.389,0,.92-.879,1.629-2.049,1.629-.859,0-1.619-.239-2.148-.68Z"></path>
    <path class="uuid-5e2be029-73fe-45e0-bfc1-1fef7f8a05cc" d="M515.44,187.57v-2.809h-1v-.899h1v-1.38l1.129-.239v1.619h1.39v.899h-1.39v2.559c0,.489.19.68.7.68.22,0,.38-.03.68-.12v.949c-.29.09-.67.14-.97.14-1.01,0-1.539-.479-1.539-1.398Z"></path>
    <path class="uuid-5e2be029-73fe-45e0-bfc1-1fef7f8a05cc" d="M518.45,186.37c0-1.479,1.079-2.588,2.519-2.588,1.43,0,2.509,1.109,2.509,2.588s-1.079,2.589-2.509,2.589c-1.439,0-2.519-1.109-2.519-2.589ZM522.368,186.37c0-.929-.59-1.629-1.399-1.629-.819,0-1.409.7-1.409,1.629,0,.939.59,1.63,1.409,1.63.81,0,1.399-.69,1.399-1.63Z"></path>
    <path class="uuid-5e2be029-73fe-45e0-bfc1-1fef7f8a05cc" d="M524.449,183.862h1.13v.789c.37-.569.869-.869,1.479-.869.689,0,1.219.369,1.479.959.39-.63.95-.959,1.659-.959.97,0,1.64.749,1.64,1.809v3.278h-1.13v-3.028c0-.699-.39-1.149-1.01-1.149-.409,0-.749.189-.999.6.01.1.02.2.02.3v3.278h-1.139v-3.028c0-.699-.39-1.149-1.01-1.149-.41,0-.739.189-.989.58v3.598h-1.13v-5.007Z"></path>
    <path class="uuid-5e2be029-73fe-45e0-bfc1-1fef7f8a05cc" d="M535.06,183.862h1.13v.819c.38-.59.93-.899,1.579-.899,1.029,0,1.749.729,1.749,1.789v3.298h-1.14v-2.979c0-.729-.43-1.199-1.1-1.199-.459,0-.829.21-1.089.609v3.568h-1.13v-5.007Z"></path>
    <path class="uuid-5e2be029-73fe-45e0-bfc1-1fef7f8a05cc" d="M540.45,186.37c0-1.479,1.079-2.588,2.519-2.588,1.43,0,2.509,1.109,2.509,2.588s-1.079,2.589-2.509,2.589c-1.439,0-2.519-1.109-2.519-2.589ZM544.368,186.37c0-.929-.59-1.629-1.399-1.629-.819,0-1.409.7-1.409,1.629,0,.939.59,1.63,1.409,1.63.81,0,1.399-.69,1.399-1.63Z"></path>
    <path class="uuid-5e2be029-73fe-45e0-bfc1-1fef7f8a05cc" d="M546.22,186.37c0-1.429,1.029-2.548,2.339-2.548.569,0,1.089.229,1.459.649v-2.769l1.13-.2v7.366h-1.12v-.659c-.359.449-.919.709-1.549.709-1.27,0-2.259-1.129-2.259-2.549ZM550.018,187.42v-2.108c-.29-.34-.72-.54-1.189-.54-.859,0-1.499.68-1.499,1.599,0,.91.64,1.6,1.499,1.6.49,0,.899-.19,1.189-.55Z"></path>
    <path class="uuid-5e2be029-73fe-45e0-bfc1-1fef7f8a05cc" d="M552.119,186.37c0-1.469,1.06-2.588,2.438-2.588,1.369,0,2.369,1.089,2.369,2.588v.271h-3.698c.11.81.72,1.399,1.499,1.399.47,0,.91-.181,1.189-.47l.739.669c-.609.51-1.219.729-1.979.729-1.439,0-2.559-1.129-2.559-2.599ZM555.858,185.94c-.12-.729-.64-1.239-1.31-1.239-.68,0-1.18.49-1.31,1.239h2.619Z"></path>
    <path class="uuid-5e2be029-73fe-45e0-bfc1-1fef7f8a05cc" d="M559.739,188.079l2.868-2.998c.51-.539.68-.89.68-1.339,0-.58-.539-1.02-1.27-1.02-.649,0-1.149.229-1.818.85l-.62-.75c.77-.709,1.579-1.06,2.459-1.06,1.369,0,2.309.78,2.309,1.919,0,.68-.24,1.17-.989,1.959l-2.229,2.299,3.348-.01v.939h-4.737v-.79Z"></path>
  </g>
  <g>
    <polyline class="uuid-3a610dac-6856-4ae9-bd1d-6bcb4499b05f" points="463.61 127.076 463.61 144.112 531.031 144.112 531.031 155.764"></polyline>
    <polygon class="uuid-3c0102fb-1b2a-4ae5-85d9-f89e198fc37d" points="527.291 154.67 531.031 161.147 534.771 154.67 527.291 154.67"></polygon>
  </g>
  <g>
    <polyline class="uuid-3a610dac-6856-4ae9-bd1d-6bcb4499b05f" points="463.61 127.076 463.61 144.112 444.199 144.112 444.199 155.764"></polyline>
    <polygon class="uuid-3c0102fb-1b2a-4ae5-85d9-f89e198fc37d" points="440.46 154.67 444.199 161.147 447.939 154.67 440.46 154.67"></polygon>
  </g>
  <g>
    <polyline class="uuid-98f26c6d-782d-4057-929b-df5a92f8cb9b" points="248.828 127.076 248.828 143.609 357.368 143.609 357.368 155.764"></polyline>
    <polygon class="uuid-903fd8b7-7270-4654-87c6-d127816db9b6" points="353.628 154.67 357.368 161.147 361.108 154.67 353.628 154.67"></polygon>
  </g>
  <g>
    <polyline class="uuid-98f26c6d-782d-4057-929b-df5a92f8cb9b" points="248.828 127.076 248.828 143.609 270.536 143.609 270.536 155.764"></polyline>
    <polygon class="uuid-903fd8b7-7270-4654-87c6-d127816db9b6" points="266.796 154.67 270.536 161.147 274.276 154.67 266.796 154.67"></polygon>
  </g>
  <g>
    <polyline class="uuid-98f26c6d-782d-4057-929b-df5a92f8cb9b" points="248.828 127.076 248.828 143.609 183.705 143.609 183.705 155.764"></polyline>
    <polygon class="uuid-903fd8b7-7270-4654-87c6-d127816db9b6" points="179.965 154.67 183.705 161.147 187.444 154.67 179.965 154.67"></polygon>
  </g>
  <g>
    <polyline class="uuid-98f26c6d-782d-4057-929b-df5a92f8cb9b" points="194.559 68.68 194.559 86.751 248.828 86.751 248.828 97.368"></polyline>
    <polygon class="uuid-903fd8b7-7270-4654-87c6-d127816db9b6" points="190.819 69.774 194.559 63.298 198.298 69.774 190.819 69.774"></polygon>
  </g>
  <g>
    <polyline class="uuid-3a610dac-6856-4ae9-bd1d-6bcb4499b05f" points="204.992 68.681 204.992 80.261 463.611 80.261 463.611 97.369"></polyline>
    <polygon class="uuid-3c0102fb-1b2a-4ae5-85d9-f89e198fc37d" points="201.252 69.775 204.992 63.298 208.732 69.775 201.252 69.775"></polygon>
  </g>
  <g>
    <polyline class="uuid-3a610dac-6856-4ae9-bd1d-6bcb4499b05f" points="313.702 68.68 313.702 80.261 463.611 80.261 463.611 97.369"></polyline>
    <polygon class="uuid-3c0102fb-1b2a-4ae5-85d9-f89e198fc37d" points="309.962 69.775 313.702 63.298 317.442 69.775 309.962 69.775"></polygon>
  </g>
  <g>
    <polyline class="uuid-3a610dac-6856-4ae9-bd1d-6bcb4499b05f" points="410.475 68.68 410.475 80.261 463.611 80.261 463.611 97.369"></polyline>
    <polygon class="uuid-3c0102fb-1b2a-4ae5-85d9-f89e198fc37d" points="406.735 69.775 410.475 63.298 414.215 69.775 406.735 69.775"></polygon>
  </g>
  <g>
    <polyline class="uuid-3a610dac-6856-4ae9-bd1d-6bcb4499b05f" points="510.235 68.68 510.235 80.26 463.61 80.26 463.61 97.368"></polyline>
    <polygon class="uuid-3c0102fb-1b2a-4ae5-85d9-f89e198fc37d" points="506.496 69.774 510.235 63.298 513.975 69.774 506.496 69.774"></polygon>
  </g>
  <rect class="uuid-9b21f39a-4b54-4b47-af77-e8e9ab459104" x="300.957" y="78.317" width="4.283" height="4.283"></rect>
  <rect class="uuid-9b21f39a-4b54-4b47-af77-e8e9ab459104" x="461.496" y="84.317" width="4.283" height="4.283"></rect>
  <g>
    <polyline class="uuid-98f26c6d-782d-4057-929b-df5a92f8cb9b" points="303.098 68.68 303.098 86.75 248.828 86.75 248.828 97.368"></polyline>
    <polygon class="uuid-903fd8b7-7270-4654-87c6-d127816db9b6" points="299.358 69.774 303.098 63.298 306.838 69.774 299.358 69.774"></polygon>
  </g>
  <g>
    <polyline class="uuid-98f26c6d-782d-4057-929b-df5a92f8cb9b" points="520.177 68.68 520.177 86.751 248.829 86.751 248.829 97.368"></polyline>
    <polygon class="uuid-903fd8b7-7270-4654-87c6-d127816db9b6" points="516.437 69.774 520.177 63.298 523.917 69.774 516.437 69.774"></polygon>
  </g>
</svg>