<svg id="uuid-87daac5e-ca60-41d1-89c2-f630034f5724" data-name="Layer 1" xmlns="http://www.w3.org/2000/svg" width="841.89" height="186.253" viewBox="0 0 841.89 186.253">
  <defs>
    <style>
      .uuid-018f9ba1-7e22-43e1-8205-e56d6aef3777 {
        fill: none;
        stroke: #231f20;
        stroke-miterlimit: 10;
      }

      .uuid-98db58a7-102a-4e29-a0d1-8db28f2c33aa {
        fill: #231f20;
      }

      .uuid-98db58a7-102a-4e29-a0d1-8db28f2c33aa, .uuid-15e7db66-20eb-416e-9668-cda86d51eb01, .uuid-bf5a170c-5be2-4e8e-8704-2c203c6b45b1 {
        stroke-width: 0px;
      }

      .uuid-15e7db66-20eb-416e-9668-cda86d51eb01 {
        fill: #e6e6e5;
      }

      .uuid-bf5a170c-5be2-4e8e-8704-2c203c6b45b1 {
        fill: #06c;
      }
    </style>
  </defs>
  <rect class="uuid-15e7db66-20eb-416e-9668-cda86d51eb01" x="289.06" y="26.064" width="266.365" height="134.958"></rect>
  <rect class="uuid-15e7db66-20eb-416e-9668-cda86d51eb01" x="22.543" y="26.064" width="243.728" height="134.958"></rect>
  <g>
    <path class="uuid-bf5a170c-5be2-4e8e-8704-2c203c6b45b1" d="m34.301,36.376h1.2v3.188l3.038-3.188h1.469l-3.338,3.368,3.458,3.628h-1.589l-3.038-3.268v3.268h-1.2v-6.996Z"></path>
    <path class="uuid-bf5a170c-5be2-4e8e-8704-2c203c6b45b1" d="m40.702,36.656c0-.38.31-.7.7-.7.38,0,.7.32.7.7s-.32.689-.7.689c-.39,0-.7-.31-.7-.689Zm.13,1.709h1.129v5.007h-1.129v-5.007Z"></path>
    <path class="uuid-bf5a170c-5be2-4e8e-8704-2c203c6b45b1" d="m43.362,38.365h1.129v.82c.38-.59.929-.9,1.579-.9,1.029,0,1.749.73,1.749,1.789v3.298h-1.14v-2.979c0-.729-.43-1.199-1.099-1.199-.46,0-.83.21-1.089.61v3.568h-1.129v-5.007Z"></path>
    <path class="uuid-bf5a170c-5be2-4e8e-8704-2c203c6b45b1" d="m48.952,40.874c0-1.429,1.029-2.549,2.339-2.549.569,0,1.089.23,1.459.65v-2.769l1.129-.2v7.366h-1.119v-.66c-.36.45-.92.709-1.549.709-1.27,0-2.259-1.129-2.259-2.548Zm3.798,1.049v-2.109c-.29-.34-.72-.54-1.189-.54-.859,0-1.499.68-1.499,1.599,0,.909.64,1.599,1.499,1.599.49,0,.9-.19,1.189-.55Z"></path>
    <path class="uuid-bf5a170c-5be2-4e8e-8704-2c203c6b45b1" d="m55.131,38.995c0-.4.31-.73.7-.73s.699.33.699.73-.31.719-.699.719-.7-.32-.7-.719Zm0,3.748c0-.399.31-.729.7-.729s.699.33.699.729-.31.72-.699.72-.7-.32-.7-.72Z"></path>
    <path class="uuid-bf5a170c-5be2-4e8e-8704-2c203c6b45b1" d="m60.111,36.376h2.159l1.689,3.358,1.679-3.358h2.159v6.996h-1.619v-4.748l-2.239,4.248-2.249-4.288v4.788h-1.579v-6.996Z"></path>
    <path class="uuid-bf5a170c-5be2-4e8e-8704-2c203c6b45b1" d="m68.871,41.894c0-.95.74-1.5,2.009-1.5.37,0,.74.07,1.2.24v-.42c0-.5-.33-.75-1.02-.75-.39,0-.85.11-1.449.36l-.56-1.129c.85-.38,1.609-.56,2.369-.56,1.429,0,2.259.71,2.259,1.939v3.298h-1.599v-.45c-.45.38-.879.53-1.429.53-1.05,0-1.779-.64-1.779-1.559Zm2.279.49c.34,0,.65-.09.93-.26v-.66c-.3-.07-.59-.11-.89-.11-.53,0-.83.18-.83.51s.29.52.79.52Z"></path>
    <path class="uuid-bf5a170c-5be2-4e8e-8704-2c203c6b45b1" d="m74.671,40.804c0-1.509,1.159-2.669,2.668-2.669.85,0,1.629.34,2.149.95l-.99.989c-.33-.39-.66-.56-1.099-.56-.64,0-1.12.55-1.12,1.29s.48,1.289,1.12,1.289c.439,0,.77-.17,1.099-.56l.99.989c-.52.61-1.299.95-2.149.95-1.509,0-2.668-1.16-2.668-2.668Z"></path>
    <path class="uuid-bf5a170c-5be2-4e8e-8704-2c203c6b45b1" d="m80.291,36.256l1.619-.25v3.048c.399-.6.959-.92,1.629-.92.999,0,1.709.73,1.709,1.759v3.478h-1.619v-3.008c0-.58-.34-.959-.859-.959-.35,0-.63.14-.859.43v3.538h-1.619v-7.116Z"></path>
    <path class="uuid-bf5a170c-5be2-4e8e-8704-2c203c6b45b1" d="m86.37,36.516c0-.5.41-.909.91-.909s.909.41.909.909-.41.91-.909.91-.91-.41-.91-.91Zm.101,1.699h1.619v5.157h-1.619v-5.157Z"></path>
    <path class="uuid-bf5a170c-5be2-4e8e-8704-2c203c6b45b1" d="m89.351,38.215h1.619v.84c.399-.6.959-.92,1.629-.92.999,0,1.709.73,1.709,1.759v3.478h-1.619v-3.008c0-.58-.34-.959-.859-.959-.35,0-.63.14-.859.43v3.538h-1.619v-5.157Z"></path>
    <path class="uuid-bf5a170c-5be2-4e8e-8704-2c203c6b45b1" d="m95.301,40.804c0-1.509,1.12-2.669,2.599-2.669,1.489,0,2.539,1.129,2.539,2.729v.35h-3.548c.149.58.619.969,1.209.969.43,0,.79-.15,1.02-.43l1.069.89c-.67.589-1.299.83-2.169.83-1.52,0-2.719-1.169-2.719-2.668Zm3.639-.51c-.141-.55-.53-.9-1.05-.9-.51,0-.869.33-.999.9h2.049Z"></path>
    <path class="uuid-bf5a170c-5be2-4e8e-8704-2c203c6b45b1" d="m101.271,39.875c0-2.039,1.608-3.608,3.688-3.608,1.119,0,2.229.53,2.839,1.359l-1.16,1.1c-.459-.62-1.019-.93-1.679-.93-1.09,0-1.909.89-1.909,2.079s.819,2.079,1.909,2.079c.66,0,1.22-.31,1.679-.929l1.16,1.099c-.61.83-1.72,1.359-2.839,1.359-2.079,0-3.688-1.569-3.688-3.608Z"></path>
    <path class="uuid-bf5a170c-5be2-4e8e-8704-2c203c6b45b1" d="m108.271,40.804c0-1.52,1.16-2.669,2.688-2.669s2.688,1.149,2.688,2.669-1.159,2.668-2.688,2.668-2.688-1.149-2.688-2.668Zm3.798,0c0-.77-.459-1.319-1.109-1.319s-1.109.549-1.109,1.319.46,1.319,1.109,1.319,1.109-.549,1.109-1.319Z"></path>
    <path class="uuid-bf5a170c-5be2-4e8e-8704-2c203c6b45b1" d="m114.681,38.215h1.619v.84c.399-.6.959-.92,1.629-.92.999,0,1.709.73,1.709,1.759v3.478h-1.619v-3.008c0-.58-.34-.959-.859-.959-.35,0-.63.14-.859.43v3.538h-1.619v-5.157Z"></path>
    <path class="uuid-bf5a170c-5be2-4e8e-8704-2c203c6b45b1" d="m121.471,39.465h-1.07v-1.25h1.07v-.68c0-1.229.729-1.899,2.059-1.899.279,0,.649.04.859.1v1.329c-.29-.05-.439-.06-.62-.06-.459,0-.679.18-.679.56v.649h1.299v1.25h-1.299v3.908h-1.619v-3.908Z"></path>
    <path class="uuid-bf5a170c-5be2-4e8e-8704-2c203c6b45b1" d="m125.21,36.516c0-.5.41-.909.91-.909s.909.41.909.909-.41.91-.909.91-.91-.41-.91-.91Zm.101,1.699h1.619v5.157h-1.619v-5.157Z"></path>
    <path class="uuid-bf5a170c-5be2-4e8e-8704-2c203c6b45b1" d="m128.49,45.102l.5-1.169c.569.27,1.079.4,1.579.4.77,0,1.169-.32,1.169-.95v-.699c-.34.419-.899.68-1.499.68-1.27,0-2.279-1.16-2.279-2.599s1.06-2.579,2.399-2.579c.55,0,1.049.23,1.398.649v-.62h1.59v5.187c0,1.39-.96,2.159-2.719,2.159-.779,0-1.52-.16-2.139-.46Zm3.248-3.468v-1.719c-.25-.26-.59-.4-.96-.4-.709,0-1.229.53-1.229,1.259s.529,1.27,1.229,1.27c.391,0,.71-.14.96-.41Z"></path>
  </g>
  <g>
    <path class="uuid-98db58a7-102a-4e29-a0d1-8db28f2c33aa" d="m34.162,54.167h1.129v.79c.37-.57.87-.87,1.479-.87.69,0,1.219.37,1.479.959.39-.629.949-.959,1.659-.959.97,0,1.639.75,1.639,1.809v3.278h-1.129v-3.028c0-.7-.39-1.149-1.009-1.149-.41,0-.75.19-1,.6.01.1.02.2.02.3v3.278h-1.139v-3.028c0-.7-.39-1.149-1.01-1.149-.41,0-.739.19-.989.58v3.598h-1.129v-5.007Z"></path>
    <path class="uuid-98db58a7-102a-4e29-a0d1-8db28f2c33aa" d="m42.691,56.676c0-1.469,1.06-2.589,2.438-2.589,1.37,0,2.369,1.089,2.369,2.589v.27h-3.698c.11.81.72,1.399,1.499,1.399.47,0,.91-.18,1.189-.47l.74.669c-.61.51-1.219.73-1.979.73-1.439,0-2.559-1.129-2.559-2.599Zm3.738-.43c-.12-.73-.64-1.239-1.309-1.239-.68,0-1.179.49-1.309,1.239h2.618Z"></path>
    <path class="uuid-98db58a7-102a-4e29-a0d1-8db28f2c33aa" d="m49.121,57.875v-2.809h-1v-.899h1v-1.379l1.129-.24v1.619h1.389v.899h-1.389v2.559c0,.49.19.68.7.68.22,0,.379-.03.68-.12v.949c-.29.09-.67.14-.97.14-1.009,0-1.539-.48-1.539-1.399Z"></path>
    <path class="uuid-98db58a7-102a-4e29-a0d1-8db28f2c33aa" d="m52.382,57.735c0-.899.739-1.469,1.919-1.469.47,0,.909.1,1.349.32v-.56c0-.66-.38-1-1.149-1-.42,0-.879.12-1.459.39l-.4-.82c.75-.34,1.409-.51,2.079-.51,1.31,0,2.049.66,2.049,1.819v3.268h-1.119v-.52c-.43.419-.91.609-1.489.609-1.049,0-1.779-.629-1.779-1.529Zm2.089.73c.45,0,.839-.13,1.179-.42v-.81c-.36-.17-.72-.24-1.149-.24-.649,0-1.06.27-1.06.72,0,.459.4.75,1.03.75Z"></path>
    <path class="uuid-98db58a7-102a-4e29-a0d1-8db28f2c33aa" d="m57.911,56.676c0-1.429,1.029-2.549,2.339-2.549.569,0,1.089.23,1.459.65v-2.769l1.129-.2v7.366h-1.119v-.66c-.36.45-.919.709-1.549.709-1.27,0-2.259-1.129-2.259-2.548Zm3.798,1.049v-2.109c-.29-.34-.72-.54-1.189-.54-.859,0-1.499.68-1.499,1.599,0,.909.64,1.599,1.499,1.599.49,0,.9-.19,1.189-.55Z"></path>
    <path class="uuid-98db58a7-102a-4e29-a0d1-8db28f2c33aa" d="m63.981,57.735c0-.899.739-1.469,1.919-1.469.47,0,.909.1,1.349.32v-.56c0-.66-.38-1-1.149-1-.42,0-.879.12-1.459.39l-.4-.82c.75-.34,1.409-.51,2.079-.51,1.31,0,2.049.66,2.049,1.819v3.268h-1.119v-.52c-.43.419-.91.609-1.489.609-1.049,0-1.779-.629-1.779-1.529Zm2.089.73c.45,0,.839-.13,1.179-.42v-.81c-.36-.17-.72-.24-1.149-.24-.649,0-1.06.27-1.06.72,0,.459.4.75,1.03.75Z"></path>
    <path class="uuid-98db58a7-102a-4e29-a0d1-8db28f2c33aa" d="m70.21,57.875v-2.809h-1v-.899h1v-1.379l1.129-.24v1.619h1.389v.899h-1.389v2.559c0,.49.19.68.7.68.22,0,.379-.03.68-.12v.949c-.29.09-.67.14-.97.14-1.009,0-1.539-.48-1.539-1.399Z"></path>
    <path class="uuid-98db58a7-102a-4e29-a0d1-8db28f2c33aa" d="m73.471,57.735c0-.899.739-1.469,1.919-1.469.47,0,.909.1,1.349.32v-.56c0-.66-.38-1-1.149-1-.42,0-.879.12-1.459.39l-.4-.82c.75-.34,1.409-.51,2.079-.51,1.31,0,2.049.66,2.049,1.819v3.268h-1.119v-.52c-.43.419-.91.609-1.489.609-1.049,0-1.779-.629-1.779-1.529Zm2.089.73c.45,0,.839-.13,1.179-.42v-.81c-.36-.17-.72-.24-1.149-.24-.649,0-1.06.27-1.06.72,0,.459.4.75,1.03.75Z"></path>
    <path class="uuid-98db58a7-102a-4e29-a0d1-8db28f2c33aa" d="m79.081,54.797c0-.4.31-.73.7-.73s.699.33.699.73-.31.719-.699.719-.7-.32-.7-.719Zm0,3.748c0-.399.31-.729.7-.729s.699.33.699.729-.31.72-.699.72-.7-.32-.7-.72Z"></path>
  </g>
  <g>
    <path class="uuid-98db58a7-102a-4e29-a0d1-8db28f2c33aa" d="m34.092,67.79l1.619-.25v7.366h-1.619v-7.116Z"></path>
    <path class="uuid-98db58a7-102a-4e29-a0d1-8db28f2c33aa" d="m36.731,73.427c0-.95.74-1.5,2.009-1.5.37,0,.74.07,1.2.24v-.42c0-.5-.33-.75-1.02-.75-.39,0-.85.11-1.449.36l-.56-1.129c.85-.38,1.609-.56,2.369-.56,1.429,0,2.259.71,2.259,1.939v3.298h-1.599v-.45c-.45.38-.879.53-1.429.53-1.05,0-1.779-.64-1.779-1.559Zm2.279.49c.34,0,.65-.09.93-.26v-.66c-.3-.07-.59-.11-.89-.11-.53,0-.83.18-.83.51s.29.52.79.52Z"></path>
    <path class="uuid-98db58a7-102a-4e29-a0d1-8db28f2c33aa" d="m42.762,67.79l1.619-.25v2.868c.34-.42.9-.689,1.509-.689,1.27,0,2.279,1.169,2.279,2.619s-1.06,2.598-2.398,2.598c-.56,0-1.06-.24-1.409-.66v.63h-1.599v-7.116Zm3.818,4.538c0-.729-.53-1.269-1.229-1.269-.4,0-.709.14-.97.419v1.719c.25.26.59.41.97.41.709,0,1.229-.54,1.229-1.279Z"></path>
    <path class="uuid-98db58a7-102a-4e29-a0d1-8db28f2c33aa" d="m48.972,72.337c0-1.509,1.119-2.669,2.599-2.669,1.489,0,2.539,1.129,2.539,2.729v.35h-3.548c.15.58.62.969,1.209.969.43,0,.79-.15,1.02-.43l1.069.89c-.669.589-1.299.83-2.169.83-1.519,0-2.718-1.169-2.718-2.668Zm3.638-.51c-.14-.55-.529-.9-1.049-.9-.51,0-.87.33-1,.9h2.049Z"></path>
    <path class="uuid-98db58a7-102a-4e29-a0d1-8db28f2c33aa" d="m55.122,67.79l1.619-.25v7.366h-1.619v-7.116Z"></path>
    <path class="uuid-98db58a7-102a-4e29-a0d1-8db28f2c33aa" d="m57.582,74.376l.709-1.079c.74.39,1.159.52,1.659.52.46,0,.74-.16.74-.42,0-.2-.15-.31-.48-.37l-.989-.18c-1-.189-1.52-.699-1.52-1.499,0-1.049.81-1.679,2.159-1.679.719,0,1.429.2,2.099.59l-.74,1.029c-.52-.3-.999-.439-1.479-.439-.39,0-.62.13-.62.35,0,.21.13.3.53.37l.969.18c1.02.19,1.549.709,1.549,1.489,0,1.009-.95,1.769-2.219,1.769-.939,0-1.769-.22-2.369-.63Z"></path>
    <path class="uuid-98db58a7-102a-4e29-a0d1-8db28f2c33aa" d="m62.821,70.588c0-.52.41-.95.91-.95s.909.43.909.95-.41.949-.909.949-.91-.43-.91-.949Zm0,3.478c0-.52.41-.95.91-.95s.909.43.909.95-.41.949-.909.949-.91-.43-.91-.949Z"></path>
  </g>
  <g>
    <path class="uuid-98db58a7-102a-4e29-a0d1-8db28f2c33aa" d="m41.066,84.642h1.129v.79c.37-.57.87-.87,1.479-.87.69,0,1.219.37,1.479.959.39-.629.949-.959,1.659-.959.97,0,1.639.75,1.639,1.809v3.278h-1.129v-3.028c0-.7-.39-1.149-1.009-1.149-.41,0-.75.19-1,.6.01.1.02.2.02.3v3.278h-1.139v-3.028c0-.7-.39-1.149-1.01-1.149-.41,0-.739.19-.989.58v3.598h-1.129v-5.007Z"></path>
    <path class="uuid-98db58a7-102a-4e29-a0d1-8db28f2c33aa" d="m49.566,88.209c0-.899.739-1.469,1.919-1.469.47,0,.909.1,1.349.32v-.56c0-.66-.38-1-1.149-1-.42,0-.879.12-1.459.39l-.4-.82c.75-.34,1.409-.51,2.079-.51,1.31,0,2.049.66,2.049,1.819v3.268h-1.119v-.52c-.43.419-.91.609-1.489.609-1.049,0-1.779-.629-1.779-1.529Zm2.089.73c.45,0,.839-.13,1.179-.42v-.81c-.36-.17-.72-.24-1.149-.24-.649,0-1.06.27-1.06.72,0,.459.4.75,1.03.75Z"></path>
    <path class="uuid-98db58a7-102a-4e29-a0d1-8db28f2c33aa" d="m55.096,87.15c0-1.449,1.1-2.589,2.529-2.589.779,0,1.499.31,1.999.85l-.699.729c-.35-.39-.78-.589-1.26-.589-.809,0-1.439.7-1.439,1.599,0,.909.63,1.599,1.439,1.599.48,0,.91-.2,1.26-.58l.699.719c-.5.54-1.219.85-1.999.85-1.429,0-2.529-1.129-2.529-2.588Z"></path>
    <path class="uuid-98db58a7-102a-4e29-a0d1-8db28f2c33aa" d="m60.556,82.483l1.129-.2v3.178c.38-.59.929-.9,1.579-.9,1.029,0,1.749.73,1.749,1.789v3.298h-1.14v-2.979c0-.729-.43-1.199-1.099-1.199-.46,0-.83.21-1.089.61v3.568h-1.129v-7.166Z"></path>
    <path class="uuid-98db58a7-102a-4e29-a0d1-8db28f2c33aa" d="m66.235,82.933c0-.38.31-.7.7-.7.38,0,.7.32.7.7s-.32.689-.7.689c-.39,0-.7-.31-.7-.689Zm.13,1.709h1.129v5.007h-1.129v-5.007Z"></path>
    <path class="uuid-98db58a7-102a-4e29-a0d1-8db28f2c33aa" d="m68.896,84.642h1.129v.82c.38-.59.929-.9,1.579-.9,1.029,0,1.749.73,1.749,1.789v3.298h-1.14v-2.979c0-.729-.43-1.199-1.099-1.199-.46,0-.83.21-1.089.61v3.568h-1.129v-5.007Z"></path>
    <path class="uuid-98db58a7-102a-4e29-a0d1-8db28f2c33aa" d="m74.485,87.15c0-1.469,1.06-2.589,2.438-2.589,1.37,0,2.369,1.089,2.369,2.589v.27h-3.698c.11.81.72,1.399,1.499,1.399.47,0,.91-.18,1.189-.47l.74.669c-.61.51-1.219.73-1.979.73-1.439,0-2.559-1.129-2.559-2.599Zm3.738-.43c-.12-.73-.64-1.239-1.309-1.239-.68,0-1.179.49-1.309,1.239h2.618Z"></path>
    <path class="uuid-98db58a7-102a-4e29-a0d1-8db28f2c33aa" d="m80.235,87.15c0-1.449,1.1-2.589,2.528-2.589.78,0,1.499.31,1.999.85l-.699.729c-.35-.39-.78-.589-1.26-.589-.81,0-1.438.7-1.438,1.599,0,.909.629,1.599,1.438,1.599.479,0,.91-.2,1.26-.58l.699.719c-.5.54-1.219.85-1.999.85-1.429,0-2.528-1.129-2.528-2.588Z"></path>
    <path class="uuid-98db58a7-102a-4e29-a0d1-8db28f2c33aa" d="m85.315,87.15c0-1.479,1.079-2.589,2.519-2.589,1.43,0,2.509,1.109,2.509,2.589s-1.079,2.588-2.509,2.588c-1.439,0-2.519-1.109-2.519-2.588Zm3.918,0c0-.93-.59-1.629-1.399-1.629-.819,0-1.409.7-1.409,1.629,0,.939.59,1.629,1.409,1.629.81,0,1.399-.689,1.399-1.629Z"></path>
    <path class="uuid-98db58a7-102a-4e29-a0d1-8db28f2c33aa" d="m91.515,84.642h1.13v.82c.38-.59.93-.9,1.579-.9,1.029,0,1.749.73,1.749,1.789v3.298h-1.14v-2.979c0-.729-.43-1.199-1.1-1.199-.459,0-.829.21-1.089.61v3.568h-1.13v-5.007Z"></path>
    <path class="uuid-98db58a7-102a-4e29-a0d1-8db28f2c33aa" d="m97.864,85.541h-1.079v-.899h1.079v-.859c0-1.089.61-1.679,1.729-1.679.279,0,.56.03.749.09v.959c-.249-.05-.399-.07-.6-.07-.52,0-.749.23-.749.72v.839h1.349v.899h-1.349v4.108h-1.13v-4.108Z"></path>
    <path class="uuid-98db58a7-102a-4e29-a0d1-8db28f2c33aa" d="m101.155,82.933c0-.38.31-.7.7-.7.379,0,.699.32.699.7s-.32.689-.699.689c-.391,0-.7-.31-.7-.689Zm.13,1.709h1.13v5.007h-1.13v-5.007Z"></path>
    <path class="uuid-98db58a7-102a-4e29-a0d1-8db28f2c33aa" d="m104.145,91.348l.39-.83c.59.29,1.069.419,1.569.419.84,0,1.279-.379,1.279-1.109v-.849c-.359.439-.909.699-1.539.699-1.27,0-2.259-1.129-2.259-2.548s1.029-2.529,2.339-2.529c.579,0,1.1.23,1.469.67v-.63h1.12v5.187c0,1.29-.84,2.009-2.359,2.009-.72,0-1.419-.18-2.009-.49Zm3.238-3.158v-2.099c-.29-.34-.72-.54-1.189-.54-.859,0-1.499.669-1.499,1.589,0,.91.64,1.599,1.499,1.599.49,0,.899-.2,1.189-.549Z"></path>
    <path class="uuid-98db58a7-102a-4e29-a0d1-8db28f2c33aa" d="m109.864,87.94v-3.298h1.14v2.968c0,.74.43,1.209,1.1,1.209.45,0,.829-.2,1.09-.6v-3.578h1.129v5.007h-1.129v-.81c-.38.59-.92.89-1.59.89-1.02,0-1.739-.74-1.739-1.789Z"></path>
    <path class="uuid-98db58a7-102a-4e29-a0d1-8db28f2c33aa" d="m115.725,84.642h1.13v1.08c.279-.76.76-1.169,1.379-1.169.19.01.32.03.49.1v.989c-.181-.07-.41-.12-.62-.12-.55,0-.999.31-1.249.83v3.298h-1.13v-5.007Z"></path>
    <path class="uuid-98db58a7-102a-4e29-a0d1-8db28f2c33aa" d="m119.244,88.209c0-.899.74-1.469,1.919-1.469.47,0,.91.1,1.35.32v-.56c0-.66-.38-1-1.149-1-.42,0-.88.12-1.459.39l-.4-.82c.75-.34,1.409-.51,2.079-.51,1.31,0,2.049.66,2.049,1.819v3.268h-1.119v-.52c-.43.419-.909.609-1.489.609-1.05,0-1.779-.629-1.779-1.529Zm2.089.73c.45,0,.84-.13,1.18-.42v-.81c-.359-.17-.72-.24-1.149-.24-.649,0-1.06.27-1.06.72,0,.459.4.75,1.029.75Z"></path>
    <path class="uuid-98db58a7-102a-4e29-a0d1-8db28f2c33aa" d="m125.475,88.35v-2.809h-1v-.899h1v-1.379l1.129-.24v1.619h1.39v.899h-1.39v2.559c0,.49.19.68.7.68.22,0,.38-.03.68-.12v.949c-.29.09-.67.14-.97.14-1.01,0-1.539-.48-1.539-1.399Z"></path>
    <path class="uuid-98db58a7-102a-4e29-a0d1-8db28f2c33aa" d="m128.854,82.933c0-.38.31-.7.7-.7.379,0,.699.32.699.7s-.32.689-.699.689c-.391,0-.7-.31-.7-.689Zm.13,1.709h1.13v5.007h-1.13v-5.007Z"></path>
    <path class="uuid-98db58a7-102a-4e29-a0d1-8db28f2c33aa" d="m131.284,87.15c0-1.479,1.079-2.589,2.519-2.589,1.43,0,2.509,1.109,2.509,2.589s-1.079,2.588-2.509,2.588c-1.439,0-2.519-1.109-2.519-2.588Zm3.918,0c0-.93-.59-1.629-1.399-1.629-.819,0-1.409.7-1.409,1.629,0,.939.59,1.629,1.409,1.629.81,0,1.399-.689,1.399-1.629Z"></path>
    <path class="uuid-98db58a7-102a-4e29-a0d1-8db28f2c33aa" d="m137.483,84.642h1.13v.82c.38-.59.93-.9,1.579-.9,1.029,0,1.749.73,1.749,1.789v3.298h-1.14v-2.979c0-.729-.43-1.199-1.1-1.199-.459,0-.829.21-1.089.61v3.568h-1.13v-5.007Z"></path>
    <path class="uuid-98db58a7-102a-4e29-a0d1-8db28f2c33aa" d="m143.154,89.019c0-.399.31-.729.699-.729s.7.33.7.729-.311.72-.7.72-.699-.32-.699-.72Z"></path>
    <path class="uuid-98db58a7-102a-4e29-a0d1-8db28f2c33aa" d="m145.374,87.15c0-1.479,1.079-2.589,2.519-2.589,1.43,0,2.509,1.109,2.509,2.589s-1.079,2.588-2.509,2.588c-1.439,0-2.519-1.109-2.519-2.588Zm3.918,0c0-.93-.59-1.629-1.399-1.629-.819,0-1.409.7-1.409,1.629,0,.939.59,1.629,1.409,1.629.81,0,1.399-.689,1.399-1.629Z"></path>
    <path class="uuid-98db58a7-102a-4e29-a0d1-8db28f2c33aa" d="m151.573,84.642h1.109v.709c.36-.47.92-.75,1.56-.75,1.27,0,2.259,1.129,2.259,2.549,0,1.429-1.02,2.548-2.329,2.548-.589,0-1.109-.22-1.469-.64v2.679h-1.13v-7.096Zm3.818,2.509c0-.91-.64-1.599-1.489-1.599-.5,0-.909.2-1.199.56v2.089c.29.35.72.56,1.199.56.859,0,1.489-.689,1.489-1.609Z"></path>
    <path class="uuid-98db58a7-102a-4e29-a0d1-8db28f2c33aa" d="m157.454,87.15c0-1.469,1.06-2.589,2.438-2.589,1.369,0,2.369,1.089,2.369,2.589v.27h-3.698c.11.81.72,1.399,1.499,1.399.47,0,.91-.18,1.189-.47l.739.669c-.609.51-1.219.73-1.979.73-1.439,0-2.559-1.129-2.559-2.599Zm3.738-.43c-.12-.73-.64-1.239-1.31-1.239-.68,0-1.18.49-1.31,1.239h2.619Z"></path>
    <path class="uuid-98db58a7-102a-4e29-a0d1-8db28f2c33aa" d="m163.413,84.642h1.13v.82c.38-.59.93-.9,1.579-.9,1.029,0,1.749.73,1.749,1.789v3.298h-1.14v-2.979c0-.729-.43-1.199-1.1-1.199-.459,0-.829.21-1.089.61v3.568h-1.13v-5.007Z"></path>
    <path class="uuid-98db58a7-102a-4e29-a0d1-8db28f2c33aa" d="m168.784,89.069l.529-.75c.66.41,1.1.569,1.609.569.6,0,1.01-.28,1.01-.68,0-.31-.21-.47-.7-.569l-.879-.15c-.979-.18-1.449-.63-1.449-1.379,0-.939.77-1.549,1.938-1.549.7,0,1.329.2,1.969.6l-.529.75c-.51-.33-1-.48-1.509-.48-.521,0-.86.22-.86.58,0,.32.181.46.7.55l.89.17c.999.18,1.479.64,1.479,1.389,0,.919-.879,1.629-2.049,1.629-.859,0-1.619-.24-2.148-.68Z"></path>
    <path class="uuid-98db58a7-102a-4e29-a0d1-8db28f2c33aa" d="m174.023,82.483l1.13-.2v3.178c.38-.59.93-.9,1.579-.9,1.029,0,1.749.73,1.749,1.789v3.298h-1.14v-2.979c0-.729-.43-1.199-1.1-1.199-.459,0-.829.21-1.089.61v3.568h-1.13v-7.166Z"></path>
    <path class="uuid-98db58a7-102a-4e29-a0d1-8db28f2c33aa" d="m179.703,82.933c0-.38.31-.7.7-.7.379,0,.699.32.699.7s-.32.689-.699.689c-.391,0-.7-.31-.7-.689Zm.13,1.709h1.13v5.007h-1.13v-5.007Z"></path>
    <path class="uuid-98db58a7-102a-4e29-a0d1-8db28f2c33aa" d="m183.043,85.541h-1.079v-.899h1.079v-.859c0-1.089.61-1.679,1.729-1.679.279,0,.56.03.749.09v.959c-.249-.05-.399-.07-.6-.07-.52,0-.749.23-.749.72v.839h1.349v.899h-1.349v4.108h-1.13v-4.108Z"></path>
    <path class="uuid-98db58a7-102a-4e29-a0d1-8db28f2c33aa" d="m187.143,88.35v-2.809h-1v-.899h1v-1.379l1.129-.24v1.619h1.39v.899h-1.39v2.559c0,.49.19.68.7.68.22,0,.38-.03.68-.12v.949c-.29.09-.67.14-.97.14-1.01,0-1.539-.48-1.539-1.399Z"></path>
    <path class="uuid-98db58a7-102a-4e29-a0d1-8db28f2c33aa" d="m190.514,89.019c0-.399.31-.729.699-.729s.7.33.7.729-.311.72-.7.72-.699-.32-.699-.72Z"></path>
    <path class="uuid-98db58a7-102a-4e29-a0d1-8db28f2c33aa" d="m193.023,82.933c0-.38.31-.7.7-.7.379,0,.699.32.699.7s-.32.689-.699.689c-.391,0-.7-.31-.7-.689Zm.13,1.709h1.13v5.007h-1.13v-5.007Z"></path>
    <path class="uuid-98db58a7-102a-4e29-a0d1-8db28f2c33aa" d="m195.453,87.15c0-1.479,1.079-2.589,2.519-2.589,1.43,0,2.509,1.109,2.509,2.589s-1.079,2.588-2.509,2.588c-1.439,0-2.519-1.109-2.519-2.588Zm3.918,0c0-.93-.59-1.629-1.399-1.629-.819,0-1.409.7-1.409,1.629,0,.939.59,1.629,1.409,1.629.81,0,1.399-.689,1.399-1.629Z"></path>
    <path class="uuid-98db58a7-102a-4e29-a0d1-8db28f2c33aa" d="m204.151,82.653h1.1l-4.008,9.085h-1.09l3.998-9.085Z"></path>
    <path class="uuid-98db58a7-102a-4e29-a0d1-8db28f2c33aa" d="m205.843,84.642h1.13v1.08c.279-.76.76-1.169,1.379-1.169.19.01.32.03.49.1v.989c-.18-.07-.41-.12-.62-.12-.55,0-.999.31-1.249.83v3.298h-1.13v-5.007Z"></path>
    <path class="uuid-98db58a7-102a-4e29-a0d1-8db28f2c33aa" d="m209.313,87.15c0-1.479,1.079-2.589,2.519-2.589,1.43,0,2.509,1.109,2.509,2.589s-1.079,2.588-2.509,2.588c-1.439,0-2.519-1.109-2.519-2.588Zm3.918,0c0-.93-.59-1.629-1.399-1.629-.819,0-1.409.7-1.409,1.629,0,.939.59,1.629,1.409,1.629.81,0,1.399-.689,1.399-1.629Z"></path>
    <path class="uuid-98db58a7-102a-4e29-a0d1-8db28f2c33aa" d="m215.513,82.483l1.13-.2v7.366h-1.13v-7.166Z"></path>
    <path class="uuid-98db58a7-102a-4e29-a0d1-8db28f2c33aa" d="m217.803,87.15c0-1.469,1.06-2.589,2.438-2.589,1.369,0,2.369,1.089,2.369,2.589v.27h-3.698c.11.81.72,1.399,1.499,1.399.47,0,.91-.18,1.189-.47l.739.669c-.609.51-1.219.73-1.979.73-1.439,0-2.559-1.129-2.559-2.599Zm3.738-.43c-.12-.73-.64-1.239-1.31-1.239-.68,0-1.18.49-1.31,1.239h2.619Z"></path>
    <path class="uuid-98db58a7-102a-4e29-a0d1-8db28f2c33aa" d="m223.613,85.271c0-.4.31-.73.699-.73s.7.33.7.73-.311.719-.7.719-.699-.32-.699-.719Zm0,3.748c0-.399.31-.729.699-.729s.7.33.7.729-.311.72-.7.72-.699-.32-.699-.72Z"></path>
    <path class="uuid-98db58a7-102a-4e29-a0d1-8db28f2c33aa" d="m228.043,84.642h1.08l.879,3.528,1.04-3.528h.949l1.029,3.528.88-3.528h1.049l-1.349,5.007h-1.08l-1.02-3.528-1.009,3.528h-1.1l-1.35-5.007Z"></path>
    <path class="uuid-98db58a7-102a-4e29-a0d1-8db28f2c33aa" d="m235.543,87.15c0-1.479,1.079-2.589,2.519-2.589,1.43,0,2.509,1.109,2.509,2.589s-1.079,2.588-2.509,2.588c-1.439,0-2.519-1.109-2.519-2.588Zm3.918,0c0-.93-.59-1.629-1.399-1.629-.819,0-1.409.7-1.409,1.629,0,.939.59,1.629,1.409,1.629.81,0,1.399-.689,1.399-1.629Z"></path>
    <path class="uuid-98db58a7-102a-4e29-a0d1-8db28f2c33aa" d="m241.742,84.642h1.13v1.08c.279-.76.76-1.169,1.379-1.169.19.01.32.03.49.1v.989c-.181-.07-.41-.12-.62-.12-.55,0-.999.31-1.249.83v3.298h-1.13v-5.007Z"></path>
    <path class="uuid-98db58a7-102a-4e29-a0d1-8db28f2c33aa" d="m245.672,82.463l1.13-.19v4.498l2.079-2.129h1.299l-2.309,2.319,2.429,2.688h-1.439l-2.059-2.309v2.309h-1.13v-7.186Z"></path>
    <path class="uuid-98db58a7-102a-4e29-a0d1-8db28f2c33aa" d="m250.452,87.15c0-1.469,1.06-2.589,2.438-2.589,1.369,0,2.369,1.089,2.369,2.589v.27h-3.698c.11.81.72,1.399,1.499,1.399.47,0,.91-.18,1.189-.47l.739.669c-.609.51-1.219.73-1.979.73-1.439,0-2.559-1.129-2.559-2.599Zm3.738-.43c-.12-.73-.64-1.239-1.31-1.239-.68,0-1.18.49-1.31,1.239h2.619Z"></path>
    <path class="uuid-98db58a7-102a-4e29-a0d1-8db28f2c33aa" d="m256.412,84.642h1.13v1.08c.279-.76.76-1.169,1.379-1.169.19.01.32.03.49.1v.989c-.181-.07-.41-.12-.62-.12-.55,0-.999.31-1.249.83v3.298h-1.13v-5.007Z"></path>
  </g>
  <rect class="uuid-15e7db66-20eb-416e-9668-cda86d51eb01" x="578.214" y="26.064" width="242.128" height="134.958"></rect>
  <g>
    <path class="uuid-bf5a170c-5be2-4e8e-8704-2c203c6b45b1" d="m591.375,36.376h1.199v3.188l3.038-3.188h1.47l-3.339,3.368,3.458,3.628h-1.589l-3.038-3.268v3.268h-1.199v-6.996Z"></path>
    <path class="uuid-bf5a170c-5be2-4e8e-8704-2c203c6b45b1" d="m597.774,36.656c0-.38.31-.7.7-.7.379,0,.699.32.699.7s-.32.689-.699.689c-.391,0-.7-.31-.7-.689Zm.13,1.709h1.13v5.007h-1.13v-5.007Z"></path>
    <path class="uuid-bf5a170c-5be2-4e8e-8704-2c203c6b45b1" d="m600.434,38.365h1.13v.82c.38-.59.93-.9,1.579-.9,1.029,0,1.749.73,1.749,1.789v3.298h-1.14v-2.979c0-.729-.43-1.199-1.1-1.199-.459,0-.829.21-1.089.61v3.568h-1.13v-5.007Z"></path>
    <path class="uuid-bf5a170c-5be2-4e8e-8704-2c203c6b45b1" d="m606.024,40.874c0-1.429,1.029-2.549,2.339-2.549.569,0,1.089.23,1.459.65v-2.769l1.13-.2v7.366h-1.12v-.66c-.359.45-.919.709-1.549.709-1.27,0-2.259-1.129-2.259-2.548Zm3.798,1.049v-2.109c-.29-.34-.72-.54-1.189-.54-.859,0-1.499.68-1.499,1.599,0,.909.64,1.599,1.499,1.599.49,0,.899-.19,1.189-.55Z"></path>
    <path class="uuid-bf5a170c-5be2-4e8e-8704-2c203c6b45b1" d="m612.205,38.995c0-.4.31-.73.699-.73s.7.33.7.73-.311.719-.7.719-.699-.32-.699-.719Zm0,3.748c0-.399.31-.729.699-.729s.7.33.7.729-.311.72-.7.72-.699-.32-.699-.72Z"></path>
    <path class="uuid-bf5a170c-5be2-4e8e-8704-2c203c6b45b1" d="m617.183,36.376h1.619l3.108,4.238-.03-4.238h1.619v6.996h-1.519l-3.208-4.377.029,4.377h-1.619v-6.996Z"></path>
    <path class="uuid-bf5a170c-5be2-4e8e-8704-2c203c6b45b1" d="m624.684,40.804c0-1.52,1.16-2.669,2.688-2.669s2.688,1.149,2.688,2.669-1.159,2.668-2.688,2.668-2.688-1.149-2.688-2.668Zm3.798,0c0-.77-.459-1.319-1.109-1.319s-1.109.549-1.109,1.319.46,1.319,1.109,1.319,1.109-.549,1.109-1.319Z"></path>
    <path class="uuid-bf5a170c-5be2-4e8e-8704-2c203c6b45b1" d="m630.864,40.784c0-1.449,1.06-2.599,2.399-2.599.539,0,1.029.22,1.379.62v-2.549l1.619-.25v7.366h-1.6v-.669c-.34.43-.909.699-1.519.699-1.27,0-2.279-1.169-2.279-2.618Zm3.778.869v-1.739c-.25-.26-.59-.4-.96-.4-.709,0-1.229.54-1.229,1.279,0,.729.529,1.27,1.229,1.27.391,0,.71-.14.96-.41Z"></path>
    <path class="uuid-bf5a170c-5be2-4e8e-8704-2c203c6b45b1" d="m637.293,40.804c0-1.509,1.12-2.669,2.599-2.669,1.489,0,2.539,1.129,2.539,2.729v.35h-3.548c.149.58.619.969,1.209.969.43,0,.79-.15,1.02-.43l1.069.89c-.67.589-1.299.83-2.169.83-1.52,0-2.719-1.169-2.719-2.668Zm3.639-.51c-.141-.55-.53-.9-1.05-.9-.51,0-.869.33-.999.9h2.049Z"></path>
  </g>
  <g>
    <path class="uuid-98db58a7-102a-4e29-a0d1-8db28f2c33aa" d="m599.259,67.74l1.13-.2v7.366h-1.13v-7.166Z"></path>
    <path class="uuid-98db58a7-102a-4e29-a0d1-8db28f2c33aa" d="m601.519,73.466c0-.899.74-1.469,1.919-1.469.47,0,.91.1,1.35.32v-.56c0-.66-.38-1-1.149-1-.42,0-.88.12-1.459.39l-.4-.82c.75-.34,1.409-.51,2.079-.51,1.31,0,2.049.66,2.049,1.819v3.268h-1.119v-.52c-.43.419-.909.609-1.489.609-1.05,0-1.779-.629-1.779-1.529Zm2.089.73c.45,0,.84-.13,1.18-.42v-.81c-.359-.17-.72-.24-1.149-.24-.649,0-1.06.27-1.06.72,0,.459.4.75,1.029.75Z"></path>
    <path class="uuid-98db58a7-102a-4e29-a0d1-8db28f2c33aa" d="m607.279,67.77l1.13-.19v2.989c.35-.44.909-.71,1.539-.71,1.27,0,2.259,1.129,2.259,2.549,0,1.429-1.02,2.548-2.329,2.548-.589,0-1.109-.24-1.489-.689v.64h-1.109v-7.136Zm3.818,4.638c0-.91-.64-1.599-1.489-1.599-.5,0-.909.2-1.199.56v2.089c.29.35.72.56,1.199.56.859,0,1.489-.689,1.489-1.609Z"></path>
    <path class="uuid-98db58a7-102a-4e29-a0d1-8db28f2c33aa" d="m613.16,72.407c0-1.469,1.06-2.589,2.438-2.589,1.369,0,2.369,1.089,2.369,2.589v.27h-3.698c.11.81.72,1.399,1.499,1.399.47,0,.91-.18,1.189-.47l.739.669c-.609.51-1.219.73-1.979.73-1.439,0-2.559-1.129-2.559-2.599Zm3.738-.43c-.12-.73-.64-1.239-1.31-1.239-.68,0-1.18.49-1.31,1.239h2.619Z"></path>
    <path class="uuid-98db58a7-102a-4e29-a0d1-8db28f2c33aa" d="m619.119,67.74l1.13-.2v7.366h-1.13v-7.166Z"></path>
    <path class="uuid-98db58a7-102a-4e29-a0d1-8db28f2c33aa" d="m621.19,74.326l.529-.75c.66.41,1.1.569,1.609.569.6,0,1.01-.28,1.01-.68,0-.31-.21-.47-.7-.569l-.879-.15c-.979-.18-1.449-.63-1.449-1.379,0-.939.77-1.549,1.938-1.549.7,0,1.329.2,1.969.6l-.529.75c-.51-.33-1-.48-1.51-.48-.52,0-.859.22-.859.58,0,.32.181.46.7.55l.89.17c.999.18,1.479.64,1.479,1.389,0,.919-.879,1.629-2.049,1.629-.859,0-1.619-.24-2.148-.68Z"></path>
    <path class="uuid-98db58a7-102a-4e29-a0d1-8db28f2c33aa" d="m626.28,70.528c0-.4.31-.73.699-.73s.7.33.7.73-.311.719-.7.719-.699-.32-.699-.719Zm0,3.748c0-.399.31-.729.699-.729s.7.33.7.729-.311.72-.7.72-.699-.32-.699-.72Z"></path>
  </g>
  <g>
    <path class="uuid-98db58a7-102a-4e29-a0d1-8db28f2c33aa" d="m606.092,84.492h1.619v.84c.399-.6.959-.92,1.629-.92.999,0,1.709.73,1.709,1.759v3.478h-1.619v-3.008c0-.58-.34-.959-.859-.959-.35,0-.63.14-.859.43v3.538h-1.619v-5.157Z"></path>
    <path class="uuid-98db58a7-102a-4e29-a0d1-8db28f2c33aa" d="m612.042,87.081c0-1.52,1.16-2.669,2.688-2.669s2.688,1.149,2.688,2.669-1.159,2.668-2.688,2.668-2.688-1.149-2.688-2.668Zm3.798,0c0-.77-.459-1.319-1.109-1.319s-1.109.549-1.109,1.319.46,1.319,1.109,1.319,1.109-.549,1.109-1.319Z"></path>
    <path class="uuid-98db58a7-102a-4e29-a0d1-8db28f2c33aa" d="m618.222,87.061c0-1.449,1.06-2.599,2.399-2.599.539,0,1.029.22,1.379.62v-2.549l1.619-.25v7.366h-1.6v-.669c-.34.43-.909.699-1.519.699-1.27,0-2.279-1.169-2.279-2.618Zm3.778.869v-1.739c-.25-.26-.59-.4-.96-.4-.709,0-1.229.54-1.229,1.279,0,.729.529,1.27,1.229,1.27.391,0,.71-.14.96-.41Z"></path>
    <path class="uuid-98db58a7-102a-4e29-a0d1-8db28f2c33aa" d="m624.652,87.081c0-1.509,1.12-2.669,2.599-2.669,1.489,0,2.539,1.129,2.539,2.729v.35h-3.548c.149.58.619.969,1.209.969.43,0,.79-.15,1.02-.43l1.069.89c-.67.589-1.299.83-2.169.83-1.519,0-2.719-1.169-2.719-2.668Zm3.639-.51c-.141-.55-.53-.9-1.05-.9-.51,0-.869.33-.999.9h2.049Z"></path>
    <path class="uuid-98db58a7-102a-4e29-a0d1-8db28f2c33aa" d="m630.782,86.111h3.678v1.349h-3.678v-1.349Z"></path>
    <path class="uuid-98db58a7-102a-4e29-a0d1-8db28f2c33aa" d="m635.602,84.492h1.619v1.169c.329-.859.789-1.27,1.399-1.27.229.01.34.03.539.13v1.389c-.199-.1-.479-.16-.76-.16-.479,0-.919.25-1.179.64v3.258h-1.619v-5.157Z"></path>
    <path class="uuid-98db58a7-102a-4e29-a0d1-8db28f2c33aa" d="m639.641,87.081c0-1.52,1.16-2.669,2.688-2.669s2.688,1.149,2.688,2.669-1.159,2.668-2.688,2.668-2.688-1.149-2.688-2.668Zm3.798,0c0-.77-.459-1.319-1.109-1.319s-1.109.549-1.109,1.319.46,1.319,1.109,1.319,1.109-.549,1.109-1.319Z"></path>
    <path class="uuid-98db58a7-102a-4e29-a0d1-8db28f2c33aa" d="m646.051,82.533l1.619-.25v7.366h-1.619v-7.116Z"></path>
    <path class="uuid-98db58a7-102a-4e29-a0d1-8db28f2c33aa" d="m648.701,87.081c0-1.509,1.12-2.669,2.599-2.669,1.489,0,2.539,1.129,2.539,2.729v.35h-3.548c.149.58.619.969,1.209.969.43,0,.79-.15,1.02-.43l1.069.89c-.67.589-1.299.83-2.169.83-1.519,0-2.719-1.169-2.719-2.668Zm3.639-.51c-.141-.55-.53-.9-1.05-.9-.51,0-.869.33-.999.9h2.049Z"></path>
    <path class="uuid-98db58a7-102a-4e29-a0d1-8db28f2c33aa" d="m654.312,88.81c0-.52.41-.95.909-.95s.91.43.91.95-.41.949-.91.949-.909-.43-.909-.949Z"></path>
    <path class="uuid-98db58a7-102a-4e29-a0d1-8db28f2c33aa" d="m657.102,82.503l1.619-.25v4.288l1.799-2.049h1.789l-2.099,2.309,2.248,2.849h-2.019l-1.719-2.279v2.279h-1.619v-7.146Z"></path>
    <path class="uuid-98db58a7-102a-4e29-a0d1-8db28f2c33aa" d="m662.952,87.97v-3.478h1.619v3.008c0,.58.34.959.859.959.35,0,.63-.14.859-.43v-3.538h1.619v5.157h-1.619v-.839c-.399.6-.959.919-1.629.919-1,0-1.709-.729-1.709-1.759Z"></path>
    <path class="uuid-98db58a7-102a-4e29-a0d1-8db28f2c33aa" d="m669.171,82.533l1.619-.25v2.868c.34-.42.899-.689,1.509-.689,1.27,0,2.279,1.169,2.279,2.619s-1.06,2.598-2.399,2.598c-.56,0-1.06-.24-1.409-.66v.63h-1.599v-7.116Zm3.817,4.538c0-.729-.529-1.269-1.229-1.269-.399,0-.709.14-.969.419v1.719c.25.26.59.41.969.41.71,0,1.229-.54,1.229-1.279Z"></path>
    <path class="uuid-98db58a7-102a-4e29-a0d1-8db28f2c33aa" d="m675.381,87.081c0-1.509,1.12-2.669,2.599-2.669,1.489,0,2.539,1.129,2.539,2.729v.35h-3.548c.149.58.619.969,1.209.969.43,0,.79-.15,1.02-.43l1.069.89c-.67.589-1.299.83-2.169.83-1.52,0-2.719-1.169-2.719-2.668Zm3.639-.51c-.141-.55-.53-.9-1.05-.9-.51,0-.869.33-.999.9h2.049Z"></path>
    <path class="uuid-98db58a7-102a-4e29-a0d1-8db28f2c33aa" d="m681.532,84.492h1.619v1.169c.329-.859.789-1.27,1.399-1.27.229.01.34.03.539.13v1.389c-.199-.1-.479-.16-.76-.16-.479,0-.919.25-1.179.64v3.258h-1.619v-5.157Z"></path>
    <path class="uuid-98db58a7-102a-4e29-a0d1-8db28f2c33aa" d="m685.952,84.492h1.619v.84c.399-.6.959-.92,1.629-.92.999,0,1.709.73,1.709,1.759v3.478h-1.619v-3.008c0-.58-.34-.959-.859-.959-.35,0-.63.14-.859.43v3.538h-1.619v-5.157Z"></path>
    <path class="uuid-98db58a7-102a-4e29-a0d1-8db28f2c33aa" d="m691.901,87.081c0-1.509,1.12-2.669,2.599-2.669,1.489,0,2.539,1.129,2.539,2.729v.35h-3.548c.149.58.619.969,1.209.969.43,0,.79-.15,1.02-.43l1.069.89c-.67.589-1.299.83-2.169.83-1.52,0-2.719-1.169-2.719-2.668Zm3.639-.51c-.141-.55-.53-.9-1.05-.9-.51,0-.869.33-.999.9h2.049Z"></path>
    <path class="uuid-98db58a7-102a-4e29-a0d1-8db28f2c33aa" d="m698.581,88.09v-2.349h-1v-1.25h1v-1.429l1.619-.33v1.759h1.379v1.25h-1.379v2.029c0,.459.18.62.68.62.189,0,.34-.02.659-.11v1.309c-.3.09-.779.16-1.109.16-1.22,0-1.849-.56-1.849-1.659Z"></path>
    <path class="uuid-98db58a7-102a-4e29-a0d1-8db28f2c33aa" d="m702.201,87.081c0-1.509,1.12-2.669,2.599-2.669,1.489,0,2.539,1.129,2.539,2.729v.35h-3.548c.149.58.619.969,1.209.969.43,0,.79-.15,1.02-.43l1.069.89c-.67.589-1.299.83-2.169.83-1.519,0-2.719-1.169-2.719-2.668Zm3.639-.51c-.141-.55-.53-.9-1.05-.9-.51,0-.869.33-.999.9h2.049Z"></path>
    <path class="uuid-98db58a7-102a-4e29-a0d1-8db28f2c33aa" d="m707.981,89.119l.71-1.079c.739.39,1.159.52,1.658.52.46,0,.74-.16.74-.42,0-.2-.15-.31-.479-.37l-.99-.18c-.999-.189-1.519-.699-1.519-1.499,0-1.049.81-1.679,2.158-1.679.72,0,1.43.2,2.1.59l-.74,1.029c-.52-.3-.999-.439-1.479-.439-.391,0-.62.13-.62.35,0,.21.13.3.529.37l.97.18c1.02.19,1.55.709,1.55,1.489,0,1.009-.95,1.769-2.22,1.769-.939,0-1.769-.22-2.368-.63Z"></path>
    <path class="uuid-98db58a7-102a-4e29-a0d1-8db28f2c33aa" d="m713.221,88.81c0-.52.41-.95.909-.95s.91.43.91.95-.41.949-.91.949-.909-.43-.909-.949Z"></path>
    <path class="uuid-98db58a7-102a-4e29-a0d1-8db28f2c33aa" d="m715.911,82.792c0-.5.41-.909.91-.909s.909.41.909.909-.41.91-.909.91-.91-.41-.91-.91Zm.101,1.699h1.619v5.157h-1.619v-5.157Z"></path>
    <path class="uuid-98db58a7-102a-4e29-a0d1-8db28f2c33aa" d="m718.661,87.081c0-1.52,1.16-2.669,2.688-2.669s2.688,1.149,2.688,2.669-1.159,2.668-2.688,2.668-2.688-1.149-2.688-2.668Zm3.798,0c0-.77-.459-1.319-1.109-1.319s-1.109.549-1.109,1.319.46,1.319,1.109,1.319,1.109-.549,1.109-1.319Z"></path>
    <path class="uuid-98db58a7-102a-4e29-a0d1-8db28f2c33aa" d="m727.58,82.653h1.539l-4.008,9.085h-1.549l4.018-9.085Z"></path>
    <path class="uuid-98db58a7-102a-4e29-a0d1-8db28f2c33aa" d="m729.341,84.492h1.529l.719,3.078.87-3.078h1.329l.859,3.068.71-3.068h1.489l-1.369,5.157h-1.539l-.84-3.038-.819,3.038h-1.56l-1.379-5.157Z"></path>
    <path class="uuid-98db58a7-102a-4e29-a0d1-8db28f2c33aa" d="m737.31,87.081c0-1.52,1.16-2.669,2.688-2.669s2.688,1.149,2.688,2.669-1.159,2.668-2.688,2.668-2.688-1.149-2.688-2.668Zm3.798,0c0-.77-.459-1.319-1.109-1.319s-1.109.549-1.109,1.319.46,1.319,1.109,1.319,1.109-.549,1.109-1.319Z"></path>
    <path class="uuid-98db58a7-102a-4e29-a0d1-8db28f2c33aa" d="m743.721,84.492h1.619v1.169c.329-.859.789-1.27,1.399-1.27.229.01.34.03.539.13v1.389c-.199-.1-.479-.16-.76-.16-.479,0-.919.25-1.179.64v3.258h-1.619v-5.157Z"></path>
    <path class="uuid-98db58a7-102a-4e29-a0d1-8db28f2c33aa" d="m748.141,82.503l1.619-.25v4.288l1.799-2.049h1.789l-2.099,2.309,2.248,2.849h-2.019l-1.719-2.279v2.279h-1.619v-7.146Z"></path>
    <path class="uuid-98db58a7-102a-4e29-a0d1-8db28f2c33aa" d="m753.55,87.081c0-1.509,1.12-2.669,2.599-2.669,1.489,0,2.539,1.129,2.539,2.729v.35h-3.548c.149.58.619.969,1.209.969.43,0,.79-.15,1.02-.43l1.069.89c-.67.589-1.299.83-2.169.83-1.519,0-2.719-1.169-2.719-2.668Zm3.639-.51c-.141-.55-.53-.9-1.05-.9-.51,0-.869.33-.999.9h2.049Z"></path>
    <path class="uuid-98db58a7-102a-4e29-a0d1-8db28f2c33aa" d="m759.701,84.492h1.619v1.169c.329-.859.789-1.27,1.399-1.27.229.01.34.03.539.13v1.389c-.199-.1-.479-.16-.76-.16-.479,0-.919.25-1.179.64v3.258h-1.619v-5.157Z"></path>
    <path class="uuid-98db58a7-102a-4e29-a0d1-8db28f2c33aa" d="m763.93,85.332c0-.52.41-.95.909-.95s.91.43.91.95-.41.949-.91.949-.909-.43-.909-.949Zm0,3.478c0-.52.41-.95.909-.95s.91.43.91.95-.41.949-.91.949-.909-.43-.909-.949Z"></path>
    <path class="uuid-98db58a7-102a-4e29-a0d1-8db28f2c33aa" d="m767.129,82.153h1.59l-1.18,3.039h-1.159l.749-3.039Zm2.289,0h1.589l-1.179,3.039h-1.16l.75-3.039Z"></path>
    <path class="uuid-98db58a7-102a-4e29-a0d1-8db28f2c33aa" d="m772.169,82.153h1.59l-1.18,3.039h-1.159l.749-3.039Zm2.289,0h1.589l-1.179,3.039h-1.16l.75-3.039Z"></path>
  </g>
  <g>
    <path class="uuid-98db58a7-102a-4e29-a0d1-8db28f2c33aa" d="m591.234,54.167h1.13v.79c.37-.57.869-.87,1.479-.87.689,0,1.219.37,1.479.959.39-.629.95-.959,1.659-.959.97,0,1.64.75,1.64,1.809v3.278h-1.13v-3.028c0-.7-.39-1.149-1.01-1.149-.409,0-.749.19-.999.6.01.1.02.2.02.3v3.278h-1.139v-3.028c0-.7-.39-1.149-1.01-1.149-.41,0-.739.19-.989.58v3.598h-1.13v-5.007Z"></path>
    <path class="uuid-98db58a7-102a-4e29-a0d1-8db28f2c33aa" d="m599.764,56.676c0-1.469,1.06-2.589,2.438-2.589,1.369,0,2.369,1.089,2.369,2.589v.27h-3.698c.11.81.72,1.399,1.499,1.399.47,0,.91-.18,1.189-.47l.739.669c-.609.51-1.219.73-1.979.73-1.439,0-2.559-1.129-2.559-2.599Zm3.738-.43c-.12-.73-.64-1.239-1.31-1.239-.68,0-1.18.49-1.31,1.239h2.619Z"></path>
    <path class="uuid-98db58a7-102a-4e29-a0d1-8db28f2c33aa" d="m606.194,57.875v-2.809h-1v-.899h1v-1.379l1.129-.24v1.619h1.39v.899h-1.39v2.559c0,.49.19.68.7.68.22,0,.38-.03.68-.12v.949c-.29.09-.67.14-.97.14-1.01,0-1.539-.48-1.539-1.399Z"></path>
    <path class="uuid-98db58a7-102a-4e29-a0d1-8db28f2c33aa" d="m609.454,57.735c0-.899.74-1.469,1.919-1.469.47,0,.91.1,1.35.32v-.56c0-.66-.38-1-1.149-1-.42,0-.88.12-1.459.39l-.4-.82c.75-.34,1.409-.51,2.079-.51,1.31,0,2.049.66,2.049,1.819v3.268h-1.119v-.52c-.43.419-.909.609-1.489.609-1.05,0-1.779-.629-1.779-1.529Zm2.089.73c.45,0,.84-.13,1.18-.42v-.81c-.359-.17-.72-.24-1.149-.24-.649,0-1.06.27-1.06.72,0,.459.4.75,1.029.75Z"></path>
    <path class="uuid-98db58a7-102a-4e29-a0d1-8db28f2c33aa" d="m614.984,56.676c0-1.429,1.029-2.549,2.339-2.549.569,0,1.089.23,1.459.65v-2.769l1.13-.2v7.366h-1.12v-.66c-.359.45-.919.709-1.549.709-1.27,0-2.259-1.129-2.259-2.548Zm3.798,1.049v-2.109c-.29-.34-.72-.54-1.189-.54-.859,0-1.499.68-1.499,1.599,0,.909.64,1.599,1.499,1.599.49,0,.899-.19,1.189-.55Z"></path>
    <path class="uuid-98db58a7-102a-4e29-a0d1-8db28f2c33aa" d="m621.053,57.735c0-.899.74-1.469,1.919-1.469.47,0,.91.1,1.35.32v-.56c0-.66-.38-1-1.149-1-.42,0-.88.12-1.459.39l-.4-.82c.75-.34,1.409-.51,2.079-.51,1.31,0,2.049.66,2.049,1.819v3.268h-1.119v-.52c-.43.419-.909.609-1.489.609-1.05,0-1.779-.629-1.779-1.529Zm2.089.73c.45,0,.84-.13,1.18-.42v-.81c-.359-.17-.72-.24-1.149-.24-.649,0-1.06.27-1.06.72,0,.459.4.75,1.029.75Z"></path>
    <path class="uuid-98db58a7-102a-4e29-a0d1-8db28f2c33aa" d="m627.284,57.875v-2.809h-1v-.899h1v-1.379l1.129-.24v1.619h1.39v.899h-1.39v2.559c0,.49.19.68.7.68.22,0,.38-.03.68-.12v.949c-.29.09-.67.14-.97.14-1.01,0-1.539-.48-1.539-1.399Z"></path>
    <path class="uuid-98db58a7-102a-4e29-a0d1-8db28f2c33aa" d="m630.543,57.735c0-.899.74-1.469,1.919-1.469.47,0,.91.1,1.35.32v-.56c0-.66-.38-1-1.149-1-.42,0-.88.12-1.459.39l-.4-.82c.75-.34,1.409-.51,2.079-.51,1.31,0,2.049.66,2.049,1.819v3.268h-1.119v-.52c-.43.419-.909.609-1.489.609-1.05,0-1.779-.629-1.779-1.529Zm2.089.73c.45,0,.84-.13,1.18-.42v-.81c-.359-.17-.72-.24-1.149-.24-.649,0-1.06.27-1.06.72,0,.459.4.75,1.029.75Z"></path>
    <path class="uuid-98db58a7-102a-4e29-a0d1-8db28f2c33aa" d="m636.154,54.797c0-.4.31-.73.699-.73s.7.33.7.73-.311.719-.7.719-.699-.32-.699-.719Zm0,3.748c0-.399.31-.729.699-.729s.7.33.7.729-.311.72-.7.72-.699-.32-.699-.72Z"></path>
  </g>
  <g>
    <path class="uuid-bf5a170c-5be2-4e8e-8704-2c203c6b45b1" d="m303.609,36.376h1.199v3.188l3.038-3.188h1.47l-3.339,3.368,3.458,3.628h-1.589l-3.038-3.268v3.268h-1.199v-6.996Z"></path>
    <path class="uuid-bf5a170c-5be2-4e8e-8704-2c203c6b45b1" d="m310.009,36.656c0-.38.31-.7.7-.7.379,0,.699.32.699.7s-.32.689-.699.689c-.391,0-.7-.31-.7-.689Zm.13,1.709h1.13v5.007h-1.13v-5.007Z"></path>
    <path class="uuid-bf5a170c-5be2-4e8e-8704-2c203c6b45b1" d="m312.669,38.365h1.13v.82c.38-.59.93-.9,1.579-.9,1.029,0,1.749.73,1.749,1.789v3.298h-1.14v-2.979c0-.729-.43-1.199-1.1-1.199-.459,0-.829.21-1.089.61v3.568h-1.13v-5.007Z"></path>
    <path class="uuid-bf5a170c-5be2-4e8e-8704-2c203c6b45b1" d="m318.259,40.874c0-1.429,1.029-2.549,2.339-2.549.569,0,1.089.23,1.459.65v-2.769l1.13-.2v7.366h-1.12v-.66c-.359.45-.919.709-1.549.709-1.27,0-2.259-1.129-2.259-2.548Zm3.798,1.049v-2.109c-.29-.34-.72-.54-1.189-.54-.859,0-1.499.68-1.499,1.599,0,.909.64,1.599,1.499,1.599.49,0,.899-.19,1.189-.55Z"></path>
    <path class="uuid-bf5a170c-5be2-4e8e-8704-2c203c6b45b1" d="m324.439,38.995c0-.4.31-.73.699-.73s.7.33.7.73-.311.719-.7.719-.699-.32-.699-.719Zm0,3.748c0-.399.31-.729.699-.729s.7.33.7.729-.311.72-.7.72-.699-.32-.699-.72Z"></path>
    <path class="uuid-bf5a170c-5be2-4e8e-8704-2c203c6b45b1" d="m329.418,36.376h2.159l1.689,3.358,1.679-3.358h2.159v6.996h-1.619v-4.748l-2.239,4.248-2.249-4.288v4.788h-1.579v-6.996Z"></path>
    <path class="uuid-bf5a170c-5be2-4e8e-8704-2c203c6b45b1" d="m338.179,41.894c0-.95.739-1.5,2.009-1.5.37,0,.74.07,1.199.24v-.42c0-.5-.329-.75-1.02-.75-.39,0-.849.11-1.449.36l-.56-1.129c.85-.38,1.609-.56,2.369-.56,1.429,0,2.259.71,2.259,1.939v3.298h-1.6v-.45c-.449.38-.879.53-1.429.53-1.05,0-1.779-.64-1.779-1.559Zm2.279.49c.34,0,.649-.09.929-.26v-.66c-.3-.07-.589-.11-.889-.11-.53,0-.83.18-.83.51s.29.52.79.52Z"></path>
    <path class="uuid-bf5a170c-5be2-4e8e-8704-2c203c6b45b1" d="m343.979,40.804c0-1.509,1.16-2.669,2.669-2.669.85,0,1.629.34,2.148.95l-.989.989c-.33-.39-.659-.56-1.1-.56-.64,0-1.119.55-1.119,1.29s.479,1.289,1.119,1.289c.44,0,.77-.17,1.1-.56l.989.989c-.52.61-1.299.95-2.148.95-1.509,0-2.669-1.16-2.669-2.668Z"></path>
    <path class="uuid-bf5a170c-5be2-4e8e-8704-2c203c6b45b1" d="m349.599,36.256l1.619-.25v3.048c.399-.6.959-.92,1.629-.92.999,0,1.709.73,1.709,1.759v3.478h-1.619v-3.008c0-.58-.34-.959-.859-.959-.35,0-.63.14-.859.43v3.538h-1.619v-7.116Z"></path>
    <path class="uuid-bf5a170c-5be2-4e8e-8704-2c203c6b45b1" d="m355.678,36.516c0-.5.41-.909.91-.909s.909.41.909.909-.41.91-.909.91-.91-.41-.91-.91Zm.101,1.699h1.619v5.157h-1.619v-5.157Z"></path>
    <path class="uuid-bf5a170c-5be2-4e8e-8704-2c203c6b45b1" d="m358.658,38.215h1.619v.84c.399-.6.959-.92,1.629-.92.999,0,1.709.73,1.709,1.759v3.478h-1.619v-3.008c0-.58-.34-.959-.859-.959-.35,0-.63.14-.859.43v3.538h-1.619v-5.157Z"></path>
    <path class="uuid-bf5a170c-5be2-4e8e-8704-2c203c6b45b1" d="m364.608,40.804c0-1.509,1.12-2.669,2.599-2.669,1.489,0,2.539,1.129,2.539,2.729v.35h-3.548c.149.58.619.969,1.209.969.43,0,.79-.15,1.02-.43l1.069.89c-.67.589-1.299.83-2.169.83-1.519,0-2.719-1.169-2.719-2.668Zm3.639-.51c-.141-.55-.53-.9-1.05-.9-.51,0-.869.33-.999.9h2.049Z"></path>
    <path class="uuid-bf5a170c-5be2-4e8e-8704-2c203c6b45b1" d="m370.579,39.875c0-2.039,1.608-3.608,3.688-3.608,1.119,0,2.229.53,2.839,1.359l-1.16,1.1c-.459-.62-1.02-.93-1.679-.93-1.09,0-1.909.89-1.909,2.079s.819,2.079,1.909,2.079c.659,0,1.22-.31,1.679-.929l1.16,1.099c-.61.83-1.72,1.359-2.839,1.359-2.079,0-3.688-1.569-3.688-3.608Z"></path>
    <path class="uuid-bf5a170c-5be2-4e8e-8704-2c203c6b45b1" d="m377.578,40.804c0-1.52,1.16-2.669,2.688-2.669s2.688,1.149,2.688,2.669-1.159,2.668-2.688,2.668-2.688-1.149-2.688-2.668Zm3.798,0c0-.77-.459-1.319-1.109-1.319s-1.109.549-1.109,1.319.46,1.319,1.109,1.319,1.109-.549,1.109-1.319Z"></path>
    <path class="uuid-bf5a170c-5be2-4e8e-8704-2c203c6b45b1" d="m383.988,38.215h1.619v.84c.399-.6.959-.92,1.629-.92.999,0,1.709.73,1.709,1.759v3.478h-1.619v-3.008c0-.58-.34-.959-.859-.959-.35,0-.63.14-.859.43v3.538h-1.619v-5.157Z"></path>
    <path class="uuid-bf5a170c-5be2-4e8e-8704-2c203c6b45b1" d="m390.778,39.465h-1.069v-1.25h1.069v-.68c0-1.229.729-1.899,2.059-1.899.279,0,.649.04.859.1v1.329c-.29-.05-.439-.06-.62-.06-.459,0-.679.18-.679.56v.649h1.299v1.25h-1.299v3.908h-1.619v-3.908Z"></path>
    <path class="uuid-bf5a170c-5be2-4e8e-8704-2c203c6b45b1" d="m394.518,36.516c0-.5.41-.909.91-.909s.909.41.909.909-.41.91-.909.91-.91-.41-.91-.91Zm.101,1.699h1.619v5.157h-1.619v-5.157Z"></path>
    <path class="uuid-bf5a170c-5be2-4e8e-8704-2c203c6b45b1" d="m397.798,45.102l.5-1.169c.569.27,1.079.4,1.579.4.77,0,1.169-.32,1.169-.95v-.699c-.34.419-.899.68-1.499.68-1.27,0-2.279-1.16-2.279-2.599s1.06-2.579,2.399-2.579c.55,0,1.049.23,1.398.649v-.62h1.59v5.187c0,1.39-.96,2.159-2.719,2.159-.779,0-1.52-.16-2.139-.46Zm3.248-3.468v-1.719c-.25-.26-.59-.4-.96-.4-.709,0-1.229.53-1.229,1.259s.529,1.27,1.229,1.27c.391,0,.71-.14.96-.41Z"></path>
    <path class="uuid-bf5a170c-5be2-4e8e-8704-2c203c6b45b1" d="m404.067,36.376h3.418c1.489,0,2.469.969,2.469,2.309,0,1.27-.979,2.249-2.469,2.249h-1.698v2.438h-1.72v-6.996Zm3.108,3.188c.7,0,1.04-.379,1.04-.889,0-.5-.34-.88-1.03-.88h-1.398v1.769h1.389Z"></path>
    <path class="uuid-bf5a170c-5be2-4e8e-8704-2c203c6b45b1" d="m410.388,40.804c0-1.52,1.16-2.669,2.688-2.669s2.688,1.149,2.688,2.669-1.159,2.668-2.688,2.668-2.688-1.149-2.688-2.668Zm3.798,0c0-.77-.459-1.319-1.109-1.319s-1.109.549-1.109,1.319.46,1.319,1.109,1.319,1.109-.549,1.109-1.319Z"></path>
    <path class="uuid-bf5a170c-5be2-4e8e-8704-2c203c6b45b1" d="m416.567,40.804c0-1.52,1.16-2.669,2.688-2.669s2.688,1.149,2.688,2.669-1.159,2.668-2.688,2.668-2.688-1.149-2.688-2.668Zm3.798,0c0-.77-.459-1.319-1.109-1.319s-1.109.549-1.109,1.319.46,1.319,1.109,1.319,1.109-.549,1.109-1.319Z"></path>
    <path class="uuid-bf5a170c-5be2-4e8e-8704-2c203c6b45b1" d="m422.979,36.256l1.619-.25v7.366h-1.619v-7.116Z"></path>
  </g>
  <g>
    <path class="uuid-98db58a7-102a-4e29-a0d1-8db28f2c33aa" d="m303.399,69.749h1.619v.82c.38-.59.899-.9,1.529-.9.669,0,1.199.37,1.449.959.399-.62.979-.959,1.688-.959.949,0,1.619.75,1.619,1.809v3.428h-1.619v-3.108c0-.52-.31-.859-.77-.859-.3,0-.54.12-.749.39v3.578h-1.619v-3.108c0-.52-.311-.859-.77-.859-.3,0-.55.13-.76.4v3.568h-1.619v-5.157Z"></path>
    <path class="uuid-98db58a7-102a-4e29-a0d1-8db28f2c33aa" d="m312.289,73.427c0-.95.739-1.5,2.009-1.5.37,0,.74.07,1.199.24v-.42c0-.5-.329-.75-1.02-.75-.39,0-.849.11-1.449.36l-.56-1.129c.85-.38,1.609-.56,2.369-.56,1.429,0,2.259.71,2.259,1.939v3.298h-1.6v-.45c-.449.38-.879.53-1.429.53-1.05,0-1.779-.64-1.779-1.559Zm2.279.49c.34,0,.649-.09.929-.26v-.66c-.3-.07-.589-.11-.889-.11-.53,0-.83.18-.83.51s.29.52.79.52Z"></path>
    <path class="uuid-98db58a7-102a-4e29-a0d1-8db28f2c33aa" d="m318.089,72.337c0-1.509,1.16-2.669,2.669-2.669.85,0,1.629.34,2.148.95l-.989.989c-.33-.39-.659-.56-1.1-.56-.64,0-1.119.55-1.119,1.29s.479,1.289,1.119,1.289c.44,0,.77-.17,1.1-.56l.989.989c-.52.61-1.299.95-2.148.95-1.509,0-2.669-1.16-2.669-2.668Z"></path>
    <path class="uuid-98db58a7-102a-4e29-a0d1-8db28f2c33aa" d="m323.709,67.79l1.619-.25v3.048c.399-.6.959-.92,1.629-.92.999,0,1.709.73,1.709,1.759v3.478h-1.619v-3.008c0-.58-.34-.959-.859-.959-.35,0-.63.14-.859.43v3.538h-1.619v-7.116Z"></path>
    <path class="uuid-98db58a7-102a-4e29-a0d1-8db28f2c33aa" d="m329.788,68.049c0-.5.41-.909.91-.909s.909.41.909.909-.41.91-.909.91-.91-.41-.91-.91Zm.101,1.699h1.619v5.157h-1.619v-5.157Z"></path>
    <path class="uuid-98db58a7-102a-4e29-a0d1-8db28f2c33aa" d="m332.77,69.749h1.619v.84c.399-.6.959-.92,1.629-.92.999,0,1.709.73,1.709,1.759v3.478h-1.619v-3.008c0-.58-.34-.959-.859-.959-.35,0-.63.14-.859.43v3.538h-1.619v-5.157Z"></path>
    <path class="uuid-98db58a7-102a-4e29-a0d1-8db28f2c33aa" d="m338.719,72.337c0-1.509,1.12-2.669,2.599-2.669,1.489,0,2.539,1.129,2.539,2.729v.35h-3.548c.149.58.619.969,1.209.969.43,0,.79-.15,1.02-.43l1.069.89c-.67.589-1.299.83-2.169.83-1.52,0-2.719-1.169-2.719-2.668Zm3.639-.51c-.141-.55-.53-.9-1.05-.9-.51,0-.869.33-.999.9h2.049Z"></path>
    <path class="uuid-98db58a7-102a-4e29-a0d1-8db28f2c33aa" d="m344.689,71.408c0-2.039,1.608-3.608,3.688-3.608,1.119,0,2.229.53,2.839,1.359l-1.16,1.1c-.459-.62-1.019-.93-1.679-.93-1.09,0-1.909.89-1.909,2.079s.819,2.079,1.909,2.079c.66,0,1.22-.31,1.679-.929l1.16,1.099c-.61.83-1.72,1.359-2.839,1.359-2.079,0-3.688-1.569-3.688-3.608Z"></path>
    <path class="uuid-98db58a7-102a-4e29-a0d1-8db28f2c33aa" d="m351.688,72.337c0-1.52,1.16-2.669,2.688-2.669s2.688,1.149,2.688,2.669-1.159,2.668-2.688,2.668-2.688-1.149-2.688-2.668Zm3.798,0c0-.77-.459-1.319-1.109-1.319s-1.109.549-1.109,1.319.46,1.319,1.109,1.319,1.109-.549,1.109-1.319Z"></path>
    <path class="uuid-98db58a7-102a-4e29-a0d1-8db28f2c33aa" d="m358.099,69.749h1.619v.84c.399-.6.959-.92,1.629-.92.999,0,1.709.73,1.709,1.759v3.478h-1.619v-3.008c0-.58-.34-.959-.859-.959-.35,0-.63.14-.859.43v3.538h-1.619v-5.157Z"></path>
    <path class="uuid-98db58a7-102a-4e29-a0d1-8db28f2c33aa" d="m364.889,70.998h-1.07v-1.25h1.07v-.68c0-1.229.729-1.899,2.059-1.899.279,0,.649.04.859.1v1.329c-.29-.05-.439-.06-.62-.06-.459,0-.679.18-.679.56v.649h1.299v1.25h-1.299v3.908h-1.619v-3.908Z"></path>
    <path class="uuid-98db58a7-102a-4e29-a0d1-8db28f2c33aa" d="m368.628,68.049c0-.5.41-.909.91-.909s.909.41.909.909-.41.91-.909.91-.91-.41-.91-.91Zm.101,1.699h1.619v5.157h-1.619v-5.157Z"></path>
    <path class="uuid-98db58a7-102a-4e29-a0d1-8db28f2c33aa" d="m371.908,76.635l.5-1.169c.569.27,1.079.4,1.579.4.77,0,1.169-.32,1.169-.95v-.699c-.34.419-.899.68-1.499.68-1.27,0-2.279-1.16-2.279-2.599s1.06-2.579,2.399-2.579c.55,0,1.049.23,1.398.649v-.62h1.59v5.187c0,1.39-.96,2.159-2.719,2.159-.779,0-1.52-.16-2.139-.46Zm3.248-3.468v-1.719c-.25-.26-.59-.4-.96-.4-.709,0-1.229.53-1.229,1.259s.529,1.27,1.229,1.27c.391,0,.71-.14.96-.41Z"></path>
    <path class="uuid-98db58a7-102a-4e29-a0d1-8db28f2c33aa" d="m377.588,73.956l.88-1.269c.97.68,1.579.93,2.269.93.74,0,1.189-.3,1.189-.74,0-.41-.239-.61-.919-.729l-1.489-.26c-1.109-.189-1.72-.889-1.72-1.879,0-1.359,1.04-2.208,2.779-2.208,1.079,0,2.148.35,2.868.919l-.87,1.249c-.68-.52-1.349-.77-2.089-.77-.68,0-1.069.28-1.069.66,0,.36.23.54.79.64l1.399.24c1.309.22,1.999.909,1.999,1.979,0,1.37-1.16,2.299-2.989,2.299-1.109,0-2.099-.37-3.028-1.06Z"></path>
    <path class="uuid-98db58a7-102a-4e29-a0d1-8db28f2c33aa" d="m384.448,72.337c0-1.509,1.12-2.669,2.599-2.669,1.489,0,2.539,1.129,2.539,2.729v.35h-3.548c.149.58.619.969,1.209.969.43,0,.79-.15,1.02-.43l1.069.89c-.67.589-1.299.83-2.169.83-1.519,0-2.719-1.169-2.719-2.668Zm3.639-.51c-.141-.55-.53-.9-1.05-.9-.51,0-.869.33-.999.9h2.049Z"></path>
    <path class="uuid-98db58a7-102a-4e29-a0d1-8db28f2c33aa" d="m390.599,67.79l1.619-.25v7.366h-1.619v-7.116Z"></path>
    <path class="uuid-98db58a7-102a-4e29-a0d1-8db28f2c33aa" d="m393.248,72.337c0-1.509,1.12-2.669,2.599-2.669,1.489,0,2.539,1.129,2.539,2.729v.35h-3.548c.149.58.619.969,1.209.969.43,0,.79-.15,1.02-.43l1.069.89c-.67.589-1.299.83-2.169.83-1.52,0-2.719-1.169-2.719-2.668Zm3.639-.51c-.141-.55-.53-.9-1.05-.9-.51,0-.869.33-.999.9h2.049Z"></path>
    <path class="uuid-98db58a7-102a-4e29-a0d1-8db28f2c33aa" d="m399.218,72.337c0-1.509,1.16-2.669,2.669-2.669.85,0,1.629.34,2.148.95l-.989.989c-.33-.39-.659-.56-1.1-.56-.64,0-1.119.55-1.119,1.29s.479,1.289,1.119,1.289c.44,0,.77-.17,1.1-.56l.989.989c-.52.61-1.299.95-2.148.95-1.509,0-2.669-1.16-2.669-2.668Z"></path>
    <path class="uuid-98db58a7-102a-4e29-a0d1-8db28f2c33aa" d="m405.618,73.347v-2.349h-1v-1.25h1v-1.429l1.619-.33v1.759h1.379v1.25h-1.379v2.029c0,.459.18.62.68.62.189,0,.34-.02.659-.11v1.309c-.3.09-.779.16-1.109.16-1.22,0-1.849-.56-1.849-1.659Z"></path>
    <path class="uuid-98db58a7-102a-4e29-a0d1-8db28f2c33aa" d="m409.237,72.337c0-1.52,1.16-2.669,2.688-2.669s2.688,1.149,2.688,2.669-1.159,2.668-2.688,2.668-2.688-1.149-2.688-2.668Zm3.798,0c0-.77-.459-1.319-1.109-1.319s-1.109.549-1.109,1.319.46,1.319,1.109,1.319,1.109-.549,1.109-1.319Z"></path>
    <path class="uuid-98db58a7-102a-4e29-a0d1-8db28f2c33aa" d="m415.648,69.749h1.619v1.169c.329-.859.789-1.27,1.399-1.27.229.01.34.03.539.13v1.389c-.199-.1-.479-.16-.76-.16-.479,0-.919.25-1.179.64v3.258h-1.619v-5.157Z"></path>
    <path class="uuid-98db58a7-102a-4e29-a0d1-8db28f2c33aa" d="m419.878,70.588c0-.52.41-.95.909-.95s.91.43.91.95-.41.949-.91.949-.909-.43-.909-.949Zm0,3.478c0-.52.41-.95.909-.95s.91.43.91.95-.41.949-.91.949-.909-.43-.909-.949Z"></path>
  </g>
  <g>
    <path class="uuid-98db58a7-102a-4e29-a0d1-8db28f2c33aa" d="m311.494,84.642h1.13v.79c.37-.57.869-.87,1.479-.87.689,0,1.219.37,1.479.959.39-.629.95-.959,1.659-.959.97,0,1.64.75,1.64,1.809v3.278h-1.13v-3.028c0-.7-.39-1.149-1.01-1.149-.409,0-.749.19-.999.6.01.1.02.2.02.3v3.278h-1.139v-3.028c0-.7-.39-1.149-1.01-1.149-.41,0-.739.19-.989.58v3.598h-1.13v-5.007Z"></path>
    <path class="uuid-98db58a7-102a-4e29-a0d1-8db28f2c33aa" d="m319.994,88.209c0-.899.74-1.469,1.919-1.469.47,0,.91.1,1.35.32v-.56c0-.66-.38-1-1.149-1-.42,0-.88.12-1.459.39l-.4-.82c.75-.34,1.409-.51,2.079-.51,1.31,0,2.049.66,2.049,1.819v3.268h-1.119v-.52c-.43.419-.909.609-1.489.609-1.05,0-1.779-.629-1.779-1.529Zm2.089.73c.45,0,.84-.13,1.18-.42v-.81c-.359-.17-.72-.24-1.149-.24-.649,0-1.06.27-1.06.72,0,.459.4.75,1.029.75Z"></path>
    <path class="uuid-98db58a7-102a-4e29-a0d1-8db28f2c33aa" d="m326.224,88.35v-2.809h-.999v-.899h.999v-1.379l1.129-.24v1.619h1.39v.899h-1.39v2.559c0,.49.19.68.7.68.22,0,.38-.03.68-.12v.949c-.29.09-.67.14-.97.14-1.01,0-1.539-.48-1.539-1.399Z"></path>
    <path class="uuid-98db58a7-102a-4e29-a0d1-8db28f2c33aa" d="m329.435,87.15c0-1.449,1.1-2.589,2.528-2.589.78,0,1.499.31,1.999.85l-.699.729c-.35-.39-.78-.589-1.26-.589-.81,0-1.438.7-1.438,1.599,0,.909.629,1.599,1.438,1.599.479,0,.91-.2,1.26-.58l.699.719c-.5.54-1.219.85-1.999.85-1.429,0-2.528-1.129-2.528-2.588Z"></path>
    <path class="uuid-98db58a7-102a-4e29-a0d1-8db28f2c33aa" d="m334.894,82.483l1.13-.2v3.178c.38-.59.93-.9,1.579-.9,1.029,0,1.749.73,1.749,1.789v3.298h-1.14v-2.979c0-.729-.43-1.199-1.1-1.199-.459,0-.829.21-1.089.61v3.568h-1.13v-7.166Z"></path>
    <path class="uuid-98db58a7-102a-4e29-a0d1-8db28f2c33aa" d="m340.854,82.653h1.199v5.957h3.728v1.04h-4.927v-6.996Z"></path>
    <path class="uuid-98db58a7-102a-4e29-a0d1-8db28f2c33aa" d="m346.714,88.209c0-.899.74-1.469,1.919-1.469.47,0,.91.1,1.35.32v-.56c0-.66-.38-1-1.149-1-.42,0-.88.12-1.459.39l-.4-.82c.75-.34,1.409-.51,2.079-.51,1.31,0,2.049.66,2.049,1.819v3.268h-1.119v-.52c-.43.419-.909.609-1.489.609-1.05,0-1.779-.629-1.779-1.529Zm2.089.73c.45,0,.84-.13,1.18-.42v-.81c-.359-.17-.72-.24-1.149-.24-.649,0-1.06.27-1.06.72,0,.459.4.75,1.029.75Z"></path>
    <path class="uuid-98db58a7-102a-4e29-a0d1-8db28f2c33aa" d="m352.474,82.513l1.13-.19v2.989c.35-.44.909-.71,1.539-.71,1.27,0,2.259,1.129,2.259,2.549,0,1.429-1.02,2.548-2.329,2.548-.589,0-1.109-.24-1.489-.689v.64h-1.109v-7.136Zm3.818,4.638c0-.91-.64-1.599-1.489-1.599-.5,0-.909.2-1.199.56v2.089c.29.35.72.56,1.199.56.859,0,1.489-.689,1.489-1.609Z"></path>
    <path class="uuid-98db58a7-102a-4e29-a0d1-8db28f2c33aa" d="m358.354,87.15c0-1.469,1.06-2.589,2.438-2.589,1.369,0,2.369,1.089,2.369,2.589v.27h-3.698c.11.81.72,1.399,1.499,1.399.47,0,.91-.18,1.189-.47l.739.669c-.609.51-1.219.73-1.979.73-1.439,0-2.559-1.129-2.559-2.599Zm3.738-.43c-.12-.73-.64-1.239-1.31-1.239-.68,0-1.18.49-1.31,1.239h2.619Z"></path>
    <path class="uuid-98db58a7-102a-4e29-a0d1-8db28f2c33aa" d="m364.313,82.483l1.13-.2v7.366h-1.13v-7.166Z"></path>
    <path class="uuid-98db58a7-102a-4e29-a0d1-8db28f2c33aa" d="m366.384,89.069l.529-.75c.66.41,1.1.569,1.609.569.6,0,1.01-.28,1.01-.68,0-.31-.21-.47-.7-.569l-.879-.15c-.979-.18-1.449-.63-1.449-1.379,0-.939.77-1.549,1.938-1.549.7,0,1.329.2,1.969.6l-.529.75c-.51-.33-1-.48-1.509-.48-.521,0-.86.22-.86.58,0,.32.181.46.7.55l.89.17c.999.18,1.479.64,1.479,1.389,0,.919-.879,1.629-2.049,1.629-.859,0-1.619-.24-2.148-.68Z"></path>
    <path class="uuid-98db58a7-102a-4e29-a0d1-8db28f2c33aa" d="m371.474,85.271c0-.4.31-.73.699-.73s.7.33.7.73-.311.719-.7.719-.699-.32-.699-.719Zm0,3.748c0-.399.31-.729.699-.729s.7.33.7.729-.311.72-.7.72-.699-.32-.699-.72Z"></path>
  </g>
  <g>
    <path class="uuid-98db58a7-102a-4e29-a0d1-8db28f2c33aa" d="m319.521,99.223h1.13v.79c.37-.57.869-.87,1.479-.87.689,0,1.219.37,1.479.959.39-.629.95-.959,1.659-.959.97,0,1.64.75,1.64,1.809v3.278h-1.13v-3.028c0-.7-.39-1.149-1.01-1.149-.409,0-.749.19-.999.6.01.1.02.2.02.3v3.278h-1.139v-3.028c0-.7-.39-1.149-1.01-1.149-.41,0-.739.19-.989.58v3.598h-1.13v-5.007Z"></path>
    <path class="uuid-98db58a7-102a-4e29-a0d1-8db28f2c33aa" d="m328.021,102.791c0-.899.74-1.469,1.919-1.469.47,0,.91.1,1.35.32v-.56c0-.66-.38-1-1.149-1-.42,0-.88.12-1.459.39l-.4-.82c.75-.34,1.409-.51,2.079-.51,1.31,0,2.049.66,2.049,1.819v3.268h-1.119v-.52c-.43.419-.909.609-1.489.609-1.05,0-1.779-.629-1.779-1.529Zm2.089.73c.45,0,.84-.13,1.18-.42v-.81c-.359-.17-.72-.24-1.149-.24-.649,0-1.06.27-1.06.72,0,.459.4.75,1.029.75Z"></path>
    <path class="uuid-98db58a7-102a-4e29-a0d1-8db28f2c33aa" d="m333.551,101.731c0-1.449,1.1-2.589,2.528-2.589.78,0,1.499.31,1.999.85l-.699.729c-.35-.39-.779-.589-1.26-.589-.81,0-1.439.7-1.439,1.599,0,.909.63,1.599,1.439,1.599.48,0,.91-.2,1.26-.58l.699.719c-.5.54-1.219.85-1.999.85-1.429,0-2.528-1.129-2.528-2.588Z"></path>
    <path class="uuid-98db58a7-102a-4e29-a0d1-8db28f2c33aa" d="m339.01,97.064l1.13-.2v3.178c.38-.59.93-.9,1.579-.9,1.029,0,1.749.73,1.749,1.789v3.298h-1.14v-2.979c0-.729-.43-1.199-1.1-1.199-.459,0-.829.21-1.089.61v3.568h-1.13v-7.166Z"></path>
    <path class="uuid-98db58a7-102a-4e29-a0d1-8db28f2c33aa" d="m344.69,97.514c0-.38.31-.7.7-.7.379,0,.699.32.699.7s-.32.689-.699.689c-.391,0-.7-.31-.7-.689Zm.13,1.709h1.13v5.007h-1.13v-5.007Z"></path>
    <path class="uuid-98db58a7-102a-4e29-a0d1-8db28f2c33aa" d="m347.35,99.223h1.13v.82c.38-.59.93-.9,1.579-.9,1.029,0,1.749.73,1.749,1.789v3.298h-1.14v-2.979c0-.729-.43-1.199-1.1-1.199-.459,0-.829.21-1.089.61v3.568h-1.13v-5.007Z"></path>
    <path class="uuid-98db58a7-102a-4e29-a0d1-8db28f2c33aa" d="m352.94,101.731c0-1.469,1.06-2.589,2.438-2.589,1.369,0,2.369,1.089,2.369,2.589v.27h-3.698c.11.81.72,1.399,1.499,1.399.47,0,.91-.18,1.189-.47l.739.669c-.609.51-1.219.73-1.979.73-1.439,0-2.559-1.129-2.559-2.599Zm3.738-.43c-.12-.73-.64-1.239-1.31-1.239-.68,0-1.18.49-1.31,1.239h2.619Z"></path>
    <path class="uuid-98db58a7-102a-4e29-a0d1-8db28f2c33aa" d="m358.69,101.731c0-1.449,1.1-2.589,2.528-2.589.78,0,1.499.31,1.999.85l-.699.729c-.35-.39-.78-.589-1.26-.589-.81,0-1.438.7-1.438,1.599,0,.909.629,1.599,1.438,1.599.479,0,.91-.2,1.26-.58l.699.719c-.5.54-1.219.85-1.999.85-1.429,0-2.528-1.129-2.528-2.588Z"></path>
    <path class="uuid-98db58a7-102a-4e29-a0d1-8db28f2c33aa" d="m363.771,101.731c0-1.479,1.079-2.589,2.519-2.589,1.43,0,2.509,1.109,2.509,2.589s-1.079,2.588-2.509,2.588c-1.439,0-2.519-1.109-2.519-2.588Zm3.918,0c0-.93-.59-1.629-1.399-1.629-.819,0-1.409.7-1.409,1.629,0,.939.59,1.629,1.409,1.629.81,0,1.399-.689,1.399-1.629Z"></path>
    <path class="uuid-98db58a7-102a-4e29-a0d1-8db28f2c33aa" d="m369.97,99.223h1.13v.82c.38-.59.93-.9,1.579-.9,1.029,0,1.749.73,1.749,1.789v3.298h-1.14v-2.979c0-.729-.43-1.199-1.1-1.199-.459,0-.829.21-1.089.61v3.568h-1.13v-5.007Z"></path>
    <path class="uuid-98db58a7-102a-4e29-a0d1-8db28f2c33aa" d="m376.319,100.122h-1.079v-.899h1.079v-.859c0-1.089.61-1.679,1.729-1.679.279,0,.56.03.749.09v.959c-.249-.05-.399-.07-.6-.07-.52,0-.749.23-.749.72v.839h1.349v.899h-1.349v4.108h-1.13v-4.108Z"></path>
    <path class="uuid-98db58a7-102a-4e29-a0d1-8db28f2c33aa" d="m379.61,97.514c0-.38.31-.7.7-.7.379,0,.699.32.699.7s-.32.689-.699.689c-.391,0-.7-.31-.7-.689Zm.13,1.709h1.13v5.007h-1.13v-5.007Z"></path>
    <path class="uuid-98db58a7-102a-4e29-a0d1-8db28f2c33aa" d="m382.6,105.929l.39-.83c.59.29,1.069.419,1.569.419.84,0,1.279-.379,1.279-1.109v-.849c-.359.439-.909.699-1.539.699-1.27,0-2.259-1.129-2.259-2.548s1.029-2.529,2.339-2.529c.579,0,1.1.23,1.469.67v-.63h1.12v5.187c0,1.29-.84,2.009-2.359,2.009-.72,0-1.419-.18-2.009-.49Zm3.238-3.158v-2.099c-.29-.34-.72-.54-1.189-.54-.859,0-1.499.669-1.499,1.589,0,.91.64,1.599,1.499,1.599.49,0,.899-.2,1.189-.549Z"></path>
    <path class="uuid-98db58a7-102a-4e29-a0d1-8db28f2c33aa" d="m388.319,102.521v-3.298h1.14v2.968c0,.74.43,1.209,1.1,1.209.45,0,.829-.2,1.09-.6v-3.578h1.129v5.007h-1.129v-.81c-.38.59-.92.89-1.59.89-1.02,0-1.739-.74-1.739-1.789Z"></path>
    <path class="uuid-98db58a7-102a-4e29-a0d1-8db28f2c33aa" d="m394.18,99.223h1.13v1.08c.279-.76.76-1.169,1.379-1.169.19.01.32.03.49.1v.989c-.181-.07-.41-.12-.62-.12-.55,0-.999.31-1.249.83v3.298h-1.13v-5.007Z"></path>
    <path class="uuid-98db58a7-102a-4e29-a0d1-8db28f2c33aa" d="m397.699,102.791c0-.899.74-1.469,1.919-1.469.47,0,.91.1,1.35.32v-.56c0-.66-.38-1-1.149-1-.42,0-.88.12-1.459.39l-.4-.82c.75-.34,1.409-.51,2.079-.51,1.31,0,2.049.66,2.049,1.819v3.268h-1.119v-.52c-.43.419-.909.609-1.489.609-1.05,0-1.779-.629-1.779-1.529Zm2.089.73c.45,0,.84-.13,1.18-.42v-.81c-.359-.17-.72-.24-1.149-.24-.649,0-1.06.27-1.06.72,0,.459.4.75,1.029.75Z"></path>
    <path class="uuid-98db58a7-102a-4e29-a0d1-8db28f2c33aa" d="m403.93,102.931v-2.809h-1v-.899h1v-1.379l1.129-.24v1.619h1.39v.899h-1.39v2.559c0,.49.19.68.7.68.22,0,.38-.03.68-.12v.949c-.29.09-.67.14-.97.14-1.01,0-1.539-.48-1.539-1.399Z"></path>
    <path class="uuid-98db58a7-102a-4e29-a0d1-8db28f2c33aa" d="m407.31,97.514c0-.38.31-.7.7-.7.379,0,.699.32.699.7s-.32.689-.699.689c-.391,0-.7-.31-.7-.689Zm.13,1.709h1.13v5.007h-1.13v-5.007Z"></path>
    <path class="uuid-98db58a7-102a-4e29-a0d1-8db28f2c33aa" d="m409.739,101.731c0-1.479,1.079-2.589,2.519-2.589,1.43,0,2.509,1.109,2.509,2.589s-1.079,2.588-2.509,2.588c-1.439,0-2.519-1.109-2.519-2.588Zm3.918,0c0-.93-.59-1.629-1.399-1.629-.819,0-1.409.7-1.409,1.629,0,.939.59,1.629,1.409,1.629.81,0,1.399-.689,1.399-1.629Z"></path>
    <path class="uuid-98db58a7-102a-4e29-a0d1-8db28f2c33aa" d="m415.938,99.223h1.13v.82c.38-.59.93-.9,1.579-.9,1.029,0,1.749.73,1.749,1.789v3.298h-1.14v-2.979c0-.729-.43-1.199-1.1-1.199-.459,0-.829.21-1.089.61v3.568h-1.13v-5.007Z"></path>
    <path class="uuid-98db58a7-102a-4e29-a0d1-8db28f2c33aa" d="m421.609,103.6c0-.399.31-.729.7-.729s.7.33.7.729-.311.72-.7.72-.7-.32-.7-.72Z"></path>
    <path class="uuid-98db58a7-102a-4e29-a0d1-8db28f2c33aa" d="m423.83,101.731c0-1.479,1.079-2.589,2.519-2.589,1.43,0,2.509,1.109,2.509,2.589s-1.079,2.588-2.509,2.588c-1.439,0-2.519-1.109-2.519-2.588Zm3.918,0c0-.93-.59-1.629-1.399-1.629-.819,0-1.409.7-1.409,1.629,0,.939.59,1.629,1.409,1.629.81,0,1.399-.689,1.399-1.629Z"></path>
    <path class="uuid-98db58a7-102a-4e29-a0d1-8db28f2c33aa" d="m430.029,99.223h1.109v.709c.36-.47.92-.75,1.56-.75,1.27,0,2.259,1.129,2.259,2.549,0,1.429-1.02,2.548-2.329,2.548-.589,0-1.109-.22-1.469-.64v2.679h-1.13v-7.096Zm3.818,2.509c0-.91-.64-1.599-1.489-1.599-.5,0-.909.2-1.199.56v2.089c.29.35.72.56,1.199.56.859,0,1.489-.689,1.489-1.609Z"></path>
    <path class="uuid-98db58a7-102a-4e29-a0d1-8db28f2c33aa" d="m435.91,101.731c0-1.469,1.06-2.589,2.438-2.589,1.369,0,2.369,1.089,2.369,2.589v.27h-3.698c.11.81.72,1.399,1.499,1.399.47,0,.91-.18,1.189-.47l.739.669c-.609.51-1.219.73-1.979.73-1.439,0-2.559-1.129-2.559-2.599Zm3.738-.43c-.12-.73-.64-1.239-1.31-1.239-.68,0-1.18.49-1.31,1.239h2.619Z"></path>
    <path class="uuid-98db58a7-102a-4e29-a0d1-8db28f2c33aa" d="m441.869,99.223h1.13v.82c.38-.59.93-.9,1.579-.9,1.029,0,1.749.73,1.749,1.789v3.298h-1.14v-2.979c0-.729-.43-1.199-1.1-1.199-.459,0-.829.21-1.089.61v3.568h-1.13v-5.007Z"></path>
    <path class="uuid-98db58a7-102a-4e29-a0d1-8db28f2c33aa" d="m447.24,103.65l.529-.75c.66.41,1.1.569,1.609.569.6,0,1.01-.28,1.01-.68,0-.31-.21-.47-.7-.569l-.879-.15c-.979-.18-1.449-.63-1.449-1.379,0-.939.77-1.549,1.938-1.549.7,0,1.329.2,1.969.6l-.529.75c-.51-.33-1-.48-1.509-.48-.521,0-.86.22-.86.58,0,.32.181.46.7.55l.89.17c.999.18,1.479.64,1.479,1.389,0,.919-.879,1.629-2.049,1.629-.859,0-1.619-.24-2.148-.68Z"></path>
    <path class="uuid-98db58a7-102a-4e29-a0d1-8db28f2c33aa" d="m452.479,97.064l1.13-.2v3.178c.38-.59.93-.9,1.579-.9,1.029,0,1.749.73,1.749,1.789v3.298h-1.14v-2.979c0-.729-.43-1.199-1.1-1.199-.459,0-.829.21-1.089.61v3.568h-1.13v-7.166Z"></path>
    <path class="uuid-98db58a7-102a-4e29-a0d1-8db28f2c33aa" d="m458.159,97.514c0-.38.31-.7.7-.7.379,0,.699.32.699.7s-.32.689-.699.689c-.391,0-.7-.31-.7-.689Zm.13,1.709h1.13v5.007h-1.13v-5.007Z"></path>
    <path class="uuid-98db58a7-102a-4e29-a0d1-8db28f2c33aa" d="m461.499,100.122h-1.079v-.899h1.079v-.859c0-1.089.61-1.679,1.729-1.679.279,0,.56.03.749.09v.959c-.249-.05-.399-.07-.6-.07-.52,0-.749.23-.749.72v.839h1.349v.899h-1.349v4.108h-1.13v-4.108Z"></path>
    <path class="uuid-98db58a7-102a-4e29-a0d1-8db28f2c33aa" d="m465.598,102.931v-2.809h-1v-.899h1v-1.379l1.129-.24v1.619h1.39v.899h-1.39v2.559c0,.49.19.68.7.68.22,0,.38-.03.68-.12v.949c-.29.09-.67.14-.97.14-1.01,0-1.539-.48-1.539-1.399Z"></path>
    <path class="uuid-98db58a7-102a-4e29-a0d1-8db28f2c33aa" d="m468.969,103.6c0-.399.31-.729.699-.729s.7.33.7.729-.311.72-.7.72-.699-.32-.699-.72Z"></path>
    <path class="uuid-98db58a7-102a-4e29-a0d1-8db28f2c33aa" d="m471.479,97.514c0-.38.31-.7.7-.7.379,0,.699.32.699.7s-.32.689-.699.689c-.391,0-.7-.31-.7-.689Zm.13,1.709h1.13v5.007h-1.13v-5.007Z"></path>
    <path class="uuid-98db58a7-102a-4e29-a0d1-8db28f2c33aa" d="m473.909,101.731c0-1.479,1.079-2.589,2.519-2.589,1.43,0,2.509,1.109,2.509,2.589s-1.079,2.588-2.509,2.588c-1.439,0-2.519-1.109-2.519-2.588Zm3.918,0c0-.93-.59-1.629-1.399-1.629-.819,0-1.409.7-1.409,1.629,0,.939.59,1.629,1.409,1.629.81,0,1.399-.689,1.399-1.629Z"></path>
    <path class="uuid-98db58a7-102a-4e29-a0d1-8db28f2c33aa" d="m482.607,97.234h1.1l-4.008,9.085h-1.09l3.998-9.085Z"></path>
    <path class="uuid-98db58a7-102a-4e29-a0d1-8db28f2c33aa" d="m484.298,99.223h1.13v1.08c.279-.76.76-1.169,1.379-1.169.19.01.32.03.49.1v.989c-.18-.07-.41-.12-.62-.12-.55,0-.999.31-1.249.83v3.298h-1.13v-5.007Z"></path>
    <path class="uuid-98db58a7-102a-4e29-a0d1-8db28f2c33aa" d="m487.769,101.731c0-1.479,1.079-2.589,2.519-2.589,1.43,0,2.509,1.109,2.509,2.589s-1.079,2.588-2.509,2.588c-1.439,0-2.519-1.109-2.519-2.588Zm3.918,0c0-.93-.59-1.629-1.399-1.629-.819,0-1.409.7-1.409,1.629,0,.939.59,1.629,1.409,1.629.81,0,1.399-.689,1.399-1.629Z"></path>
    <path class="uuid-98db58a7-102a-4e29-a0d1-8db28f2c33aa" d="m493.968,97.064l1.13-.2v7.366h-1.13v-7.166Z"></path>
    <path class="uuid-98db58a7-102a-4e29-a0d1-8db28f2c33aa" d="m496.258,101.731c0-1.469,1.06-2.589,2.438-2.589,1.369,0,2.369,1.089,2.369,2.589v.27h-3.698c.11.81.72,1.399,1.499,1.399.47,0,.91-.18,1.189-.47l.739.669c-.609.51-1.219.73-1.979.73-1.439,0-2.559-1.129-2.559-2.599Zm3.738-.43c-.12-.73-.64-1.239-1.31-1.239-.68,0-1.18.49-1.31,1.239h2.619Z"></path>
    <path class="uuid-98db58a7-102a-4e29-a0d1-8db28f2c33aa" d="m502.069,99.853c0-.4.31-.73.699-.73s.7.33.7.73-.311.719-.7.719-.699-.32-.699-.719Zm0,3.748c0-.399.31-.729.699-.729s.7.33.7.729-.311.72-.7.72-.699-.32-.699-.72Z"></path>
    <path class="uuid-98db58a7-102a-4e29-a0d1-8db28f2c33aa" d="m506.499,99.223h1.08l.879,3.528,1.04-3.528h.949l1.029,3.528.88-3.528h1.049l-1.349,5.007h-1.08l-1.02-3.528-1.009,3.528h-1.1l-1.35-5.007Z"></path>
    <path class="uuid-98db58a7-102a-4e29-a0d1-8db28f2c33aa" d="m513.999,101.731c0-1.479,1.079-2.589,2.519-2.589,1.43,0,2.509,1.109,2.509,2.589s-1.079,2.588-2.509,2.588c-1.439,0-2.519-1.109-2.519-2.588Zm3.918,0c0-.93-.59-1.629-1.399-1.629-.819,0-1.409.7-1.409,1.629,0,.939.59,1.629,1.409,1.629.81,0,1.399-.689,1.399-1.629Z"></path>
    <path class="uuid-98db58a7-102a-4e29-a0d1-8db28f2c33aa" d="m520.198,99.223h1.13v1.08c.279-.76.76-1.169,1.379-1.169.19.01.32.03.49.1v.989c-.181-.07-.41-.12-.62-.12-.55,0-.999.31-1.249.83v3.298h-1.13v-5.007Z"></path>
    <path class="uuid-98db58a7-102a-4e29-a0d1-8db28f2c33aa" d="m524.127,97.044l1.13-.19v4.498l2.079-2.129h1.299l-2.309,2.319,2.429,2.688h-1.439l-2.059-2.309v2.309h-1.13v-7.186Z"></path>
    <path class="uuid-98db58a7-102a-4e29-a0d1-8db28f2c33aa" d="m528.908,101.731c0-1.469,1.06-2.589,2.438-2.589,1.369,0,2.369,1.089,2.369,2.589v.27h-3.698c.11.81.72,1.399,1.499,1.399.47,0,.91-.18,1.189-.47l.739.669c-.609.51-1.219.73-1.979.73-1.439,0-2.559-1.129-2.559-2.599Zm3.738-.43c-.12-.73-.64-1.239-1.31-1.239-.68,0-1.18.49-1.31,1.239h2.619Z"></path>
    <path class="uuid-98db58a7-102a-4e29-a0d1-8db28f2c33aa" d="m534.868,99.223h1.13v1.08c.279-.76.76-1.169,1.379-1.169.19.01.32.03.49.1v.989c-.181-.07-.41-.12-.62-.12-.55,0-.999.31-1.249.83v3.298h-1.13v-5.007Z"></path>
  </g>
  <g>
    <g>
      <path class="uuid-98db58a7-102a-4e29-a0d1-8db28f2c33aa" d="m303.399,116.025h1.619v.84c.399-.6.959-.92,1.629-.92.999,0,1.709.73,1.709,1.759v3.478h-1.619v-3.008c0-.58-.34-.959-.859-.959-.35,0-.63.14-.859.43v3.538h-1.619v-5.157Z"></path>
      <path class="uuid-98db58a7-102a-4e29-a0d1-8db28f2c33aa" d="m309.349,118.614c0-1.52,1.16-2.669,2.688-2.669s2.688,1.149,2.688,2.669-1.159,2.668-2.688,2.668-2.688-1.149-2.688-2.668Zm3.798,0c0-.77-.459-1.319-1.109-1.319s-1.109.549-1.109,1.319.46,1.319,1.109,1.319,1.109-.549,1.109-1.319Z"></path>
      <path class="uuid-98db58a7-102a-4e29-a0d1-8db28f2c33aa" d="m315.529,118.594c0-1.449,1.06-2.599,2.399-2.599.539,0,1.029.22,1.379.62v-2.549l1.619-.25v7.366h-1.6v-.669c-.34.43-.909.699-1.519.699-1.27,0-2.279-1.169-2.279-2.618Zm3.778.869v-1.739c-.25-.26-.59-.4-.96-.4-.709,0-1.229.54-1.229,1.279,0,.729.529,1.27,1.229,1.27.391,0,.71-.14.96-.41Z"></path>
      <path class="uuid-98db58a7-102a-4e29-a0d1-8db28f2c33aa" d="m321.959,118.614c0-1.509,1.12-2.669,2.599-2.669,1.489,0,2.539,1.129,2.539,2.729v.35h-3.548c.149.58.619.969,1.209.969.43,0,.79-.15,1.02-.43l1.069.89c-.67.589-1.299.83-2.169.83-1.52,0-2.719-1.169-2.719-2.668Zm3.639-.51c-.141-.55-.53-.9-1.05-.9-.51,0-.869.33-.999.9h2.049Z"></path>
      <path class="uuid-98db58a7-102a-4e29-a0d1-8db28f2c33aa" d="m327.669,120.232l.88-1.269c.97.68,1.579.93,2.269.93.74,0,1.189-.3,1.189-.74,0-.41-.239-.61-.919-.729l-1.489-.26c-1.109-.189-1.72-.889-1.72-1.879,0-1.359,1.04-2.208,2.779-2.208,1.079,0,2.148.35,2.868.919l-.87,1.249c-.68-.52-1.349-.77-2.089-.77-.68,0-1.069.28-1.069.66,0,.36.23.54.79.64l1.399.24c1.309.22,1.999.909,1.999,1.979,0,1.37-1.16,2.299-2.989,2.299-1.109,0-2.099-.37-3.028-1.06Z"></path>
      <path class="uuid-98db58a7-102a-4e29-a0d1-8db28f2c33aa" d="m334.528,118.614c0-1.509,1.12-2.669,2.599-2.669,1.489,0,2.539,1.129,2.539,2.729v.35h-3.548c.149.58.619.969,1.209.969.43,0,.79-.15,1.02-.43l1.069.89c-.67.589-1.299.83-2.169.83-1.519,0-2.719-1.169-2.719-2.668Zm3.639-.51c-.141-.55-.53-.9-1.05-.9-.51,0-.869.33-.999.9h2.049Z"></path>
      <path class="uuid-98db58a7-102a-4e29-a0d1-8db28f2c33aa" d="m340.679,114.066l1.619-.25v7.366h-1.619v-7.116Z"></path>
      <path class="uuid-98db58a7-102a-4e29-a0d1-8db28f2c33aa" d="m343.328,118.614c0-1.509,1.12-2.669,2.599-2.669,1.489,0,2.539,1.129,2.539,2.729v.35h-3.548c.149.58.619.969,1.209.969.43,0,.79-.15,1.02-.43l1.069.89c-.67.589-1.299.83-2.169.83-1.52,0-2.719-1.169-2.719-2.668Zm3.639-.51c-.141-.55-.53-.9-1.05-.9-.51,0-.869.33-.999.9h2.049Z"></path>
      <path class="uuid-98db58a7-102a-4e29-a0d1-8db28f2c33aa" d="m349.299,118.614c0-1.509,1.16-2.669,2.669-2.669.85,0,1.629.34,2.148.95l-.989.989c-.33-.39-.659-.56-1.1-.56-.64,0-1.119.55-1.119,1.29s.479,1.289,1.119,1.289c.44,0,.77-.17,1.1-.56l.989.989c-.52.61-1.299.95-2.148.95-1.509,0-2.669-1.16-2.669-2.668Z"></path>
      <path class="uuid-98db58a7-102a-4e29-a0d1-8db28f2c33aa" d="m355.698,119.623v-2.349h-1v-1.25h1v-1.429l1.619-.33v1.759h1.379v1.25h-1.379v2.029c0,.459.18.62.68.62.189,0,.34-.02.659-.11v1.309c-.3.09-.779.16-1.109.16-1.22,0-1.849-.56-1.849-1.659Z"></path>
      <path class="uuid-98db58a7-102a-4e29-a0d1-8db28f2c33aa" d="m359.318,118.614c0-1.52,1.16-2.669,2.688-2.669s2.688,1.149,2.688,2.669-1.159,2.668-2.688,2.668-2.688-1.149-2.688-2.668Zm3.798,0c0-.77-.459-1.319-1.109-1.319s-1.109.549-1.109,1.319.46,1.319,1.109,1.319,1.109-.549,1.109-1.319Z"></path>
      <path class="uuid-98db58a7-102a-4e29-a0d1-8db28f2c33aa" d="m365.729,116.025h1.619v1.169c.329-.859.789-1.27,1.399-1.27.229.01.34.03.539.13v1.389c-.199-.1-.479-.16-.76-.16-.479,0-.919.25-1.179.64v3.258h-1.619v-5.157Z"></path>
      <path class="uuid-98db58a7-102a-4e29-a0d1-8db28f2c33aa" d="m369.958,116.865c0-.52.41-.95.909-.95s.91.43.91.95-.41.949-.91.949-.909-.43-.909-.949Zm0,3.478c0-.52.41-.95.909-.95s.91.43.91.95-.41.949-.91.949-.909-.43-.909-.949Z"></path>
    </g>
    <g>
      <path class="uuid-98db58a7-102a-4e29-a0d1-8db28f2c33aa" d="m311.494,130.919h1.13v.79c.37-.57.869-.87,1.479-.87.689,0,1.219.37,1.479.959.39-.629.95-.959,1.659-.959.97,0,1.64.75,1.64,1.809v3.278h-1.13v-3.028c0-.7-.39-1.149-1.01-1.149-.409,0-.749.19-.999.6.01.1.02.2.02.3v3.278h-1.139v-3.028c0-.7-.39-1.149-1.01-1.149-.41,0-.739.19-.989.58v3.598h-1.13v-5.007Z"></path>
      <path class="uuid-98db58a7-102a-4e29-a0d1-8db28f2c33aa" d="m319.994,134.487c0-.899.74-1.469,1.919-1.469.47,0,.91.1,1.35.32v-.56c0-.66-.38-1-1.149-1-.42,0-.88.12-1.459.39l-.4-.82c.75-.34,1.409-.51,2.079-.51,1.31,0,2.049.66,2.049,1.819v3.268h-1.119v-.52c-.43.419-.909.609-1.489.609-1.05,0-1.779-.629-1.779-1.529Zm2.089.73c.45,0,.84-.13,1.18-.42v-.81c-.359-.17-.72-.24-1.149-.24-.649,0-1.06.27-1.06.72,0,.459.4.75,1.029.75Z"></path>
      <path class="uuid-98db58a7-102a-4e29-a0d1-8db28f2c33aa" d="m326.224,134.627v-2.809h-.999v-.899h.999v-1.379l1.129-.24v1.619h1.39v.899h-1.39v2.559c0,.49.19.68.7.68.22,0,.38-.03.68-.12v.949c-.29.09-.67.14-.97.14-1.01,0-1.539-.48-1.539-1.399Z"></path>
      <path class="uuid-98db58a7-102a-4e29-a0d1-8db28f2c33aa" d="m329.435,133.428c0-1.449,1.1-2.589,2.528-2.589.78,0,1.499.31,1.999.85l-.699.729c-.35-.39-.78-.589-1.26-.589-.81,0-1.438.7-1.438,1.599,0,.909.629,1.599,1.438,1.599.479,0,.91-.2,1.26-.58l.699.719c-.5.54-1.219.85-1.999.85-1.429,0-2.528-1.129-2.528-2.588Z"></path>
      <path class="uuid-98db58a7-102a-4e29-a0d1-8db28f2c33aa" d="m334.894,128.76l1.13-.2v3.178c.38-.59.93-.9,1.579-.9,1.029,0,1.749.73,1.749,1.789v3.298h-1.14v-2.979c0-.729-.43-1.199-1.1-1.199-.459,0-.829.21-1.089.61v3.568h-1.13v-7.166Z"></path>
      <path class="uuid-98db58a7-102a-4e29-a0d1-8db28f2c33aa" d="m340.854,128.93h1.199v5.957h3.728v1.04h-4.927v-6.996Z"></path>
      <path class="uuid-98db58a7-102a-4e29-a0d1-8db28f2c33aa" d="m346.714,134.487c0-.899.74-1.469,1.919-1.469.47,0,.91.1,1.35.32v-.56c0-.66-.38-1-1.149-1-.42,0-.88.12-1.459.39l-.4-.82c.75-.34,1.409-.51,2.079-.51,1.31,0,2.049.66,2.049,1.819v3.268h-1.119v-.52c-.43.419-.909.609-1.489.609-1.05,0-1.779-.629-1.779-1.529Zm2.089.73c.45,0,.84-.13,1.18-.42v-.81c-.359-.17-.72-.24-1.149-.24-.649,0-1.06.27-1.06.72,0,.459.4.75,1.029.75Z"></path>
      <path class="uuid-98db58a7-102a-4e29-a0d1-8db28f2c33aa" d="m352.474,128.79l1.13-.19v2.989c.35-.44.909-.71,1.539-.71,1.27,0,2.259,1.129,2.259,2.549,0,1.429-1.02,2.548-2.329,2.548-.589,0-1.109-.24-1.489-.689v.64h-1.109v-7.136Zm3.818,4.638c0-.91-.64-1.599-1.489-1.599-.5,0-.909.2-1.199.56v2.089c.29.35.72.56,1.199.56.859,0,1.489-.689,1.489-1.609Z"></path>
      <path class="uuid-98db58a7-102a-4e29-a0d1-8db28f2c33aa" d="m358.354,133.428c0-1.469,1.06-2.589,2.438-2.589,1.369,0,2.369,1.089,2.369,2.589v.27h-3.698c.11.81.72,1.399,1.499,1.399.47,0,.91-.18,1.189-.47l.739.669c-.609.51-1.219.73-1.979.73-1.439,0-2.559-1.129-2.559-2.599Zm3.738-.43c-.12-.73-.64-1.239-1.31-1.239-.68,0-1.18.49-1.31,1.239h2.619Z"></path>
      <path class="uuid-98db58a7-102a-4e29-a0d1-8db28f2c33aa" d="m364.313,128.76l1.13-.2v7.366h-1.13v-7.166Z"></path>
      <path class="uuid-98db58a7-102a-4e29-a0d1-8db28f2c33aa" d="m366.384,135.347l.529-.75c.66.41,1.1.569,1.609.569.6,0,1.01-.28,1.01-.68,0-.31-.21-.47-.7-.569l-.879-.15c-.979-.18-1.449-.63-1.449-1.379,0-.939.77-1.549,1.938-1.549.7,0,1.329.2,1.969.6l-.529.75c-.51-.33-1-.48-1.509-.48-.521,0-.86.22-.86.58,0,.32.181.46.7.55l.89.17c.999.18,1.479.64,1.479,1.389,0,.919-.879,1.629-2.049,1.629-.859,0-1.619-.24-2.148-.68Z"></path>
      <path class="uuid-98db58a7-102a-4e29-a0d1-8db28f2c33aa" d="m371.474,131.549c0-.4.31-.73.699-.73s.7.33.7.73-.311.719-.7.719-.699-.32-.699-.719Zm0,3.748c0-.399.31-.729.699-.729s.7.33.7.729-.311.72-.7.72-.699-.32-.699-.72Z"></path>
    </g>
    <g>
      <path class="uuid-98db58a7-102a-4e29-a0d1-8db28f2c33aa" d="m319.521,145.499h1.13v.82c.38-.59.93-.9,1.579-.9,1.029,0,1.749.73,1.749,1.789v3.298h-1.14v-2.979c0-.729-.43-1.199-1.1-1.199-.459,0-.829.21-1.089.61v3.568h-1.13v-5.007Z"></path>
      <path class="uuid-98db58a7-102a-4e29-a0d1-8db28f2c33aa" d="m325.111,148.008c0-1.479,1.079-2.589,2.519-2.589,1.43,0,2.509,1.109,2.509,2.589s-1.079,2.588-2.509,2.588c-1.439,0-2.519-1.109-2.519-2.588Zm3.918,0c0-.93-.59-1.629-1.399-1.629-.819,0-1.409.7-1.409,1.629,0,.939.59,1.629,1.409,1.629.81,0,1.399-.689,1.399-1.629Z"></path>
      <path class="uuid-98db58a7-102a-4e29-a0d1-8db28f2c33aa" d="m331.081,148.008c0-1.429,1.029-2.549,2.339-2.549.569,0,1.089.23,1.459.65v-2.769l1.13-.2v7.366h-1.12v-.66c-.359.45-.919.709-1.549.709-1.27,0-2.259-1.129-2.259-2.548Zm3.798,1.049v-2.109c-.29-.34-.72-.54-1.189-.54-.859,0-1.499.68-1.499,1.599,0,.909.64,1.599,1.499,1.599.49,0,.899-.19,1.189-.55Z"></path>
      <path class="uuid-98db58a7-102a-4e29-a0d1-8db28f2c33aa" d="m337.181,148.008c0-1.469,1.06-2.589,2.438-2.589,1.369,0,2.369,1.089,2.369,2.589v.27h-3.698c.11.81.72,1.399,1.499,1.399.47,0,.91-.18,1.189-.47l.739.669c-.609.51-1.219.73-1.979.73-1.439,0-2.559-1.129-2.559-2.599Zm3.738-.43c-.12-.73-.64-1.239-1.31-1.239-.68,0-1.18.49-1.31,1.239h2.619Z"></path>
      <path class="uuid-98db58a7-102a-4e29-a0d1-8db28f2c33aa" d="m343.05,147.188h3.488v.959h-3.488v-.959Z"></path>
      <path class="uuid-98db58a7-102a-4e29-a0d1-8db28f2c33aa" d="m347.81,145.499h1.13v1.08c.279-.76.76-1.169,1.379-1.169.19.01.32.03.49.1v.989c-.18-.07-.41-.12-.62-.12-.55,0-.999.31-1.249.83v3.298h-1.13v-5.007Z"></path>
      <path class="uuid-98db58a7-102a-4e29-a0d1-8db28f2c33aa" d="m351.28,148.008c0-1.479,1.079-2.589,2.519-2.589,1.43,0,2.509,1.109,2.509,2.589s-1.079,2.588-2.509,2.588c-1.439,0-2.519-1.109-2.519-2.588Zm3.918,0c0-.93-.59-1.629-1.399-1.629-.819,0-1.409.7-1.409,1.629,0,.939.59,1.629,1.409,1.629.81,0,1.399-.689,1.399-1.629Z"></path>
      <path class="uuid-98db58a7-102a-4e29-a0d1-8db28f2c33aa" d="m357.479,143.34l1.13-.2v7.366h-1.13v-7.166Z"></path>
      <path class="uuid-98db58a7-102a-4e29-a0d1-8db28f2c33aa" d="m359.771,148.008c0-1.469,1.06-2.589,2.438-2.589,1.369,0,2.369,1.089,2.369,2.589v.27h-3.698c.11.81.72,1.399,1.499,1.399.47,0,.91-.18,1.189-.47l.739.669c-.609.51-1.219.73-1.979.73-1.439,0-2.559-1.129-2.559-2.599Zm3.738-.43c-.12-.73-.64-1.239-1.31-1.239-.68,0-1.18.49-1.31,1.239h2.619Z"></path>
      <path class="uuid-98db58a7-102a-4e29-a0d1-8db28f2c33aa" d="m365.33,149.876c0-.399.31-.729.699-.729s.7.33.7.729-.311.72-.7.72-.699-.32-.699-.72Z"></path>
      <path class="uuid-98db58a7-102a-4e29-a0d1-8db28f2c33aa" d="m367.979,143.32l1.13-.19v4.498l2.079-2.129h1.299l-2.309,2.319,2.429,2.688h-1.439l-2.059-2.309v2.309h-1.13v-7.186Z"></path>
      <path class="uuid-98db58a7-102a-4e29-a0d1-8db28f2c33aa" d="m373.199,148.797v-3.298h1.14v2.968c0,.74.43,1.209,1.1,1.209.45,0,.829-.2,1.09-.6v-3.578h1.129v5.007h-1.129v-.81c-.38.59-.92.89-1.59.89-1.02,0-1.739-.74-1.739-1.789Z"></path>
      <path class="uuid-98db58a7-102a-4e29-a0d1-8db28f2c33aa" d="m379.06,143.37l1.13-.19v2.989c.35-.44.909-.71,1.539-.71,1.27,0,2.259,1.129,2.259,2.549,0,1.429-1.02,2.548-2.329,2.548-.589,0-1.109-.24-1.489-.689v.64h-1.109v-7.136Zm3.818,4.638c0-.91-.64-1.599-1.489-1.599-.5,0-.909.2-1.199.56v2.089c.29.35.72.56,1.199.56.859,0,1.489-.689,1.489-1.609Z"></path>
      <path class="uuid-98db58a7-102a-4e29-a0d1-8db28f2c33aa" d="m384.939,148.008c0-1.469,1.06-2.589,2.438-2.589,1.369,0,2.369,1.089,2.369,2.589v.27h-3.698c.11.81.72,1.399,1.499,1.399.47,0,.91-.18,1.189-.47l.739.669c-.609.51-1.219.73-1.979.73-1.439,0-2.559-1.129-2.559-2.599Zm3.738-.43c-.12-.73-.64-1.239-1.31-1.239-.68,0-1.18.49-1.31,1.239h2.619Z"></path>
      <path class="uuid-98db58a7-102a-4e29-a0d1-8db28f2c33aa" d="m390.899,145.499h1.13v1.08c.279-.76.76-1.169,1.379-1.169.19.01.32.03.49.1v.989c-.18-.07-.41-.12-.62-.12-.55,0-.999.31-1.249.83v3.298h-1.13v-5.007Z"></path>
      <path class="uuid-98db58a7-102a-4e29-a0d1-8db28f2c33aa" d="m394.829,145.499h1.13v.82c.38-.59.93-.9,1.579-.9,1.029,0,1.749.73,1.749,1.789v3.298h-1.14v-2.979c0-.729-.43-1.199-1.1-1.199-.459,0-.829.21-1.089.61v3.568h-1.13v-5.007Z"></path>
      <path class="uuid-98db58a7-102a-4e29-a0d1-8db28f2c33aa" d="m400.42,148.008c0-1.469,1.06-2.589,2.438-2.589,1.369,0,2.369,1.089,2.369,2.589v.27h-3.698c.11.81.72,1.399,1.499,1.399.47,0,.91-.18,1.189-.47l.739.669c-.609.51-1.219.73-1.979.73-1.439,0-2.559-1.129-2.559-2.599Zm3.738-.43c-.12-.73-.64-1.239-1.31-1.239-.68,0-1.18.49-1.31,1.239h2.619Z"></path>
      <path class="uuid-98db58a7-102a-4e29-a0d1-8db28f2c33aa" d="m406.85,149.207v-2.809h-1v-.899h1v-1.379l1.129-.24v1.619h1.39v.899h-1.39v2.559c0,.49.19.68.7.68.22,0,.38-.03.68-.12v.949c-.29.09-.67.14-.97.14-1.01,0-1.539-.48-1.539-1.399Z"></path>
      <path class="uuid-98db58a7-102a-4e29-a0d1-8db28f2c33aa" d="m410.06,148.008c0-1.469,1.06-2.589,2.438-2.589,1.369,0,2.369,1.089,2.369,2.589v.27h-3.698c.11.81.72,1.399,1.499,1.399.47,0,.91-.18,1.189-.47l.739.669c-.609.51-1.219.73-1.979.73-1.439,0-2.559-1.129-2.559-2.599Zm3.738-.43c-.12-.73-.64-1.239-1.31-1.239-.68,0-1.18.49-1.31,1.239h2.619Z"></path>
      <path class="uuid-98db58a7-102a-4e29-a0d1-8db28f2c33aa" d="m415.619,149.927l.529-.75c.66.41,1.1.569,1.609.569.6,0,1.01-.28,1.01-.68,0-.31-.21-.47-.7-.569l-.879-.15c-.979-.18-1.449-.63-1.449-1.379,0-.939.77-1.549,1.938-1.549.7,0,1.329.2,1.969.6l-.529.75c-.51-.33-1-.48-1.51-.48-.52,0-.859.22-.859.58,0,.32.181.46.7.55l.89.17c.999.18,1.479.64,1.479,1.389,0,.919-.879,1.629-2.049,1.629-.859,0-1.619-.24-2.148-.68Z"></path>
      <path class="uuid-98db58a7-102a-4e29-a0d1-8db28f2c33aa" d="m420.659,149.876c0-.399.31-.729.699-.729s.7.33.7.729-.311.72-.7.72-.699-.32-.699-.72Z"></path>
      <path class="uuid-98db58a7-102a-4e29-a0d1-8db28f2c33aa" d="m423.169,143.79c0-.38.31-.7.7-.7.379,0,.699.32.699.7s-.32.689-.699.689c-.391,0-.7-.31-.7-.689Zm.13,1.709h1.13v5.007h-1.13v-5.007Z"></path>
      <path class="uuid-98db58a7-102a-4e29-a0d1-8db28f2c33aa" d="m425.6,148.008c0-1.479,1.079-2.589,2.519-2.589,1.43,0,2.509,1.109,2.509,2.589s-1.079,2.588-2.509,2.588c-1.439,0-2.519-1.109-2.519-2.588Zm3.918,0c0-.93-.59-1.629-1.399-1.629-.819,0-1.409.7-1.409,1.629,0,.939.59,1.629,1.409,1.629.81,0,1.399-.689,1.399-1.629Z"></path>
      <path class="uuid-98db58a7-102a-4e29-a0d1-8db28f2c33aa" d="m434.298,143.51h1.1l-4.008,9.085h-1.09l3.998-9.085Z"></path>
      <path class="uuid-98db58a7-102a-4e29-a0d1-8db28f2c33aa" d="m435.7,145.499h1.08l.879,3.528,1.04-3.528h.949l1.029,3.528.88-3.528h1.049l-1.349,5.007h-1.08l-1.02-3.528-1.009,3.528h-1.1l-1.35-5.007Z"></path>
      <path class="uuid-98db58a7-102a-4e29-a0d1-8db28f2c33aa" d="m443.2,148.008c0-1.479,1.079-2.589,2.519-2.589,1.43,0,2.509,1.109,2.509,2.589s-1.079,2.588-2.509,2.588c-1.439,0-2.519-1.109-2.519-2.588Zm3.918,0c0-.93-.59-1.629-1.399-1.629-.819,0-1.409.7-1.409,1.629,0,.939.59,1.629,1.409,1.629.81,0,1.399-.689,1.399-1.629Z"></path>
      <path class="uuid-98db58a7-102a-4e29-a0d1-8db28f2c33aa" d="m449.399,145.499h1.13v1.08c.279-.76.76-1.169,1.379-1.169.19.01.32.03.49.1v.989c-.181-.07-.41-.12-.62-.12-.55,0-.999.31-1.249.83v3.298h-1.13v-5.007Z"></path>
      <path class="uuid-98db58a7-102a-4e29-a0d1-8db28f2c33aa" d="m453.329,143.32l1.13-.19v4.498l2.079-2.129h1.299l-2.309,2.319,2.429,2.688h-1.439l-2.059-2.309v2.309h-1.13v-7.186Z"></path>
      <path class="uuid-98db58a7-102a-4e29-a0d1-8db28f2c33aa" d="m458.109,148.008c0-1.469,1.06-2.589,2.438-2.589,1.369,0,2.369,1.089,2.369,2.589v.27h-3.698c.11.81.72,1.399,1.499,1.399.47,0,.91-.18,1.189-.47l.739.669c-.609.51-1.219.73-1.979.73-1.439,0-2.559-1.129-2.559-2.599Zm3.738-.43c-.12-.73-.64-1.239-1.31-1.239-.68,0-1.18.49-1.31,1.239h2.619Z"></path>
      <path class="uuid-98db58a7-102a-4e29-a0d1-8db28f2c33aa" d="m464.069,145.499h1.13v1.08c.279-.76.76-1.169,1.379-1.169.19.01.32.03.49.1v.989c-.181-.07-.41-.12-.62-.12-.55,0-.999.31-1.249.83v3.298h-1.13v-5.007Z"></path>
      <path class="uuid-98db58a7-102a-4e29-a0d1-8db28f2c33aa" d="m467.899,146.129c0-.4.31-.73.699-.73s.7.33.7.73-.311.719-.7.719-.699-.32-.699-.719Zm0,3.748c0-.399.31-.729.699-.729s.7.33.7.729-.311.72-.7.72-.699-.32-.699-.72Z"></path>
      <path class="uuid-98db58a7-102a-4e29-a0d1-8db28f2c33aa" d="m470.928,143.01h1.14l-.97,2.639h-.839l.669-2.639Zm1.909,0h1.14l-.97,2.639h-.84l.67-2.639Z"></path>
      <path class="uuid-98db58a7-102a-4e29-a0d1-8db28f2c33aa" d="m475.458,143.01h1.14l-.97,2.639h-.839l.669-2.639Zm1.909,0h1.14l-.97,2.639h-.84l.67-2.639Z"></path>
    </g>
  </g>
  <g>
    <path class="uuid-98db58a7-102a-4e29-a0d1-8db28f2c33aa" d="m303.02,58.595l.529-.75c.66.41,1.1.569,1.609.569.6,0,1.01-.28,1.01-.68,0-.31-.21-.47-.7-.569l-.879-.15c-.979-.18-1.449-.63-1.449-1.379,0-.939.77-1.549,1.938-1.549.7,0,1.329.2,1.969.6l-.529.75c-.51-.33-1-.48-1.51-.48-.52,0-.859.22-.859.58,0,.32.181.46.7.55l.89.17c.999.18,1.479.64,1.479,1.389,0,.919-.879,1.629-2.049,1.629-.859,0-1.619-.24-2.148-.68Z"></path>
    <path class="uuid-98db58a7-102a-4e29-a0d1-8db28f2c33aa" d="m308.259,54.167h1.109v.709c.36-.47.92-.75,1.56-.75,1.27,0,2.259,1.129,2.259,2.549,0,1.429-1.02,2.548-2.329,2.548-.589,0-1.109-.22-1.469-.64v2.679h-1.13v-7.096Zm3.818,2.509c0-.91-.64-1.599-1.489-1.599-.5,0-.909.2-1.199.56v2.089c.29.35.72.56,1.199.56.859,0,1.489-.689,1.489-1.609Z"></path>
    <path class="uuid-98db58a7-102a-4e29-a0d1-8db28f2c33aa" d="m314.139,56.676c0-1.469,1.06-2.589,2.438-2.589,1.369,0,2.369,1.089,2.369,2.589v.27h-3.698c.11.81.72,1.399,1.499,1.399.47,0,.91-.18,1.189-.47l.739.669c-.609.51-1.219.73-1.979.73-1.439,0-2.559-1.129-2.559-2.599Zm3.738-.43c-.12-.73-.64-1.239-1.31-1.239-.68,0-1.18.49-1.31,1.239h2.619Z"></path>
    <path class="uuid-98db58a7-102a-4e29-a0d1-8db28f2c33aa" d="m319.889,56.676c0-1.449,1.1-2.589,2.528-2.589.78,0,1.499.31,1.999.85l-.699.729c-.35-.39-.779-.589-1.26-.589-.81,0-1.439.7-1.439,1.599,0,.909.63,1.599,1.439,1.599.48,0,.91-.2,1.26-.58l.699.719c-.5.54-1.219.85-1.999.85-1.429,0-2.528-1.129-2.528-2.588Z"></path>
    <path class="uuid-98db58a7-102a-4e29-a0d1-8db28f2c33aa" d="m325.199,54.797c0-.4.31-.73.699-.73s.7.33.7.73-.311.719-.7.719-.699-.32-.699-.719Zm0,3.748c0-.399.31-.729.699-.729s.7.33.7.729-.311.72-.7.72-.699-.32-.699-.72Z"></path>
  </g>
  <g>
    <line class="uuid-018f9ba1-7e22-43e1-8205-e56d6aef3777" x1="76.02" y1="72.604" x2="298.973" y2="72.604"></line>
    <polygon class="uuid-98db58a7-102a-4e29-a0d1-8db28f2c33aa" points="77.114 76.344 70.638 72.604 77.114 68.864 77.114 76.344"></polygon>
  </g>
  <g>
    <polyline class="uuid-018f9ba1-7e22-43e1-8205-e56d6aef3777" points="373.826 118.596 566.82 118.596 566.82 87.226 593.878 87.226"></polyline>
    <polygon class="uuid-98db58a7-102a-4e29-a0d1-8db28f2c33aa" points="592.784 90.966 599.26 87.226 592.784 83.486 592.784 90.966"></polygon>
  </g>
</svg>