<svg id="uuid-aadac783-832f-4626-bd39-f0859f28c12b" data-name="Layer 1" xmlns="http://www.w3.org/2000/svg" width="595.276" height="467.233" viewBox="0 0 595.276 467.233">
  <defs>
    <style>
      .uuid-cd68af95-7c82-445e-9f64-3b161d27057b, .uuid-be88c1a3-31d8-4e3d-a6d1-caa2df075942 {
        stroke-linecap: round;
        stroke-linejoin: round;
      }

      .uuid-cd68af95-7c82-445e-9f64-3b161d27057b, .uuid-be88c1a3-31d8-4e3d-a6d1-caa2df075942, .uuid-8386037d-ca64-45c7-ab48-2be6810a02bb {
        stroke: #000;
      }

      .uuid-cd68af95-7c82-445e-9f64-3b161d27057b, .uuid-937fe887-4ad2-435c-bfe7-4644511ae139, .uuid-8386037d-ca64-45c7-ab48-2be6810a02bb, .uuid-b2cf209b-a7f3-4330-ad9a-1c8c5157913d {
        fill: none;
      }

      .uuid-1797bcdc-d4a5-487a-96c8-faaad8924d2b {
        fill: #fdfefe;
      }

      .uuid-1797bcdc-d4a5-487a-96c8-faaad8924d2b, .uuid-8b597a58-8e9c-410b-947b-6c4cea8692a1, .uuid-49cc8ff8-435e-4c86-8e5d-14b4319081a9, .uuid-c6247912-c9c9-4711-827e-32238cc8dd45, .uuid-98fdd551-8236-4b7f-81f4-bae07693318e, .uuid-4f13da13-569e-48c5-a0f2-21951f935e45, .uuid-803d09fa-2d00-474c-b1b2-47977bed3396, .uuid-85059a8d-dcb5-414e-a1f0-f7f3a972cc02, .uuid-cf3879a9-9229-456b-87a7-966ad3d83750, .uuid-4aac6c8a-1320-49ca-805e-6e768fa3ed42, .uuid-fff26fff-d4f6-4cf5-ae17-3d163d8a47f5, .uuid-b63d85d6-3495-4bce-81ad-ab29947f3ef4, .uuid-40e78f4a-2349-492f-a68b-7def7fd90e24, .uuid-1b518c9d-97ef-4a99-8c4f-b87b878f9043, .uuid-fa473ac5-dbbf-4234-9621-859c844b6570, .uuid-a3e3fa44-d2fd-4b3e-83c6-aea3fe93fcce, .uuid-6c729251-6bbb-4a3d-98e0-cbd3082d0b59, .uuid-66604176-1072-4783-9a7e-b359e6c47844, .uuid-f66d90e3-f6de-421f-aaaf-c58c39527a79, .uuid-2519b8f3-1888-482a-a38f-011668f7973f, .uuid-82336efa-65ae-4004-8fcb-23c51d60f28f, .uuid-f21e03c2-4964-46ef-8e0d-9d3addc539de {
        stroke-width: 0px;
      }

      .uuid-8b597a58-8e9c-410b-947b-6c4cea8692a1 {
        fill: #f0f5fd;
      }

      .uuid-49cc8ff8-435e-4c86-8e5d-14b4319081a9 {
        fill: #326ce4;
      }

      .uuid-be88c1a3-31d8-4e3d-a6d1-caa2df075942 {
        stroke-width: 1.5px;
      }

      .uuid-be88c1a3-31d8-4e3d-a6d1-caa2df075942, .uuid-2519b8f3-1888-482a-a38f-011668f7973f {
        fill: #fff;
      }

      .uuid-937fe887-4ad2-435c-bfe7-4644511ae139 {
        stroke: #a1c2e7;
      }

      .uuid-937fe887-4ad2-435c-bfe7-4644511ae139, .uuid-8386037d-ca64-45c7-ab48-2be6810a02bb, .uuid-b2cf209b-a7f3-4330-ad9a-1c8c5157913d {
        stroke-miterlimit: 10;
      }

      .uuid-c6247912-c9c9-4711-827e-32238cc8dd45 {
        fill: #ecf2fd;
      }

      .uuid-98fdd551-8236-4b7f-81f4-bae07693318e {
        fill: #eff4fd;
      }

      .uuid-4f13da13-569e-48c5-a0f2-21951f935e45 {
        fill: #000;
      }

      .uuid-803d09fa-2d00-474c-b1b2-47977bed3396 {
        fill: #e9f0fd;
      }

      .uuid-85059a8d-dcb5-414e-a1f0-f7f3a972cc02 {
        fill: #e00;
      }

      .uuid-cf3879a9-9229-456b-87a7-966ad3d83750 {
        fill: #f4f8fd;
      }

      .uuid-4aac6c8a-1320-49ca-805e-6e768fa3ed42 {
        fill: #151515;
      }

      .uuid-fff26fff-d4f6-4cf5-ae17-3d163d8a47f5 {
        fill: #eef3fd;
      }

      .uuid-b63d85d6-3495-4bce-81ad-ab29947f3ef4 {
        fill: #066dec;
      }

      .uuid-40e78f4a-2349-492f-a68b-7def7fd90e24 {
        fill: #fefefe;
      }

      .uuid-1b518c9d-97ef-4a99-8c4f-b87b878f9043 {
        fill: #77777a;
      }

      .uuid-fa473ac5-dbbf-4234-9621-859c844b6570 {
        fill: #f1f6fd;
      }

      .uuid-a3e3fa44-d2fd-4b3e-83c6-aea3fe93fcce {
        fill: #fdfdfe;
      }

      .uuid-6c729251-6bbb-4a3d-98e0-cbd3082d0b59 {
        fill: #fcfdfd;
      }

      .uuid-66604176-1072-4783-9a7e-b359e6c47844 {
        fill: #eaf1fd;
      }

      .uuid-f66d90e3-f6de-421f-aaaf-c58c39527a79 {
        fill: #eef4fd;
      }

      .uuid-82336efa-65ae-4004-8fcb-23c51d60f28f {
        fill: #039fe2;
      }

      .uuid-f21e03c2-4964-46ef-8e0d-9d3addc539de {
        fill: #e6e6e6;
      }

      .uuid-b2cf209b-a7f3-4330-ad9a-1c8c5157913d {
        stroke: #066dec;
        stroke-width: .5px;
      }
    </style>
  </defs>
  <rect class="uuid-f21e03c2-4964-46ef-8e0d-9d3addc539de" x="12.421" y="90.892" width="502.529" height="359.951"></rect>
  <rect class="uuid-40e78f4a-2349-492f-a68b-7def7fd90e24" x="28.913" y="133.583" width="218.251" height="241.728"></rect>
  <rect class="uuid-40e78f4a-2349-492f-a68b-7def7fd90e24" x="280.206" y="133.583" width="218.251" height="241.728"></rect>
  <rect class="uuid-937fe887-4ad2-435c-bfe7-4644511ae139" x="291.744" y="162.851" width="140.178" height="120.864"></rect>
  <g>
    <path class="uuid-4f13da13-569e-48c5-a0f2-21951f935e45" d="M41.929,144.886h1.959l2.688,6.996h-1.859l-.58-1.669h-2.559l-.589,1.669h-1.789l2.729-6.996ZM43.678,148.884l-.81-2.318-.819,2.318h1.629Z"></path>
    <path class="uuid-4f13da13-569e-48c5-a0f2-21951f935e45" d="M47.23,146.725h1.599v.72c.339-.46.909-.75,1.529-.75,1.27,0,2.279,1.169,2.279,2.619s-1.06,2.598-2.398,2.598c-.56,0-1.05-.209-1.39-.6v2.659h-1.619v-7.246ZM51.048,149.304c0-.729-.53-1.269-1.229-1.269-.4,0-.709.14-.97.419v1.719c.25.26.59.41.97.41.709,0,1.229-.54,1.229-1.279Z"></path>
    <path class="uuid-4f13da13-569e-48c5-a0f2-21951f935e45" d="M53.67,146.725h1.599v.72c.339-.46.909-.75,1.529-.75,1.27,0,2.279,1.169,2.279,2.619s-1.06,2.598-2.398,2.598c-.56,0-1.05-.209-1.39-.6v2.659h-1.619v-7.246ZM57.488,149.304c0-.729-.53-1.269-1.229-1.269-.4,0-.709.14-.97.419v1.719c.25.26.59.41.97.41.709,0,1.229-.54,1.229-1.279Z"></path>
    <path class="uuid-4f13da13-569e-48c5-a0f2-21951f935e45" d="M60.11,144.766l1.619-.25v7.366h-1.619v-7.116Z"></path>
    <path class="uuid-4f13da13-569e-48c5-a0f2-21951f935e45" d="M62.89,145.026c0-.5.41-.909.91-.909s.909.41.909.909-.41.91-.909.91-.91-.41-.91-.91ZM62.99,146.725h1.619v5.157h-1.619v-5.157Z"></path>
    <path class="uuid-4f13da13-569e-48c5-a0f2-21951f935e45" d="M65.64,149.314c0-1.509,1.159-2.669,2.668-2.669.85,0,1.629.34,2.149.95l-.99.989c-.33-.39-.66-.56-1.099-.56-.64,0-1.12.55-1.12,1.29s.48,1.289,1.12,1.289c.439,0,.77-.17,1.099-.56l.99.989c-.52.61-1.299.95-2.149.95-1.509,0-2.668-1.16-2.668-2.668Z"></path>
    <path class="uuid-4f13da13-569e-48c5-a0f2-21951f935e45" d="M71.02,150.403c0-.95.74-1.5,2.009-1.5.37,0,.739.07,1.199.24v-.42c0-.5-.33-.75-1.02-.75-.39,0-.85.11-1.449.36l-.56-1.129c.85-.38,1.609-.56,2.369-.56,1.429,0,2.259.71,2.259,1.939v3.298h-1.599v-.45c-.45.38-.88.53-1.429.53-1.049,0-1.779-.64-1.779-1.559ZM73.299,150.893c.34,0,.65-.09.93-.26v-.66c-.3-.07-.59-.11-.89-.11-.53,0-.83.18-.83.51s.29.52.79.52Z"></path>
    <path class="uuid-4f13da13-569e-48c5-a0f2-21951f935e45" d="M77.579,150.323v-2.349h-.999v-1.25h.999v-1.429l1.619-.33v1.759h1.379v1.25h-1.379v2.029c0,.459.18.62.68.62.19,0,.34-.02.66-.11v1.309c-.3.09-.779.16-1.109.16-1.219,0-1.849-.56-1.849-1.659Z"></path>
    <path class="uuid-4f13da13-569e-48c5-a0f2-21951f935e45" d="M81.38,145.026c0-.5.41-.909.909-.909s.91.41.91.909-.41.91-.91.91-.909-.41-.909-.91ZM81.48,146.725h1.619v5.157h-1.619v-5.157Z"></path>
    <path class="uuid-4f13da13-569e-48c5-a0f2-21951f935e45" d="M84.13,149.314c0-1.52,1.159-2.669,2.688-2.669s2.688,1.149,2.688,2.669-1.159,2.668-2.688,2.668-2.688-1.149-2.688-2.668ZM87.928,149.314c0-.77-.46-1.319-1.109-1.319s-1.109.549-1.109,1.319.459,1.319,1.109,1.319,1.109-.549,1.109-1.319Z"></path>
    <path class="uuid-4f13da13-569e-48c5-a0f2-21951f935e45" d="M90.54,146.725h1.619v.839c.4-.6.959-.919,1.629-.919,1,0,1.709.73,1.709,1.759v3.478h-1.619v-3.008c0-.58-.34-.959-.859-.959-.35,0-.63.14-.86.43v3.538h-1.619v-5.157Z"></path>
    <path class="uuid-4f13da13-569e-48c5-a0f2-21951f935e45" d="M98.87,146.725h1.619v.839c.4-.6.959-.919,1.629-.919,1,0,1.709.73,1.709,1.759v3.478h-1.619v-3.008c0-.58-.34-.959-.859-.959-.35,0-.63.14-.86.43v3.538h-1.619v-5.157Z"></path>
    <path class="uuid-4f13da13-569e-48c5-a0f2-21951f935e45" d="M104.81,150.403c0-.95.74-1.5,2.009-1.5.37,0,.74.07,1.2.24v-.42c0-.5-.33-.75-1.02-.75-.39,0-.85.11-1.449.36l-.56-1.129c.85-.38,1.609-.56,2.369-.56,1.429,0,2.259.71,2.259,1.939v3.298h-1.599v-.45c-.45.38-.879.53-1.429.53-1.05,0-1.779-.64-1.779-1.559ZM107.088,150.893c.34,0,.65-.09.93-.26v-.66c-.3-.07-.59-.11-.89-.11-.53,0-.83.18-.83.51s.29.52.79.52Z"></path>
    <path class="uuid-4f13da13-569e-48c5-a0f2-21951f935e45" d="M110.84,146.725h1.619v.82c.38-.59.9-.9,1.529-.9.67,0,1.199.37,1.449.959.4-.62.979-.959,1.689-.959.95,0,1.619.75,1.619,1.809v3.428h-1.619v-3.108c0-.52-.31-.859-.77-.859-.3,0-.54.12-.75.39v3.578h-1.619v-3.108c0-.52-.31-.859-.77-.859-.3,0-.55.13-.76.4v3.568h-1.619v-5.157Z"></path>
    <path class="uuid-4f13da13-569e-48c5-a0f2-21951f935e45" d="M119.74,149.314c0-1.509,1.119-2.669,2.599-2.669,1.489,0,2.539,1.129,2.539,2.729v.35h-3.548c.15.58.62.969,1.209.969.43,0,.79-.15,1.02-.43l1.069.89c-.669.589-1.299.83-2.169.83-1.519,0-2.718-1.169-2.718-2.668ZM123.377,148.804c-.14-.55-.529-.9-1.049-.9-.51,0-.87.33-1,.9h2.049Z"></path>
    <path class="uuid-4f13da13-569e-48c5-a0f2-21951f935e45" d="M125.52,151.353l.709-1.079c.74.39,1.16.52,1.659.52.459,0,.74-.16.74-.42,0-.2-.15-.31-.48-.37l-.989-.18c-1-.189-1.52-.699-1.52-1.499,0-1.049.81-1.679,2.159-1.679.719,0,1.429.2,2.099.59l-.74,1.029c-.52-.3-.999-.439-1.479-.439-.39,0-.62.13-.62.35,0,.21.13.3.53.37l.969.18c1.02.19,1.549.709,1.549,1.489,0,1.009-.95,1.769-2.219,1.769-.939,0-1.769-.22-2.369-.63Z"></path>
    <path class="uuid-4f13da13-569e-48c5-a0f2-21951f935e45" d="M131.049,146.725h1.599v.72c.339-.46.909-.75,1.529-.75,1.27,0,2.279,1.169,2.279,2.619s-1.06,2.598-2.398,2.598c-.56,0-1.05-.209-1.39-.6v2.659h-1.619v-7.246ZM134.867,149.304c0-.729-.53-1.269-1.229-1.269-.4,0-.709.14-.97.419v1.719c.25.26.59.41.97.41.709,0,1.229-.54,1.229-1.279Z"></path>
    <path class="uuid-4f13da13-569e-48c5-a0f2-21951f935e45" d="M137.299,150.403c0-.95.74-1.5,2.009-1.5.37,0,.74.07,1.2.24v-.42c0-.5-.33-.75-1.02-.75-.39,0-.85.11-1.449.36l-.56-1.129c.85-.38,1.609-.56,2.369-.56,1.429,0,2.259.71,2.259,1.939v3.298h-1.599v-.45c-.45.38-.879.53-1.429.53-1.05,0-1.779-.64-1.779-1.559ZM139.578,150.893c.34,0,.65-.09.93-.26v-.66c-.3-.07-.59-.11-.89-.11-.53,0-.83.18-.83.51s.29.52.79.52Z"></path>
    <path class="uuid-4f13da13-569e-48c5-a0f2-21951f935e45" d="M143.099,149.314c0-1.509,1.159-2.669,2.668-2.669.85,0,1.629.34,2.149.95l-.99.989c-.33-.39-.66-.56-1.099-.56-.64,0-1.12.55-1.12,1.29s.48,1.289,1.12,1.289c.439,0,.77-.17,1.099-.56l.99.989c-.52.61-1.299.95-2.149.95-1.509,0-2.668-1.16-2.668-2.668Z"></path>
    <path class="uuid-4f13da13-569e-48c5-a0f2-21951f935e45" d="M148.339,149.314c0-1.509,1.119-2.669,2.599-2.669,1.489,0,2.539,1.129,2.539,2.729v.35h-3.548c.15.58.62.969,1.209.969.43,0,.79-.15,1.02-.43l1.069.89c-.669.589-1.299.83-2.169.83-1.519,0-2.718-1.169-2.718-2.668ZM151.977,148.804c-.14-.55-.529-.9-1.049-.9-.51,0-.87.33-1,.9h2.049Z"></path>
  </g>
  <g>
    <path class="uuid-4f13da13-569e-48c5-a0f2-21951f935e45" d="M29.453,109.379c0-2.423,1.907-4.33,4.342-4.33s4.342,1.907,4.342,4.33-1.907,4.33-4.342,4.33-4.342-1.907-4.342-4.33ZM36.014,109.379c0-1.427-.959-2.495-2.219-2.495s-2.219,1.067-2.219,2.495.959,2.495,2.219,2.495,2.219-1.067,2.219-2.495Z"></path>
    <path class="uuid-4f13da13-569e-48c5-a0f2-21951f935e45" d="M39.437,107.388h1.919v.863c.408-.552,1.092-.899,1.835-.899,1.523,0,2.735,1.403,2.735,3.142s-1.271,3.119-2.878,3.119c-.672,0-1.259-.252-1.667-.72v3.19h-1.943v-8.695ZM44.019,110.482c0-.875-.635-1.523-1.475-1.523-.479,0-.852.168-1.163.504v2.063c.3.312.708.492,1.163.492.852,0,1.475-.647,1.475-1.535Z"></path>
    <path class="uuid-4f13da13-569e-48c5-a0f2-21951f935e45" d="M46.889,110.494c0-1.811,1.344-3.202,3.119-3.202,1.787,0,3.046,1.355,3.046,3.274v.42h-4.258c.18.695.744,1.163,1.451,1.163.516,0,.947-.18,1.223-.516l1.284,1.067c-.804.708-1.56.996-2.603.996-1.823,0-3.263-1.403-3.263-3.203ZM51.255,109.883c-.168-.66-.636-1.08-1.259-1.08-.611,0-1.043.396-1.199,1.08h2.458Z"></path>
    <path class="uuid-4f13da13-569e-48c5-a0f2-21951f935e45" d="M54.269,107.388h1.943v1.007c.479-.72,1.151-1.104,1.955-1.104,1.199,0,2.051.875,2.051,2.111v4.174h-1.943v-3.61c0-.696-.408-1.151-1.031-1.151-.42,0-.755.168-1.031.516v4.246h-1.943v-6.188Z"></path>
    <path class="uuid-4f13da13-569e-48c5-a0f2-21951f935e45" d="M61.157,112.437l1.055-1.523c1.164.815,1.895,1.115,2.723,1.115.888,0,1.427-.359,1.427-.887,0-.492-.288-.732-1.104-.875l-1.787-.312c-1.331-.228-2.063-1.067-2.063-2.255,0-1.631,1.248-2.65,3.334-2.65,1.295,0,2.579.42,3.442,1.104l-1.043,1.499c-.815-.624-1.619-.923-2.506-.923-.815,0-1.283.336-1.283.792,0,.432.276.647.947.768l1.679.288c1.571.264,2.398,1.092,2.398,2.375,0,1.643-1.391,2.758-3.586,2.758-1.331,0-2.519-.444-3.634-1.271Z"></path>
    <path class="uuid-4f13da13-569e-48c5-a0f2-21951f935e45" d="M69.545,105.037l1.943-.3v3.658c.479-.72,1.151-1.104,1.955-1.104,1.199,0,2.051.875,2.051,2.111v4.174h-1.943v-3.61c0-.696-.408-1.151-1.031-1.151-.42,0-.755.168-1.031.516v4.246h-1.943v-8.54Z"></path>
    <path class="uuid-4f13da13-569e-48c5-a0f2-21951f935e45" d="M76.841,105.349c0-.6.492-1.091,1.091-1.091s1.091.492,1.091,1.091-.492,1.091-1.091,1.091-1.091-.492-1.091-1.091ZM76.961,107.388h1.943v6.188h-1.943v-6.188Z"></path>
    <path class="uuid-4f13da13-569e-48c5-a0f2-21951f935e45" d="M81.328,108.887h-1.283v-1.499h1.283v-.816c0-1.475.875-2.278,2.471-2.278.336,0,.78.048,1.031.12v1.595c-.348-.06-.527-.072-.743-.072-.552,0-.816.216-.816.671v.78h1.559v1.499h-1.559v4.689h-1.943v-4.689Z"></path>
    <path class="uuid-4f13da13-569e-48c5-a0f2-21951f935e45" d="M86.752,111.705v-2.818h-1.2v-1.499h1.2v-1.715l1.943-.396v2.111h1.655v1.499h-1.655v2.435c0,.552.216.744.815.744.228,0,.408-.024.792-.132v1.571c-.36.108-.936.192-1.331.192-1.463,0-2.219-.672-2.219-1.991Z"></path>
    <path class="uuid-4f13da13-569e-48c5-a0f2-21951f935e45" d="M93.737,110.494c0-1.811,1.391-3.202,3.202-3.202,1.02,0,1.955.408,2.579,1.14l-1.188,1.187c-.396-.468-.792-.671-1.319-.671-.768,0-1.343.66-1.343,1.547s.576,1.547,1.343,1.547c.528,0,.923-.204,1.319-.671l1.188,1.187c-.624.732-1.559,1.14-2.579,1.14-1.811,0-3.202-1.392-3.202-3.203Z"></path>
    <path class="uuid-4f13da13-569e-48c5-a0f2-21951f935e45" d="M100.48,105.037l1.943-.3v8.839h-1.943v-8.54Z"></path>
    <path class="uuid-4f13da13-569e-48c5-a0f2-21951f935e45" d="M103.888,111.561v-4.173h1.943v3.61c0,.696.408,1.151,1.032,1.151.419,0,.755-.168,1.031-.516v-4.246h1.943v6.188h-1.943v-1.007c-.479.72-1.151,1.104-1.955,1.104-1.199,0-2.051-.876-2.051-2.111Z"></path>
    <path class="uuid-4f13da13-569e-48c5-a0f2-21951f935e45" d="M110.849,112.941l.852-1.295c.887.468,1.391.624,1.991.624.552,0,.888-.192.888-.504,0-.24-.18-.372-.576-.444l-1.188-.216c-1.199-.228-1.823-.839-1.823-1.799,0-1.259.971-2.015,2.59-2.015.864,0,1.715.24,2.519.708l-.887,1.235c-.624-.36-1.2-.527-1.775-.527-.468,0-.744.156-.744.419,0,.252.156.36.636.444l1.164.216c1.223.228,1.859.852,1.859,1.787,0,1.211-1.139,2.123-2.663,2.123-1.127,0-2.123-.264-2.842-.756Z"></path>
    <path class="uuid-4f13da13-569e-48c5-a0f2-21951f935e45" d="M118.18,111.705v-2.818h-1.2v-1.499h1.2v-1.715l1.943-.396v2.111h1.655v1.499h-1.655v2.435c0,.552.216.744.815.744.228,0,.408-.024.792-.132v1.571c-.36.108-.936.192-1.331.192-1.463,0-2.219-.672-2.219-1.991Z"></path>
    <path class="uuid-4f13da13-569e-48c5-a0f2-21951f935e45" d="M122.524,110.494c0-1.811,1.344-3.202,3.119-3.202,1.787,0,3.046,1.355,3.046,3.274v.42h-4.258c.18.695.744,1.163,1.451,1.163.516,0,.947-.18,1.223-.516l1.284,1.067c-.804.708-1.56.996-2.603.996-1.823,0-3.263-1.403-3.263-3.203ZM126.89,109.883c-.168-.66-.636-1.08-1.259-1.08-.611,0-1.043.396-1.199,1.08h2.458Z"></path>
    <path class="uuid-4f13da13-569e-48c5-a0f2-21951f935e45" d="M129.904,107.388h1.943v1.403c.396-1.032.947-1.523,1.679-1.523.276.012.408.036.648.156v1.667c-.24-.12-.576-.192-.912-.192-.576,0-1.104.3-1.415.768v3.91h-1.943v-6.188Z"></path>
  </g>
  <g>
    <path class="uuid-4f13da13-569e-48c5-a0f2-21951f935e45" d="M127.989,232.58h.959v2.551l2.431-2.551h1.176l-2.671,2.695,2.767,2.902h-1.271l-2.431-2.615v2.615h-.959v-5.597Z"></path>
    <path class="uuid-4f13da13-569e-48c5-a0f2-21951f935e45" d="M132.909,236.81v-2.639h.911v2.375c0,.592.344.968.88.968.36,0,.664-.16.872-.48v-2.862h.903v4.006h-.903v-.647c-.304.472-.736.711-1.271.711-.815,0-1.391-.592-1.391-1.431Z"></path>
    <path class="uuid-4f13da13-569e-48c5-a0f2-21951f935e45" d="M137.596,232.468l.904-.152v2.391c.28-.352.728-.567,1.231-.567,1.016,0,1.807.903,1.807,2.039,0,1.144-.815,2.039-1.863,2.039-.472,0-.888-.192-1.191-.552v.512h-.888v-5.709ZM140.651,236.178c0-.728-.512-1.279-1.191-1.279-.4,0-.728.16-.959.448v1.671c.232.28.576.448.959.448.688,0,1.191-.552,1.191-1.288Z"></path>
    <path class="uuid-4f13da13-569e-48c5-a0f2-21951f935e45" d="M142.301,236.178c0-1.175.847-2.071,1.951-2.071,1.096,0,1.895.872,1.895,2.071v.216h-2.958c.088.648.576,1.12,1.199,1.12.376,0,.728-.144.952-.376l.592.536c-.488.408-.976.584-1.583.584-1.151,0-2.047-.904-2.047-2.079ZM145.291,235.834c-.096-.583-.512-.991-1.047-.991-.544,0-.943.392-1.047.991h2.095Z"></path>
    <path class="uuid-4f13da13-569e-48c5-a0f2-21951f935e45" d="M147.068,234.171h.904v.864c.224-.608.607-.936,1.103-.936.152.008.256.024.392.08v.792c-.144-.056-.328-.096-.496-.096-.439,0-.799.248-.999.664v2.639h-.904v-4.006Z"></path>
    <path class="uuid-4f13da13-569e-48c5-a0f2-21951f935e45" d="M150.212,234.171h.904v.656c.304-.472.744-.72,1.263-.72.823,0,1.399.584,1.399,1.431v2.639h-.912v-2.383c0-.583-.344-.959-.879-.959-.368,0-.664.168-.872.488v2.854h-.904v-4.006Z"></path>
    <path class="uuid-4f13da13-569e-48c5-a0f2-21951f935e45" d="M154.685,236.178c0-1.175.847-2.071,1.951-2.071,1.096,0,1.895.872,1.895,2.071v.216h-2.958c.088.648.576,1.12,1.199,1.12.376,0,.728-.144.952-.376l.592.536c-.488.408-.976.584-1.583.584-1.151,0-2.047-.904-2.047-2.079ZM157.675,235.834c-.096-.583-.512-.991-1.047-.991-.544,0-.943.392-1.047.991h2.095Z"></path>
    <path class="uuid-4f13da13-569e-48c5-a0f2-21951f935e45" d="M159.828,237.137v-2.247h-.799v-.72h.799v-1.104l.904-.192v1.295h1.111v.72h-1.111v2.047c0,.392.152.543.56.543.176,0,.304-.024.544-.096v.76c-.232.072-.536.112-.776.112-.808,0-1.231-.384-1.231-1.12Z"></path>
    <path class="uuid-4f13da13-569e-48c5-a0f2-21951f935e45" d="M162.396,236.178c0-1.175.847-2.071,1.951-2.071,1.096,0,1.895.872,1.895,2.071v.216h-2.958c.088.648.576,1.12,1.199,1.12.376,0,.728-.144.952-.376l.592.536c-.488.408-.976.584-1.583.584-1.151,0-2.047-.904-2.047-2.079ZM165.387,235.834c-.096-.583-.512-.991-1.047-.991-.544,0-.943.392-1.047.991h2.095Z"></path>
    <path class="uuid-4f13da13-569e-48c5-a0f2-21951f935e45" d="M166.844,237.713l.424-.6c.528.328.88.456,1.288.456.479,0,.807-.224.807-.543,0-.248-.167-.376-.56-.456l-.704-.12c-.784-.144-1.159-.504-1.159-1.104,0-.751.616-1.239,1.551-1.239.56,0,1.063.16,1.575.48l-.424.6c-.408-.264-.8-.384-1.208-.384-.416,0-.688.176-.688.463,0,.256.144.368.56.44l.711.136c.8.144,1.184.512,1.184,1.111,0,.735-.704,1.303-1.639,1.303-.688,0-1.295-.192-1.719-.544Z"></path>
    <path class="uuid-4f13da13-569e-48c5-a0f2-21951f935e45" d="M172.836,234.171h.904v.864c.224-.608.607-.936,1.103-.936.152.008.256.024.392.08v.792c-.144-.056-.328-.096-.496-.096-.439,0-.799.248-.999.664v2.639h-.904v-4.006Z"></path>
    <path class="uuid-4f13da13-569e-48c5-a0f2-21951f935e45" d="M175.612,236.178c0-1.175.847-2.071,1.951-2.071,1.096,0,1.895.872,1.895,2.071v.216h-2.958c.088.648.576,1.12,1.199,1.12.376,0,.728-.144.952-.376l.592.536c-.488.408-.976.584-1.583.584-1.151,0-2.047-.904-2.047-2.079ZM178.603,235.834c-.096-.583-.512-.991-1.047-.991-.544,0-.943.392-1.047.991h2.095Z"></path>
    <path class="uuid-4f13da13-569e-48c5-a0f2-21951f935e45" d="M180.06,237.713l.424-.6c.528.328.879.456,1.288.456.479,0,.808-.224.808-.543,0-.248-.168-.376-.56-.456l-.704-.12c-.783-.144-1.159-.504-1.159-1.104,0-.751.616-1.239,1.551-1.239.56,0,1.063.16,1.575.48l-.423.6c-.408-.264-.8-.384-1.208-.384-.416,0-.688.176-.688.463,0,.256.144.368.56.44l.711.136c.8.144,1.184.512,1.184,1.111,0,.735-.704,1.303-1.639,1.303-.688,0-1.295-.192-1.719-.544Z"></path>
    <path class="uuid-4f13da13-569e-48c5-a0f2-21951f935e45" d="M184.108,236.178c0-1.183.863-2.071,2.015-2.071,1.144,0,2.007.888,2.007,2.071s-.863,2.071-2.007,2.071c-1.151,0-2.015-.887-2.015-2.071ZM187.242,236.178c0-.744-.472-1.303-1.12-1.303-.656,0-1.127.56-1.127,1.303,0,.751.472,1.303,1.127,1.303.647,0,1.12-.552,1.12-1.303Z"></path>
    <path class="uuid-4f13da13-569e-48c5-a0f2-21951f935e45" d="M189.036,236.81v-2.639h.911v2.375c0,.592.344.968.88.968.36,0,.664-.16.872-.48v-2.862h.903v4.006h-.903v-.647c-.304.472-.736.711-1.271.711-.815,0-1.391-.592-1.391-1.431Z"></path>
    <path class="uuid-4f13da13-569e-48c5-a0f2-21951f935e45" d="M193.723,234.171h.904v.864c.224-.608.607-.936,1.103-.936.152.008.256.024.392.08v.792c-.144-.056-.328-.096-.496-.096-.44,0-.8.248-1,.664v2.639h-.904v-4.006Z"></path>
    <path class="uuid-4f13da13-569e-48c5-a0f2-21951f935e45" d="M196.5,236.178c0-1.159.879-2.071,2.022-2.071.624,0,1.2.248,1.6.68l-.56.583c-.28-.312-.624-.472-1.007-.472-.647,0-1.151.56-1.151,1.279,0,.728.504,1.279,1.151,1.279.384,0,.728-.16,1.007-.463l.56.575c-.4.432-.976.68-1.6.68-1.143,0-2.022-.903-2.022-2.071Z"></path>
    <path class="uuid-4f13da13-569e-48c5-a0f2-21951f935e45" d="M200.563,236.178c0-1.175.847-2.071,1.951-2.071,1.096,0,1.895.872,1.895,2.071v.216h-2.958c.088.648.576,1.12,1.199,1.12.376,0,.728-.144.952-.376l.592.536c-.488.408-.976.584-1.583.584-1.151,0-2.047-.904-2.047-2.079ZM203.554,235.834c-.096-.583-.512-.991-1.047-.991-.544,0-.943.392-1.047.991h2.095Z"></path>
    <path class="uuid-4f13da13-569e-48c5-a0f2-21951f935e45" d="M205.011,237.713l.424-.6c.528.328.88.456,1.288.456.479,0,.807-.224.807-.543,0-.248-.167-.376-.56-.456l-.704-.12c-.784-.144-1.159-.504-1.159-1.104,0-.751.616-1.239,1.551-1.239.56,0,1.063.16,1.575.48l-.424.6c-.408-.264-.8-.384-1.208-.384-.416,0-.688.176-.688.463,0,.256.144.368.56.44l.711.136c.8.144,1.184.512,1.184,1.111,0,.735-.704,1.303-1.639,1.303-.688,0-1.295-.192-1.719-.544Z"></path>
  </g>
  <g>
    <path class="uuid-4f13da13-569e-48c5-a0f2-21951f935e45" d="M453.543,255.085h2.486c1.111,0,1.871.688,1.871,1.695,0,.728-.432,1.295-1.111,1.535l1.184,2.367h-1.063l-1.079-2.239h-1.328v2.239h-.959v-5.597ZM455.941,257.676c.6,0,.991-.352.991-.888,0-.543-.392-.896-.991-.896h-1.439v1.783h1.439Z"></path>
    <path class="uuid-4f13da13-569e-48c5-a0f2-21951f935e45" d="M458.423,258.683c0-1.175.848-2.071,1.951-2.071,1.095,0,1.895.872,1.895,2.071v.216h-2.958c.088.648.575,1.12,1.199,1.12.376,0,.728-.144.951-.376l.592.536c-.487.408-.976.584-1.583.584-1.151,0-2.047-.904-2.047-2.079ZM461.413,258.34c-.096-.583-.512-.991-1.047-.991-.544,0-.944.392-1.048.991h2.095Z"></path>
    <path class="uuid-4f13da13-569e-48c5-a0f2-21951f935e45" d="M462.871,260.218l.424-.6c.527.328.879.456,1.287.456.479,0,.808-.224.808-.543,0-.248-.168-.376-.56-.456l-.704-.12c-.783-.144-1.159-.504-1.159-1.104,0-.751.616-1.239,1.552-1.239.56,0,1.062.16,1.574.48l-.423.6c-.408-.264-.8-.384-1.208-.384-.416,0-.688.176-.688.463,0,.256.144.368.56.44l.712.136c.8.144,1.184.512,1.184,1.111,0,.735-.704,1.303-1.64,1.303-.688,0-1.295-.192-1.719-.544Z"></path>
    <path class="uuid-4f13da13-569e-48c5-a0f2-21951f935e45" d="M467.479,259.643v-2.247h-.8v-.72h.8v-1.104l.903-.192v1.295h1.111v.72h-1.111v2.047c0,.392.152.543.56.543.176,0,.304-.024.544-.096v.76c-.231.072-.536.112-.775.112-.808,0-1.231-.384-1.231-1.12Z"></path>
    <path class="uuid-4f13da13-569e-48c5-a0f2-21951f935e45" d="M470.047,258.683c0-1.183.863-2.071,2.015-2.071,1.144,0,2.007.888,2.007,2.071s-.863,2.071-2.007,2.071c-1.151,0-2.015-.887-2.015-2.071ZM473.182,258.683c0-.744-.473-1.303-1.12-1.303-.655,0-1.127.56-1.127,1.303,0,.751.472,1.303,1.127,1.303.647,0,1.12-.552,1.12-1.303Z"></path>
    <path class="uuid-4f13da13-569e-48c5-a0f2-21951f935e45" d="M475.007,256.676h.903v.864c.224-.608.607-.936,1.104-.936.151.008.256.024.392.08v.792c-.144-.056-.328-.096-.496-.096-.439,0-.799.248-.999.664v2.639h-.903v-4.006Z"></path>
    <path class="uuid-4f13da13-569e-48c5-a0f2-21951f935e45" d="M477.783,258.683c0-1.175.847-2.071,1.95-2.071,1.096,0,1.896.872,1.896,2.071v.216h-2.959c.088.648.576,1.12,1.199,1.12.376,0,.729-.144.952-.376l.592.536c-.488.408-.976.584-1.583.584-1.151,0-2.047-.904-2.047-2.079ZM480.773,258.34c-.097-.583-.512-.991-1.048-.991-.544,0-.943.392-1.047.991h2.095Z"></path>
    <path class="uuid-4f13da13-569e-48c5-a0f2-21951f935e45" d="M451.743,266.277h.903v.864c.224-.608.607-.936,1.104-.936.151.008.256.024.392.08v.792c-.144-.056-.328-.096-.496-.096-.439,0-.799.248-.999.664v2.639h-.903v-4.006Z"></path>
    <path class="uuid-4f13da13-569e-48c5-a0f2-21951f935e45" d="M454.52,268.283c0-1.175.847-2.071,1.95-2.071,1.096,0,1.896.872,1.896,2.071v.216h-2.959c.088.648.576,1.12,1.199,1.12.376,0,.729-.144.952-.376l.592.536c-.488.408-.976.584-1.583.584-1.151,0-2.047-.904-2.047-2.079ZM457.51,267.94c-.097-.583-.512-.991-1.048-.991-.544,0-.943.392-1.047.991h2.095Z"></path>
    <path class="uuid-4f13da13-569e-48c5-a0f2-21951f935e45" d="M458.967,269.819l.424-.6c.528.328.88.456,1.288.456.479,0,.807-.224.807-.544,0-.248-.167-.376-.56-.456l-.703-.12c-.784-.144-1.159-.504-1.159-1.104,0-.751.615-1.239,1.551-1.239.56,0,1.063.16,1.575.48l-.424.6c-.408-.264-.8-.384-1.207-.384-.416,0-.688.176-.688.464,0,.256.144.368.56.439l.711.136c.8.144,1.184.512,1.184,1.112,0,.735-.703,1.303-1.639,1.303-.688,0-1.296-.192-1.72-.544Z"></path>
    <path class="uuid-4f13da13-569e-48c5-a0f2-21951f935e45" d="M463.015,268.283c0-1.183.863-2.071,2.015-2.071,1.144,0,2.007.888,2.007,2.071s-.863,2.071-2.007,2.071c-1.151,0-2.015-.887-2.015-2.071ZM466.149,268.283c0-.744-.473-1.303-1.12-1.303-.655,0-1.127.56-1.127,1.303,0,.752.472,1.303,1.127,1.303.647,0,1.12-.551,1.12-1.303Z"></path>
    <path class="uuid-4f13da13-569e-48c5-a0f2-21951f935e45" d="M467.942,268.915v-2.639h.911v2.375c0,.591.345.967.88.967.36,0,.664-.16.872-.48v-2.862h.903v4.006h-.903v-.647c-.305.472-.736.711-1.271.711-.815,0-1.392-.592-1.392-1.431Z"></path>
    <path class="uuid-4f13da13-569e-48c5-a0f2-21951f935e45" d="M472.63,266.277h.904v.864c.224-.608.607-.936,1.103-.936.152.008.256.024.393.08v.792c-.145-.056-.328-.096-.496-.096-.439,0-.8.248-.999.664v2.639h-.904v-4.006Z"></path>
    <path class="uuid-4f13da13-569e-48c5-a0f2-21951f935e45" d="M475.406,268.283c0-1.159.88-2.071,2.022-2.071.624,0,1.2.248,1.6.68l-.56.583c-.28-.312-.624-.472-1.008-.472-.647,0-1.151.56-1.151,1.279,0,.728.504,1.279,1.151,1.279.384,0,.728-.16,1.008-.464l.56.576c-.399.432-.976.679-1.6.679-1.143,0-2.022-.903-2.022-2.071Z"></path>
    <path class="uuid-4f13da13-569e-48c5-a0f2-21951f935e45" d="M479.471,268.283c0-1.175.848-2.071,1.951-2.071,1.095,0,1.895.872,1.895,2.071v.216h-2.958c.088.648.575,1.12,1.199,1.12.376,0,.728-.144.951-.376l.592.536c-.487.408-.976.584-1.583.584-1.151,0-2.047-.904-2.047-2.079ZM482.461,267.94c-.096-.583-.512-.991-1.047-.991-.544,0-.944.392-1.048.991h2.095Z"></path>
  </g>
  <g>
    <path class="uuid-4f13da13-569e-48c5-a0f2-21951f935e45" d="M340.825,269.216h2.047c1.607,0,2.807,1.224,2.807,2.799s-1.199,2.798-2.807,2.798h-2.047v-5.597ZM342.896,273.981c1.007,0,1.799-.855,1.799-1.967s-.792-1.967-1.799-1.967h-1.112v3.934h1.112Z"></path>
    <path class="uuid-4f13da13-569e-48c5-a0f2-21951f935e45" d="M346.361,273.661c0-.72.592-1.175,1.535-1.175.376,0,.728.08,1.079.256v-.448c0-.528-.304-.8-.919-.8-.336,0-.704.096-1.168.312l-.319-.656c.6-.272,1.127-.408,1.663-.408,1.047,0,1.639.528,1.639,1.455v2.615h-.896v-.416c-.344.335-.728.487-1.191.487-.839,0-1.423-.503-1.423-1.223ZM348.032,274.245c.36,0,.672-.104.943-.335v-.648c-.287-.136-.575-.192-.919-.192-.52,0-.848.216-.848.576,0,.368.319.6.823.6Z"></path>
    <path class="uuid-4f13da13-569e-48c5-a0f2-21951f935e45" d="M351.345,273.773v-2.247h-.8v-.72h.8v-1.104l.903-.192v1.295h1.111v.72h-1.111v2.047c0,.392.152.543.56.543.176,0,.304-.024.544-.096v.76c-.231.072-.536.112-.775.112-.808,0-1.231-.384-1.231-1.12Z"></path>
    <path class="uuid-4f13da13-569e-48c5-a0f2-21951f935e45" d="M353.953,273.661c0-.72.592-1.175,1.535-1.175.376,0,.728.08,1.079.256v-.448c0-.528-.304-.8-.919-.8-.336,0-.704.096-1.168.312l-.319-.656c.6-.272,1.127-.408,1.663-.408,1.047,0,1.639.528,1.639,1.455v2.615h-.896v-.416c-.344.335-.728.487-1.191.487-.839,0-1.423-.503-1.423-1.223ZM355.624,274.245c.36,0,.672-.104.943-.335v-.648c-.287-.136-.575-.192-.919-.192-.52,0-.848.216-.848.576,0,.368.319.6.823.6Z"></path>
    <path class="uuid-4f13da13-569e-48c5-a0f2-21951f935e45" d="M360.473,269.216h1.247l1.64,3.398,1.631-3.398h1.247v5.597h-.903v-4.381l-1.983,3.981-1.99-4.006v4.406h-.888v-5.597Z"></path>
    <path class="uuid-4f13da13-569e-48c5-a0f2-21951f935e45" d="M367.289,272.814c0-1.183.863-2.071,2.015-2.071,1.144,0,2.007.888,2.007,2.071s-.863,2.071-2.007,2.071c-1.151,0-2.015-.887-2.015-2.071ZM370.424,272.814c0-.744-.473-1.303-1.12-1.303-.655,0-1.127.56-1.127,1.303,0,.751.472,1.303,1.127,1.303.647,0,1.12-.552,1.12-1.303Z"></path>
    <path class="uuid-4f13da13-569e-48c5-a0f2-21951f935e45" d="M371.657,270.807h.983l1.119,2.911,1.111-2.911h.943l-1.646,4.006h-.88l-1.631-4.006Z"></path>
    <path class="uuid-4f13da13-569e-48c5-a0f2-21951f935e45" d="M376.161,272.814c0-1.175.847-2.071,1.95-2.071,1.096,0,1.896.872,1.896,2.071v.216h-2.959c.088.648.576,1.12,1.199,1.12.376,0,.729-.144.952-.376l.592.536c-.488.408-.976.584-1.583.584-1.151,0-2.047-.904-2.047-2.079ZM379.151,272.47c-.097-.583-.512-.991-1.048-.991-.544,0-.943.392-1.047.991h2.095Z"></path>
    <path class="uuid-4f13da13-569e-48c5-a0f2-21951f935e45" d="M380.929,270.807h.903v.864c.224-.608.607-.936,1.104-.936.151.008.256.024.392.08v.792c-.144-.056-.328-.096-.496-.096-.439,0-.799.248-.999.664v2.639h-.903v-4.006Z"></path>
  </g>
  <g>
    <path class="uuid-4f13da13-569e-48c5-a0f2-21951f935e45" d="M381.796,339.247h2.502c1.136,0,1.871.712,1.871,1.743,0,1.008-.735,1.719-1.871,1.719h-1.543v2.135h-.959v-5.597ZM384.146,341.925c.68,0,1.055-.376,1.055-.943,0-.552-.375-.928-1.047-.928h-1.399v1.871h1.392Z"></path>
    <path class="uuid-4f13da13-569e-48c5-a0f2-21951f935e45" d="M386.483,339.247h1.032l1.719,4.622,1.735-4.622h.991l-2.191,5.597h-1.111l-2.175-5.597Z"></path>
    <path class="uuid-4f13da13-569e-48c5-a0f2-21951f935e45" d="M392.163,342.046c0-1.623,1.264-2.887,2.895-2.887.855,0,1.671.368,2.183,1l-.64.624c-.399-.496-.951-.759-1.543-.759-1.087,0-1.911.872-1.911,2.023s.824,2.023,1.911,2.023c.592,0,1.144-.264,1.543-.76l.64.624c-.512.632-1.327,1-2.183,1-1.631,0-2.895-1.263-2.895-2.886Z"></path>
  </g>
  <g>
    <path class="uuid-4f13da13-569e-48c5-a0f2-21951f935e45" d="M231.476,426.468h2.502c1.135,0,1.871.712,1.871,1.743,0,1.008-.736,1.72-1.871,1.72h-1.543v2.135h-.959v-5.598ZM233.826,429.147c.68,0,1.055-.376,1.055-.943,0-.552-.375-.928-1.047-.928h-1.399v1.871h1.392Z"></path>
    <path class="uuid-4f13da13-569e-48c5-a0f2-21951f935e45" d="M236.251,430.067c0-1.176.847-2.071,1.951-2.071,1.096,0,1.895.872,1.895,2.071v.216h-2.958c.088.647.576,1.119,1.199,1.119.376,0,.728-.144.952-.376l.592.536c-.488.407-.976.584-1.583.584-1.151,0-2.047-.904-2.047-2.079ZM239.242,429.723c-.096-.584-.512-.991-1.047-.991-.544,0-.943.392-1.047.991h2.095Z"></path>
    <path class="uuid-4f13da13-569e-48c5-a0f2-21951f935e45" d="M241.019,428.06h.904v.863c.224-.607.607-.936,1.103-.936.152.008.256.024.392.08v.792c-.144-.057-.328-.097-.496-.097-.439,0-.799.248-.999.664v2.639h-.904v-4.006Z"></path>
    <path class="uuid-4f13da13-569e-48c5-a0f2-21951f935e45" d="M243.819,431.602l.424-.6c.528.327.88.455,1.288.455.479,0,.807-.224.807-.543,0-.248-.167-.376-.56-.456l-.704-.12c-.784-.144-1.159-.504-1.159-1.104,0-.751.616-1.239,1.551-1.239.56,0,1.063.16,1.575.48l-.424.6c-.408-.265-.8-.384-1.208-.384-.416,0-.688.176-.688.463,0,.256.144.368.56.44l.711.136c.8.144,1.184.512,1.184,1.111,0,.735-.704,1.304-1.639,1.304-.688,0-1.295-.192-1.719-.544Z"></path>
    <path class="uuid-4f13da13-569e-48c5-a0f2-21951f935e45" d="M247.899,426.693c0-.304.248-.56.56-.56.304,0,.56.256.56.56s-.256.552-.56.552c-.312,0-.56-.248-.56-.552ZM248.003,428.06h.903v4.006h-.903v-4.006Z"></path>
    <path class="uuid-4f13da13-569e-48c5-a0f2-21951f935e45" d="M249.667,431.602l.424-.6c.528.327.88.455,1.288.455.479,0,.807-.224.807-.543,0-.248-.167-.376-.56-.456l-.704-.12c-.784-.144-1.159-.504-1.159-1.104,0-.751.616-1.239,1.551-1.239.56,0,1.063.16,1.575.48l-.424.6c-.408-.265-.8-.384-1.208-.384-.416,0-.688.176-.688.463,0,.256.144.368.56.44l.711.136c.8.144,1.184.512,1.184,1.111,0,.735-.704,1.304-1.639,1.304-.688,0-1.295-.192-1.719-.544Z"></path>
    <path class="uuid-4f13da13-569e-48c5-a0f2-21951f935e45" d="M254.274,431.026v-2.246h-.799v-.72h.799v-1.104l.904-.192v1.296h1.111v.72h-1.111v2.047c0,.392.152.543.56.543.176,0,.304-.023.544-.096v.76c-.232.072-.536.112-.776.112-.808,0-1.231-.384-1.231-1.12Z"></path>
    <path class="uuid-4f13da13-569e-48c5-a0f2-21951f935e45" d="M256.843,430.067c0-1.176.847-2.071,1.951-2.071,1.096,0,1.895.872,1.895,2.071v.216h-2.958c.088.647.576,1.119,1.199,1.119.376,0,.728-.144.952-.376l.592.536c-.488.407-.976.584-1.583.584-1.151,0-2.047-.904-2.047-2.079ZM259.833,429.723c-.096-.584-.512-.991-1.047-.991-.544,0-.943.392-1.047.991h2.095Z"></path>
    <path class="uuid-4f13da13-569e-48c5-a0f2-21951f935e45" d="M261.611,428.06h.904v.655c.304-.472.743-.72,1.263-.72.824,0,1.399.584,1.399,1.432v2.639h-.911v-2.383c0-.584-.344-.96-.88-.96-.368,0-.664.168-.871.488v2.854h-.904v-4.006Z"></path>
    <path class="uuid-4f13da13-569e-48c5-a0f2-21951f935e45" d="M266.643,431.026v-2.246h-.8v-.72h.8v-1.104l.903-.192v1.296h1.111v.72h-1.111v2.047c0,.392.152.543.56.543.176,0,.304-.023.544-.096v.76c-.232.072-.536.112-.776.112-.808,0-1.231-.384-1.231-1.12Z"></path>
    <path class="uuid-4f13da13-569e-48c5-a0f2-21951f935e45" d="M270.787,428.06h.983l1.12,2.91,1.111-2.91h.943l-1.647,4.006h-.879l-1.631-4.006Z"></path>
    <path class="uuid-4f13da13-569e-48c5-a0f2-21951f935e45" d="M275.291,430.067c0-1.184.863-2.071,2.015-2.071,1.144,0,2.007.888,2.007,2.071s-.863,2.07-2.007,2.07c-1.151,0-2.015-.887-2.015-2.07ZM278.425,430.067c0-.744-.472-1.304-1.12-1.304-.656,0-1.127.56-1.127,1.304,0,.751.472,1.303,1.127,1.303.647,0,1.12-.552,1.12-1.303Z"></path>
    <path class="uuid-4f13da13-569e-48c5-a0f2-21951f935e45" d="M280.25,426.332l.904-.159v5.893h-.904v-5.733Z"></path>
    <path class="uuid-4f13da13-569e-48c5-a0f2-21951f935e45" d="M282.235,430.698v-2.639h.912v2.374c0,.592.344.968.879.968.36,0,.664-.16.872-.479v-2.862h.903v4.006h-.903v-.647c-.304.472-.736.711-1.271.711-.815,0-1.391-.592-1.391-1.431Z"></path>
    <path class="uuid-4f13da13-569e-48c5-a0f2-21951f935e45" d="M286.922,428.06h.904v.632c.296-.456.695-.696,1.183-.696.552,0,.976.296,1.184.768.312-.504.759-.768,1.327-.768.775,0,1.311.6,1.311,1.447v2.623h-.903v-2.423c0-.56-.312-.92-.808-.92-.328,0-.6.152-.799.48.008.079.016.159.016.239v2.623h-.911v-2.423c0-.56-.312-.92-.808-.92-.328,0-.592.152-.792.464v2.879h-.904v-4.006Z"></path>
    <path class="uuid-4f13da13-569e-48c5-a0f2-21951f935e45" d="M293.747,430.067c0-1.176.847-2.071,1.951-2.071,1.096,0,1.895.872,1.895,2.071v.216h-2.958c.088.647.576,1.119,1.199,1.119.376,0,.728-.144.952-.376l.592.536c-.488.407-.976.584-1.583.584-1.151,0-2.047-.904-2.047-2.079ZM296.737,429.723c-.096-.584-.512-.991-1.047-.991-.544,0-.943.392-1.047.991h2.095Z"></path>
  </g>
  <g>
    <path class="uuid-4f13da13-569e-48c5-a0f2-21951f935e45" d="M291.744,148.314c0-1.52,1.159-2.669,2.688-2.669s2.688,1.149,2.688,2.669-1.159,2.668-2.688,2.668-2.688-1.149-2.688-2.668ZM295.542,148.314c0-.77-.46-1.319-1.109-1.319s-1.109.549-1.109,1.319.459,1.319,1.109,1.319,1.109-.549,1.109-1.319Z"></path>
    <path class="uuid-4f13da13-569e-48c5-a0f2-21951f935e45" d="M298.154,145.725h1.599v.72c.34-.46.909-.75,1.529-.75,1.27,0,2.278,1.169,2.278,2.619s-1.06,2.598-2.398,2.598c-.56,0-1.05-.209-1.39-.6v2.659h-1.619v-7.246ZM301.972,148.304c0-.729-.529-1.269-1.229-1.269-.399,0-.709.14-.97.419v1.719c.25.26.59.41.97.41.71,0,1.229-.54,1.229-1.279Z"></path>
    <path class="uuid-4f13da13-569e-48c5-a0f2-21951f935e45" d="M304.364,148.314c0-1.509,1.119-2.669,2.599-2.669,1.488,0,2.538,1.129,2.538,2.729v.35h-3.548c.149.58.619.969,1.209.969.43,0,.79-.15,1.02-.43l1.069.89c-.669.589-1.299.83-2.169.83-1.519,0-2.718-1.169-2.718-2.668ZM308.002,147.804c-.14-.55-.529-.9-1.05-.9-.51,0-.869.33-.999.9h2.049Z"></path>
    <path class="uuid-4f13da13-569e-48c5-a0f2-21951f935e45" d="M310.514,145.725h1.619v.839c.399-.6.959-.919,1.629-.919,1,0,1.709.73,1.709,1.759v3.478h-1.619v-3.008c0-.58-.34-.959-.859-.959-.35,0-.63.14-.859.43v3.538h-1.619v-5.157Z"></path>
    <path class="uuid-4f13da13-569e-48c5-a0f2-21951f935e45" d="M316.273,150.353l.71-1.079c.739.39,1.159.52,1.659.52.459,0,.739-.16.739-.42,0-.2-.149-.31-.479-.37l-.989-.18c-1-.189-1.52-.699-1.52-1.499,0-1.049.81-1.679,2.159-1.679.719,0,1.429.2,2.099.59l-.74,1.029c-.52-.3-.999-.439-1.479-.439-.39,0-.62.13-.62.35,0,.21.13.3.53.37l.969.18c1.02.19,1.55.709,1.55,1.489,0,1.009-.95,1.769-2.219,1.769-.939,0-1.77-.22-2.369-.63Z"></path>
    <path class="uuid-4f13da13-569e-48c5-a0f2-21951f935e45" d="M321.804,143.766l1.618-.25v3.048c.4-.6.96-.919,1.63-.919.999,0,1.709.73,1.709,1.759v3.478h-1.619v-3.008c0-.58-.34-.959-.859-.959-.351,0-.63.14-.86.43v3.538h-1.618v-7.116Z"></path>
    <path class="uuid-4f13da13-569e-48c5-a0f2-21951f935e45" d="M327.884,144.026c0-.5.409-.909.909-.909s.909.41.909.909-.409.91-.909.91-.909-.41-.909-.91ZM327.983,145.725h1.619v5.157h-1.619v-5.157Z"></path>
    <path class="uuid-4f13da13-569e-48c5-a0f2-21951f935e45" d="M331.623,146.975h-1.069v-1.25h1.069v-.68c0-1.229.729-1.899,2.059-1.899.28,0,.649.04.859.1v1.329c-.29-.05-.439-.06-.619-.06-.46,0-.68.18-.68.56v.649h1.299v1.25h-1.299v3.908h-1.619v-3.908Z"></path>
    <path class="uuid-4f13da13-569e-48c5-a0f2-21951f935e45" d="M336.143,149.323v-2.349h-.999v-1.25h.999v-1.429l1.619-.33v1.759h1.38v1.25h-1.38v2.029c0,.459.181.62.68.62.19,0,.34-.02.66-.11v1.309c-.3.09-.779.16-1.109.16-1.22,0-1.85-.56-1.85-1.659Z"></path>
    <path class="uuid-4f13da13-569e-48c5-a0f2-21951f935e45" d="M339.923,147.344h3.678v1.349h-3.678v-1.349Z"></path>
    <path class="uuid-4f13da13-569e-48c5-a0f2-21951f935e45" d="M344.503,149.403c0-.95.74-1.5,2.009-1.5.37,0,.74.07,1.2.24v-.42c0-.5-.33-.75-1.02-.75-.39,0-.85.11-1.449.36l-.56-1.129c.85-.38,1.608-.56,2.368-.56,1.43,0,2.259.71,2.259,1.939v3.298h-1.599v-.45c-.45.38-.88.53-1.43.53-1.05,0-1.779-.64-1.779-1.559ZM346.782,149.893c.34,0,.649-.09.93-.26v-.66c-.3-.07-.59-.11-.89-.11-.53,0-.83.18-.83.51s.29.52.79.52Z"></path>
    <path class="uuid-4f13da13-569e-48c5-a0f2-21951f935e45" d="M350.303,148.294c0-1.449,1.06-2.599,2.398-2.599.54,0,1.03.22,1.38.62v-2.549l1.619-.25v7.366h-1.6v-.669c-.34.43-.909.699-1.519.699-1.27,0-2.279-1.169-2.279-2.618ZM354.081,149.163v-1.739c-.25-.26-.59-.4-.96-.4-.709,0-1.229.54-1.229,1.279,0,.729.53,1.27,1.229,1.27.39,0,.71-.14.96-.41Z"></path>
    <path class="uuid-4f13da13-569e-48c5-a0f2-21951f935e45" d="M356.963,145.725h1.6v.72c.339-.46.909-.75,1.528-.75,1.27,0,2.279,1.169,2.279,2.619s-1.06,2.598-2.398,2.598c-.561,0-1.05-.209-1.39-.6v2.659h-1.619v-7.246ZM360.781,148.304c0-.729-.53-1.269-1.229-1.269-.4,0-.71.14-.97.419v1.719c.25.26.59.41.97.41.709,0,1.229-.54,1.229-1.279Z"></path>
    <path class="uuid-4f13da13-569e-48c5-a0f2-21951f935e45" d="M365.553,145.725h1.619v.839c.399-.6.959-.919,1.629-.919,1,0,1.709.73,1.709,1.759v3.478h-1.619v-3.008c0-.58-.34-.959-.859-.959-.35,0-.63.14-.859.43v3.538h-1.619v-5.157Z"></path>
    <path class="uuid-4f13da13-569e-48c5-a0f2-21951f935e45" d="M371.493,149.403c0-.95.739-1.5,2.009-1.5.37,0,.739.07,1.199.24v-.42c0-.5-.33-.75-1.02-.75-.39,0-.85.11-1.449.36l-.56-1.129c.85-.38,1.609-.56,2.369-.56,1.429,0,2.259.71,2.259,1.939v3.298h-1.6v-.45c-.449.38-.88.53-1.429.53-1.05,0-1.779-.64-1.779-1.559ZM373.771,149.893c.34,0,.65-.09.93-.26v-.66c-.3-.07-.59-.11-.89-.11-.529,0-.829.18-.829.51s.29.52.789.52Z"></path>
    <path class="uuid-4f13da13-569e-48c5-a0f2-21951f935e45" d="M377.522,145.725h1.619v.82c.38-.59.899-.9,1.529-.9.67,0,1.199.37,1.449.959.399-.62.979-.959,1.688-.959.95,0,1.619.75,1.619,1.809v3.428h-1.619v-3.108c0-.52-.31-.859-.77-.859-.3,0-.539.12-.749.39v3.578h-1.619v-3.108c0-.52-.31-.859-.77-.859-.3,0-.55.13-.76.4v3.568h-1.619v-5.157Z"></path>
    <path class="uuid-4f13da13-569e-48c5-a0f2-21951f935e45" d="M386.423,148.314c0-1.509,1.119-2.669,2.599-2.669,1.488,0,2.538,1.129,2.538,2.729v.35h-3.548c.149.58.619.969,1.209.969.43,0,.79-.15,1.02-.43l1.069.89c-.669.589-1.299.83-2.169.83-1.519,0-2.718-1.169-2.718-2.668ZM390.061,147.804c-.14-.55-.529-.9-1.05-.9-.51,0-.869.33-.999.9h2.049Z"></path>
    <path class="uuid-4f13da13-569e-48c5-a0f2-21951f935e45" d="M392.203,150.353l.709-1.079c.74.39,1.159.52,1.659.52.46,0,.74-.16.74-.42,0-.2-.15-.31-.48-.37l-.989-.18c-.999-.189-1.52-.699-1.52-1.499,0-1.049.81-1.679,2.159-1.679.72,0,1.43.2,2.099.59l-.739,1.029c-.52-.3-.999-.439-1.479-.439-.39,0-.619.13-.619.35,0,.21.13.3.529.37l.97.18c1.02.19,1.549.709,1.549,1.489,0,1.009-.949,1.769-2.219,1.769-.939,0-1.769-.22-2.368-.63Z"></path>
    <path class="uuid-4f13da13-569e-48c5-a0f2-21951f935e45" d="M397.732,145.725h1.6v.72c.339-.46.909-.75,1.528-.75,1.27,0,2.279,1.169,2.279,2.619s-1.06,2.598-2.398,2.598c-.561,0-1.05-.209-1.39-.6v2.659h-1.619v-7.246ZM401.551,148.304c0-.729-.53-1.269-1.229-1.269-.4,0-.71.14-.97.419v1.719c.25.26.59.41.97.41.709,0,1.229-.54,1.229-1.279Z"></path>
    <path class="uuid-4f13da13-569e-48c5-a0f2-21951f935e45" d="M403.982,149.403c0-.95.739-1.5,2.009-1.5.37,0,.739.07,1.199.24v-.42c0-.5-.33-.75-1.02-.75-.39,0-.85.11-1.449.36l-.56-1.129c.85-.38,1.609-.56,2.369-.56,1.429,0,2.259.71,2.259,1.939v3.298h-1.6v-.45c-.449.38-.88.53-1.429.53-1.05,0-1.779-.64-1.779-1.559ZM406.261,149.893c.34,0,.65-.09.93-.26v-.66c-.3-.07-.59-.11-.89-.11-.529,0-.829.18-.829.51s.29.52.789.52Z"></path>
    <path class="uuid-4f13da13-569e-48c5-a0f2-21951f935e45" d="M409.782,148.314c0-1.509,1.159-2.669,2.668-2.669.85,0,1.63.34,2.149.95l-.989.989c-.33-.39-.66-.56-1.1-.56-.64,0-1.119.55-1.119,1.29s.479,1.289,1.119,1.289c.439,0,.77-.17,1.1-.56l.989.989c-.52.61-1.3.95-2.149.95-1.509,0-2.668-1.16-2.668-2.668Z"></path>
    <path class="uuid-4f13da13-569e-48c5-a0f2-21951f935e45" d="M415.021,148.314c0-1.509,1.12-2.669,2.599-2.669,1.489,0,2.539,1.129,2.539,2.729v.35h-3.548c.149.58.619.969,1.209.969.43,0,.79-.15,1.02-.43l1.069.89c-.67.589-1.299.83-2.169.83-1.519,0-2.719-1.169-2.719-2.668ZM418.66,147.804c-.141-.55-.53-.9-1.05-.9-.51,0-.869.33-.999.9h2.049Z"></path>
  </g>
  <g>
    <path class="uuid-4f13da13-569e-48c5-a0f2-21951f935e45" d="M299.495,173.566c0-1.615,1.271-2.887,2.895-2.887s2.895,1.271,2.895,2.887-1.271,2.886-2.895,2.886-2.895-1.271-2.895-2.886ZM303.869,173.566c0-.952-.64-1.663-1.479-1.663s-1.479.711-1.479,1.663.64,1.663,1.479,1.663,1.479-.712,1.479-1.663Z"></path>
    <path class="uuid-4f13da13-569e-48c5-a0f2-21951f935e45" d="M306.151,172.238h1.279v.575c.271-.368.728-.6,1.223-.6,1.016,0,1.823.936,1.823,2.095s-.848,2.079-1.919,2.079c-.447,0-.84-.168-1.111-.479v2.126h-1.295v-5.796ZM309.205,174.301c0-.583-.424-1.015-.983-1.015-.319,0-.567.112-.775.335v1.375c.2.208.472.328.775.328.567,0,.983-.432.983-1.023Z"></path>
    <path class="uuid-4f13da13-569e-48c5-a0f2-21951f935e45" d="M311.119,174.309c0-1.208.896-2.135,2.079-2.135,1.191,0,2.031.904,2.031,2.183v.28h-2.839c.12.464.496.775.968.775.344,0,.632-.12.815-.344l.855.712c-.536.472-1.039.664-1.735.664-1.215,0-2.175-.936-2.175-2.135ZM314.03,173.902c-.112-.44-.424-.72-.84-.72-.408,0-.695.264-.8.72h1.64Z"></path>
    <path class="uuid-4f13da13-569e-48c5-a0f2-21951f935e45" d="M316.039,172.238h1.295v.671c.32-.48.768-.736,1.304-.736.8,0,1.367.584,1.367,1.407v2.783h-1.295v-2.407c0-.464-.272-.768-.688-.768-.28,0-.504.112-.688.344v2.831h-1.295v-4.125Z"></path>
    <path class="uuid-4f13da13-569e-48c5-a0f2-21951f935e45" d="M320.631,175.604l.704-1.015c.775.543,1.263.744,1.814.744.592,0,.952-.24.952-.592,0-.328-.192-.488-.736-.583l-1.19-.208c-.888-.152-1.376-.712-1.376-1.503,0-1.087.832-1.767,2.223-1.767.864,0,1.72.28,2.295.736l-.695,1c-.544-.416-1.079-.616-1.671-.616-.544,0-.855.224-.855.528,0,.288.184.432.631.512l1.12.192c1.047.176,1.599.728,1.599,1.583,0,1.095-.928,1.839-2.391,1.839-.888,0-1.679-.296-2.423-.848Z"></path>
    <path class="uuid-4f13da13-569e-48c5-a0f2-21951f935e45" d="M326.224,170.671l1.295-.2v2.438c.319-.48.768-.736,1.304-.736.799,0,1.367.584,1.367,1.407v2.783h-1.296v-2.407c0-.464-.271-.768-.688-.768-.279,0-.504.112-.688.344v2.831h-1.295v-5.693Z"></path>
    <path class="uuid-4f13da13-569e-48c5-a0f2-21951f935e45" d="M331.087,170.879c0-.4.328-.728.728-.728s.728.328.728.728-.327.728-.728.728-.728-.328-.728-.728ZM331.167,172.238h1.295v4.125h-1.295v-4.125Z"></path>
    <path class="uuid-4f13da13-569e-48c5-a0f2-21951f935e45" d="M334.079,173.237h-.855v-.999h.855v-.544c0-.983.584-1.519,1.646-1.519.225,0,.521.032.688.08v1.063c-.232-.04-.353-.048-.496-.048-.368,0-.544.144-.544.448v.52h1.04v.999h-1.04v3.126h-1.295v-3.126Z"></path>
    <path class="uuid-4f13da13-569e-48c5-a0f2-21951f935e45" d="M337.694,175.116v-1.879h-.799v-.999h.799v-1.144l1.296-.264v1.407h1.104v.999h-1.104v1.623c0,.368.144.496.543.496.152,0,.272-.016.528-.088v1.047c-.24.072-.624.128-.888.128-.976,0-1.479-.448-1.479-1.328Z"></path>
    <path class="uuid-4f13da13-569e-48c5-a0f2-21951f935e45" d="M344.229,170.767h1.567l2.151,5.597h-1.487l-.464-1.335h-2.047l-.472,1.335h-1.432l2.183-5.597ZM345.629,173.965l-.647-1.854-.655,1.854h1.303Z"></path>
    <path class="uuid-4f13da13-569e-48c5-a0f2-21951f935e45" d="M348.591,170.767h2.734c1.191,0,1.975.776,1.975,1.847,0,1.016-.783,1.799-1.975,1.799h-1.359v1.951h-1.375v-5.597ZM351.077,173.318c.56,0,.832-.304.832-.711,0-.4-.272-.704-.824-.704h-1.119v1.415h1.111Z"></path>
    <path class="uuid-4f13da13-569e-48c5-a0f2-21951f935e45" d="M354.191,170.767h1.375v5.597h-1.375v-5.597Z"></path>
    <path class="uuid-4f13da13-569e-48c5-a0f2-21951f935e45" d="M358.942,173.237h-.855v-.999h.855v-.544c0-.983.584-1.519,1.646-1.519.225,0,.521.032.688.08v1.063c-.232-.04-.353-.048-.496-.048-.368,0-.544.144-.544.448v.52h1.04v.999h-1.04v3.126h-1.295v-3.126Z"></path>
    <path class="uuid-4f13da13-569e-48c5-a0f2-21951f935e45" d="M361.671,174.309c0-1.215.928-2.135,2.15-2.135s2.151.92,2.151,2.135-.928,2.135-2.151,2.135-2.15-.919-2.15-2.135ZM364.709,174.309c0-.616-.368-1.056-.888-1.056s-.888.44-.888,1.056.368,1.055.888,1.055.888-.439.888-1.055Z"></path>
    <path class="uuid-4f13da13-569e-48c5-a0f2-21951f935e45" d="M366.799,172.238h1.295v.935c.264-.688.632-1.015,1.119-1.015.185.008.272.024.432.104v1.111c-.159-.08-.384-.128-.607-.128-.384,0-.735.2-.943.512v2.606h-1.295v-4.125Z"></path>
    <path class="uuid-4f13da13-569e-48c5-a0f2-21951f935e45" d="M372.174,170.767h2.279c1.567,0,2.814,1.248,2.814,2.799s-1.247,2.798-2.814,2.798h-2.279v-5.597ZM374.453,175.189c.775,0,1.391-.72,1.391-1.623s-.615-1.623-1.391-1.623h-.903v3.246h.903Z"></path>
    <path class="uuid-4f13da13-569e-48c5-a0f2-21951f935e45" d="M377.862,175.181c0-.76.592-1.2,1.607-1.2.296,0,.592.056.959.192v-.336c0-.399-.264-.6-.815-.6-.312,0-.68.088-1.159.288l-.448-.903c.68-.304,1.288-.448,1.896-.448,1.144,0,1.807.568,1.807,1.551v2.639h-1.279v-.36c-.359.304-.703.424-1.144.424-.839,0-1.423-.512-1.423-1.247ZM379.686,175.572c.271,0,.52-.072.743-.208v-.528c-.239-.056-.472-.088-.711-.088-.424,0-.664.144-.664.408s.231.416.632.416Z"></path>
    <path class="uuid-4f13da13-569e-48c5-a0f2-21951f935e45" d="M383.11,175.116v-1.879h-.8v-.999h.8v-1.144l1.295-.264v1.407h1.104v.999h-1.104v1.623c0,.368.145.496.544.496.152,0,.271-.016.527-.088v1.047c-.239.072-.623.128-.887.128-.976,0-1.479-.448-1.479-1.328Z"></path>
    <path class="uuid-4f13da13-569e-48c5-a0f2-21951f935e45" d="M386.039,175.181c0-.76.591-1.2,1.606-1.2.296,0,.592.056.96.192v-.336c0-.399-.264-.6-.815-.6-.312,0-.68.088-1.16.288l-.447-.903c.68-.304,1.287-.448,1.895-.448,1.144,0,1.808.568,1.808,1.551v2.639h-1.279v-.36c-.36.304-.704.424-1.144.424-.84,0-1.423-.512-1.423-1.247ZM387.861,175.572c.272,0,.521-.072.744-.208v-.528c-.24-.056-.472-.088-.712-.088-.424,0-.663.144-.663.408s.231.416.631.416Z"></path>
    <path class="uuid-4f13da13-569e-48c5-a0f2-21951f935e45" d="M299.759,180.367h2.735c1.19,0,1.975.775,1.975,1.847,0,1.016-.784,1.799-1.975,1.799h-1.359v1.951h-1.376v-5.597ZM302.246,182.918c.56,0,.831-.304.831-.711,0-.4-.271-.704-.823-.704h-1.119v1.415h1.111Z"></path>
    <path class="uuid-4f13da13-569e-48c5-a0f2-21951f935e45" d="M305.319,181.838h1.295v.936c.264-.688.632-1.015,1.119-1.015.185.008.272.024.432.104v1.111c-.159-.08-.384-.128-.607-.128-.384,0-.735.2-.943.512v2.606h-1.295v-4.126Z"></path>
    <path class="uuid-4f13da13-569e-48c5-a0f2-21951f935e45" d="M308.551,183.909c0-1.215.928-2.135,2.151-2.135s2.15.919,2.15,2.135-.928,2.135-2.15,2.135-2.151-.919-2.151-2.135ZM311.59,183.909c0-.616-.368-1.056-.888-1.056s-.888.44-.888,1.056.368,1.055.888,1.055.888-.44.888-1.055Z"></path>
    <path class="uuid-4f13da13-569e-48c5-a0f2-21951f935e45" d="M314.103,184.717v-1.879h-.799v-1h.799v-1.143l1.296-.264v1.407h1.104v1h-1.104v1.624c0,.368.144.496.543.496.152,0,.272-.016.528-.088v1.047c-.24.072-.624.128-.888.128-.976,0-1.479-.448-1.479-1.327Z"></path>
    <path class="uuid-4f13da13-569e-48c5-a0f2-21951f935e45" d="M316.999,183.909c0-1.208.896-2.135,2.079-2.135,1.191,0,2.031.903,2.031,2.183v.28h-2.839c.12.464.496.775.968.775.344,0,.632-.12.815-.344l.855.712c-.536.472-1.039.664-1.735.664-1.215,0-2.175-.936-2.175-2.135ZM319.91,183.501c-.112-.439-.424-.719-.84-.719-.408,0-.695.264-.8.719h1.64Z"></path>
    <path class="uuid-4f13da13-569e-48c5-a0f2-21951f935e45" d="M321.775,183.909c0-1.208.928-2.135,2.135-2.135.68,0,1.303.271,1.719.759l-.791.792c-.265-.312-.528-.448-.88-.448-.512,0-.896.44-.896,1.032s.384,1.031.896,1.031c.352,0,.615-.136.88-.448l.791.792c-.416.488-1.039.76-1.719.76-1.207,0-2.135-.928-2.135-2.135Z"></path>
    <path class="uuid-4f13da13-569e-48c5-a0f2-21951f935e45" d="M326.895,184.717v-1.879h-.8v-1h.8v-1.143l1.295-.264v1.407h1.104v1h-1.104v1.624c0,.368.145.496.544.496.152,0,.271-.016.527-.088v1.047c-.239.072-.623.128-.887.128-.976,0-1.479-.448-1.479-1.327Z"></path>
    <path class="uuid-4f13da13-569e-48c5-a0f2-21951f935e45" d="M329.935,180.479c0-.4.328-.728.728-.728s.728.328.728.728-.327.728-.728.728-.728-.328-.728-.728ZM330.015,181.838h1.295v4.126h-1.295v-4.126Z"></path>
    <path class="uuid-4f13da13-569e-48c5-a0f2-21951f935e45" d="M332.135,183.909c0-1.215.928-2.135,2.151-2.135s2.15.919,2.15,2.135-.928,2.135-2.15,2.135-2.151-.919-2.151-2.135ZM335.174,183.909c0-.616-.368-1.056-.888-1.056s-.888.44-.888,1.056.368,1.055.888,1.055.888-.44.888-1.055Z"></path>
    <path class="uuid-4f13da13-569e-48c5-a0f2-21951f935e45" d="M337.263,181.838h1.295v.672c.32-.479.768-.735,1.304-.735.8,0,1.367.583,1.367,1.407v2.782h-1.295v-2.407c0-.464-.272-.768-.688-.768-.28,0-.504.112-.688.344v2.831h-1.295v-4.126Z"></path>
  </g>
  <g>
    <path class="uuid-49cc8ff8-435e-4c86-8e5d-14b4319081a9" d="M263.608,421.801c-2.061,0-4.122-.008-6.183.003-1.203.007-2.119-.41-2.895-1.406-2.531-3.248-5.109-6.46-7.746-9.622-.821-.985-.975-1.998-.712-3.14.929-4.04,1.919-8.066,2.809-12.114.246-1.117.794-1.831,1.8-2.307,3.842-1.818,7.675-3.654,11.504-5.5.999-.482,1.961-.485,2.957-.006,3.877,1.864,7.756,3.724,11.644,5.564.918.434,1.431,1.12,1.655,2.095.947,4.134,1.918,8.262,2.871,12.395.244,1.059.066,2.006-.652,2.884-2.638,3.225-5.272,6.454-7.838,9.736-.813,1.04-1.774,1.441-3.033,1.424-2.061-.027-4.122-.007-6.183-.007Z"></path>
    <g>
      <path class="uuid-40e78f4a-2349-492f-a68b-7def7fd90e24" d="M254.268,404.038c6.37,1.938,12.523,1.945,18.819-.006,0,1.611-.006,3.206.003,4.801.004.736-.52.988-1.07,1.234-1.316.588-2.722.819-4.134.952-3.969.374-7.922.425-11.819-.663-1.317-.368-1.991-1.012-1.828-2.496.138-1.257.029-2.542.029-3.822Z"></path>
      <path class="uuid-40e78f4a-2349-492f-a68b-7def7fd90e24" d="M263.836,400.83c2.512-.032,5.003.141,7.418.891.676.21,1.69.33,1.674,1.146-.016.804-1.035.964-1.715,1.15-3.202.875-6.475,1.083-9.775.842-2.004-.146-4.017-.298-5.912-1.059-.487-.196-1.182-.339-1.159-.965.022-.601.707-.767,1.199-.942,2.676-.952,5.464-1.089,8.27-1.063Z"></path>
    </g>
  </g>
  <g>
    <path class="uuid-b63d85d6-3495-4bce-81ad-ab29947f3ef4" d="M389.145,336.422c-2.113,0-4.226-.014-6.339.006-1.061.01-1.845-.385-2.515-1.236-2.584-3.277-5.187-6.539-7.855-9.748-.817-.983-.975-1.995-.709-3.145.945-4.092,1.928-8.175,2.849-12.272.226-1.003.75-1.648,1.658-2.078,3.933-1.862,7.86-3.739,11.783-5.622.908-.436,1.783-.406,2.68.024,3.928,1.882,7.857,3.761,11.794,5.622.926.438,1.395,1.153,1.615,2.126.927,4.094,1.867,8.186,2.833,12.272.269,1.137.076,2.091-.675,3.009-2.611,3.191-5.213,6.391-7.752,9.64-.81,1.036-1.749,1.45-3.03,1.417-2.112-.054-4.226-.015-6.338-.015Z"></path>
    <g>
      <path class="uuid-cf3879a9-9229-456b-87a7-966ad3d83750" d="M399.587,316.683c.087.895-.006,1.355-1.185,1.09-.704-.158-1.558.367-2.348.569-.319.081-.68.227-.812-.285-.119-.462-.019-.741.508-.82.382-.057.765-.166,1.123-.314.48-.198,1.202-.223,1.314-.776.121-.602-.617-.641-1.013-.836-.482-.238-.282-.523-.183-.833.137-.43.431-.281.7-.18,1.113.417,2.054.975,1.896,2.385Z"></path>
      <path class="uuid-fa473ac5-dbbf-4234-9621-859c844b6570" d="M380.377,317.677c-.381.337.123,1.019-.451,1.25-.253.102-.692.131-.762-.199-.203-.955-.183-1.94-.014-2.895.074-.418.511-.221.698-.042.804.769,1.789,1.15,2.838,1.399.435.103.547.332.439.734-.121.452-.41.465-.789.343-.647-.208-1.301-.393-1.959-.59Z"></path>
      <path class="uuid-c6247912-c9c9-4711-827e-32238cc8dd45" d="M388.08,314.373c-.442,0-.884-.012-1.326.003-.418.015-.817.025-.82-.554-.002-.56.41-.6.814-.612.982-.029,1.964-.048,2.947-.057.346-.003.702-.01.728.5.028.536-.253.678-.723.666-.54-.014-1.081-.003-1.621-.003v.057Z"></path>
      <path class="uuid-8b597a58-8e9c-410b-947b-6c4cea8692a1" d="M379.067,321.542c0-.394,0-.685,0-.976,0-.433.236-.586.647-.58.39.006.484.237.501.559.05.965-.306,2.06.953,2.615.246.108.003.438-.093.639-.17.355-.45.268-.735.142-1.104-.49-1.423-1.377-1.273-2.399Z"></path>
      <path class="uuid-8b597a58-8e9c-410b-947b-6c4cea8692a1" d="M385.773,325.244c-1.054-.188-2.109-.374-3.163-.564-.299-.054-.599-.126-.475-.542.095-.319.147-.683.646-.6,1.104.184,2.21.356,3.319.516.355.051.507.212.486.572-.031.538-.361.63-.812.618Z"></path>
      <path class="uuid-fff26fff-d4f6-4cf5-ae17-3d163d8a47f5" d="M384.902,314.05c.04.351-.106.511-.465.589-1.043.224-2.087.455-3.108.759-.454.135-.635-.026-.775-.38-.129-.327-.018-.56.31-.692,1.137-.456,2.33-.685,3.536-.842.376-.049.487.242.502.567Z"></path>
      <path class="uuid-66604176-1072-4783-9a7e-b359e6c47844" d="M387.585,318.986c-1.086-.099-1.82-.154-2.551-.237-.419-.048-.968.006-.863-.69.1-.661.614-.499,1.035-.467.832.064,1.662.145,2.492.229.404.041.966-.14.938.584-.026.667-.521.586-.963.581-.147-.002-.294,0-.087,0Z"></path>
      <path class="uuid-803d09fa-2d00-474c-b1b2-47977bed3396" d="M389.892,324.11c.538,0,1.076.004,1.613-.001.465-.004.556.295.566.673.01.405-.272.48-.577.486-1.076.02-2.151.027-3.227.032-.379.002-.661-.1-.652-.574.009-.461.274-.579.662-.58.538-.001,1.076,0,1.614,0v-.035Z"></path>
      <path class="uuid-98fdd551-8236-4b7f-81f4-bae07693318e" d="M390.932,319c-.447-.133-1.21.332-1.234-.577-.024-.925.758-.517,1.204-.588.724-.114,1.461-.165,2.194-.202.388-.02.922-.304,1.014.434.084.68-.382.663-.833.703-.781.068-1.56.152-2.344.23Z"></path>
      <path class="uuid-98fdd551-8236-4b7f-81f4-bae07693318e" d="M394.074,325.022c-.366.048-.785.256-.899-.36-.097-.522.183-.668.625-.75.999-.186,2.001-.372,2.985-.623.469-.12.63.128.761.446.186.452-.125.567-.486.68-.976.305-1.968.515-2.985.606Z"></path>
      <path class="uuid-f66d90e3-f6de-421f-aaaf-c58c39527a79" d="M392.57,313.264c.813.117,1.726.242,2.636.383.384.06.78.096.671.693-.102.563-.407.52-.842.444-.907-.158-1.824-.262-2.737-.382-.419-.055-.938.031-.839-.672.097-.684.597-.475,1.111-.467Z"></path>
      <path class="uuid-fff26fff-d4f6-4cf5-ae17-3d163d8a47f5" d="M398.456,321.315c0-.664-.001-1.248,0-1.832.001-.356.184-.524.539-.518.332.006.587.133.585.494-.005,1.068,0,2.139-.076,3.203-.025.352-.226.87-.689.767-.455-.101-.614-.508-.438-1.035.119-.356.062-.77.079-1.079Z"></path>
    </g>
  </g>
  <g>
    <path class="uuid-4f13da13-569e-48c5-a0f2-21951f935e45" d="M130.502,339.247h2.502c1.135,0,1.871.712,1.871,1.743,0,1.008-.736,1.719-1.871,1.719h-1.543v2.135h-.959v-5.597ZM132.853,341.925c.68,0,1.055-.376,1.055-.943,0-.552-.375-.928-1.047-.928h-1.399v1.871h1.392Z"></path>
    <path class="uuid-4f13da13-569e-48c5-a0f2-21951f935e45" d="M135.19,339.247h1.032l1.719,4.622,1.735-4.622h.991l-2.191,5.597h-1.111l-2.175-5.597Z"></path>
    <path class="uuid-4f13da13-569e-48c5-a0f2-21951f935e45" d="M140.87,342.046c0-1.623,1.263-2.887,2.895-2.887.855,0,1.671.368,2.183,1l-.64.624c-.4-.496-.951-.759-1.543-.759-1.087,0-1.911.872-1.911,2.023s.824,2.023,1.911,2.023c.592,0,1.143-.264,1.543-.76l.64.624c-.512.632-1.327,1-2.183,1-1.631,0-2.895-1.263-2.895-2.886Z"></path>
  </g>
  <g>
    <path class="uuid-b63d85d6-3495-4bce-81ad-ab29947f3ef4" d="M137.852,336.422c-2.113,0-4.226-.014-6.339.006-1.061.01-1.845-.385-2.515-1.236-2.584-3.277-5.187-6.539-7.855-9.748-.817-.983-.975-1.995-.709-3.145.945-4.092,1.928-8.175,2.849-12.272.226-1.003.75-1.648,1.658-2.078,3.933-1.862,7.86-3.739,11.783-5.622.908-.436,1.783-.406,2.68.024,3.928,1.882,7.857,3.761,11.794,5.622.926.438,1.395,1.153,1.615,2.126.927,4.094,1.867,8.186,2.833,12.272.269,1.137.076,2.091-.675,3.009-2.611,3.191-5.213,6.391-7.752,9.64-.81,1.036-1.749,1.45-3.03,1.417-2.112-.054-4.226-.015-6.338-.015Z"></path>
    <g>
      <path class="uuid-cf3879a9-9229-456b-87a7-966ad3d83750" d="M148.294,316.683c.087.895-.006,1.355-1.185,1.09-.704-.158-1.558.367-2.348.569-.319.081-.68.227-.812-.285-.119-.462-.019-.741.508-.82.382-.057.765-.166,1.123-.314.48-.198,1.202-.223,1.314-.776.121-.602-.617-.641-1.013-.836-.482-.238-.282-.523-.183-.833.137-.43.431-.281.7-.18,1.113.417,2.054.975,1.896,2.385Z"></path>
      <path class="uuid-fa473ac5-dbbf-4234-9621-859c844b6570" d="M129.084,317.677c-.381.337.123,1.019-.451,1.25-.253.102-.692.131-.762-.199-.203-.955-.183-1.94-.014-2.895.074-.418.511-.221.698-.042.804.769,1.789,1.15,2.838,1.399.435.103.547.332.439.734-.121.452-.41.465-.789.343-.647-.208-1.301-.393-1.959-.59Z"></path>
      <path class="uuid-c6247912-c9c9-4711-827e-32238cc8dd45" d="M136.787,314.373c-.442,0-.884-.012-1.326.003-.418.015-.817.025-.82-.554-.002-.56.41-.6.814-.612.982-.029,1.964-.048,2.947-.057.346-.003.702-.01.728.5.028.536-.253.678-.723.666-.54-.014-1.081-.003-1.621-.003v.057Z"></path>
      <path class="uuid-8b597a58-8e9c-410b-947b-6c4cea8692a1" d="M127.774,321.542c0-.394,0-.685,0-.976,0-.433.236-.586.647-.58.39.006.484.237.501.559.05.965-.306,2.06.953,2.615.246.108.003.438-.093.639-.17.355-.45.268-.735.142-1.104-.49-1.423-1.377-1.273-2.399Z"></path>
      <path class="uuid-8b597a58-8e9c-410b-947b-6c4cea8692a1" d="M134.48,325.244c-1.054-.188-2.109-.374-3.163-.564-.299-.054-.599-.126-.475-.542.095-.319.147-.683.646-.6,1.104.184,2.21.356,3.319.516.355.051.507.212.486.572-.031.538-.361.63-.812.618Z"></path>
      <path class="uuid-fff26fff-d4f6-4cf5-ae17-3d163d8a47f5" d="M133.609,314.05c.04.351-.106.511-.465.589-1.043.224-2.087.455-3.108.759-.454.135-.635-.026-.775-.38-.129-.327-.018-.56.31-.692,1.137-.456,2.33-.685,3.536-.842.376-.049.487.242.502.567Z"></path>
      <path class="uuid-66604176-1072-4783-9a7e-b359e6c47844" d="M136.292,318.986c-1.086-.099-1.82-.154-2.551-.237-.419-.048-.968.006-.863-.69.1-.661.614-.499,1.035-.467.832.064,1.662.145,2.492.229.404.041.966-.14.938.584-.026.667-.521.586-.963.581-.147-.002-.294,0-.087,0Z"></path>
      <path class="uuid-803d09fa-2d00-474c-b1b2-47977bed3396" d="M138.599,324.11c.538,0,1.076.004,1.613-.001.465-.004.556.295.566.673.01.405-.272.48-.577.486-1.076.02-2.151.027-3.227.032-.379.002-.661-.1-.652-.574.009-.461.274-.579.662-.58.538-.001,1.076,0,1.614,0v-.035Z"></path>
      <path class="uuid-98fdd551-8236-4b7f-81f4-bae07693318e" d="M139.639,319c-.447-.133-1.21.332-1.234-.577-.024-.925.758-.517,1.204-.588.724-.114,1.461-.165,2.194-.202.388-.02.922-.304,1.014.434.084.68-.382.663-.833.703-.781.068-1.56.152-2.344.23Z"></path>
      <path class="uuid-98fdd551-8236-4b7f-81f4-bae07693318e" d="M142.78,325.022c-.366.048-.785.256-.899-.36-.097-.522.183-.668.625-.75.999-.186,2.001-.372,2.985-.623.469-.12.63.128.761.446.186.452-.125.567-.486.68-.976.305-1.968.515-2.985.606Z"></path>
      <path class="uuid-f66d90e3-f6de-421f-aaaf-c58c39527a79" d="M141.277,313.264c.813.117,1.726.242,2.636.383.384.06.78.096.671.693-.102.563-.407.52-.842.444-.907-.158-1.824-.262-2.737-.382-.419-.055-.938.031-.839-.672.097-.684.597-.475,1.111-.467Z"></path>
      <path class="uuid-fff26fff-d4f6-4cf5-ae17-3d163d8a47f5" d="M147.163,321.315c0-.664-.001-1.248,0-1.832.001-.356.184-.524.539-.518.332.006.587.133.585.494-.005,1.068,0,2.139-.076,3.203-.025.352-.226.87-.689.767-.455-.101-.614-.508-.438-1.035.119-.356.062-.77.079-1.079Z"></path>
    </g>
  </g>
  <g>
    <g>
      <path class="uuid-b63d85d6-3495-4bce-81ad-ab29947f3ef4" d="M167.436,228.352c-2.067,0-4.136-.041-6.201.015-1.365.037-2.36-.392-3.229-1.516-2.557-3.307-5.19-6.558-7.862-9.773-.796-.958-1.007-1.955-.751-3.082.978-4.3,1.996-8.59,2.983-12.888.208-.905.725-1.527,1.544-1.917,4.076-1.943,8.156-3.879,12.229-5.829.933-.447,1.831-.408,2.75.032,4.031,1.931,8.062,3.859,12.102,5.771.95.45,1.422,1.189,1.648,2.188.951,4.202,1.919,8.399,2.91,12.592.276,1.167.067,2.146-.704,3.086-2.68,3.274-5.35,6.558-7.955,9.891-.833,1.066-1.802,1.479-3.113,1.445-2.116-.055-4.235-.015-6.353-.014Z"></path>
      <g>
        <path class="uuid-40e78f4a-2349-492f-a68b-7def7fd90e24" d="M166.969,218.376c-2.414-1.331-4.555-2.524-6.71-3.691-.469-.254-.585-.6-.581-1.099.02-2.163.034-4.327-.005-6.49-.015-.806.294-.957.991-.743,1.825.559,3.647,1.13,5.487,1.633.678.185.833.548.828,1.187-.024,2.965-.011,5.93-.011,9.203Z"></path>
        <path class="uuid-1797bcdc-d4a5-487a-96c8-faaad8924d2b" d="M167.966,218.402c0-3.39.008-6.4-.007-9.41-.003-.537.185-.789.725-.94,1.884-.527,3.754-1.103,5.621-1.689.731-.229,1-.027.989.749-.03,2.16-.015,4.321-.007,6.481.001.42-.035.792-.458,1.024-2.189,1.201-4.373,2.41-6.862,3.783Z"></path>
        <path class="uuid-a3e3fa44-d2fd-4b3e-83c6-aea3fe93fcce" d="M175.285,205.246c-2.747.8-5.051,1.48-7.363,2.133-.273.077-.605.073-.879-.005-2.311-.659-4.615-1.344-7.277-2.126,2.708-.798,5.074-1.496,7.44-2.192.527-.155.989.137,1.458.266,2.076.573,4.137,1.197,6.621,1.924Z"></path>
      </g>
    </g>
    <path class="uuid-b2cf209b-a7f3-4330-ad9a-1c8c5157913d" d="M168.951,192.201c.472.001.942.121,1.417.349,4.031,1.931,8.062,3.859,12.102,5.771.95.45,1.422,1.189,1.648,2.188.951,4.202,1.919,8.399,2.91,12.592.276,1.167.067,2.146-.704,3.086-2.68,3.274-5.35,6.558-7.955,9.891-.833,1.066-1.802,1.479-3.113,1.445"></path>
    <path class="uuid-b2cf209b-a7f3-4330-ad9a-1c8c5157913d" d="M170.788,191.5c.472.001.942.121,1.417.349,4.031,1.931,8.062,3.859,12.102,5.771.95.45,1.422,1.189,1.648,2.188.951,4.202,1.919,8.399,2.91,12.592.276,1.167.067,2.146-.704,3.086-2.68,3.274-5.35,6.558-7.955,9.891-.833,1.066-1.802,1.479-3.113,1.445"></path>
  </g>
  <g>
    <path class="uuid-b63d85d6-3495-4bce-81ad-ab29947f3ef4" d="M468.297,250.021c-2.127.001-4.255-.024-6.381.011-1.175.019-2.043-.372-2.792-1.329-2.558-3.269-5.154-6.51-7.812-9.699-.821-.985-1.02-1.996-.752-3.158.951-4.119,1.949-8.228,2.869-12.354.24-1.075.813-1.73,1.771-2.184,3.87-1.833,7.733-3.682,11.589-5.545,1.008-.487,1.974-.492,2.979-.009,3.906,1.88,7.815,3.756,11.735,5.607.932.44,1.435,1.14,1.659,2.118.953,4.167,1.921,8.332,2.887,12.496.251,1.082.038,2.015-.682,2.896-2.69,3.29-5.361,6.596-7.999,9.928-.676.855-1.475,1.238-2.541,1.227-2.176-.022-4.353-.007-6.529-.005Z"></path>
    <path class="uuid-40e78f4a-2349-492f-a68b-7def7fd90e24" d="M472.322,242.9c-.247,0-.5-.033-.741.006-1.146.184-1.558-.238-1.487-1.434.081-1.35-.704-2.253-2.008-2.57-1.188-.289-2.119.201-2.784,1.211-.346.526-.392,1.126-.344,1.714.069.838-.24,1.206-1.089,1.075-.097-.015-.198-.003-.296-.002-4.229.034-4.384-.156-4.355-4.42.007-.97.275-1.248,1.247-1.248,1.636-.001,2.667-.917,2.826-2.266.192-1.635-.892-2.908-2.746-2.936-1.089-.017-1.28-.393-1.279-1.377.002-4.231.032-4.315,4.293-4.288,1.012.006,1.63-.027,1.567-1.364-.07-1.476,1.039-2.493,2.362-2.519,1.317-.026,2.472.949,2.45,2.433-.02,1.351.543,1.469,1.657,1.456,4.178-.049,4.232-.01,4.156,4.213-.023,1.256.225,1.734,1.592,1.676,1.398-.059,2.301,1.031,2.303,2.369.002,1.334-.898,2.422-2.304,2.364-1.382-.057-1.762.453-1.565,1.692.038.241.006.494.006.741-.001,3.159-.316,3.475-3.46,3.475Z"></path>
  </g>
  <g>
    <line class="uuid-cd68af95-7c82-445e-9f64-3b161d27057b" x1="491.788" y1="234.714" x2="552.033" y2="234.714"></line>
    <polygon class="uuid-4f13da13-569e-48c5-a0f2-21951f935e45" points="492.883 238.454 486.406 234.714 492.883 230.974 492.883 238.454"></polygon>
  </g>
  <g>
    <line class="uuid-cd68af95-7c82-445e-9f64-3b161d27057b" x1="197.612" y1="210.338" x2="316.078" y2="210.338"></line>
    <polygon class="uuid-4f13da13-569e-48c5-a0f2-21951f935e45" points="198.706 214.078 192.23 210.338 198.706 206.599 198.706 214.078"></polygon>
  </g>
  <g>
    <polyline class="uuid-cd68af95-7c82-445e-9f64-3b161d27057b" points="316.078 216.636 267.242 216.636 267.242 323.526 165.047 323.526"></polyline>
    <polygon class="uuid-4f13da13-569e-48c5-a0f2-21951f935e45" points="166.142 319.786 159.665 323.526 166.142 327.265 166.142 319.786"></polygon>
  </g>
  <g>
    <line class="uuid-cd68af95-7c82-445e-9f64-3b161d27057b" x1="437.304" y1="234.714" x2="450.561" y2="234.714"></line>
    <polygon class="uuid-4f13da13-569e-48c5-a0f2-21951f935e45" points="438.398 238.454 431.922 234.714 438.398 230.974 438.398 238.454"></polygon>
  </g>
  <path class="uuid-4f13da13-569e-48c5-a0f2-21951f935e45" d="M244.105,409.147h-3c-.276,0-.5-.224-.5-.5s.224-.5.5-.5h3c.276,0,.5.224.5.5s-.224.5-.5.5ZM238.105,409.147h-3c-.276,0-.5-.224-.5-.5s.224-.5.5-.5h3c.276,0,.5.224.5.5s-.224.5-.5.5ZM232.105,409.147h-3c-.276,0-.5-.224-.5-.5s.224-.5.5-.5h3c.276,0,.5.224.5.5s-.224.5-.5.5ZM226.105,409.147h-3c-.276,0-.5-.224-.5-.5s.224-.5.5-.5h3c.276,0,.5.224.5.5s-.224.5-.5.5ZM220.105,409.147h-3c-.276,0-.5-.224-.5-.5s.224-.5.5-.5h3c.276,0,.5.224.5.5s-.224.5-.5.5ZM214.105,409.147h-3c-.276,0-.5-.224-.5-.5s.224-.5.5-.5h3c.276,0,.5.224.5.5s-.224.5-.5.5ZM208.105,409.147h-3c-.276,0-.5-.224-.5-.5s.224-.5.5-.5h3c.276,0,.5.224.5.5s-.224.5-.5.5ZM202.105,409.147h-3c-.276,0-.5-.224-.5-.5s.224-.5.5-.5h3c.276,0,.5.224.5.5s-.224.5-.5.5ZM196.105,409.147h-3c-.276,0-.5-.224-.5-.5s.224-.5.5-.5h3c.276,0,.5.224.5.5s-.224.5-.5.5ZM190.105,409.147h-3c-.276,0-.5-.224-.5-.5s.224-.5.5-.5h3c.276,0,.5.224.5.5s-.224.5-.5.5ZM184.105,409.147h-3c-.276,0-.5-.224-.5-.5s.224-.5.5-.5h3c.276,0,.5.224.5.5s-.224.5-.5.5ZM178.105,409.147h-3c-.276,0-.5-.224-.5-.5s.224-.5.5-.5h3c.276,0,.5.224.5.5s-.224.5-.5.5ZM172.105,409.147h-3c-.276,0-.5-.224-.5-.5s.224-.5.5-.5h3c.276,0,.5.224.5.5s-.224.5-.5.5ZM166.105,409.147h-3c-.276,0-.5-.224-.5-.5s.224-.5.5-.5h3c.276,0,.5.224.5.5s-.224.5-.5.5ZM160.105,409.147h-3c-.276,0-.5-.224-.5-.5s.224-.5.5-.5h3c.276,0,.5.224.5.5s-.224.5-.5.5ZM154.105,409.147h-3c-.276,0-.5-.224-.5-.5s.224-.5.5-.5h3c.276,0,.5.224.5.5s-.224.5-.5.5ZM148.105,409.147h-3c-.276,0-.5-.224-.5-.5s.224-.5.5-.5h3c.276,0,.5.224.5.5s-.224.5-.5.5ZM142.105,409.147h-3c-.276,0-.5-.224-.5-.5s.224-.5.5-.5h3c.276,0,.5.224.5.5s-.224.5-.5.5ZM138.404,406.848c-.276,0-.5-.224-.5-.5v-3c0-.276.224-.5.5-.5s.5.224.5.5v3c0,.276-.224.5-.5.5ZM138.404,400.848c-.276,0-.5-.224-.5-.5v-3c0-.276.224-.5.5-.5s.5.224.5.5v3c0,.276-.224.5-.5.5ZM138.404,394.848c-.276,0-.5-.224-.5-.5v-3c0-.276.224-.5.5-.5s.5.224.5.5v3c0,.276-.224.5-.5.5ZM138.404,388.848c-.276,0-.5-.224-.5-.5v-3c0-.276.224-.5.5-.5s.5.224.5.5v3c0,.276-.224.5-.5.5ZM138.404,382.848c-.276,0-.5-.224-.5-.5v-3c0-.276.224-.5.5-.5s.5.224.5.5v3c0,.276-.224.5-.5.5ZM138.404,376.848c-.276,0-.5-.224-.5-.5v-3c0-.276.224-.5.5-.5s.5.224.5.5v3c0,.276-.224.5-.5.5ZM138.404,370.848c-.276,0-.5-.224-.5-.5v-3c0-.276.224-.5.5-.5s.5.224.5.5v3c0,.276-.224.5-.5.5ZM138.404,364.848c-.276,0-.5-.224-.5-.5v-3c0-.276.224-.5.5-.5s.5.224.5.5v3c0,.276-.224.5-.5.5ZM138.404,358.848c-.276,0-.5-.224-.5-.5v-3c0-.276.224-.5.5-.5s.5.224.5.5v3c0,.276-.224.5-.5.5ZM138.404,352.848c-.276,0-.5-.224-.5-.5v-2.221c0-.276.224-.5.5-.5s.5.224.5.5v2.221c0,.276-.224.5-.5.5Z"></path>
  <path class="uuid-4f13da13-569e-48c5-a0f2-21951f935e45" d="M388.244,409.147h-3c-.276,0-.5-.224-.5-.5s.224-.5.5-.5h3c.276,0,.5.224.5.5s-.224.5-.5.5ZM382.244,409.147h-3c-.276,0-.5-.224-.5-.5s.224-.5.5-.5h3c.276,0,.5.224.5.5s-.224.5-.5.5ZM376.244,409.147h-3c-.276,0-.5-.224-.5-.5s.224-.5.5-.5h3c.276,0,.5.224.5.5s-.224.5-.5.5ZM370.244,409.147h-3c-.276,0-.5-.224-.5-.5s.224-.5.5-.5h3c.276,0,.5.224.5.5s-.224.5-.5.5ZM364.244,409.147h-3c-.276,0-.5-.224-.5-.5s.224-.5.5-.5h3c.276,0,.5.224.5.5s-.224.5-.5.5ZM358.244,409.147h-3c-.276,0-.5-.224-.5-.5s.224-.5.5-.5h3c.276,0,.5.224.5.5s-.224.5-.5.5ZM352.244,409.147h-3c-.276,0-.5-.224-.5-.5s.224-.5.5-.5h3c.276,0,.5.224.5.5s-.224.5-.5.5ZM346.243,409.147h-2.999c-.276,0-.5-.224-.5-.5s.224-.5.5-.5h2.999c.276,0,.5.224.5.5s-.224.5-.5.5ZM340.243,409.147h-2.999c-.276,0-.5-.224-.5-.5s.224-.5.5-.5h2.999c.276,0,.5.224.5.5s-.224.5-.5.5ZM334.244,409.147h-3c-.276,0-.5-.224-.5-.5s.224-.5.5-.5h3c.276,0,.5.224.5.5s-.224.5-.5.5ZM328.244,409.147h-3c-.276,0-.5-.224-.5-.5s.224-.5.5-.5h3c.276,0,.5.224.5.5s-.224.5-.5.5ZM322.244,409.147h-3c-.276,0-.5-.224-.5-.5s.224-.5.5-.5h3c.276,0,.5.224.5.5s-.224.5-.5.5ZM316.244,409.147h-3c-.276,0-.5-.224-.5-.5s.224-.5.5-.5h3c.276,0,.5.224.5.5s-.224.5-.5.5ZM310.244,409.147h-3c-.276,0-.5-.224-.5-.5s.224-.5.5-.5h3c.276,0,.5.224.5.5s-.224.5-.5.5ZM304.244,409.147h-3c-.276,0-.5-.224-.5-.5s.224-.5.5-.5h3c.276,0,.5.224.5.5s-.224.5-.5.5ZM298.244,409.147h-3c-.276,0-.5-.224-.5-.5s.224-.5.5-.5h3c.276,0,.5.224.5.5s-.224.5-.5.5ZM292.244,409.147h-3c-.276,0-.5-.224-.5-.5s.224-.5.5-.5h3c.276,0,.5.224.5.5s-.224.5-.5.5ZM286.244,409.147h-3c-.276,0-.5-.224-.5-.5s.224-.5.5-.5h3c.276,0,.5.224.5.5s-.224.5-.5.5ZM390.825,408.729c-.276,0-.5-.224-.5-.5v-3c0-.276.224-.5.5-.5s.5.224.5.5v3c0,.276-.224.5-.5.5ZM390.825,402.728c-.276,0-.5-.224-.5-.5v-3c0-.276.224-.5.5-.5s.5.224.5.5v3c0,.276-.224.5-.5.5ZM390.825,396.728c-.276,0-.5-.224-.5-.5v-3c0-.276.224-.5.5-.5s.5.224.5.5v3c0,.276-.224.5-.5.5ZM390.825,390.728c-.276,0-.5-.224-.5-.5v-3c0-.276.224-.5.5-.5s.5.224.5.5v3c0,.276-.224.5-.5.5ZM390.825,384.728c-.276,0-.5-.224-.5-.5v-3c0-.276.224-.5.5-.5s.5.224.5.5v3c0,.276-.224.5-.5.5ZM390.825,378.728c-.276,0-.5-.224-.5-.5v-3c0-.276.224-.5.5-.5s.5.224.5.5v3c0,.276-.224.5-.5.5ZM390.825,372.728c-.276,0-.5-.224-.5-.5v-3c0-.276.224-.5.5-.5s.5.224.5.5v3c0,.276-.224.5-.5.5ZM390.825,366.728c-.276,0-.5-.224-.5-.5v-3c0-.276.224-.5.5-.5s.5.224.5.5v3c0,.276-.224.5-.5.5ZM390.825,360.728c-.276,0-.5-.224-.5-.5v-3c0-.276.224-.5.5-.5s.5.224.5.5v3c0,.276-.224.5-.5.5ZM390.825,354.728c-.276,0-.5-.224-.5-.5v-3c0-.276.224-.5.5-.5s.5.224.5.5v3c0,.276-.224.5-.5.5Z"></path>
  <g>
    <g>
      <path class="uuid-4aac6c8a-1320-49ca-805e-6e768fa3ed42" d="M560.675,261.196v-3.198h.96v3.198c0,.983.543,1.623,1.391,1.623s1.392-.64,1.392-1.623v-3.198h.959v3.198c0,1.527-.911,2.486-2.351,2.486s-2.351-.959-2.351-2.486Z"></path>
      <path class="uuid-4aac6c8a-1320-49ca-805e-6e768fa3ed42" d="M566.14,263.131l.424-.6c.527.328.879.456,1.287.456.479,0,.808-.224.808-.544,0-.248-.168-.376-.56-.456l-.704-.12c-.783-.144-1.159-.504-1.159-1.104,0-.751.615-1.239,1.551-1.239.56,0,1.063.16,1.575.48l-.424.6c-.407-.264-.799-.384-1.207-.384-.416,0-.688.176-.688.464,0,.256.144.368.56.439l.712.136c.799.144,1.183.512,1.183,1.112,0,.735-.703,1.303-1.639,1.303-.688,0-1.295-.192-1.719-.544Z"></path>
      <path class="uuid-4aac6c8a-1320-49ca-805e-6e768fa3ed42" d="M570.147,261.595c0-1.175.848-2.071,1.951-2.071,1.095,0,1.895.872,1.895,2.071v.216h-2.958c.088.648.575,1.12,1.199,1.12.376,0,.728-.144.951-.376l.592.536c-.488.408-.976.584-1.583.584-1.151,0-2.047-.904-2.047-2.079ZM573.138,261.252c-.096-.583-.512-.991-1.048-.991-.543,0-.943.392-1.047.991h2.095Z"></path>
      <path class="uuid-4aac6c8a-1320-49ca-805e-6e768fa3ed42" d="M574.915,259.589h.903v.864c.225-.608.608-.936,1.104-.936.152.008.256.024.392.08v.792c-.144-.056-.327-.096-.495-.096-.44,0-.8.248-1,.664v2.639h-.903v-4.006Z"></path>
    </g>
    <g>
      <path class="uuid-be88c1a3-31d8-4e3d-a6d1-caa2df075942" d="M585.58,252.586c0-9.248-7.51-16.744-16.773-16.744s-16.773,7.497-16.773,16.744h33.547Z"></path>
      <ellipse class="uuid-be88c1a3-31d8-4e3d-a6d1-caa2df075942" cx="568.807" cy="227.441" rx="8.421" ry="8.409"></ellipse>
    </g>
  </g>
  <g>
    <g>
      <g>
        <path class="uuid-4aac6c8a-1320-49ca-805e-6e768fa3ed42" d="M226.703,56.562c0-2.019,1.559-3.608,3.538-3.608s3.538,1.59,3.538,3.608-1.559,3.608-3.538,3.608-3.538-1.59-3.538-3.608ZM232.55,56.562c0-1.439-1-2.528-2.309-2.528s-2.318,1.089-2.318,2.528,1.009,2.528,2.318,2.528,2.309-1.089,2.309-2.528Z"></path>
        <path class="uuid-4aac6c8a-1320-49ca-805e-6e768fa3ed42" d="M235.003,52.924l1.129-.19v2.988c.35-.439.909-.709,1.539-.709,1.269,0,2.259,1.129,2.259,2.548,0,1.43-1.02,2.549-2.329,2.549-.59,0-1.109-.239-1.489-.689v.64h-1.109v-7.136ZM238.821,57.561c0-.909-.64-1.599-1.489-1.599-.5,0-.91.2-1.199.56v2.089c.29.35.72.56,1.199.56.859,0,1.489-.689,1.489-1.609Z"></path>
        <path class="uuid-4aac6c8a-1320-49ca-805e-6e768fa3ed42" d="M240.153,62.168v-.899c.13.03.24.04.4.04.39,0,.56-.17.56-.55v-5.706h1.129v5.757c0,.909-.53,1.438-1.479,1.438-.22,0-.47-.029-.609-.08ZM240.973,53.343c0-.379.32-.699.7-.699.39,0,.709.32.709.699s-.32.69-.709.69c-.38,0-.7-.311-.7-.69Z"></path>
        <path class="uuid-4aac6c8a-1320-49ca-805e-6e768fa3ed42" d="M243.403,57.561c0-1.469,1.06-2.588,2.438-2.588,1.37,0,2.369,1.089,2.369,2.588v.271h-3.698c.11.81.72,1.399,1.499,1.399.47,0,.91-.181,1.189-.47l.74.669c-.61.51-1.219.729-1.979.729-1.439,0-2.559-1.129-2.559-2.599ZM247.141,57.131c-.12-.729-.64-1.239-1.309-1.239-.68,0-1.179.49-1.309,1.239h2.618Z"></path>
        <path class="uuid-4aac6c8a-1320-49ca-805e-6e768fa3ed42" d="M249.133,57.561c0-1.449,1.1-2.588,2.529-2.588.779,0,1.499.31,1.999.85l-.699.729c-.35-.39-.78-.59-1.26-.59-.809,0-1.439.699-1.439,1.599,0,.91.63,1.6,1.439,1.6.48,0,.91-.2,1.26-.58l.699.72c-.5.54-1.219.85-1.999.85-1.429,0-2.529-1.129-2.529-2.589Z"></path>
        <path class="uuid-4aac6c8a-1320-49ca-805e-6e768fa3ed42" d="M255.212,58.761v-2.809h-1v-.899h1v-1.38l1.129-.239v1.619h1.389v.899h-1.389v2.559c0,.489.19.68.7.68.22,0,.379-.03.68-.12v.949c-.29.09-.67.14-.97.14-1.009,0-1.539-.479-1.539-1.398Z"></path>
        <path class="uuid-4aac6c8a-1320-49ca-805e-6e768fa3ed42" d="M260.533,59.48l.53-.749c.659.409,1.099.569,1.609.569.6,0,1.009-.279,1.009-.68,0-.31-.209-.47-.699-.569l-.88-.15c-.979-.18-1.449-.629-1.449-1.379,0-.939.77-1.549,1.939-1.549.7,0,1.33.199,1.969.6l-.53.749c-.51-.329-1-.479-1.509-.479-.52,0-.859.22-.859.58,0,.319.18.459.699.55l.89.17c1,.18,1.479.64,1.479,1.389,0,.92-.88,1.629-2.049,1.629-.86,0-1.619-.239-2.149-.68Z"></path>
        <path class="uuid-4aac6c8a-1320-49ca-805e-6e768fa3ed42" d="M266.392,58.761v-2.809h-1v-.899h1v-1.38l1.129-.239v1.619h1.389v.899h-1.389v2.559c0,.489.19.68.7.68.22,0,.379-.03.68-.12v.949c-.29.09-.67.14-.97.14-1.009,0-1.539-.479-1.539-1.398Z"></path>
        <path class="uuid-4aac6c8a-1320-49ca-805e-6e768fa3ed42" d="M269.682,57.561c0-1.479,1.08-2.588,2.519-2.588,1.429,0,2.509,1.109,2.509,2.588s-1.08,2.589-2.509,2.589c-1.439,0-2.519-1.109-2.519-2.589ZM273.6,57.561c0-.929-.59-1.629-1.399-1.629-.819,0-1.409.7-1.409,1.629,0,.939.59,1.63,1.409,1.63.81,0,1.399-.69,1.399-1.63Z"></path>
        <path class="uuid-4aac6c8a-1320-49ca-805e-6e768fa3ed42" d="M275.882,55.053h1.129v1.079c.28-.76.759-1.17,1.379-1.17.19.011.32.03.49.101v.989c-.18-.07-.41-.12-.62-.12-.549,0-1,.31-1.249.83v3.298h-1.129v-5.007Z"></path>
        <path class="uuid-4aac6c8a-1320-49ca-805e-6e768fa3ed42" d="M279.552,58.62c0-.899.739-1.469,1.919-1.469.47,0,.909.1,1.349.319v-.56c0-.659-.38-.999-1.149-.999-.42,0-.879.12-1.459.39l-.4-.819c.75-.34,1.409-.51,2.079-.51,1.31,0,2.049.659,2.049,1.818v3.269h-1.119v-.52c-.43.42-.91.609-1.489.609-1.049,0-1.779-.63-1.779-1.529ZM281.641,59.35c.45,0,.839-.13,1.179-.419v-.81c-.36-.17-.72-.24-1.149-.24-.649,0-1.06.27-1.06.72,0,.46.4.749,1.03.749Z"></path>
        <path class="uuid-4aac6c8a-1320-49ca-805e-6e768fa3ed42" d="M285.642,61.759l.39-.83c.589.29,1.069.42,1.569.42.84,0,1.279-.38,1.279-1.109v-.85c-.36.44-.909.7-1.539.7-1.27,0-2.259-1.13-2.259-2.549s1.029-2.528,2.339-2.528c.58,0,1.099.229,1.469.669v-.629h1.119v5.187c0,1.289-.839,2.009-2.359,2.009-.719,0-1.419-.18-2.009-.489ZM288.88,58.601v-2.099c-.29-.34-.72-.54-1.189-.54-.859,0-1.499.67-1.499,1.589,0,.909.64,1.6,1.499,1.6.49,0,.9-.2,1.189-.55Z"></path>
        <path class="uuid-4aac6c8a-1320-49ca-805e-6e768fa3ed42" d="M291.172,57.561c0-1.469,1.06-2.588,2.438-2.588,1.37,0,2.369,1.089,2.369,2.588v.271h-3.698c.11.81.72,1.399,1.499,1.399.47,0,.91-.181,1.189-.47l.74.669c-.61.51-1.219.729-1.979.729-1.439,0-2.559-1.129-2.559-2.599ZM294.91,57.131c-.12-.729-.64-1.239-1.309-1.239-.68,0-1.179.49-1.309,1.239h2.618Z"></path>
      </g>
      <path class="uuid-be88c1a3-31d8-4e3d-a6d1-caa2df075942" d="M278.929,27.829c0-8.646-7.009-15.655-15.655-15.655-5.855,0-10.95,3.219-13.636,7.979-.657-.114-1.33-.185-2.02-.185-6.494,0-11.758,5.264-11.758,11.758s5.265,11.758,11.758,11.758h31.31c4.323,0,7.828-3.505,7.828-7.828s-3.504-7.828-7.828-7.828Z"></path>
    </g>
    <g>
      <path class="uuid-be88c1a3-31d8-4e3d-a6d1-caa2df075942" d="M253.106,40.41v4.532c0,2.503,3.672,4.532,8.202,4.532s8.202-2.029,8.202-4.532v-4.532"></path>
      <ellipse class="uuid-be88c1a3-31d8-4e3d-a6d1-caa2df075942" cx="261.308" cy="40.41" rx="8.202" ry="4.532"></ellipse>
    </g>
  </g>
  <g>
    <path class="uuid-4f13da13-569e-48c5-a0f2-21951f935e45" d="M376.193,247.31c-.053-.295-.31-.51-.61-.51h-3.34c-.192-.615-.44-1.21-.74-1.78l2.33-2.4c.214-.209.248-.542.08-.79-1.016-1.491-2.297-2.782-3.78-3.81-.25-.173-.589-.139-.8.08l-2.35,2.31c-.589-.312-1.205-.57-1.84-.77v-3.36c0-.3-.215-.557-.51-.61-1.787-.345-3.623-.345-5.41,0-.303.049-.524.313-.52.62v3.29c-.656.196-1.293.454-1.9.77l-2.37-2.33c-.211-.21-.541-.244-.79-.08-1.491,1.016-2.782,2.297-3.81,3.78-.173.25-.139.589.08.8l2.35,2.35c-.33.615-.598,1.262-.8,1.93h-3.38c-.3,0-.557.215-.61.51-.347,1.79-.347,3.63,0,5.42.053.295.31.51.61.51h3.34c.202.668.47,1.315.8,1.93l-2.39,2.35c-.219.211-.253.55-.08.8,1.036,1.501,2.341,2.796,3.85,3.82.266.182.626.129.83-.12l2.4-2.33c.607.316,1.244.574,1.9.77v3.32c-.004.307.217.571.52.62,1.787.34,3.623.34,5.41,0,.295-.053.51-.31.51-.61v-3.39c.635-.2,1.251-.458,1.84-.77l2.32,2.39c.211.219.55.253.8.08,1.501-1.036,2.796-2.341,3.82-3.85.182-.266.129-.626-.12-.83l-2.33-2.4c.302-.579.55-1.185.74-1.81h3.34c.3,0,.557-.215.61-.51.347-1.79.347-3.63,0-5.42v.03ZM375.053,252.02h-3.28c-.284,0-.531.194-.6.47-.226.837-.562,1.641-1,2.39-.141.244-.1.552.1.75l2.33,2.33c-.78,1.053-1.714,1.983-2.77,2.76l-2.3-2.31c-.205-.203-.52-.244-.77-.1-.753.443-1.564.779-2.41,1-.273.077-.462.326-.46.61v3.29c-1.305.205-2.635.205-3.94,0v-3.19c0-.284-.194-.531-.47-.6-.868-.22-1.702-.556-2.48-1-.244-.141-.552-.1-.75.1l-2.33,2.33c-1.068-.796-2.009-1.751-2.79-2.83l2.31-2.32c.205-.2.246-.514.1-.76-.47-.774-.824-1.613-1.05-2.49-.069-.276-.316-.469-.6-.47h-3.28c-.213-1.305-.213-2.635,0-3.94h3.28c.284,0,.531-.194.6-.47.226-.877.58-1.716,1.05-2.49.144-.25.103-.565-.1-.77l-2.31-2.29c.785-1.062,1.726-1.999,2.79-2.78l2.33,2.33c.198.2.506.241.75.1.778-.444,1.612-.78,2.48-1,.276-.069.469-.316.47-.6v-3.28c1.305-.205,2.635-.205,3.94,0v3.31c-.002.284.187.533.46.61.846.221,1.657.557,2.41,1,.25.144.565.103.77-.1l2.3-2.29c1.062.785,1.999,1.726,2.78,2.79l-2.33,2.33c-.2.198-.241.506-.1.75.438.749.774,1.553,1,2.39.069.276.316.469.6.47h3.28c.213,1.305.213,2.635,0,3.94l-.01.03Z"></path>
    <path class="uuid-4f13da13-569e-48c5-a0f2-21951f935e45" d="M361.833,245.4c-2.552,0-4.62,2.068-4.62,4.62s2.068,4.62,4.62,4.62,4.62-2.068,4.62-4.62-2.068-4.62-4.62-4.62h0ZM361.833,253.4c-1.867,0-3.38-1.513-3.38-3.38,0-1.867,1.513-3.38,3.38-3.38,1.867,0,3.38,1.513,3.38,3.38-.005,1.864-1.516,3.375-3.38,3.38Z"></path>
  </g>
  <g>
    <polyline class="uuid-8386037d-ca64-45c7-ab48-2be6810a02bb" points="378.439 250 389.332 250 389.332 294.243"></polyline>
    <polygon class="uuid-4f13da13-569e-48c5-a0f2-21951f935e45" points="385.592 293.149 389.332 299.625 393.072 293.149 385.592 293.149"></polygon>
  </g>
  <g>
    <path class="uuid-82336efa-65ae-4004-8fcb-23c51d60f28f" d="M321.985,204.598c-.379-.354-.027-.634.124-.896,3.929-6.854,13.23-8.357,19.156-3.102,1.221,1.083,2.194,2.357,2.912,3.824.058.118.11.239.151.364.013.039-.02.093-.035.15-.289.085-.41-.178-.583-.306-1.35-1.005-2.383-1.006-3.74.01-1.228.919-2.174.934-3.4.054-1.537-1.103-2.354-1.098-3.937.038.302.175.48-.07.676-.187.971-.581,1.901-.513,2.818.128,1.813,1.268,2.392,1.267,4.18.019,1.076-.751,2.006-.593,3.152.03,1.425.775,1.655,2.027,1.872,3.391.091.57-.154.583-.551.471-.413-.117-.752-.365-1.088-.629-1.249-.984-2.4-.983-3.679-.02-1.33,1.001-2.204.997-3.576-.019-1.26-.932-2.364-.932-3.624.002-1.401,1.038-2.213,1.029-3.628-.042-1.144-.866-2.348-.872-3.5-.019-1.491,1.104-2.214,1.107-3.686.021-.149-.11-.333-.18-.459-.31-.226-.233-.802-.029-.738-.636.078-.737.644-2.005,1.035-2.196.07.06.141.121.211.181.101-.131.031-.228-.063-.321ZM326.45,204.139c1.342-.269,2.318.416,3.329,1.114.612.423,1.354.483,2.052.093-.849-.001-1.736.071-2.38-.592-.873-.898-1.922-.777-3.001-.615ZM324.436,205.307h-1.438c.479.428.949.311,1.438,0Z"></path>
    <path class="uuid-82336efa-65ae-4004-8fcb-23c51d60f28f" d="M320.457,209.416c.017-.288.022-.42.034-.552.034-.392-.073-.979.236-1.108.397-.165.805.257,1.16.531,1.366,1.05,2.444,1.062,3.819.05,1.326-.977,2.129-.981,3.435-.018,1.389,1.024,2.453,1.016,3.811-.027,1.189-.914,2.196-.91,3.38.013,1.307,1.02,2.421,1.032,3.743.041,1.328-.995,2.179-.994,3.5.009.403.306.826.612,1.334.653.456.037.582.231.552.643-.044.605-.068,1.212-.096,1.818-.025.542-.332.604-.735.399-.326-.165-.635-.373-.928-.592-1.278-.959-2.403-.967-3.689-.009-1.334.993-2.173.998-3.502.024-1.364-1.001-2.482-.987-3.826.048-1.158.892-2.143.899-3.309.024-1.453-1.091-2.472-1.084-3.928.025-1.1.838-2.135.83-3.25-.014-.251-.19-.506-.456-.791-.506-.99-.174-1.099-.798-.949-1.452Z"></path>
    <path class="uuid-82336efa-65ae-4004-8fcb-23c51d60f28f" d="M320.534,211.58c-.055-.491.192-.492.43-.373.327.164.641.365.934.585,1.322.992,2.447,1.014,3.767.054,1.416-1.029,2.127-1.024,3.556.022,1.267.928,2.434.909,3.697-.059,1.263-.968,2.151-.97,3.423-.009,1.316.996,2.419,1,3.75.016,1.334-.986,2.14-.978,3.495.021.232.171.479.396.743.435.955.14.87.679.588,1.335-.052.121-.08.252-.123.377q-.369,1.089-1.33.45c-1.086-.723-2.314-.689-3.394.095-1.545,1.121-2.082,1.121-3.671.003-1.214-.854-2.458-.827-3.655.079-1.313.993-2.117,1.002-3.416.036-1.342-.997-2.492-.993-3.827.016-1.251.945-2.121.961-3.344-.025-.363-.292-.925-.335-1.107-.841-.27-.748-.398-1.532-.516-2.218Z"></path>
    <path class="uuid-82336efa-65ae-4004-8fcb-23c51d60f28f" d="M321.629,215.355c.23-.14.322-.025.431.041,1.383.848,2.452.805,3.727-.147,1.212-.905,2.07-.906,3.297-.003,1.403,1.033,2.543,1.016,3.961-.059,1.075-.815,2.115-.814,3.187.003,1.407,1.072,2.556,1.122,3.946.036,1.257-.981,2.487-.756,3.637.244.21.182.205.331.07.537-.245.376-.492.751-.715,1.14-.148.257-.335.268-.598.216-1.108-.218-2.063.07-2.941.801-.883.735-1.922.692-2.837.003-1.605-1.208-2.693-1.215-4.29-.029-.99.735-1.981.725-2.976-.029-1.486-1.128-2.63-1.133-4.171-.017-1.086.786-1.273.764-2.115-.277-.232-.287-.458-.582-.658-.893-.328-.51-.632-1.035-.954-1.568Z"></path>
    <path class="uuid-82336efa-65ae-4004-8fcb-23c51d60f28f" d="M342.28,218.092c-3.702,4.857-12.212,6.101-17.435,1.276.42-.297.841-.596,1.263-.893.865-.608,1.78-.602,2.648.014,1.84,1.306,2.684,1.313,4.476.034.938-.669,1.825-.668,2.782.004,1.827,1.282,2.627,1.277,4.476-.032.531-.376,1.097-.573,1.788-.403Z"></path>
    <path class="uuid-1b518c9d-97ef-4a99-8c4f-b87b878f9043" d="M392.141,214.981c-.869.228-1.416.041-1.825-.681-.402-.71-.962-1.33-1.385-2.03-.342-.565-.762-.759-1.423-.739-1.617.05-1.618.017-1.619,1.641,0,.423-.017.847.004,1.269.021.413-.077.63-.561.635-.505.006-.62-.192-.617-.658.017-2.857.016-5.714,0-8.571-.002-.433.11-.616.577-.606,1.297.026,2.595-.02,3.891.023,1.511.05,2.813,1.152,3.077,2.528.285,1.487-.475,2.871-2.011,3.46-.564.216-.466.386-.199.754.696.96,1.365,1.939,2.09,2.975ZM387.477,210.494c.608.006,1.214.015,1.815-.116,1.168-.255,1.89-1.035,1.864-2.035-.027-1.013-.781-1.769-1.94-1.968-.893-.153-1.794-.064-2.689-.117-.563-.034-.669.214-.647.699.03.659.008,1.32.008,1.981q0,1.559,1.588,1.557Z"></path>
    <path class="uuid-1b518c9d-97ef-4a99-8c4f-b87b878f9043" d="M403.263,210.107c.007,2.837-2.246,5.174-5,5.186-2.764.012-5.035-2.303-5.038-5.135-.003-2.85,2.232-5.174,4.986-5.186,2.757-.013,5.045,2.313,5.052,5.135ZM398.224,214.217c2.098.009,3.906-1.885,3.905-4.092,0-2.152-1.797-4.055-3.843-4.073-2.121-.018-3.912,1.83-3.924,4.051-.013,2.226,1.751,4.105,3.863,4.114Z"></path>
    <path class="uuid-1b518c9d-97ef-4a99-8c4f-b87b878f9043" d="M376.273,210.149c0-1.426.019-2.853-.011-4.279-.01-.486.139-.635.624-.629,1.956.023,3.913.016,5.869.005.398-.002.642.044.63.547-.012.485-.282.479-.621.478-1.56-.004-3.12.017-4.679-.012-.518-.01-.712.148-.682.672.036.632.038,1.269,0,1.901-.033.543.137.741.708.724,1.321-.04,2.643-.011,3.965-.013.372,0,.727-.073.719.53-.008.626-.406.494-.75.496-1.322.007-2.644.023-3.965-.007-.52-.012-.705.156-.677.678.037.711.032,1.427.001,2.139-.022.494.172.629.647.621,1.559-.025,3.119-.005,4.679-.012.371-.002.661-.011.657.519-.004.49-.227.563-.632.561-1.956-.011-3.913-.017-5.869.003-.487.005-.632-.163-.623-.643.028-1.426.01-2.853.01-4.279Z"></path>
    <path class="uuid-1b518c9d-97ef-4a99-8c4f-b87b878f9043" d="M360.194,210.134c0-1.402.017-2.804-.009-4.205-.009-.496.108-.699.654-.69,1.932.031,3.864.016,5.797.009.349-.001.597.014.608.488.012.51-.243.543-.636.539-1.482-.013-2.965.026-4.446-.019-.635-.019-.913.118-.848.812.074.785-.252,1.84.147,2.299.46.529,1.54.14,2.35.171.766.029,1.535.018,2.302.002.373-.008.59.057.588.511-.002.44-.194.531-.578.527-1.376-.013-2.753.012-4.129-.014-.5-.01-.719.111-.679.66.049.684.044,1.376.001,2.061-.034.541.12.735.694.72,1.508-.039,3.017-.017,4.526-.01.317.001.696-.128.708.454.012.548-.264.582-.687.579-1.906-.013-3.812-.024-5.717.006-.547.009-.664-.202-.655-.695.026-1.401.009-2.803.009-4.205Z"></path>
    <path class="uuid-1b518c9d-97ef-4a99-8c4f-b87b878f9043" d="M349.312,205.315c.789-.253,1.231.013,1.557.802.907,2.195,1.897,4.355,2.862,6.526.113.254.168.547.405.741.237-.099.266-.329.347-.512.992-2.245,2.014-4.478,2.944-6.749.328-.802.772-1.05,1.63-.787-.689,1.571-1.372,3.136-2.06,4.699-.67,1.522-1.358,3.036-2.009,4.566-.167.393-.414.492-.798.466-.339-.024-.659.038-.847-.393-1.336-3.075-2.695-6.139-4.043-9.208-.018-.041.006-.101.011-.152Z"></path>
    <path class="uuid-1b518c9d-97ef-4a99-8c4f-b87b878f9043" d="M369.684,209.675c0,1.216.021,2.432-.01,3.647-.013.507.124.696.662.681,1.348-.036,2.698-.005,4.047-.016.381-.003.652.007.646.527-.006.49-.225.557-.633.554-1.746-.014-3.492-.018-5.237.002-.47.005-.65-.129-.646-.628.02-2.854.019-5.709,0-8.564-.003-.475.127-.647.622-.644.491.003.56.226.554.634-.016,1.268-.006,2.537-.006,3.806Z"></path>
    <path class="uuid-6c729251-6bbb-4a3d-98e0-cbd3082d0b59" d="M326.45,204.139c1.079-.162,2.128-.283,3.001.615.644.663,1.531.591,2.38.592-.697.39-1.439.329-2.052-.093-1.012-.698-1.987-1.383-3.329-1.114Z"></path>
    <path class="uuid-6c729251-6bbb-4a3d-98e0-cbd3082d0b59" d="M324.436,205.307c-.489.311-.959.428-1.438,0h1.438Z"></path>
    <path class="uuid-6c729251-6bbb-4a3d-98e0-cbd3082d0b59" d="M321.985,204.598c.093.093.164.19.063.321-.07-.06-.141-.121-.211-.181.049-.047.099-.093.148-.14Z"></path>
  </g>
  <rect class="uuid-f21e03c2-4964-46ef-8e0d-9d3addc539de" x="258.85" y="207.6" width="4.835" height="11.101"></rect>
  <rect class="uuid-f21e03c2-4964-46ef-8e0d-9d3addc539de" x="264.915" y="248.403" width="4.835" height="3.26"></rect>
  <g>
    <polyline class="uuid-8386037d-ca64-45c7-ab48-2be6810a02bb" points="261.105 62.554 261.105 250.033 339.211 250.033"></polyline>
    <polygon class="uuid-4f13da13-569e-48c5-a0f2-21951f935e45" points="338.116 253.773 344.593 250.033 338.116 246.293 338.116 253.773"></polygon>
  </g>
  <g>
    <polyline class="uuid-8386037d-ca64-45c7-ab48-2be6810a02bb" points="267.242 62.554 267.242 203.011 313.273 203.011"></polyline>
    <polygon class="uuid-4f13da13-569e-48c5-a0f2-21951f935e45" points="312.179 206.751 318.655 203.011 312.179 199.272 312.179 206.751"></polygon>
  </g>
  <g>
    <circle class="uuid-85059a8d-dcb5-414e-a1f0-f7f3a972cc02" cx="280.206" cy="189.012" r="8.5"></circle>
    <path class="uuid-2519b8f3-1888-482a-a38f-011668f7973f" d="M277.766,190.389l2.665-2.638c.297-.288.423-.558.423-.855,0-.405-.396-.711-.927-.711-.567,0-1.017.216-1.593.774l-.774-.945c.72-.684,1.54-1.035,2.413-1.035,1.342,0,2.233.729,2.233,1.828,0,.594-.252,1.098-.819,1.647l-1.818,1.755,2.728-.009v1.179h-4.528v-.99Z"></path>
  </g>
  <g>
    <circle class="uuid-85059a8d-dcb5-414e-a1f0-f7f3a972cc02" cx="170.788" cy="308.125" r="8.5"></circle>
    <path class="uuid-2519b8f3-1888-482a-a38f-011668f7973f" d="M171.241,309.097h-3.547v-1.179l3.304-3.727h1.702v3.691h.783v1.215h-.783v1.396h-1.459v-1.396ZM171.241,307.882v-2.088l-1.863,2.088h1.863Z"></path>
  </g>
  <g>
    <circle class="uuid-85059a8d-dcb5-414e-a1f0-f7f3a972cc02" cx="530.245" cy="219.032" r="8.5"></circle>
    <path class="uuid-2519b8f3-1888-482a-a38f-011668f7973f" d="M529.83,216.538l-1.242.513v-1.225l1.756-.729h.873v6.302h-1.387v-4.861Z"></path>
  </g>
  <g>
    <circle class="uuid-85059a8d-dcb5-414e-a1f0-f7f3a972cc02" cx="291.744" cy="392.127" r="8.5"></circle>
    <path class="uuid-2519b8f3-1888-482a-a38f-011668f7973f" d="M289.038,393.748l.828-.963c.531.432.99.612,1.548.612.657,0,1.098-.36,1.098-.91,0-.531-.495-.918-1.161-.918-.342,0-.666.108-1.026.306l-.999-.297.153-3.385h4.123v1.179h-2.899l-.063,1.369c.432-.198.811-.243,1.17-.243,1.278,0,2.125.765,2.125,1.917,0,1.305-1.044,2.179-2.593,2.179-.874,0-1.657-.288-2.305-.846Z"></path>
  </g>
  <g>
    <circle class="uuid-85059a8d-dcb5-414e-a1f0-f7f3a972cc02" cx="393.608" cy="235.85" r="8.5"></circle>
    <path class="uuid-2519b8f3-1888-482a-a38f-011668f7973f" d="M390.825,237.299l.937-.864c.468.504.837.667,1.53.667.685,0,1.135-.306,1.135-.774,0-.405-.324-.657-.829-.657h-.81v-1.143h.666c.513,0,.819-.261.819-.702,0-.45-.423-.774-.99-.774-.612,0-.973.18-1.468.72l-.945-.855c.595-.684,1.521-1.098,2.467-1.098,1.378,0,2.332.747,2.332,1.818,0,.685-.486,1.233-1.197,1.44.828.162,1.359.675,1.359,1.369,0,1.089-1.054,1.873-2.521,1.873-1.008,0-1.926-.378-2.484-1.018Z"></path>
  </g>
</svg>