<svg id="uuid-bc45c17b-e552-4087-a645-75f510874871" data-name="Layer 1" xmlns="http://www.w3.org/2000/svg" width="595.276" height="250.085" viewBox="0 0 595.276 250.085">
  <defs>
    <style>
      .uuid-ab662d7b-fb22-40b6-90dd-3dd1d3795a06 {
        fill: none;
        stroke: #c8c8c8;
        stroke-miterlimit: 10;
      }

      .uuid-947c1b64-500d-49b6-85d0-6bc82c9fbd02, .uuid-0618da55-3c58-48a7-ba27-b5c7c390014f, .uuid-9954eef7-da50-4772-b041-f6e3c810e3f3, .uuid-3ed3cea7-bb2b-49a2-ac74-90af464166d0 {
        stroke-width: 0px;
      }

      .uuid-0618da55-3c58-48a7-ba27-b5c7c390014f {
        fill: #dbe8f5;
      }

      .uuid-9954eef7-da50-4772-b041-f6e3c810e3f3 {
        fill: #fff;
      }

      .uuid-3ed3cea7-bb2b-49a2-ac74-90af464166d0 {
        fill: #e6e6e6;
      }
    </style>
  </defs>
  <rect class="uuid-3ed3cea7-bb2b-49a2-ac74-90af464166d0" x="48.032" y="19.263" width="499.211" height="211.558"></rect>
  <rect class="uuid-9954eef7-da50-4772-b041-f6e3c810e3f3" x="72.756" y="48.95" width="203.345" height="162.407"></rect>
  <polyline class="uuid-ab662d7b-fb22-40b6-90dd-3dd1d3795a06" points="76.946 44.242 280.29 44.242 280.29 205.599"></polyline>
  <polyline class="uuid-ab662d7b-fb22-40b6-90dd-3dd1d3795a06" points="80.833 40.242 284.178 40.242 284.178 201.599"></polyline>
  <polyline class="uuid-ab662d7b-fb22-40b6-90dd-3dd1d3795a06" points="323.633 44.242 526.977 44.242 526.977 205.599"></polyline>
  <polyline class="uuid-ab662d7b-fb22-40b6-90dd-3dd1d3795a06" points="327.52 40.242 530.865 40.242 530.865 201.599"></polyline>
  <rect class="uuid-9954eef7-da50-4772-b041-f6e3c810e3f3" x="319.175" y="48.95" width="203.345" height="162.407"></rect>
  <rect class="uuid-0618da55-3c58-48a7-ba27-b5c7c390014f" x="85.538" y="154.942" width="177.781" height="42.918"></rect>
  <rect class="uuid-0618da55-3c58-48a7-ba27-b5c7c390014f" x="331.957" y="154.942" width="177.781" height="42.918"></rect>
  <rect class="uuid-0618da55-3c58-48a7-ba27-b5c7c390014f" x="85.538" y="100.048" width="177.781" height="42.918"></rect>
  <g>
    <path class="uuid-947c1b64-500d-49b6-85d0-6bc82c9fbd02" d="m85.988,68.414c0-2.029,1.599-3.608,3.647-3.608,1.17,0,2.289.49,2.938,1.359l-1.209,1.05c-.44-.59-1.04-.88-1.729-.88-1.079,0-1.869.89-1.869,2.079,0,1.199.819,2.099,1.929,2.099.79,0,1.41-.479,1.6-1.169h-1.749v-1.449h3.598v.49c0,2.099-1.459,3.638-3.478,3.638-2.069,0-3.678-1.579-3.678-3.608Z"></path>
    <path class="uuid-947c1b64-500d-49b6-85d0-6bc82c9fbd02" d="m94.376,64.916h3.418c1.489,0,2.469.969,2.469,2.309,0,1.27-.979,2.249-2.469,2.249h-1.698v2.438h-1.72v-6.996Zm3.108,3.188c.7,0,1.04-.379,1.04-.889,0-.5-.34-.88-1.03-.88h-1.398v1.769h1.389Z"></path>
    <path class="uuid-947c1b64-500d-49b6-85d0-6bc82c9fbd02" d="m101.337,68.874v-3.958h1.719v3.958c0,.97.54,1.6,1.38,1.6s1.379-.63,1.379-1.6v-3.958h1.719v3.958c0,1.919-1.209,3.139-3.098,3.139s-3.099-1.22-3.099-3.139Z"></path>
    <path class="uuid-947c1b64-500d-49b6-85d0-6bc82c9fbd02" d="m110.958,66.755h1.619v.839c.399-.6.959-.919,1.629-.919.999,0,1.709.73,1.709,1.759v3.478h-1.619v-3.008c0-.58-.34-.959-.859-.959-.35,0-.63.14-.859.43v3.538h-1.619v-5.157Z"></path>
    <path class="uuid-947c1b64-500d-49b6-85d0-6bc82c9fbd02" d="m116.907,69.344c0-1.52,1.16-2.669,2.688-2.669s2.688,1.149,2.688,2.669-1.159,2.668-2.688,2.668-2.688-1.149-2.688-2.668Zm3.798,0c0-.77-.459-1.319-1.109-1.319s-1.109.549-1.109,1.319.46,1.319,1.109,1.319,1.109-.549,1.109-1.319Z"></path>
    <path class="uuid-947c1b64-500d-49b6-85d0-6bc82c9fbd02" d="m123.086,69.324c0-1.449,1.06-2.599,2.399-2.599.539,0,1.029.22,1.379.62v-2.549l1.619-.25v7.366h-1.6v-.669c-.34.43-.909.699-1.519.699-1.27,0-2.279-1.169-2.279-2.618Zm3.778.869v-1.739c-.25-.26-.59-.4-.96-.4-.709,0-1.229.54-1.229,1.279,0,.729.529,1.27,1.229,1.27.391,0,.71-.14.96-.41Z"></path>
    <path class="uuid-947c1b64-500d-49b6-85d0-6bc82c9fbd02" d="m129.516,69.344c0-1.509,1.12-2.669,2.599-2.669,1.489,0,2.539,1.129,2.539,2.729v.35h-3.548c.149.58.619.969,1.209.969.43,0,.79-.15,1.02-.43l1.069.89c-.67.589-1.299.83-2.169.83-1.519,0-2.719-1.169-2.719-2.668Zm3.639-.51c-.141-.55-.53-.9-1.05-.9-.51,0-.869.33-.999.9h2.049Z"></path>
    <path class="uuid-947c1b64-500d-49b6-85d0-6bc82c9fbd02" d="m137.817,66.755h1.599v.72c.34-.46.91-.75,1.529-.75,1.27,0,2.279,1.169,2.279,2.619s-1.06,2.598-2.399,2.598c-.56,0-1.049-.209-1.389-.6v2.659h-1.619v-7.246Zm3.817,2.579c0-.729-.529-1.269-1.229-1.269-.399,0-.709.14-.969.419v1.719c.25.26.59.41.969.41.71,0,1.229-.54,1.229-1.279Z"></path>
    <path class="uuid-947c1b64-500d-49b6-85d0-6bc82c9fbd02" d="m144.027,69.344c0-1.52,1.16-2.669,2.688-2.669s2.688,1.149,2.688,2.669-1.159,2.668-2.688,2.668-2.688-1.149-2.688-2.668Zm3.798,0c0-.77-.459-1.319-1.109-1.319s-1.109.549-1.109,1.319.46,1.319,1.109,1.319,1.109-.549,1.109-1.319Z"></path>
    <path class="uuid-947c1b64-500d-49b6-85d0-6bc82c9fbd02" d="m150.207,69.344c0-1.52,1.16-2.669,2.688-2.669s2.688,1.149,2.688,2.669-1.159,2.668-2.688,2.668-2.688-1.149-2.688-2.668Zm3.798,0c0-.77-.459-1.319-1.109-1.319s-1.109.549-1.109,1.319.46,1.319,1.109,1.319,1.109-.549,1.109-1.319Z"></path>
    <path class="uuid-947c1b64-500d-49b6-85d0-6bc82c9fbd02" d="m156.617,64.796l1.619-.25v7.366h-1.619v-7.116Z"></path>
    <path class="uuid-947c1b64-500d-49b6-85d0-6bc82c9fbd02" d="m86.227,81.463c0-2.049.85-3.698,2.429-4.667l.59.729c-1.289.83-1.999,2.219-1.999,3.938,0,1.729.71,3.118,1.999,3.948l-.59.72c-1.579-.969-2.429-2.619-2.429-4.667Z"></path>
    <path class="uuid-947c1b64-500d-49b6-85d0-6bc82c9fbd02" d="m90.376,76.746l1.13-.2v7.366h-1.13v-7.166Z"></path>
    <path class="uuid-947c1b64-500d-49b6-85d0-6bc82c9fbd02" d="m92.637,82.473c0-.9.74-1.469,1.919-1.469.47,0,.91.1,1.35.32v-.56c0-.66-.38-1-1.149-1-.42,0-.88.12-1.459.39l-.4-.82c.75-.34,1.409-.51,2.079-.51,1.31,0,2.049.66,2.049,1.819v3.268h-1.119v-.52c-.43.419-.909.609-1.489.609-1.05,0-1.779-.629-1.779-1.529Zm2.089.729c.45,0,.84-.13,1.18-.42v-.81c-.359-.17-.72-.24-1.149-.24-.649,0-1.06.27-1.06.72,0,.459.4.75,1.029.75Z"></path>
    <path class="uuid-947c1b64-500d-49b6-85d0-6bc82c9fbd02" d="m98.397,76.776l1.13-.19v2.989c.35-.44.909-.71,1.539-.71,1.27,0,2.259,1.129,2.259,2.549,0,1.429-1.02,2.548-2.329,2.548-.589,0-1.109-.24-1.489-.689v.64h-1.109v-7.136Zm3.818,4.638c0-.91-.64-1.599-1.489-1.599-.5,0-.909.2-1.199.56v2.089c.29.35.72.56,1.199.56.859,0,1.489-.689,1.489-1.609Z"></path>
    <path class="uuid-947c1b64-500d-49b6-85d0-6bc82c9fbd02" d="m104.277,81.414c0-1.469,1.06-2.589,2.438-2.589,1.369,0,2.369,1.09,2.369,2.589v.27h-3.698c.11.81.72,1.399,1.499,1.399.47,0,.91-.18,1.189-.47l.739.669c-.609.51-1.219.73-1.979.73-1.439,0-2.559-1.129-2.559-2.599Zm3.738-.43c-.12-.73-.64-1.239-1.31-1.239-.68,0-1.18.489-1.31,1.239h2.619Z"></path>
    <path class="uuid-947c1b64-500d-49b6-85d0-6bc82c9fbd02" d="m110.237,76.746l1.13-.2v7.366h-1.13v-7.166Z"></path>
    <path class="uuid-947c1b64-500d-49b6-85d0-6bc82c9fbd02" d="m112.607,79.535c0-.4.31-.73.699-.73s.7.33.7.73-.311.719-.7.719-.699-.32-.699-.719Zm0,3.748c0-.399.31-.729.699-.729s.7.33.7.729-.311.72-.7.72-.699-.32-.699-.72Z"></path>
    <path class="uuid-947c1b64-500d-49b6-85d0-6bc82c9fbd02" d="m117.506,78.905h1.13v.82c.38-.59.93-.9,1.579-.9,1.029,0,1.749.73,1.749,1.789v3.298h-1.14v-2.979c0-.729-.43-1.199-1.1-1.199-.459,0-.829.21-1.089.61v3.568h-1.13v-5.007Z"></path>
    <path class="uuid-947c1b64-500d-49b6-85d0-6bc82c9fbd02" d="m123.097,81.414c0-1.479,1.079-2.589,2.519-2.589,1.43,0,2.509,1.109,2.509,2.589s-1.079,2.588-2.509,2.588c-1.439,0-2.519-1.109-2.519-2.588Zm3.918,0c0-.93-.59-1.629-1.399-1.629-.819,0-1.409.7-1.409,1.629,0,.939.59,1.629,1.409,1.629.81,0,1.399-.689,1.399-1.629Z"></path>
    <path class="uuid-947c1b64-500d-49b6-85d0-6bc82c9fbd02" d="m129.067,81.414c0-1.429,1.029-2.549,2.339-2.549.569,0,1.089.23,1.459.65v-2.769l1.13-.2v7.366h-1.12v-.66c-.359.45-.919.709-1.549.709-1.27,0-2.259-1.129-2.259-2.548Zm3.798,1.049v-2.109c-.29-.34-.72-.54-1.189-.54-.859,0-1.499.68-1.499,1.599,0,.909.64,1.599,1.499,1.599.49,0,.899-.19,1.189-.55Z"></path>
    <path class="uuid-947c1b64-500d-49b6-85d0-6bc82c9fbd02" d="m135.167,81.414c0-1.469,1.06-2.589,2.438-2.589,1.369,0,2.369,1.09,2.369,2.589v.27h-3.698c.11.81.72,1.399,1.499,1.399.47,0,.91-.18,1.189-.47l.739.669c-.609.51-1.219.73-1.979.73-1.439,0-2.559-1.129-2.559-2.599Zm3.738-.43c-.12-.73-.64-1.239-1.31-1.239-.68,0-1.18.489-1.31,1.239h2.619Z"></path>
    <path class="uuid-947c1b64-500d-49b6-85d0-6bc82c9fbd02" d="m141.036,80.594h3.488v.959h-3.488v-.959Z"></path>
    <path class="uuid-947c1b64-500d-49b6-85d0-6bc82c9fbd02" d="m145.795,78.905h1.109v.709c.36-.47.92-.75,1.56-.75,1.27,0,2.259,1.129,2.259,2.549,0,1.429-1.02,2.548-2.329,2.548-.589,0-1.109-.22-1.469-.64v2.679h-1.13v-7.096Zm3.818,2.509c0-.91-.64-1.599-1.489-1.599-.5,0-.909.2-1.199.56v2.089c.29.35.72.56,1.199.56.859,0,1.489-.689,1.489-1.609Z"></path>
    <path class="uuid-947c1b64-500d-49b6-85d0-6bc82c9fbd02" d="m151.676,81.414c0-1.479,1.079-2.589,2.519-2.589,1.43,0,2.509,1.109,2.509,2.589s-1.079,2.588-2.509,2.588c-1.439,0-2.519-1.109-2.519-2.588Zm3.918,0c0-.93-.59-1.629-1.399-1.629-.819,0-1.409.7-1.409,1.629,0,.939.59,1.629,1.409,1.629.81,0,1.399-.689,1.399-1.629Z"></path>
    <path class="uuid-947c1b64-500d-49b6-85d0-6bc82c9fbd02" d="m157.646,81.414c0-1.479,1.079-2.589,2.519-2.589,1.43,0,2.509,1.109,2.509,2.589s-1.079,2.588-2.509,2.588c-1.439,0-2.519-1.109-2.519-2.588Zm3.918,0c0-.93-.59-1.629-1.399-1.629-.819,0-1.409.7-1.409,1.629,0,.939.59,1.629,1.409,1.629.81,0,1.399-.689,1.399-1.629Z"></path>
    <path class="uuid-947c1b64-500d-49b6-85d0-6bc82c9fbd02" d="m163.845,76.746l1.13-.2v7.366h-1.13v-7.166Z"></path>
    <path class="uuid-947c1b64-500d-49b6-85d0-6bc82c9fbd02" d="m166.566,79.035h4.198v.87h-4.198v-.87Zm0,1.799h4.198v.869h-4.198v-.869Z"></path>
    <path class="uuid-947c1b64-500d-49b6-85d0-6bc82c9fbd02" d="m172.695,85.611l.39-.83c.59.29,1.069.419,1.569.419.84,0,1.279-.379,1.279-1.109v-.849c-.359.439-.909.699-1.539.699-1.27,0-2.259-1.129-2.259-2.548s1.029-2.529,2.339-2.529c.579,0,1.1.23,1.469.67v-.63h1.12v5.187c0,1.29-.84,2.009-2.359,2.009-.72,0-1.419-.18-2.009-.49Zm3.238-3.158v-2.099c-.29-.34-.72-.54-1.189-.54-.859,0-1.499.669-1.499,1.589,0,.91.64,1.599,1.499,1.599.49,0,.899-.2,1.189-.549Z"></path>
    <path class="uuid-947c1b64-500d-49b6-85d0-6bc82c9fbd02" d="m178.456,78.905h1.109v.709c.36-.47.92-.75,1.56-.75,1.27,0,2.259,1.129,2.259,2.549,0,1.429-1.02,2.548-2.329,2.548-.589,0-1.109-.22-1.469-.64v2.679h-1.13v-7.096Zm3.818,2.509c0-.91-.64-1.599-1.489-1.599-.5,0-.909.2-1.199.56v2.089c.29.35.72.56,1.199.56.859,0,1.489-.689,1.489-1.609Z"></path>
    <path class="uuid-947c1b64-500d-49b6-85d0-6bc82c9fbd02" d="m184.525,82.203v-3.298h1.14v2.968c0,.74.43,1.209,1.1,1.209.45,0,.829-.2,1.09-.6v-3.578h1.129v5.007h-1.129v-.81c-.38.59-.92.89-1.59.89-1.02,0-1.739-.74-1.739-1.789Z"></path>
    <path class="uuid-947c1b64-500d-49b6-85d0-6bc82c9fbd02" d="m193.134,81.474c0,2.049-.85,3.698-2.429,4.667l-.59-.73c1.289-.83,1.999-2.219,1.999-3.938,0-1.729-.71-3.119-1.999-3.948l.59-.719c1.579.969,2.429,2.619,2.429,4.667Z"></path>
  </g>
  <g>
    <path class="uuid-947c1b64-500d-49b6-85d0-6bc82c9fbd02" d="m157.369,113.119h1.619v.82c.38-.59.899-.9,1.529-.9.669,0,1.199.37,1.449.959.399-.62.979-.959,1.688-.959.949,0,1.619.75,1.619,1.809v3.428h-1.619v-3.108c0-.52-.31-.859-.77-.859-.3,0-.54.12-.749.39v3.578h-1.619v-3.108c0-.52-.311-.859-.77-.859-.3,0-.55.13-.76.4v3.568h-1.619v-5.157Z"></path>
    <path class="uuid-947c1b64-500d-49b6-85d0-6bc82c9fbd02" d="m166.499,111.16l1.619-.25v7.366h-1.619v-7.116Z"></path>
    <path class="uuid-947c1b64-500d-49b6-85d0-6bc82c9fbd02" d="m169.258,114.738h3.678v1.349h-3.678v-1.349Z"></path>
    <path class="uuid-947c1b64-500d-49b6-85d0-6bc82c9fbd02" d="m173.838,116.797c0-.95.739-1.5,2.009-1.5.37,0,.74.07,1.199.24v-.42c0-.5-.329-.75-1.02-.75-.39,0-.849.11-1.449.36l-.56-1.129c.85-.38,1.609-.56,2.369-.56,1.429,0,2.259.71,2.259,1.939v3.298h-1.6v-.45c-.449.38-.879.53-1.429.53-1.05,0-1.779-.64-1.779-1.559Zm2.279.49c.34,0,.649-.09.929-.26v-.66c-.3-.07-.589-.11-.889-.11-.53,0-.83.18-.83.51s.29.52.79.52Z"></path>
    <path class="uuid-947c1b64-500d-49b6-85d0-6bc82c9fbd02" d="m179.869,113.119h1.599v.72c.34-.46.91-.75,1.529-.75,1.27,0,2.279,1.169,2.279,2.619s-1.06,2.598-2.399,2.598c-.56,0-1.049-.209-1.389-.6v2.659h-1.619v-7.246Zm3.817,2.579c0-.729-.529-1.269-1.229-1.269-.399,0-.709.14-.969.419v1.719c.25.26.59.41.969.41.71,0,1.229-.54,1.229-1.279Z"></path>
    <path class="uuid-947c1b64-500d-49b6-85d0-6bc82c9fbd02" d="m186.308,113.119h1.599v.72c.34-.46.91-.75,1.529-.75,1.27,0,2.279,1.169,2.279,2.619s-1.06,2.598-2.399,2.598c-.56,0-1.049-.209-1.389-.6v2.659h-1.619v-7.246Zm3.817,2.579c0-.729-.529-1.269-1.229-1.269-.399,0-.709.14-.969.419v1.719c.25.26.59.41.969.41.71,0,1.229-.54,1.229-1.279Z"></path>
    <path class="uuid-947c1b64-500d-49b6-85d0-6bc82c9fbd02" d="m115.95,129.257l.649-.879c.899.74,1.549,1.02,2.358,1.02.92,0,1.56-.47,1.56-1.12,0-.569-.34-.839-1.27-1l-1.289-.22c-1.21-.22-1.799-.819-1.799-1.779,0-1.27,1.009-2.109,2.578-2.109,1.05,0,2.009.31,2.809.899l-.609.899c-.7-.53-1.449-.81-2.239-.81-.84,0-1.399.43-1.399,1,0,.51.32.77,1.08.89l1.249.21c1.409.25,2.068.869,2.068,1.929,0,1.29-1.139,2.199-2.808,2.199-1.1,0-2.05-.38-2.938-1.129Z"></path>
    <path class="uuid-947c1b64-500d-49b6-85d0-6bc82c9fbd02" d="m122.649,127.778c0-1.469,1.06-2.589,2.438-2.589,1.369,0,2.369,1.09,2.369,2.589v.27h-3.698c.11.81.72,1.399,1.499,1.399.47,0,.91-.18,1.189-.47l.739.669c-.609.51-1.219.73-1.979.73-1.439,0-2.559-1.129-2.559-2.599Zm3.738-.43c-.12-.73-.64-1.239-1.31-1.239-.68,0-1.18.489-1.31,1.239h2.619Z"></path>
    <path class="uuid-947c1b64-500d-49b6-85d0-6bc82c9fbd02" d="m128.609,123.11l1.13-.2v7.366h-1.13v-7.166Z"></path>
    <path class="uuid-947c1b64-500d-49b6-85d0-6bc82c9fbd02" d="m130.899,127.778c0-1.469,1.06-2.589,2.438-2.589,1.369,0,2.369,1.09,2.369,2.589v.27h-3.698c.11.81.72,1.399,1.499,1.399.47,0,.91-.18,1.189-.47l.739.669c-.609.51-1.219.73-1.979.73-1.439,0-2.559-1.129-2.559-2.599Zm3.738-.43c-.12-.73-.64-1.239-1.31-1.239-.68,0-1.18.489-1.31,1.239h2.619Z"></path>
    <path class="uuid-947c1b64-500d-49b6-85d0-6bc82c9fbd02" d="m136.649,127.778c0-1.449,1.1-2.589,2.528-2.589.78,0,1.499.31,1.999.85l-.699.729c-.35-.39-.78-.589-1.26-.589-.81,0-1.438.7-1.438,1.599,0,.909.629,1.599,1.438,1.599.479,0,.91-.2,1.26-.58l.699.719c-.5.54-1.219.85-1.999.85-1.429,0-2.528-1.129-2.528-2.588Z"></path>
    <path class="uuid-947c1b64-500d-49b6-85d0-6bc82c9fbd02" d="m142.829,128.977v-2.809h-.999v-.899h.999v-1.379l1.129-.24v1.619h1.39v.899h-1.39v2.559c0,.49.19.68.7.68.22,0,.38-.03.68-.12v.949c-.29.09-.67.14-.97.14-1.01,0-1.539-.48-1.539-1.399Z"></path>
    <path class="uuid-947c1b64-500d-49b6-85d0-6bc82c9fbd02" d="m146.039,127.778c0-1.479,1.079-2.589,2.519-2.589,1.43,0,2.509,1.109,2.509,2.589s-1.079,2.588-2.509,2.588c-1.439,0-2.519-1.109-2.519-2.588Zm3.918,0c0-.93-.59-1.629-1.399-1.629-.819,0-1.409.7-1.409,1.629,0,.939.59,1.629,1.409,1.629.81,0,1.399-.689,1.399-1.629Z"></path>
    <path class="uuid-947c1b64-500d-49b6-85d0-6bc82c9fbd02" d="m152.238,125.269h1.13v1.08c.279-.76.76-1.169,1.379-1.169.19.01.32.03.49.1v.989c-.181-.07-.41-.12-.62-.12-.55,0-.999.31-1.249.83v3.298h-1.13v-5.007Z"></path>
    <path class="uuid-947c1b64-500d-49b6-85d0-6bc82c9fbd02" d="m156.069,125.899c0-.4.31-.73.699-.73s.7.33.7.73-.311.719-.7.719-.699-.32-.699-.719Zm0,3.748c0-.399.31-.729.699-.729s.7.33.7.729-.311.72-.7.72-.699-.32-.699-.72Z"></path>
    <path class="uuid-947c1b64-500d-49b6-85d0-6bc82c9fbd02" d="m160.968,125.269h1.13v.82c.38-.59.93-.9,1.579-.9,1.029,0,1.749.73,1.749,1.789v3.298h-1.14v-2.979c0-.729-.43-1.199-1.1-1.199-.459,0-.829.21-1.089.61v3.568h-1.13v-5.007Z"></path>
    <path class="uuid-947c1b64-500d-49b6-85d0-6bc82c9fbd02" d="m166.558,127.778c0-1.479,1.079-2.589,2.519-2.589,1.43,0,2.509,1.109,2.509,2.589s-1.079,2.588-2.509,2.588c-1.439,0-2.519-1.109-2.519-2.588Zm3.918,0c0-.93-.59-1.629-1.399-1.629-.819,0-1.409.7-1.409,1.629,0,.939.59,1.629,1.409,1.629.81,0,1.399-.689,1.399-1.629Z"></path>
    <path class="uuid-947c1b64-500d-49b6-85d0-6bc82c9fbd02" d="m172.528,127.778c0-1.429,1.029-2.549,2.339-2.549.569,0,1.089.23,1.459.65v-2.769l1.13-.2v7.366h-1.12v-.66c-.359.45-.919.709-1.549.709-1.27,0-2.259-1.129-2.259-2.548Zm3.798,1.049v-2.109c-.29-.34-.72-.54-1.189-.54-.859,0-1.499.68-1.499,1.599,0,.909.64,1.599,1.499,1.599.49,0,.899-.19,1.189-.55Z"></path>
    <path class="uuid-947c1b64-500d-49b6-85d0-6bc82c9fbd02" d="m178.627,127.778c0-1.469,1.06-2.589,2.438-2.589,1.369,0,2.369,1.09,2.369,2.589v.27h-3.698c.11.81.72,1.399,1.499,1.399.47,0,.91-.18,1.189-.47l.739.669c-.609.51-1.219.73-1.979.73-1.439,0-2.559-1.129-2.559-2.599Zm3.738-.43c-.12-.73-.64-1.239-1.31-1.239-.68,0-1.18.489-1.31,1.239h2.619Z"></path>
    <path class="uuid-947c1b64-500d-49b6-85d0-6bc82c9fbd02" d="m184.498,126.958h3.488v.959h-3.488v-.959Z"></path>
    <path class="uuid-947c1b64-500d-49b6-85d0-6bc82c9fbd02" d="m189.257,125.269h1.109v.709c.36-.47.92-.75,1.56-.75,1.27,0,2.259,1.129,2.259,2.549,0,1.429-1.02,2.548-2.329,2.548-.589,0-1.109-.22-1.469-.64v2.679h-1.13v-7.096Zm3.818,2.509c0-.91-.64-1.599-1.489-1.599-.5,0-.909.2-1.199.56v2.089c.29.35.72.56,1.199.56.859,0,1.489-.689,1.489-1.609Z"></path>
    <path class="uuid-947c1b64-500d-49b6-85d0-6bc82c9fbd02" d="m195.137,127.778c0-1.479,1.079-2.589,2.519-2.589,1.43,0,2.509,1.109,2.509,2.589s-1.079,2.588-2.509,2.588c-1.439,0-2.519-1.109-2.519-2.588Zm3.918,0c0-.93-.59-1.629-1.399-1.629-.819,0-1.409.7-1.409,1.629,0,.939.59,1.629,1.409,1.629.81,0,1.399-.689,1.399-1.629Z"></path>
    <path class="uuid-947c1b64-500d-49b6-85d0-6bc82c9fbd02" d="m201.108,127.778c0-1.479,1.079-2.589,2.519-2.589,1.43,0,2.509,1.109,2.509,2.589s-1.079,2.588-2.509,2.588c-1.439,0-2.519-1.109-2.519-2.588Zm3.918,0c0-.93-.59-1.629-1.399-1.629-.819,0-1.409.7-1.409,1.629,0,.939.59,1.629,1.409,1.629.81,0,1.399-.689,1.399-1.629Z"></path>
    <path class="uuid-947c1b64-500d-49b6-85d0-6bc82c9fbd02" d="m207.307,123.11l1.13-.2v7.366h-1.13v-7.166Z"></path>
    <path class="uuid-947c1b64-500d-49b6-85d0-6bc82c9fbd02" d="m210.027,125.399h4.198v.87h-4.198v-.87Zm0,1.799h4.198v.869h-4.198v-.869Z"></path>
    <path class="uuid-947c1b64-500d-49b6-85d0-6bc82c9fbd02" d="m216.157,131.976l.39-.83c.59.29,1.069.419,1.569.419.84,0,1.279-.379,1.279-1.109v-.849c-.359.439-.909.699-1.539.699-1.27,0-2.259-1.129-2.259-2.548s1.029-2.529,2.339-2.529c.579,0,1.1.23,1.469.67v-.63h1.12v5.187c0,1.29-.84,2.009-2.359,2.009-.72,0-1.419-.18-2.009-.49Zm3.238-3.158v-2.099c-.29-.34-.72-.54-1.189-.54-.859,0-1.499.669-1.499,1.589,0,.91.64,1.599,1.499,1.599.49,0,.899-.2,1.189-.549Z"></path>
    <path class="uuid-947c1b64-500d-49b6-85d0-6bc82c9fbd02" d="m221.917,125.269h1.109v.709c.36-.47.92-.75,1.56-.75,1.27,0,2.259,1.129,2.259,2.549,0,1.429-1.02,2.548-2.329,2.548-.589,0-1.109-.22-1.469-.64v2.679h-1.13v-7.096Zm3.818,2.509c0-.91-.64-1.599-1.489-1.599-.5,0-.909.2-1.199.56v2.089c.29.35.72.56,1.199.56.859,0,1.489-.689,1.489-1.609Z"></path>
    <path class="uuid-947c1b64-500d-49b6-85d0-6bc82c9fbd02" d="m227.987,128.567v-3.298h1.14v2.968c0,.74.43,1.209,1.1,1.209.45,0,.829-.2,1.09-.6v-3.578h1.129v5.007h-1.129v-.81c-.38.59-.92.89-1.59.89-1.02,0-1.739-.74-1.739-1.789Z"></path>
  </g>
  <g>
    <path class="uuid-947c1b64-500d-49b6-85d0-6bc82c9fbd02" d="m157.369,168.014h1.619v.82c.38-.59.899-.9,1.529-.9.669,0,1.199.37,1.449.959.399-.62.979-.959,1.688-.959.949,0,1.619.75,1.619,1.809v3.428h-1.619v-3.108c0-.52-.31-.859-.77-.859-.3,0-.54.12-.749.39v3.578h-1.619v-3.108c0-.52-.311-.859-.77-.859-.3,0-.55.13-.76.4v3.568h-1.619v-5.157Z"></path>
    <path class="uuid-947c1b64-500d-49b6-85d0-6bc82c9fbd02" d="m166.499,166.055l1.619-.25v7.366h-1.619v-7.116Z"></path>
    <path class="uuid-947c1b64-500d-49b6-85d0-6bc82c9fbd02" d="m169.258,169.633h3.678v1.349h-3.678v-1.349Z"></path>
    <path class="uuid-947c1b64-500d-49b6-85d0-6bc82c9fbd02" d="m173.838,171.692c0-.95.739-1.5,2.009-1.5.37,0,.74.07,1.199.24v-.42c0-.5-.329-.75-1.02-.75-.39,0-.849.11-1.449.36l-.56-1.129c.85-.38,1.609-.56,2.369-.56,1.429,0,2.259.71,2.259,1.939v3.298h-1.6v-.45c-.449.38-.879.53-1.429.53-1.05,0-1.779-.64-1.779-1.559Zm2.279.49c.34,0,.649-.09.929-.26v-.66c-.3-.07-.589-.11-.889-.11-.53,0-.83.18-.83.51s.29.52.79.52Z"></path>
    <path class="uuid-947c1b64-500d-49b6-85d0-6bc82c9fbd02" d="m179.869,168.014h1.599v.72c.34-.46.91-.75,1.529-.75,1.27,0,2.279,1.169,2.279,2.619s-1.06,2.598-2.399,2.598c-.56,0-1.049-.209-1.389-.6v2.659h-1.619v-7.246Zm3.817,2.579c0-.729-.529-1.269-1.229-1.269-.399,0-.709.14-.969.419v1.719c.25.26.59.41.969.41.71,0,1.229-.54,1.229-1.279Z"></path>
    <path class="uuid-947c1b64-500d-49b6-85d0-6bc82c9fbd02" d="m186.308,168.014h1.599v.72c.34-.46.91-.75,1.529-.75,1.27,0,2.279,1.169,2.279,2.619s-1.06,2.598-2.399,2.598c-.56,0-1.049-.209-1.389-.6v2.659h-1.619v-7.246Zm3.817,2.579c0-.729-.529-1.269-1.229-1.269-.399,0-.709.14-.969.419v1.719c.25.26.59.41.969.41.71,0,1.229-.54,1.229-1.279Z"></path>
    <path class="uuid-947c1b64-500d-49b6-85d0-6bc82c9fbd02" d="m115.95,184.151l.649-.879c.899.74,1.549,1.02,2.358,1.02.92,0,1.56-.47,1.56-1.12,0-.569-.34-.839-1.27-1l-1.289-.22c-1.21-.22-1.799-.819-1.799-1.779,0-1.27,1.009-2.109,2.578-2.109,1.05,0,2.009.31,2.809.899l-.609.899c-.7-.53-1.449-.81-2.239-.81-.84,0-1.399.43-1.399,1,0,.51.32.77,1.08.89l1.249.21c1.409.25,2.068.869,2.068,1.929,0,1.29-1.139,2.199-2.808,2.199-1.1,0-2.05-.38-2.938-1.129Z"></path>
    <path class="uuid-947c1b64-500d-49b6-85d0-6bc82c9fbd02" d="m122.649,182.672c0-1.469,1.06-2.589,2.438-2.589,1.369,0,2.369,1.09,2.369,2.589v.27h-3.698c.11.81.72,1.399,1.499,1.399.47,0,.91-.18,1.189-.47l.739.669c-.609.51-1.219.73-1.979.73-1.439,0-2.559-1.129-2.559-2.599Zm3.738-.43c-.12-.73-.64-1.239-1.31-1.239-.68,0-1.18.489-1.31,1.239h2.619Z"></path>
    <path class="uuid-947c1b64-500d-49b6-85d0-6bc82c9fbd02" d="m128.609,178.005l1.13-.2v7.366h-1.13v-7.166Z"></path>
    <path class="uuid-947c1b64-500d-49b6-85d0-6bc82c9fbd02" d="m130.899,182.672c0-1.469,1.06-2.589,2.438-2.589,1.369,0,2.369,1.09,2.369,2.589v.27h-3.698c.11.81.72,1.399,1.499,1.399.47,0,.91-.18,1.189-.47l.739.669c-.609.51-1.219.73-1.979.73-1.439,0-2.559-1.129-2.559-2.599Zm3.738-.43c-.12-.73-.64-1.239-1.31-1.239-.68,0-1.18.489-1.31,1.239h2.619Z"></path>
    <path class="uuid-947c1b64-500d-49b6-85d0-6bc82c9fbd02" d="m136.649,182.672c0-1.449,1.1-2.589,2.528-2.589.78,0,1.499.31,1.999.85l-.699.729c-.35-.39-.78-.589-1.26-.589-.81,0-1.438.7-1.438,1.599,0,.909.629,1.599,1.438,1.599.479,0,.91-.2,1.26-.58l.699.719c-.5.54-1.219.85-1.999.85-1.429,0-2.528-1.129-2.528-2.588Z"></path>
    <path class="uuid-947c1b64-500d-49b6-85d0-6bc82c9fbd02" d="m142.829,183.872v-2.809h-.999v-.899h.999v-1.379l1.129-.24v1.619h1.39v.899h-1.39v2.559c0,.49.19.68.7.68.22,0,.38-.03.68-.12v.949c-.29.09-.67.14-.97.14-1.01,0-1.539-.48-1.539-1.399Z"></path>
    <path class="uuid-947c1b64-500d-49b6-85d0-6bc82c9fbd02" d="m146.039,182.672c0-1.479,1.079-2.589,2.519-2.589,1.43,0,2.509,1.109,2.509,2.589s-1.079,2.588-2.509,2.588c-1.439,0-2.519-1.109-2.519-2.588Zm3.918,0c0-.93-.59-1.629-1.399-1.629-.819,0-1.409.7-1.409,1.629,0,.939.59,1.629,1.409,1.629.81,0,1.399-.689,1.399-1.629Z"></path>
    <path class="uuid-947c1b64-500d-49b6-85d0-6bc82c9fbd02" d="m152.238,180.164h1.13v1.08c.279-.76.76-1.169,1.379-1.169.19.01.32.03.49.1v.989c-.181-.07-.41-.12-.62-.12-.55,0-.999.31-1.249.83v3.298h-1.13v-5.007Z"></path>
    <path class="uuid-947c1b64-500d-49b6-85d0-6bc82c9fbd02" d="m156.069,180.793c0-.4.31-.73.699-.73s.7.33.7.73-.311.719-.7.719-.699-.32-.699-.719Zm0,3.748c0-.399.31-.729.699-.729s.7.33.7.729-.311.72-.7.72-.699-.32-.699-.72Z"></path>
    <path class="uuid-947c1b64-500d-49b6-85d0-6bc82c9fbd02" d="m160.968,180.164h1.13v.82c.38-.59.93-.9,1.579-.9,1.029,0,1.749.73,1.749,1.789v3.298h-1.14v-2.979c0-.729-.43-1.199-1.1-1.199-.459,0-.829.21-1.089.61v3.568h-1.13v-5.007Z"></path>
    <path class="uuid-947c1b64-500d-49b6-85d0-6bc82c9fbd02" d="m166.558,182.672c0-1.479,1.079-2.589,2.519-2.589,1.43,0,2.509,1.109,2.509,2.589s-1.079,2.588-2.509,2.588c-1.439,0-2.519-1.109-2.519-2.588Zm3.918,0c0-.93-.59-1.629-1.399-1.629-.819,0-1.409.7-1.409,1.629,0,.939.59,1.629,1.409,1.629.81,0,1.399-.689,1.399-1.629Z"></path>
    <path class="uuid-947c1b64-500d-49b6-85d0-6bc82c9fbd02" d="m172.528,182.672c0-1.429,1.029-2.549,2.339-2.549.569,0,1.089.23,1.459.65v-2.769l1.13-.2v7.366h-1.12v-.66c-.359.45-.919.709-1.549.709-1.27,0-2.259-1.129-2.259-2.548Zm3.798,1.049v-2.109c-.29-.34-.72-.54-1.189-.54-.859,0-1.499.68-1.499,1.599,0,.909.64,1.599,1.499,1.599.49,0,.899-.19,1.189-.55Z"></path>
    <path class="uuid-947c1b64-500d-49b6-85d0-6bc82c9fbd02" d="m178.627,182.672c0-1.469,1.06-2.589,2.438-2.589,1.369,0,2.369,1.09,2.369,2.589v.27h-3.698c.11.81.72,1.399,1.499,1.399.47,0,.91-.18,1.189-.47l.739.669c-.609.51-1.219.73-1.979.73-1.439,0-2.559-1.129-2.559-2.599Zm3.738-.43c-.12-.73-.64-1.239-1.31-1.239-.68,0-1.18.489-1.31,1.239h2.619Z"></path>
    <path class="uuid-947c1b64-500d-49b6-85d0-6bc82c9fbd02" d="m184.498,181.853h3.488v.959h-3.488v-.959Z"></path>
    <path class="uuid-947c1b64-500d-49b6-85d0-6bc82c9fbd02" d="m189.257,180.164h1.109v.709c.36-.47.92-.75,1.56-.75,1.27,0,2.259,1.129,2.259,2.549,0,1.429-1.02,2.548-2.329,2.548-.589,0-1.109-.22-1.469-.64v2.679h-1.13v-7.096Zm3.818,2.509c0-.91-.64-1.599-1.489-1.599-.5,0-.909.2-1.199.56v2.089c.29.35.72.56,1.199.56.859,0,1.489-.689,1.489-1.609Z"></path>
    <path class="uuid-947c1b64-500d-49b6-85d0-6bc82c9fbd02" d="m195.137,182.672c0-1.479,1.079-2.589,2.519-2.589,1.43,0,2.509,1.109,2.509,2.589s-1.079,2.588-2.509,2.588c-1.439,0-2.519-1.109-2.519-2.588Zm3.918,0c0-.93-.59-1.629-1.399-1.629-.819,0-1.409.7-1.409,1.629,0,.939.59,1.629,1.409,1.629.81,0,1.399-.689,1.399-1.629Z"></path>
    <path class="uuid-947c1b64-500d-49b6-85d0-6bc82c9fbd02" d="m201.108,182.672c0-1.479,1.079-2.589,2.519-2.589,1.43,0,2.509,1.109,2.509,2.589s-1.079,2.588-2.509,2.588c-1.439,0-2.519-1.109-2.519-2.588Zm3.918,0c0-.93-.59-1.629-1.399-1.629-.819,0-1.409.7-1.409,1.629,0,.939.59,1.629,1.409,1.629.81,0,1.399-.689,1.399-1.629Z"></path>
    <path class="uuid-947c1b64-500d-49b6-85d0-6bc82c9fbd02" d="m207.307,178.005l1.13-.2v7.366h-1.13v-7.166Z"></path>
    <path class="uuid-947c1b64-500d-49b6-85d0-6bc82c9fbd02" d="m210.027,180.293h4.198v.87h-4.198v-.87Zm0,1.799h4.198v.869h-4.198v-.869Z"></path>
    <path class="uuid-947c1b64-500d-49b6-85d0-6bc82c9fbd02" d="m216.157,186.87l.39-.83c.59.29,1.069.419,1.569.419.84,0,1.279-.379,1.279-1.109v-.849c-.359.439-.909.699-1.539.699-1.27,0-2.259-1.129-2.259-2.548s1.029-2.529,2.339-2.529c.579,0,1.1.23,1.469.67v-.63h1.12v5.187c0,1.29-.84,2.009-2.359,2.009-.72,0-1.419-.18-2.009-.49Zm3.238-3.158v-2.099c-.29-.34-.72-.54-1.189-.54-.859,0-1.499.669-1.499,1.589,0,.91.64,1.599,1.499,1.599.49,0,.899-.2,1.189-.549Z"></path>
    <path class="uuid-947c1b64-500d-49b6-85d0-6bc82c9fbd02" d="m221.917,180.164h1.109v.709c.36-.47.92-.75,1.56-.75,1.27,0,2.259,1.129,2.259,2.549,0,1.429-1.02,2.548-2.329,2.548-.589,0-1.109-.22-1.469-.64v2.679h-1.13v-7.096Zm3.818,2.509c0-.91-.64-1.599-1.489-1.599-.5,0-.909.2-1.199.56v2.089c.29.35.72.56,1.199.56.859,0,1.489-.689,1.489-1.609Z"></path>
    <path class="uuid-947c1b64-500d-49b6-85d0-6bc82c9fbd02" d="m227.987,183.462v-3.298h1.14v2.968c0,.74.43,1.209,1.1,1.209.45,0,.829-.2,1.09-.6v-3.578h1.129v5.007h-1.129v-.81c-.38.59-.92.89-1.59.89-1.02,0-1.739-.74-1.739-1.789Z"></path>
  </g>
  <rect class="uuid-0618da55-3c58-48a7-ba27-b5c7c390014f" x="331.957" y="100.048" width="177.781" height="42.918"></rect>
  <g>
    <path class="uuid-947c1b64-500d-49b6-85d0-6bc82c9fbd02" d="m332.146,70.962l.88-1.269c.97.68,1.579.93,2.269.93.74,0,1.189-.3,1.189-.74,0-.41-.239-.61-.919-.729l-1.489-.26c-1.109-.189-1.72-.889-1.72-1.879,0-1.359,1.04-2.208,2.779-2.208,1.079,0,2.148.35,2.868.919l-.87,1.249c-.68-.52-1.349-.77-2.089-.77-.68,0-1.069.28-1.069.66,0,.36.23.54.79.64l1.399.24c1.309.22,1.999.909,1.999,1.979,0,1.37-1.16,2.299-2.989,2.299-1.109,0-2.099-.37-3.028-1.06Z"></path>
    <path class="uuid-947c1b64-500d-49b6-85d0-6bc82c9fbd02" d="m339.667,70.353v-2.349h-1v-1.25h1v-1.429l1.619-.33v1.759h1.379v1.25h-1.379v2.029c0,.459.18.62.68.62.189,0,.34-.02.659-.11v1.309c-.3.09-.779.16-1.109.16-1.22,0-1.849-.56-1.849-1.659Z"></path>
    <path class="uuid-947c1b64-500d-49b6-85d0-6bc82c9fbd02" d="m343.326,70.433c0-.95.739-1.5,2.009-1.5.37,0,.74.07,1.199.24v-.42c0-.5-.329-.75-1.02-.75-.39,0-.849.11-1.449.36l-.56-1.129c.85-.38,1.609-.56,2.369-.56,1.429,0,2.259.71,2.259,1.939v3.298h-1.6v-.45c-.449.38-.879.53-1.429.53-1.05,0-1.779-.64-1.779-1.559Zm2.279.49c.34,0,.649-.09.929-.26v-.66c-.3-.07-.589-.11-.889-.11-.53,0-.83.18-.83.51s.29.52.79.52Z"></path>
    <path class="uuid-947c1b64-500d-49b6-85d0-6bc82c9fbd02" d="m349.356,66.755h1.619v.839c.399-.6.959-.919,1.629-.919.999,0,1.709.73,1.709,1.759v3.478h-1.619v-3.008c0-.58-.34-.959-.859-.959-.35,0-.63.14-.859.43v3.538h-1.619v-5.157Z"></path>
    <path class="uuid-947c1b64-500d-49b6-85d0-6bc82c9fbd02" d="m355.307,69.324c0-1.449,1.06-2.599,2.399-2.599.539,0,1.029.22,1.379.62v-2.549l1.619-.25v7.366h-1.6v-.669c-.34.43-.909.699-1.519.699-1.27,0-2.279-1.169-2.279-2.618Zm3.778.869v-1.739c-.25-.26-.59-.4-.96-.4-.709,0-1.229.54-1.229,1.279,0,.729.529,1.27,1.229,1.27.391,0,.71-.14.96-.41Z"></path>
    <path class="uuid-947c1b64-500d-49b6-85d0-6bc82c9fbd02" d="m361.727,70.433c0-.95.739-1.5,2.009-1.5.37,0,.74.07,1.199.24v-.42c0-.5-.329-.75-1.02-.75-.39,0-.849.11-1.449.36l-.56-1.129c.85-.38,1.609-.56,2.369-.56,1.429,0,2.259.71,2.259,1.939v3.298h-1.6v-.45c-.449.38-.879.53-1.429.53-1.05,0-1.779-.64-1.779-1.559Zm2.279.49c.34,0,.649-.09.929-.26v-.66c-.3-.07-.589-.11-.889-.11-.53,0-.83.18-.83.51s.29.52.79.52Z"></path>
    <path class="uuid-947c1b64-500d-49b6-85d0-6bc82c9fbd02" d="m367.757,66.755h1.619v1.169c.329-.859.789-1.27,1.399-1.27.229.01.34.03.539.13v1.389c-.199-.1-.479-.16-.76-.16-.479,0-.919.25-1.179.64v3.258h-1.619v-5.157Z"></path>
    <path class="uuid-947c1b64-500d-49b6-85d0-6bc82c9fbd02" d="m371.796,69.324c0-1.449,1.06-2.599,2.399-2.599.539,0,1.029.22,1.379.62v-2.549l1.619-.25v7.366h-1.6v-.669c-.34.43-.909.699-1.519.699-1.27,0-2.279-1.169-2.279-2.618Zm3.778.869v-1.739c-.25-.26-.59-.4-.96-.4-.709,0-1.229.54-1.229,1.279,0,.729.529,1.27,1.229,1.27.391,0,.71-.14.96-.41Z"></path>
    <path class="uuid-947c1b64-500d-49b6-85d0-6bc82c9fbd02" d="m380.376,69.344c0-1.509,1.16-2.669,2.669-2.669.85,0,1.629.34,2.148.95l-.989.989c-.33-.39-.659-.56-1.1-.56-.64,0-1.119.55-1.119,1.29s.479,1.289,1.119,1.289c.44,0,.77-.17,1.1-.56l.989.989c-.52.61-1.299.95-2.148.95-1.509,0-2.669-1.16-2.669-2.668Z"></path>
    <path class="uuid-947c1b64-500d-49b6-85d0-6bc82c9fbd02" d="m385.615,69.344c0-1.52,1.16-2.669,2.688-2.669s2.688,1.149,2.688,2.669-1.159,2.668-2.688,2.668-2.688-1.149-2.688-2.668Zm3.798,0c0-.77-.459-1.319-1.109-1.319s-1.109.549-1.109,1.319.46,1.319,1.109,1.319,1.109-.549,1.109-1.319Z"></path>
    <path class="uuid-947c1b64-500d-49b6-85d0-6bc82c9fbd02" d="m392.026,66.755h1.619v.82c.38-.59.899-.9,1.529-.9.669,0,1.199.37,1.449.959.399-.62.979-.959,1.688-.959.949,0,1.619.75,1.619,1.809v3.428h-1.619v-3.108c0-.52-.31-.859-.77-.859-.3,0-.54.12-.749.39v3.578h-1.619v-3.108c0-.52-.311-.859-.77-.859-.3,0-.55.13-.76.4v3.568h-1.619v-5.157Z"></path>
    <path class="uuid-947c1b64-500d-49b6-85d0-6bc82c9fbd02" d="m401.156,66.755h1.599v.72c.34-.46.91-.75,1.529-.75,1.27,0,2.279,1.169,2.279,2.619s-1.06,2.598-2.399,2.598c-.56,0-1.049-.209-1.389-.6v2.659h-1.619v-7.246Zm3.817,2.579c0-.729-.529-1.269-1.229-1.269-.399,0-.709.14-.969.419v1.719c.25.26.59.41.969.41.71,0,1.229-.54,1.229-1.279Z"></path>
    <path class="uuid-947c1b64-500d-49b6-85d0-6bc82c9fbd02" d="m407.556,70.233v-3.478h1.619v3.008c0,.58.34.959.859.959.35,0,.63-.14.859-.43v-3.538h1.619v5.157h-1.619v-.839c-.399.6-.959.919-1.629.919-1,0-1.709-.729-1.709-1.759Z"></path>
    <path class="uuid-947c1b64-500d-49b6-85d0-6bc82c9fbd02" d="m414.456,70.353v-2.349h-1v-1.25h1v-1.429l1.619-.33v1.759h1.379v1.25h-1.379v2.029c0,.459.18.62.68.62.189,0,.34-.02.659-.11v1.309c-.3.09-.779.16-1.109.16-1.22,0-1.849-.56-1.849-1.659Z"></path>
    <path class="uuid-947c1b64-500d-49b6-85d0-6bc82c9fbd02" d="m418.075,69.344c0-1.509,1.12-2.669,2.599-2.669,1.489,0,2.539,1.129,2.539,2.729v.35h-3.548c.149.58.619.969,1.209.969.43,0,.79-.15,1.02-.43l1.069.89c-.67.589-1.299.83-2.169.83-1.52,0-2.719-1.169-2.719-2.668Zm3.639-.51c-.141-.55-.53-.9-1.05-.9-.51,0-.869.33-.999.9h2.049Z"></path>
    <path class="uuid-947c1b64-500d-49b6-85d0-6bc82c9fbd02" d="m426.376,66.755h1.619v.839c.399-.6.959-.919,1.629-.919.999,0,1.709.73,1.709,1.759v3.478h-1.619v-3.008c0-.58-.34-.959-.859-.959-.35,0-.63.14-.859.43v3.538h-1.619v-5.157Z"></path>
    <path class="uuid-947c1b64-500d-49b6-85d0-6bc82c9fbd02" d="m432.325,69.344c0-1.52,1.16-2.669,2.688-2.669s2.688,1.149,2.688,2.669-1.159,2.668-2.688,2.668-2.688-1.149-2.688-2.668Zm3.798,0c0-.77-.459-1.319-1.109-1.319s-1.109.549-1.109,1.319.46,1.319,1.109,1.319,1.109-.549,1.109-1.319Z"></path>
    <path class="uuid-947c1b64-500d-49b6-85d0-6bc82c9fbd02" d="m438.506,69.324c0-1.449,1.06-2.599,2.399-2.599.539,0,1.029.22,1.379.62v-2.549l1.619-.25v7.366h-1.6v-.669c-.34.43-.909.699-1.519.699-1.27,0-2.279-1.169-2.279-2.618Zm3.778.869v-1.739c-.25-.26-.59-.4-.96-.4-.709,0-1.229.54-1.229,1.279,0,.729.529,1.27,1.229,1.27.391,0,.71-.14.96-.41Z"></path>
    <path class="uuid-947c1b64-500d-49b6-85d0-6bc82c9fbd02" d="m444.936,69.344c0-1.509,1.12-2.669,2.599-2.669,1.489,0,2.539,1.129,2.539,2.729v.35h-3.548c.149.58.619.969,1.209.969.43,0,.79-.15,1.02-.43l1.069.89c-.67.589-1.299.83-2.169.83-1.519,0-2.719-1.169-2.719-2.668Zm3.639-.51c-.141-.55-.53-.9-1.05-.9-.51,0-.869.33-.999.9h2.049Z"></path>
  </g>
  <g>
    <path class="uuid-947c1b64-500d-49b6-85d0-6bc82c9fbd02" d="m390.173,119.673h1.619v.82c.38-.59.899-.9,1.529-.9.669,0,1.199.37,1.449.959.399-.62.979-.959,1.688-.959.949,0,1.619.75,1.619,1.809v3.428h-1.619v-3.108c0-.52-.31-.859-.77-.859-.3,0-.54.12-.749.39v3.578h-1.619v-3.108c0-.52-.311-.859-.77-.859-.3,0-.55.13-.76.4v3.568h-1.619v-5.157Z"></path>
    <path class="uuid-947c1b64-500d-49b6-85d0-6bc82c9fbd02" d="m399.303,117.714l1.619-.25v7.366h-1.619v-7.116Z"></path>
    <path class="uuid-947c1b64-500d-49b6-85d0-6bc82c9fbd02" d="m402.062,121.292h3.678v1.349h-3.678v-1.349Z"></path>
    <path class="uuid-947c1b64-500d-49b6-85d0-6bc82c9fbd02" d="m406.752,122.242c0-1.449,1.06-2.599,2.399-2.599.539,0,1.029.22,1.379.62v-2.549l1.619-.25v7.366h-1.6v-.669c-.34.43-.909.699-1.519.699-1.27,0-2.279-1.169-2.279-2.618Zm3.778.869v-1.739c-.25-.26-.59-.4-.96-.4-.709,0-1.229.54-1.229,1.279,0,.729.529,1.27,1.229,1.27.391,0,.71-.14.96-.41Z"></path>
    <path class="uuid-947c1b64-500d-49b6-85d0-6bc82c9fbd02" d="m413.172,123.352c0-.95.739-1.5,2.009-1.5.37,0,.74.07,1.199.24v-.42c0-.5-.329-.75-1.02-.75-.39,0-.849.11-1.449.36l-.56-1.129c.85-.38,1.609-.56,2.369-.56,1.429,0,2.259.71,2.259,1.939v3.298h-1.6v-.45c-.449.38-.879.53-1.429.53-1.05,0-1.779-.64-1.779-1.559Zm2.279.49c.34,0,.649-.09.929-.26v-.66c-.3-.07-.589-.11-.889-.11-.53,0-.83.18-.83.51s.29.52.79.52Z"></path>
    <path class="uuid-947c1b64-500d-49b6-85d0-6bc82c9fbd02" d="m419.732,123.271v-2.349h-1v-1.25h1v-1.429l1.619-.33v1.759h1.379v1.25h-1.379v2.029c0,.459.18.62.68.62.189,0,.34-.02.659-.11v1.309c-.3.09-.779.16-1.109.16-1.22,0-1.849-.56-1.849-1.659Z"></path>
    <path class="uuid-947c1b64-500d-49b6-85d0-6bc82c9fbd02" d="m423.393,123.352c0-.95.739-1.5,2.009-1.5.37,0,.74.07,1.199.24v-.42c0-.5-.329-.75-1.02-.75-.39,0-.849.11-1.449.36l-.56-1.129c.85-.38,1.609-.56,2.369-.56,1.429,0,2.259.71,2.259,1.939v3.298h-1.6v-.45c-.449.38-.879.53-1.429.53-1.05,0-1.779-.64-1.779-1.559Zm2.279.49c.34,0,.649-.09.929-.26v-.66c-.3-.07-.589-.11-.889-.11-.53,0-.83.18-.83.51s.29.52.79.52Z"></path>
    <path class="uuid-947c1b64-500d-49b6-85d0-6bc82c9fbd02" d="m429.422,117.714l1.619-.25v2.868c.34-.42.899-.689,1.509-.689,1.27,0,2.279,1.169,2.279,2.619s-1.06,2.598-2.399,2.598c-.56,0-1.06-.24-1.409-.66v.63h-1.599v-7.116Zm3.817,4.538c0-.729-.529-1.269-1.229-1.269-.399,0-.709.14-.969.419v1.719c.25.26.59.41.969.41.71,0,1.229-.54,1.229-1.279Z"></path>
    <path class="uuid-947c1b64-500d-49b6-85d0-6bc82c9fbd02" d="m435.672,123.352c0-.95.739-1.5,2.009-1.5.37,0,.74.07,1.199.24v-.42c0-.5-.329-.75-1.02-.75-.39,0-.849.11-1.449.36l-.56-1.129c.85-.38,1.609-.56,2.369-.56,1.429,0,2.259.71,2.259,1.939v3.298h-1.6v-.45c-.449.38-.879.53-1.429.53-1.05,0-1.779-.64-1.779-1.559Zm2.279.49c.34,0,.649-.09.929-.26v-.66c-.3-.07-.589-.11-.889-.11-.53,0-.83.18-.83.51s.29.52.79.52Z"></path>
    <path class="uuid-947c1b64-500d-49b6-85d0-6bc82c9fbd02" d="m441.282,124.301l.71-1.079c.739.39,1.159.52,1.658.52.46,0,.74-.16.74-.42,0-.2-.15-.31-.479-.37l-.99-.18c-.999-.189-1.519-.699-1.519-1.499,0-1.049.81-1.679,2.158-1.679.72,0,1.43.2,2.1.59l-.74,1.029c-.52-.3-.999-.439-1.479-.439-.391,0-.62.13-.62.35,0,.21.13.3.529.37l.97.18c1.02.19,1.55.709,1.55,1.489,0,1.009-.95,1.769-2.22,1.769-.939,0-1.769-.22-2.368-.63Z"></path>
    <path class="uuid-947c1b64-500d-49b6-85d0-6bc82c9fbd02" d="m446.632,122.262c0-1.509,1.12-2.669,2.599-2.669,1.489,0,2.539,1.129,2.539,2.729v.35h-3.548c.149.58.619.969,1.209.969.43,0,.79-.15,1.02-.43l1.069.89c-.67.589-1.299.83-2.169.83-1.52,0-2.719-1.169-2.719-2.668Zm3.639-.51c-.141-.55-.53-.9-1.05-.9-.51,0-.869.33-.999.9h2.049Z"></path>
  </g>
  <g>
    <path class="uuid-947c1b64-500d-49b6-85d0-6bc82c9fbd02" d="m390.173,174.567h1.619v.82c.38-.59.899-.9,1.529-.9.669,0,1.199.37,1.449.959.399-.62.979-.959,1.688-.959.949,0,1.619.75,1.619,1.809v3.428h-1.619v-3.108c0-.52-.31-.859-.77-.859-.3,0-.54.12-.749.39v3.578h-1.619v-3.108c0-.52-.311-.859-.77-.859-.3,0-.55.13-.76.4v3.568h-1.619v-5.157Z"></path>
    <path class="uuid-947c1b64-500d-49b6-85d0-6bc82c9fbd02" d="m399.303,172.608l1.619-.25v7.366h-1.619v-7.116Z"></path>
    <path class="uuid-947c1b64-500d-49b6-85d0-6bc82c9fbd02" d="m402.062,176.187h3.678v1.349h-3.678v-1.349Z"></path>
    <path class="uuid-947c1b64-500d-49b6-85d0-6bc82c9fbd02" d="m406.752,177.136c0-1.449,1.06-2.599,2.399-2.599.539,0,1.029.22,1.379.62v-2.549l1.619-.25v7.366h-1.6v-.669c-.34.43-.909.699-1.519.699-1.27,0-2.279-1.169-2.279-2.618Zm3.778.869v-1.739c-.25-.26-.59-.4-.96-.4-.709,0-1.229.54-1.229,1.279,0,.729.529,1.27,1.229,1.27.391,0,.71-.14.96-.41Z"></path>
    <path class="uuid-947c1b64-500d-49b6-85d0-6bc82c9fbd02" d="m413.172,178.246c0-.95.739-1.5,2.009-1.5.37,0,.74.07,1.199.24v-.42c0-.5-.329-.75-1.02-.75-.39,0-.849.11-1.449.36l-.56-1.129c.85-.38,1.609-.56,2.369-.56,1.429,0,2.259.71,2.259,1.939v3.298h-1.6v-.45c-.449.38-.879.53-1.429.53-1.05,0-1.779-.64-1.779-1.559Zm2.279.49c.34,0,.649-.09.929-.26v-.66c-.3-.07-.589-.11-.889-.11-.53,0-.83.18-.83.51s.29.52.79.52Z"></path>
    <path class="uuid-947c1b64-500d-49b6-85d0-6bc82c9fbd02" d="m419.732,178.166v-2.349h-1v-1.25h1v-1.429l1.619-.33v1.759h1.379v1.25h-1.379v2.029c0,.459.18.62.68.62.189,0,.34-.02.659-.11v1.309c-.3.09-.779.16-1.109.16-1.22,0-1.849-.56-1.849-1.659Z"></path>
    <path class="uuid-947c1b64-500d-49b6-85d0-6bc82c9fbd02" d="m423.393,178.246c0-.95.739-1.5,2.009-1.5.37,0,.74.07,1.199.24v-.42c0-.5-.329-.75-1.02-.75-.39,0-.849.11-1.449.36l-.56-1.129c.85-.38,1.609-.56,2.369-.56,1.429,0,2.259.71,2.259,1.939v3.298h-1.6v-.45c-.449.38-.879.53-1.429.53-1.05,0-1.779-.64-1.779-1.559Zm2.279.49c.34,0,.649-.09.929-.26v-.66c-.3-.07-.589-.11-.889-.11-.53,0-.83.18-.83.51s.29.52.79.52Z"></path>
    <path class="uuid-947c1b64-500d-49b6-85d0-6bc82c9fbd02" d="m429.422,172.608l1.619-.25v2.868c.34-.42.899-.689,1.509-.689,1.27,0,2.279,1.169,2.279,2.619s-1.06,2.598-2.399,2.598c-.56,0-1.06-.24-1.409-.66v.63h-1.599v-7.116Zm3.817,4.538c0-.729-.529-1.269-1.229-1.269-.399,0-.709.14-.969.419v1.719c.25.26.59.41.969.41.71,0,1.229-.54,1.229-1.279Z"></path>
    <path class="uuid-947c1b64-500d-49b6-85d0-6bc82c9fbd02" d="m435.672,178.246c0-.95.739-1.5,2.009-1.5.37,0,.74.07,1.199.24v-.42c0-.5-.329-.75-1.02-.75-.39,0-.849.11-1.449.36l-.56-1.129c.85-.38,1.609-.56,2.369-.56,1.429,0,2.259.71,2.259,1.939v3.298h-1.6v-.45c-.449.38-.879.53-1.429.53-1.05,0-1.779-.64-1.779-1.559Zm2.279.49c.34,0,.649-.09.929-.26v-.66c-.3-.07-.589-.11-.889-.11-.53,0-.83.18-.83.51s.29.52.79.52Z"></path>
    <path class="uuid-947c1b64-500d-49b6-85d0-6bc82c9fbd02" d="m441.282,179.195l.71-1.079c.739.39,1.159.52,1.658.52.46,0,.74-.16.74-.42,0-.2-.15-.31-.479-.37l-.99-.18c-.999-.189-1.519-.699-1.519-1.499,0-1.049.81-1.679,2.158-1.679.72,0,1.43.2,2.1.59l-.74,1.029c-.52-.3-.999-.439-1.479-.439-.391,0-.62.13-.62.35,0,.21.13.3.529.37l.97.18c1.02.19,1.55.709,1.55,1.489,0,1.009-.95,1.769-2.22,1.769-.939,0-1.769-.22-2.368-.63Z"></path>
    <path class="uuid-947c1b64-500d-49b6-85d0-6bc82c9fbd02" d="m446.632,177.156c0-1.509,1.12-2.669,2.599-2.669,1.489,0,2.539,1.129,2.539,2.729v.35h-3.548c.149.58.619.969,1.209.969.43,0,.79-.15,1.02-.43l1.069.89c-.67.589-1.299.83-2.169.83-1.52,0-2.719-1.169-2.719-2.668Zm3.639-.51c-.141-.55-.53-.9-1.05-.9-.51,0-.869.33-.999.9h2.049Z"></path>
  </g>
</svg>