<svg id="uuid-46ddb148-b4f9-448f-a165-0513488e4f84" data-name="Layer 1" xmlns="http://www.w3.org/2000/svg" width="595.276" height="101.455" viewBox="0 0 595.276 101.455">
  <defs>
    <style>
      .uuid-709c0e18-9f59-40f2-9e16-c323f38644a5 {
        fill: none;
        stroke: #000;
        stroke-linecap: round;
        stroke-linejoin: round;
      }

      .uuid-064e7e86-9871-40bf-aec9-898a90b09cde {
        fill: #e00;
      }

      .uuid-c5ce4fb1-92bd-4d51-9d12-a34862cc3ed0, .uuid-f0f3b5f3-eb62-4e7b-9aae-249773ea2716 {
        fill: #fff;
      }

      .uuid-51293613-a5d8-45f3-9bd8-633ed7ae0932 {
        fill: #151515;
      }

      .uuid-f0f3b5f3-eb62-4e7b-9aae-249773ea2716 {
        stroke: #b4b4b4;
      }

      .uuid-f0f3b5f3-eb62-4e7b-9aae-249773ea2716, .uuid-173ee2c0-7f3f-4474-b21a-63a790850923 {
        stroke-miterlimit: 10;
      }

      .uuid-173ee2c0-7f3f-4474-b21a-63a790850923 {
        stroke: #fff;
        stroke-width: .25px;
      }
    </style>
  </defs>
  <rect class="uuid-f0f3b5f3-eb62-4e7b-9aae-249773ea2716" x="224.757" y="30.484" width="137.755" height="46.169"></rect>
  <g>
    <line class="uuid-c5ce4fb1-92bd-4d51-9d12-a34862cc3ed0" x1="442.818" y1="53.568" x2="362.512" y2="53.568"></line>
    <g>
      <line class="uuid-709c0e18-9f59-40f2-9e16-c323f38644a5" x1="437.436" y1="53.568" x2="362.512" y2="53.568"></line>
      <polygon points="436.342 49.828 442.818 53.568 436.342 57.308 436.342 49.828"></polygon>
    </g>
  </g>
  <g>
    <line class="uuid-c5ce4fb1-92bd-4d51-9d12-a34862cc3ed0" x1="152.992" y1="42.289" x2="224.757" y2="42.289"></line>
    <g>
      <line class="uuid-709c0e18-9f59-40f2-9e16-c323f38644a5" x1="158.374" y1="42.289" x2="224.757" y2="42.289"></line>
      <polygon points="159.468 46.029 152.992 42.289 159.468 38.549 159.468 46.029"></polygon>
    </g>
  </g>
  <g>
    <line class="uuid-c5ce4fb1-92bd-4d51-9d12-a34862cc3ed0" x1="152.992" y1="62.952" x2="224.757" y2="62.952"></line>
    <g>
      <line class="uuid-709c0e18-9f59-40f2-9e16-c323f38644a5" x1="152.992" y1="62.952" x2="219.375" y2="62.952"></line>
      <polygon points="218.28 66.692 224.757 62.952 218.28 59.213 218.28 66.692"></polygon>
    </g>
  </g>
  <rect class="uuid-f0f3b5f3-eb62-4e7b-9aae-249773ea2716" x="14.115" y="30.457" width="137.755" height="46.169"></rect>
  <g>
    <path class="uuid-51293613-a5d8-45f3-9bd8-633ed7ae0932" d="m65.116,43.963h-2.625v-1.167h6.595v1.167h-2.625v6.684h-1.346v-6.684Z"></path>
    <path class="uuid-51293613-a5d8-45f3-9bd8-633ed7ae0932" d="m69.892,47.843c0-1.66,1.211-2.905,2.826-2.905,1.604,0,2.815,1.245,2.815,2.905s-1.211,2.905-2.815,2.905c-1.615,0-2.826-1.245-2.826-2.905Zm4.396,0c0-1.043-.662-1.828-1.57-1.828-.92,0-1.582.785-1.582,1.828,0,1.054.662,1.828,1.582,1.828.908,0,1.57-.774,1.57-1.828Z"></path>
    <path class="uuid-51293613-a5d8-45f3-9bd8-633ed7ae0932" d="m76.843,42.583l1.267-.213v5.047l2.333-2.389h1.458l-2.591,2.602,2.725,3.017h-1.615l-2.311-2.591v2.591h-1.267v-8.064Z"></path>
    <path class="uuid-51293613-a5d8-45f3-9bd8-633ed7ae0932" d="m82.651,47.843c0-1.649,1.188-2.905,2.736-2.905,1.537,0,2.658,1.222,2.658,2.905v.303h-4.149c.124.908.808,1.57,1.682,1.57.527,0,1.021-.202,1.335-.527l.83.751c-.684.572-1.368.819-2.22.819-1.615,0-2.871-1.268-2.871-2.916Zm4.194-.482c-.135-.819-.718-1.391-1.469-1.391-.763,0-1.323.55-1.469,1.391h2.938Z"></path>
    <path class="uuid-51293613-a5d8-45f3-9bd8-633ed7ae0932" d="m89.333,45.028h1.267v.919c.426-.662,1.043-1.009,1.772-1.009,1.155,0,1.963.819,1.963,2.007v3.701h-1.279v-3.342c0-.818-.482-1.346-1.233-1.346-.516,0-.931.235-1.223.684v4.004h-1.267v-5.619Z"></path>
    <path class="uuid-51293613-a5d8-45f3-9bd8-633ed7ae0932" d="m96.016,42.796h3.488c1.559,0,2.624.964,2.624,2.377,0,1.021-.605,1.817-1.559,2.153l1.66,3.32h-1.492l-1.514-3.14h-1.861v3.14h-1.346v-7.851Zm3.365,3.634c.841,0,1.391-.494,1.391-1.245,0-.763-.549-1.256-1.391-1.256h-2.019v2.501h2.019Z"></path>
    <path class="uuid-51293613-a5d8-45f3-9bd8-633ed7ae0932" d="m103.136,47.843c0-1.649,1.188-2.905,2.736-2.905,1.537,0,2.658,1.222,2.658,2.905v.303h-4.149c.124.908.808,1.57,1.682,1.57.527,0,1.021-.202,1.335-.527l.83.751c-.684.572-1.368.819-2.22.819-1.615,0-2.871-1.268-2.871-2.916Zm4.194-.482c-.135-.819-.718-1.391-1.469-1.391-.763,0-1.323.55-1.469,1.391h2.938Z"></path>
    <path class="uuid-51293613-a5d8-45f3-9bd8-633ed7ae0932" d="m113.822,49.918c-.404.505-1.021.785-1.728.785-1.424,0-2.534-1.268-2.534-2.86,0-1.604,1.155-2.86,2.624-2.86.65,0,1.223.258,1.649.74v-.695h1.256v7.974h-1.267v-3.084Zm0-.897v-2.367c-.325-.381-.808-.605-1.335-.605-.964,0-1.682.763-1.682,1.794,0,1.021.718,1.794,1.682,1.794.55,0,1.01-.213,1.335-.617Z"></path>
    <path class="uuid-51293613-a5d8-45f3-9bd8-633ed7ae0932" d="m116.613,48.729v-3.701h1.278v3.331c0,.83.482,1.357,1.234,1.357.505,0,.931-.225,1.223-.673v-4.015h1.267v5.619h-1.267v-.908c-.426.662-1.032.998-1.784.998-1.144,0-1.951-.83-1.951-2.008Z"></path>
    <path class="uuid-51293613-a5d8-45f3-9bd8-633ed7ae0932" d="m122.925,47.843c0-1.649,1.188-2.905,2.736-2.905,1.537,0,2.658,1.222,2.658,2.905v.303h-4.15c.124.908.808,1.57,1.682,1.57.527,0,1.021-.202,1.335-.527l.83.751c-.684.572-1.368.819-2.22.819-1.615,0-2.871-1.268-2.871-2.916Zm4.194-.482c-.135-.819-.718-1.391-1.469-1.391-.763,0-1.323.55-1.469,1.391h2.938Z"></path>
    <path class="uuid-51293613-a5d8-45f3-9bd8-633ed7ae0932" d="m129.103,49.997l.595-.841c.74.46,1.233.639,1.806.639.673,0,1.132-.314,1.132-.763,0-.348-.235-.527-.785-.639l-.987-.168c-1.099-.202-1.626-.707-1.626-1.548,0-1.054.863-1.738,2.176-1.738.785,0,1.492.224,2.209.673l-.595.841c-.572-.37-1.122-.539-1.693-.539-.583,0-.964.247-.964.65,0,.359.202.516.785.617l.998.19c1.122.202,1.66.718,1.66,1.559,0,1.032-.987,1.828-2.299,1.828-.964,0-1.816-.27-2.411-.763Z"></path>
    <path class="uuid-51293613-a5d8-45f3-9bd8-633ed7ae0932" d="m135.673,49.189v-3.151h-1.122v-1.009h1.122v-1.548l1.267-.269v1.817h1.559v1.009h-1.559v2.871c0,.549.213.763.785.763.247,0,.426-.034.763-.135v1.065c-.325.101-.751.157-1.088.157-1.133,0-1.727-.539-1.727-1.57Z"></path>
    <path class="uuid-51293613-a5d8-45f3-9bd8-633ed7ae0932" d="m65.363,54.796h1.559l3.039,7.851h-1.447l-.807-2.198h-3.219l-.808,2.198h-1.402l3.084-7.851Zm1.974,4.598l-1.234-3.32-1.222,3.32h2.456Z"></path>
    <path class="uuid-51293613-a5d8-45f3-9bd8-633ed7ae0932" d="m70.968,54.796h3.511c1.592,0,2.624.998,2.624,2.445,0,1.413-1.032,2.411-2.624,2.411h-2.165v2.995h-1.346v-7.851Zm3.297,3.757c.954,0,1.48-.527,1.48-1.323,0-.774-.527-1.301-1.469-1.301h-1.962v2.624h1.951Z"></path>
    <path class="uuid-51293613-a5d8-45f3-9bd8-633ed7ae0932" d="m78.525,54.796h1.346v7.851h-1.346v-7.851Z"></path>
  </g>
  <g>
    <path class="uuid-51293613-a5d8-45f3-9bd8-633ed7ae0932" d="m277.091,48.823h3.511c1.592,0,2.624.998,2.624,2.445,0,1.413-1.032,2.411-2.624,2.411h-2.165v2.995h-1.346v-7.851Zm3.297,3.757c.954,0,1.48-.527,1.48-1.323,0-.774-.527-1.301-1.469-1.301h-1.962v2.624h1.951Z"></path>
    <path class="uuid-51293613-a5d8-45f3-9bd8-633ed7ae0932" d="m284.29,53.87c0-1.66,1.211-2.905,2.826-2.905,1.604,0,2.815,1.245,2.815,2.905s-1.211,2.905-2.815,2.905c-1.615,0-2.826-1.245-2.826-2.905Zm4.396,0c0-1.043-.662-1.828-1.57-1.828-.92,0-1.582.785-1.582,1.828,0,1.054.662,1.828,1.582,1.828.908,0,1.57-.774,1.57-1.828Z"></path>
    <path class="uuid-51293613-a5d8-45f3-9bd8-633ed7ae0932" d="m290.983,53.87c0-1.604,1.155-2.86,2.624-2.86.639,0,1.223.258,1.638.729v-3.107l1.268-.224v8.266h-1.257v-.74c-.403.505-1.031.796-1.738.796-1.424,0-2.534-1.268-2.534-2.86Zm4.262,1.178v-2.367c-.325-.381-.808-.605-1.335-.605-.964,0-1.682.763-1.682,1.794,0,1.021.718,1.794,1.682,1.794.55,0,1.01-.213,1.335-.617Z"></path>
  </g>
  <rect class="uuid-f0f3b5f3-eb62-4e7b-9aae-249773ea2716" x="443.405" y="30.484" width="137.755" height="46.169"></rect>
  <g>
    <path class="uuid-51293613-a5d8-45f3-9bd8-633ed7ae0932" d="m493.982,42.656h1.346v3.578l3.409-3.578h1.648l-3.746,3.779,3.881,4.071h-1.783l-3.409-3.667v3.667h-1.346v-7.851Z"></path>
    <path class="uuid-51293613-a5d8-45f3-9bd8-633ed7ae0932" d="m501.271,48.589v-3.701h1.278v3.331c0,.83.482,1.357,1.233,1.357.505,0,.932-.225,1.223-.673v-4.015h1.268v5.619h-1.268v-.908c-.426.662-1.031.998-1.783.998-1.144,0-1.951-.83-1.951-2.008Z"></path>
    <path class="uuid-51293613-a5d8-45f3-9bd8-633ed7ae0932" d="m507.841,42.499l1.268-.213v3.354c.393-.494,1.021-.796,1.727-.796,1.425,0,2.535,1.267,2.535,2.86,0,1.604-1.145,2.86-2.613,2.86-.662,0-1.245-.269-1.671-.774v.718h-1.245v-8.008Zm4.284,5.204c0-1.021-.718-1.794-1.671-1.794-.561,0-1.021.224-1.346.628v2.344c.325.392.808.628,1.346.628.964,0,1.671-.774,1.671-1.806Z"></path>
    <path class="uuid-51293613-a5d8-45f3-9bd8-633ed7ae0932" d="m514.434,47.703c0-1.649,1.188-2.905,2.736-2.905,1.536,0,2.658,1.222,2.658,2.905v.303h-4.149c.123.908.807,1.57,1.682,1.57.527,0,1.021-.202,1.335-.527l.83.751c-.685.572-1.368.819-2.221.819-1.615,0-2.871-1.268-2.871-2.916Zm4.194-.482c-.135-.819-.718-1.391-1.47-1.391-.762,0-1.323.55-1.469,1.391h2.938Z"></path>
    <path class="uuid-51293613-a5d8-45f3-9bd8-633ed7ae0932" d="m521.115,44.888h1.268v1.211c.313-.852.852-1.312,1.547-1.312.214.011.359.034.55.112v1.11c-.201-.079-.46-.135-.695-.135-.616,0-1.121.348-1.401.931v3.701h-1.268v-5.619Z"></path>
    <path class="uuid-51293613-a5d8-45f3-9bd8-633ed7ae0932" d="m525.521,44.888h1.268v.919c.426-.662,1.043-1.009,1.771-1.009,1.155,0,1.963.819,1.963,2.007v3.701h-1.278v-3.342c0-.818-.482-1.346-1.234-1.346-.516,0-.931.235-1.222.684v4.004h-1.268v-5.619Z"></path>
    <path class="uuid-51293613-a5d8-45f3-9bd8-633ed7ae0932" d="m531.789,47.703c0-1.649,1.188-2.905,2.736-2.905,1.536,0,2.658,1.222,2.658,2.905v.303h-4.149c.123.908.807,1.57,1.682,1.57.527,0,1.021-.202,1.335-.527l.83.751c-.685.572-1.368.819-2.221.819-1.615,0-2.871-1.268-2.871-2.916Zm4.194-.482c-.135-.819-.718-1.391-1.47-1.391-.762,0-1.323.55-1.469,1.391h2.938Z"></path>
    <path class="uuid-51293613-a5d8-45f3-9bd8-633ed7ae0932" d="m539.167,49.049v-3.151h-1.121v-1.009h1.121v-1.548l1.268-.269v1.817h1.559v1.009h-1.559v2.871c0,.549.213.763.785.763.246,0,.426-.034.763-.135v1.065c-.326.101-.752.157-1.088.157-1.133,0-1.728-.539-1.728-1.57Z"></path>
    <path class="uuid-51293613-a5d8-45f3-9bd8-633ed7ae0932" d="m542.855,47.703c0-1.649,1.188-2.905,2.736-2.905,1.536,0,2.658,1.222,2.658,2.905v.303h-4.149c.123.908.807,1.57,1.682,1.57.527,0,1.021-.202,1.335-.527l.83.751c-.685.572-1.368.819-2.221.819-1.615,0-2.871-1.268-2.871-2.916Zm4.194-.482c-.135-.819-.718-1.391-1.47-1.391-.762,0-1.323.55-1.469,1.391h2.938Z"></path>
    <path class="uuid-51293613-a5d8-45f3-9bd8-633ed7ae0932" d="m549.033,49.857l.595-.841c.74.46,1.233.639,1.806.639.673,0,1.133-.314,1.133-.763,0-.348-.235-.527-.785-.639l-.987-.168c-1.099-.202-1.626-.707-1.626-1.548,0-1.054.863-1.738,2.176-1.738.785,0,1.491.224,2.209.673l-.594.841c-.572-.37-1.122-.539-1.694-.539-.583,0-.964.247-.964.65,0,.359.202.516.785.617l.998.19c1.121.202,1.66.718,1.66,1.559,0,1.032-.987,1.828-2.3,1.828-.964,0-1.816-.27-2.411-.763Z"></path>
    <path class="uuid-51293613-a5d8-45f3-9bd8-633ed7ae0932" d="m496.191,54.99h1.559l3.04,7.851h-1.447l-.808-2.198h-3.219l-.808,2.198h-1.401l3.084-7.851Zm1.974,4.598l-1.233-3.32-1.223,3.32h2.456Z"></path>
    <path class="uuid-51293613-a5d8-45f3-9bd8-633ed7ae0932" d="m501.797,54.99h3.51c1.593,0,2.625.998,2.625,2.445,0,1.413-1.032,2.411-2.625,2.411h-2.164v2.995h-1.346v-7.851Zm3.297,3.757c.953,0,1.48-.527,1.48-1.323,0-.774-.527-1.301-1.469-1.301h-1.963v2.624h1.951Z"></path>
    <path class="uuid-51293613-a5d8-45f3-9bd8-633ed7ae0932" d="m509.354,54.99h1.346v7.851h-1.346v-7.851Z"></path>
    <path class="uuid-51293613-a5d8-45f3-9bd8-633ed7ae0932" d="m514.388,62.19l.595-.841c.74.46,1.233.639,1.806.639.673,0,1.133-.314,1.133-.762,0-.348-.235-.527-.785-.64l-.987-.168c-1.099-.202-1.626-.707-1.626-1.548,0-1.054.863-1.738,2.176-1.738.785,0,1.491.224,2.209.673l-.594.841c-.572-.37-1.122-.539-1.693-.539-.584,0-.965.247-.965.65,0,.359.202.516.785.617l.998.19c1.121.202,1.66.718,1.66,1.559,0,1.032-.987,1.828-2.3,1.828-.964,0-1.816-.27-2.411-.763Z"></path>
    <path class="uuid-51293613-a5d8-45f3-9bd8-633ed7ae0932" d="m520.006,60.037c0-1.649,1.188-2.905,2.736-2.905,1.536,0,2.658,1.223,2.658,2.905v.303h-4.149c.123.908.807,1.57,1.682,1.57.527,0,1.021-.202,1.335-.527l.83.751c-.685.572-1.368.819-2.221.819-1.615,0-2.871-1.268-2.871-2.916Zm4.194-.482c-.135-.819-.718-1.391-1.47-1.391-.762,0-1.323.549-1.469,1.391h2.938Z"></path>
    <path class="uuid-51293613-a5d8-45f3-9bd8-633ed7ae0932" d="m526.688,57.222h1.268v1.211c.313-.852.852-1.312,1.547-1.312.214.011.359.034.55.112v1.11c-.201-.079-.46-.135-.695-.135-.616,0-1.121.348-1.401.931v3.701h-1.268v-5.619Z"></path>
    <path class="uuid-51293613-a5d8-45f3-9bd8-633ed7ae0932" d="m530.432,57.222h1.38l1.57,4.082,1.559-4.082h1.323l-2.311,5.619h-1.233l-2.288-5.619Z"></path>
    <path class="uuid-51293613-a5d8-45f3-9bd8-633ed7ae0932" d="m536.913,60.037c0-1.649,1.188-2.905,2.736-2.905,1.536,0,2.658,1.223,2.658,2.905v.303h-4.149c.123.908.807,1.57,1.682,1.57.527,0,1.021-.202,1.335-.527l.83.751c-.685.572-1.368.819-2.221.819-1.615,0-2.871-1.268-2.871-2.916Zm4.194-.482c-.135-.819-.718-1.391-1.47-1.391-.762,0-1.323.549-1.469,1.391h2.938Z"></path>
    <path class="uuid-51293613-a5d8-45f3-9bd8-633ed7ae0932" d="m543.596,57.222h1.268v1.211c.313-.852.852-1.312,1.547-1.312.214.011.359.034.55.112v1.11c-.201-.079-.46-.135-.695-.135-.616,0-1.121.348-1.401.931v3.701h-1.268v-5.619Z"></path>
  </g>
  <g>
    <g>
      <path d="m477.605,42.165h-22.357c-.29-.005-.528.226-.533.516,0,.006,0,.012,0,.017v22.357c-.005.29.226.528.516.533.006,0,.012,0,.017,0h14.618c.294,0,.533-.239.533-.533,0-.294-.239-.533-.533-.533h-14.085v-21.291h21.291v13.225c0,.294.239.533.533.533.294,0,.533-.239.533-.533v-13.758c.005-.29-.226-.528-.516-.533-.006,0-.012,0-.017,0Z"></path>
      <path d="m477.717,59.036l-2.58-.55c-.074-.017-.15-.017-.224,0l-2.58.55c-.247.053-.423.272-.421.525v2.975c0,1.719,1.394,3.113,3.113,3.113s3.113-1.394,3.113-3.113v-2.992c-.006-.246-.181-.456-.421-.507Z"></path>
    </g>
    <path d="m472.446,45.596c-.296.005-.533.246-.533.542.038.297.309.507.606.469.245-.031.438-.224.469-.469,0-.299-.243-.542-.542-.542Z"></path>
    <path d="m474.165,45.596c-.296.005-.533.246-.533.542.038.297.309.507.606.469.245-.031.438-.224.469-.469,0-.299-.243-.542-.542-.542Z"></path>
  </g>
  <g>
    <g>
      <path d="m47.85,42.165h-22.357c-.29-.005-.528.226-.533.516,0,.006,0,.012,0,.017v22.357c-.005.29.226.528.516.533.006,0,.012,0,.017,0h14.618c.294,0,.533-.239.533-.533,0-.294-.239-.533-.533-.533h-14.085v-21.291h21.291v13.225c0,.294.239.533.533.533.294,0,.533-.239.533-.533v-13.758c.005-.29-.226-.528-.516-.533-.006,0-.012,0-.017,0Z"></path>
      <path d="m47.962,59.036l-2.58-.55c-.074-.017-.15-.017-.224,0l-2.58.55c-.247.053-.423.272-.421.525v2.975c0,1.719,1.394,3.113,3.113,3.113s3.113-1.394,3.113-3.113v-2.992c-.006-.246-.181-.456-.421-.507Z"></path>
    </g>
    <path d="m42.691,45.596c-.296.005-.533.246-.533.542.038.297.309.507.606.469.245-.031.438-.224.469-.469,0-.299-.243-.542-.542-.542Z"></path>
    <path d="m44.41,45.596c-.296.005-.533.246-.533.542.038.297.309.507.606.469.245-.031.438-.224.469-.469,0-.299-.243-.542-.542-.542Z"></path>
  </g>
  <g>
    <circle class="uuid-064e7e86-9871-40bf-aec9-898a90b09cde" cx="402.665" cy="36.777" r="8.97"></circle>
    <path class="uuid-c5ce4fb1-92bd-4d51-9d12-a34862cc3ed0" d="m399.622,39.164l1.027-.948c.513.553.918.73,1.678.73.751,0,1.244-.336,1.244-.849,0-.444-.355-.721-.908-.721h-.889v-1.254h.73c.563,0,.898-.286.898-.77,0-.494-.464-.849-1.086-.849-.671,0-1.066.198-1.609.79l-1.036-.938c.651-.75,1.668-1.205,2.705-1.205,1.511,0,2.557.82,2.557,1.995,0,.75-.533,1.353-1.312,1.58.908.178,1.49.74,1.49,1.5,0,1.194-1.155,2.053-2.764,2.053-1.106,0-2.113-.415-2.726-1.115Z"></path>
  </g>
  <g>
    <circle class="uuid-064e7e86-9871-40bf-aec9-898a90b09cde" cx="188.314" cy="27.807" r="8.97"></circle>
    <path class="uuid-c5ce4fb1-92bd-4d51-9d12-a34862cc3ed0" d="m187.868,25.87l-1.362.562v-1.342l1.925-.8h.958v6.911h-1.521v-5.331Z"></path>
  </g>
  <g>
    <circle class="uuid-064e7e86-9871-40bf-aec9-898a90b09cde" cx="188.314" cy="76.626" r="8.97"></circle>
    <path class="uuid-c5ce4fb1-92bd-4d51-9d12-a34862cc3ed0" d="m185.647,78.935l2.922-2.893c.326-.316.464-.612.464-.938,0-.444-.434-.78-1.017-.78-.622,0-1.116.237-1.748.849l-.849-1.037c.79-.75,1.688-1.136,2.646-1.136,1.471,0,2.448.8,2.448,2.004,0,.651-.276,1.205-.898,1.807l-1.994,1.925,2.991-.01v1.293h-4.966v-1.086Z"></path>
  </g>
  <g>
    <path class="uuid-173ee2c0-7f3f-4474-b21a-63a790850923" d="m256.525,49.831s0,0,0,0h0c-.063-.11-.154-.189-.253-.253-.011-.007-.016-.021-.027-.027l-5.813-3.356c-.237-.138-.529-.138-.766,0l-5.812,3.356c-.011.007-.016.02-.027.027-.1.064-.19.144-.253.253h0s0,0,0,0c-.063.11-.087.228-.093.346,0,.013-.01.024-.01.037v6.711c0,.273.146.527.383.663l5.812,3.356c.011.007.025.004.036.01.11.056.227.093.347.093s.237-.037.347-.093c.011-.006.025-.003.036-.01l5.813-3.356c.237-.137.383-.39.383-.663v-6.711c0-.013-.009-.024-.01-.037-.005-.118-.03-.236-.093-.346Zm-6.476-2.089l4.281,2.471-4.281,2.471-4.281-2.471,4.281-2.471Zm-5.046,3.798l4.281,2.471v4.943l-4.281-2.471v-4.943Zm10.093,4.943l-4.281,2.471v-4.943l4.281-2.471v4.943Z"></path>
    <path class="uuid-173ee2c0-7f3f-4474-b21a-63a790850923" d="m250.049,39.526c-7.743,0-14.042,6.299-14.042,14.042s6.3,14.042,14.042,14.042,14.042-6.299,14.042-14.042-6.3-14.042-14.042-14.042Zm0,26.553c-6.898,0-12.51-5.612-12.51-12.51s5.612-12.51,12.51-12.51,12.51,5.612,12.51,12.51-5.612,12.51-12.51,12.51Z"></path>
  </g>
</svg>